<svg viewBox="0 0 38 38" fill="#2A664D" xmlns="http://www.w3.org/2000/svg"><path d="M4.40515 24.0636L13.9308 33.6189L15.5614 31.9882L6.03486 22.432L4.40515 24.0636Z" fill="#2A664D"/><path d="M12.8088 34.742L9.77668 37.7744C9.57887 37.9722 9.33334 38.0276 9.05634 37.9881C4.51999 37.0381 0.973275 33.4908 0.023509 28.9545C-0.134873 28.2262 0.45889 28.1785 3.28522 25.1859L12.8088 34.742Z" fill="#2A664D"/><path d="M37.0505 0.957989C36.4173 0.324748 35.578 0 34.7387 0C32.4001 0 32.0724 1.73707 24.1315 9.25414C23.7296 9.09409 23.3244 9.26805 23.1401 9.61168C18.6637 18.4561 17.7585 18.742 18.5086 19.4927C18.7922 19.7621 19.1822 19.7744 19.4427 19.6352C28.4161 14.7217 29.188 14.9106 28.7537 13.8634C36.4179 5.79794 38.0003 5.60868 38.0003 3.26219C38.001 2.39098 37.6683 1.57517 37.0507 0.957861L37.0505 0.957989Z" fill="#2A664D"/><path d="M15.572 8.02808C15.572 11.0889 13.0909 13.5702 10.03 13.5702C6.96936 13.5702 4.48828 11.0889 4.48828 8.02808C4.48828 4.96723 6.96936 2.48595 10.03 2.48595C13.0909 2.48595 15.572 4.96723 15.572 8.02808Z" fill="#2A664D"/><path d="M29.3312 18.2179L16.6807 30.8704L7.15674 21.3142L19.7844 8.67791C19.9742 8.48803 20.2516 8.40089 20.5127 8.46418L21.8267 8.7412C21.5653 9.16867 19.2933 13.4757 16.9816 17.807C15.8573 19.8893 18.1611 22.1221 20.188 21.0295C23.4182 19.3114 28.873 16.4136 29.2607 16.176L29.5456 17.4981C29.6013 17.7596 29.5221 18.0287 29.3319 18.2185L29.3312 18.2179Z" fill="#2A664D"/></svg>