<svg viewBox="0 0 48 48" fill="currentColor" xmlns="http://www.w3.org/2000/svg"><path d="M38.4762 35.864C38.4776 36.8401 38.2162 37.7989 37.7197 38.6392C37.2233 39.4797 36.5099 40.1711 35.6542 40.6413C34.21 41.4767 32.491 41.6971 30.8829 41.2527C29.2747 40.8083 27.9128 39.7365 27.1026 38.2778L26.2861 36.8123L29.6445 35.1759L30.7058 36.9408C31.119 37.6208 31.8538 38.0395 32.6493 38.0487C33.0485 38.0495 33.4403 37.9435 33.7844 37.7415C34.3191 37.4449 34.7125 36.9465 34.8768 36.3578C35.0354 35.7719 34.9514 35.1469 34.6436 34.6241L33.905 33.3372C33.7217 33.0279 33.6263 32.6746 33.629 32.315C33.6311 31.5867 34.0205 30.9145 34.6512 30.5504C34.8394 30.4295 35.0566 30.3609 35.28 30.3522C35.5034 30.3432 35.7252 30.3942 35.9223 30.4997C36.3982 30.7749 36.7862 31.1792 37.0419 31.6659L37.524 32.5132C38.1314 33.5265 38.46 34.6826 38.4763 35.864L38.4762 35.864Z" fill="#2A664D"/><path d="M21.6872 36.8123L20.8824 38.2775C20.0723 39.7363 18.7103 40.8081 17.1021 41.2525C15.494 41.6969 13.7749 41.4765 12.3308 40.6411C11.4751 40.1709 10.7618 39.4795 10.2653 38.6389C9.76879 37.7987 9.50741 36.8399 9.50879 35.8638C9.52615 34.6829 9.85017 33.5268 10.4494 32.5092L10.9432 31.6619C11.1452 31.308 11.7829 30.3558 12.6536 30.3558C12.8938 30.358 13.1289 30.4249 13.3339 30.5502C13.9637 30.9146 14.3517 31.5871 14.3523 32.3148C14.3528 32.6741 14.2577 33.0271 14.0763 33.3371L13.3339 34.6277C13.0356 35.1516 12.9562 35.7722 13.1126 36.3544C13.2691 36.9365 13.649 37.4335 14.1696 37.7375C14.5137 37.9395 14.9057 38.0455 15.3046 38.0444C16.1072 38.0423 16.8507 37.6225 17.2677 36.9368L18.3289 35.1682L21.6872 36.8123Z" fill="#2A664D"/><path d="M23.5377 33.4811L22.9428 34.554L19.666 32.9524L21.5242 29.8621L23.5377 33.4811Z" fill="#2A664D"/><path d="M22.5541 35.2498L22.0758 36.1205L18.7407 34.4917L19.2537 33.6366L22.5541 35.2498Z" fill="#2A664D"/><path d="M29.2402 34.4917L25.909 36.1205L25.4307 35.2498L28.7232 33.6366L29.2402 34.4917Z" fill="#2A664D"/><path d="M15.8291 12.2339L14.251 13.1631L13.4154 13.6411L9.67194 6.87366C9.45123 6.48321 9.4553 6.00461 9.68306 5.61826C9.91082 5.23161 10.3273 4.99598 10.776 5.00005C11.2204 4.99924 11.6331 5.23052 11.8644 5.6104L15.8291 12.2339Z" fill="#2A664D"/><path d="M28.3144 32.9528L25.0415 34.5544L13.8 14.3178L16.2528 12.9146L28.3144 32.9528Z" fill="#2A664D"/><path d="M34.1804 14.3177L26.4298 28.2801L24.4551 25.0033L31.7316 12.9144L34.1804 14.3177Z" fill="#2A664D"/><path d="M38.4764 6.26366C38.4742 6.47813 38.4168 6.68827 38.3091 6.87401L34.566 13.626L32.156 12.2342L36.1402 5.62617C36.3321 5.30839 36.654 5.09093 37.0206 5.03101C37.3869 4.97109 37.7614 5.07521 38.0444 5.31544C38.3275 5.55567 38.4913 5.9079 38.4918 6.27938L38.4764 6.26366Z" fill="#2A664D"/><path d="M25.991 41.8731C25.9899 42.4029 25.7787 42.9105 25.4034 43.2844C25.0281 43.6583 24.52 43.8679 23.9902 43.8674C23.4607 43.8665 22.9529 43.6556 22.5786 43.2806C22.2047 42.9059 21.9946 42.3977 21.9949 41.8679C21.9954 41.3384 22.2058 40.8305 22.5805 40.4561C22.9553 40.0816 23.4634 39.8712 23.993 39.8712C24.5236 39.8712 25.0323 40.0824 25.4072 40.458C25.782 40.8335 25.9921 41.3427 25.991 41.8731L25.991 41.8731Z" fill="#2A664D"/></svg>