<svg viewBox="0 0 48 48" fill="currentColor" xmlns="http://www.w3.org/2000/svg"><path d="M23.5 7C13.8348 7 6 14.8348 6 24.5C6 34.1652 13.8348 42 23.5 42C33.1652 42 41 34.1652 41 24.5C41 14.8348 33.1652 7 23.5 7ZM36.428 15.2523L34.9703 19.7433C34.9487 19.8104 34.9511 19.8794 34.938 19.9474L30.3423 21.4407C30.2893 21.3907 30.2491 21.3303 30.1887 21.2868L24.4797 17.1391C24.4223 17.0977 24.3563 17.0787 24.2956 17.0459V12.2175C24.356 12.1841 24.422 12.1655 24.4785 12.1234L28.3153 9.33783C31.6217 10.3869 34.4507 12.4933 36.4281 15.2531L36.428 15.2523ZM18.6848 9.33758L22.5216 12.1232C22.5781 12.1652 22.6441 12.1838 22.7045 12.2173V17.0456C22.6438 17.0791 22.5775 17.0974 22.5204 17.1388L16.8114 21.2866C16.751 21.3304 16.7108 21.3901 16.6578 21.4404L12.0614 19.9472C12.0484 19.8794 12.0508 19.8105 12.0292 19.7436L10.5715 15.2526C12.5491 12.4928 15.3776 10.3867 18.6843 9.3373L18.6848 9.33758ZM7.59621 24.3891L11.4246 21.6053C11.4814 21.5645 11.5193 21.5076 11.5696 21.4612L16.1752 22.958C16.1879 23.0225 16.1849 23.0873 16.2053 23.151L18.386 29.8626C18.4085 29.9319 18.4523 29.9878 18.4831 30.0523L15.638 33.9686C15.5688 33.9597 15.5043 33.9355 15.4335 33.9355H10.7105C8.75853 31.2937 7.59019 28.0382 7.59019 24.5014C7.59019 24.4635 7.59582 24.4271 7.59582 24.3898L7.59621 24.3891ZM18.4773 39.5876L17.0172 35.088C16.9956 35.0214 16.9533 34.9678 16.924 34.9057L19.7744 30.9823C19.8409 30.9902 19.9034 31.0142 19.9717 31.0142H27.0287C27.0971 31.0142 27.1595 30.9908 27.2261 30.9828L30.0765 34.9066C30.0472 34.969 30.0049 35.0223 29.9833 35.0889L28.5232 39.5885C26.943 40.1146 25.2579 40.4106 23.5007 40.4106C21.7435 40.4106 20.0584 40.1144 18.4782 39.5885L18.4773 39.5876ZM36.2886 33.9345H31.5656C31.4949 33.9345 31.4298 33.9587 31.3611 33.9676L28.516 30.0519C28.5465 29.9873 28.5906 29.9314 28.6131 29.8619L30.7938 23.1502C30.8145 23.0866 30.8112 23.0218 30.824 22.9573L35.4295 21.4604C35.4801 21.5072 35.5174 21.564 35.5742 21.6046L39.4026 24.3833C39.4026 24.4227 39.4085 24.4606 39.4085 24.4999C39.4085 28.0363 38.2402 31.2924 36.2882 33.934L36.2886 33.9345Z" fill="#2A664D"/></svg>