<?xml version="1.0" encoding="iso-8859-1"?>
<!-- Generator: Adobe Illustrator 19.0.0, SVG Export Plug-In . SVG Version: 6.00 Build 0)  -->
<svg xmlns="http://www.w3.org/2000/svg" xmlns:xlink="http://www.w3.org/1999/xlink" version="1.1" id="Layer_1" x="0px" y="0px" viewBox="0 0 512.001 512.001" style="enable-background:new 0 0 512.001 512.001;" xml:space="preserve" width="512px" height="512px">
<g>
	<g>
		<path d="M417.892,0H94.109C79.534,0,67.677,11.857,67.677,26.432v459.137c0,14.574,11.857,26.432,26.432,26.432h323.783    c14.574,0,26.432-11.857,26.432-26.432V26.432C444.323,11.857,432.466,0,417.892,0z M427.068,485.569h-0.001    c0,5.059-4.116,9.176-9.176,9.176H94.109c-5.059,0-9.176-4.116-9.176-9.176V26.432c0-5.059,4.116-9.176,9.176-9.176h323.783    c5.059,0,9.176,4.116,9.176,9.176V485.569z" fill="#FFFFFF"/>
	</g>
</g>
<g>
	<g>
		<path d="M160.666,409.698h-47.325c-4.765,0-8.628,3.863-8.628,8.628v47.324c0,4.765,3.863,8.628,8.628,8.628h47.324    c4.765,0,8.628-3.863,8.628-8.628v-47.324C169.294,413.561,165.431,409.698,160.666,409.698z M152.038,457.023H121.97v-30.068    h30.068V457.023z" fill="#FFFFFF"/>
	</g>
</g>
<g>
	<g>
		<path d="M239.996,409.698h-47.325c-4.765,0-8.628,3.863-8.628,8.628v47.324c0,4.765,3.863,8.628,8.628,8.628h47.325    c4.765,0,8.628-3.863,8.628-8.628v-47.324C248.624,413.561,244.762,409.698,239.996,409.698z M231.368,457.023h-30.069v-30.068    h30.069V457.023z" fill="#FFFFFF"/>
	</g>
</g>
<g>
	<g>
		<path d="M319.328,409.698h-47.325c-4.766,0-8.628,3.863-8.628,8.628v47.324c0,4.765,3.862,8.628,8.628,8.628h47.325    c4.766,0,8.628-3.863,8.628-8.628v-47.324C327.955,413.561,324.092,409.698,319.328,409.698z M310.7,457.023H280.63v-30.068H310.7    V457.023z" fill="#FFFFFF"/>
	</g>
</g>
<g>
	<g>
		<path d="M398.659,409.698h-47.325c-4.766,0-8.628,3.863-8.628,8.628v47.324c0,4.765,3.862,8.628,8.628,8.628h47.325    c4.766,0,8.628-3.863,8.628-8.628v-47.324C407.287,413.561,403.424,409.698,398.659,409.698z M390.031,457.023h-30.069v-30.068    h30.069V457.023z" fill="#FFFFFF"/>
	</g>
</g>
<g>
	<g>
		<path d="M160.666,88.507h-47.325c-4.765,0-8.628,3.863-8.628,8.628v47.324c0,4.765,3.863,8.628,8.628,8.628h47.324    c4.765,0,8.628-3.863,8.628-8.628V97.135C169.294,92.37,165.431,88.507,160.666,88.507z M152.038,135.831H121.97v-30.068h30.068    V135.831z" fill="#FFFFFF"/>
	</g>
</g>
<g>
	<g>
		<path d="M239.996,88.507h-47.325c-4.765,0-8.628,3.863-8.628,8.628v47.324c0,4.765,3.863,8.628,8.628,8.628h47.325    c4.765,0,8.628-3.863,8.628-8.628V97.135C248.624,92.37,244.762,88.507,239.996,88.507z M231.368,135.831h-30.069v-30.068h30.069    V135.831z" fill="#FFFFFF"/>
	</g>
</g>
<g>
	<g>
		<path d="M319.328,88.507h-47.325c-4.766,0-8.628,3.863-8.628,8.628v47.324c0,4.765,3.862,8.628,8.628,8.628h47.325    c4.766,0,8.628-3.863,8.628-8.628V97.135C327.955,92.37,324.092,88.507,319.328,88.507z M310.7,135.831H280.63v-30.068H310.7    V135.831z" fill="#FFFFFF"/>
	</g>
</g>
<g>
	<g>
		<path d="M398.659,88.507h-47.325c-4.766,0-8.628,3.863-8.628,8.628v47.324c0,4.765,3.862,8.628,8.628,8.628h47.325    c4.766,0,8.628-3.863,8.628-8.628V97.135C407.287,92.37,403.424,88.507,398.659,88.507z M390.031,135.831h-30.069v-30.068h30.069    V135.831z" fill="#FFFFFF"/>
	</g>
</g>
<g>
	<g>
		<path d="M160.666,249.102h-47.325c-4.765,0-8.628,3.863-8.628,8.628v47.325c0,4.765,3.863,8.628,8.628,8.628h47.324    c4.765,0,8.628-3.863,8.628-8.628V257.73C169.294,252.965,165.431,249.102,160.666,249.102z M152.038,296.427H121.97v-30.069    h30.068V296.427z" fill="#FFFFFF"/>
	</g>
</g>
<g>
	<g>
		<path d="M239.996,249.102h-47.325c-4.765,0-8.628,3.863-8.628,8.628v47.325c0,4.765,3.863,8.628,8.628,8.628h47.325    c4.765,0,8.628-3.863,8.628-8.628V257.73C248.624,252.965,244.762,249.102,239.996,249.102z M231.368,296.427h-30.069v-30.069    h30.069V296.427z" fill="#FFFFFF"/>
	</g>
</g>
<g>
	<g>
		<path d="M319.328,249.102h-47.325c-4.766,0-8.628,3.863-8.628,8.628v47.325c0,4.765,3.862,8.628,8.628,8.628h47.325    c4.766,0,8.628-3.863,8.628-8.628V257.73C327.955,252.965,324.092,249.102,319.328,249.102z M310.7,296.427H280.63v-30.069H310.7    V296.427z" fill="#FFFFFF"/>
	</g>
</g>
<g>
	<g>
		<path d="M398.659,249.102h-47.325c-4.766,0-8.628,3.863-8.628,8.628v47.325c0,4.765,3.862,8.628,8.628,8.628h47.325    c4.766,0,8.628-3.863,8.628-8.628V257.73C407.287,252.965,403.424,249.102,398.659,249.102z M390.031,296.427h-30.069v-30.069    h30.069V296.427z" fill="#FFFFFF"/>
	</g>
</g>
<g>
	<g>
		<path d="M160.666,329.4h-47.325c-4.765,0-8.628,3.863-8.628,8.628v47.325c0,4.765,3.863,8.628,8.628,8.628h47.324    c4.765,0,8.628-3.863,8.628-8.628v-47.325C169.294,333.263,165.431,329.4,160.666,329.4z M152.038,376.725H121.97v-30.069h30.068    V376.725z" fill="#FFFFFF"/>
	</g>
</g>
<g>
	<g>
		<path d="M239.996,329.4h-47.325c-4.765,0-8.628,3.863-8.628,8.628v47.325c0,4.765,3.863,8.628,8.628,8.628h47.325    c4.765,0,8.628-3.863,8.628-8.628v-47.325C248.624,333.263,244.762,329.4,239.996,329.4z M231.368,376.725h-30.069v-30.069h30.069    V376.725z" fill="#FFFFFF"/>
	</g>
</g>
<g>
	<g>
		<path d="M319.328,329.4h-47.325c-4.766,0-8.628,3.863-8.628,8.628v47.325c0,4.765,3.862,8.628,8.628,8.628h47.325    c4.766,0,8.628-3.863,8.628-8.628v-47.325C327.955,333.263,324.092,329.4,319.328,329.4z M310.7,376.725H280.63v-30.069H310.7    V376.725z" fill="#FFFFFF"/>
	</g>
</g>
<g>
	<g>
		<path d="M398.659,329.4h-47.325c-4.766,0-8.628,3.863-8.628,8.628v47.325c0,4.765,3.862,8.628,8.628,8.628h47.325    c4.766,0,8.628-3.863,8.628-8.628v-47.325C407.287,333.263,403.424,329.4,398.659,329.4z M390.031,376.725h-30.069v-30.069h30.069    V376.725z" fill="#FFFFFF"/>
	</g>
</g>
<g>
	<g>
		<path d="M160.666,168.805h-47.325c-4.765,0-8.628,3.863-8.628,8.628v47.325c0,4.765,3.863,8.628,8.628,8.628h47.324    c4.765,0,8.628-3.863,8.628-8.628v-47.325C169.294,172.668,165.431,168.805,160.666,168.805z M152.038,216.128H121.97V186.06    h30.068V216.128z" fill="#FFFFFF"/>
	</g>
</g>
<g>
	<g>
		<path d="M239.996,168.805h-47.325c-4.765,0-8.628,3.863-8.628,8.628v47.325c0,4.765,3.863,8.628,8.628,8.628h47.325    c4.765,0,8.628-3.863,8.628-8.628v-47.325C248.624,172.668,244.762,168.805,239.996,168.805z M231.368,216.128h-30.069V186.06    h30.069V216.128z" fill="#FFFFFF"/>
	</g>
</g>
<g>
	<g>
		<path d="M319.328,168.805h-47.325c-4.766,0-8.628,3.863-8.628,8.628v47.325c0,4.765,3.862,8.628,8.628,8.628h47.325    c4.766,0,8.628-3.863,8.628-8.628v-47.325C327.955,172.668,324.092,168.805,319.328,168.805z M310.7,216.128H280.63V186.06H310.7    V216.128z" fill="#FFFFFF"/>
	</g>
</g>
<g>
	<g>
		<path d="M398.659,168.805h-47.325c-4.766,0-8.628,3.863-8.628,8.628v47.325c0,4.765,3.862,8.628,8.628,8.628h47.325    c4.766,0,8.628-3.863,8.628-8.628v-47.325C407.287,172.668,403.424,168.805,398.659,168.805z M390.031,216.128h-30.069V186.06    h30.069V216.128z" fill="#FFFFFF"/>
	</g>
</g>
<g>
	<g>
		<path d="M398.659,49.588h-80.437c-4.766,0-8.628,3.863-8.628,8.628s3.862,8.628,8.628,8.628h80.437    c4.766,0,8.628-3.863,8.628-8.628S403.424,49.588,398.659,49.588z" fill="#FFFFFF"/>
	</g>
</g>
<g>
	<g>
		<path d="M285.441,49.588H142.803c-4.765,0-8.628,3.863-8.628,8.628s3.863,8.628,8.628,8.628h142.638    c4.766,0,8.628-3.863,8.628-8.628S290.207,49.588,285.441,49.588z" fill="#FFFFFF"/>
	</g>
</g>
<g>
	<g>
		<circle cx="374.996" cy="201.095" r="8.628" fill="#FFFFFF"/>
	</g>
</g>
<g>
	<g>
		<circle cx="216.338" cy="281.391" r="8.628" fill="#FFFFFF"/>
	</g>
</g>
<g>
	<g>
		<circle cx="295.667" cy="361.698" r="8.628" fill="#FFFFFF"/>
	</g>
</g>
<g>
	<g>
		<circle cx="113.346" cy="58.217" r="8.628" fill="#FFFFFF"/>
	</g>
</g>
<g>
</g>
<g>
</g>
<g>
</g>
<g>
</g>
<g>
</g>
<g>
</g>
<g>
</g>
<g>
</g>
<g>
</g>
<g>
</g>
<g>
</g>
<g>
</g>
<g>
</g>
<g>
</g>
<g>
</g>
</svg>
