<?xml version="1.0" encoding="iso-8859-1"?>
<!-- Generator: Adobe Illustrator 17.1.0, SVG Export Plug-In . SVG Version: 6.00 Build 0)  -->
<!DOCTYPE svg PUBLIC "-//W3C//DTD SVG 1.1//EN" "http://www.w3.org/Graphics/SVG/1.1/DTD/svg11.dtd">
<svg xmlns="http://www.w3.org/2000/svg" xmlns:xlink="http://www.w3.org/1999/xlink" version="1.1" id="Capa_1" x="0px" y="0px" viewBox="0 0 511.995 511.995" style="enable-background:new 0 0 511.995 511.995;" xml:space="preserve" width="512px" height="512px">
<path d="M449.014,355.475c-10.728-17.946-25.767-30.429-43.49-36.1l-50.064-16.02c-1.648-0.529-3.339-0.487-4.87,0.004  l-7.911-11.867c-2.369-3.555-7.109-4.619-10.772-2.423l-3.889,2.333v-11.478c0-1.213-0.278-2.358-0.761-3.389  c24.931-22.033,40.85-55.381,40.85-92.64v-27.863c11.025-30.401,14.895-59.722,11.161-84.876  c-4.203-28.315-17.822-49.212-39.389-60.45c-0.02-0.011-0.04-0.021-0.059-0.032c-0.041-0.021-0.08-0.044-0.121-0.065  c-0.069-0.036-0.14-0.062-0.209-0.095c-0.147-0.071-0.293-0.141-0.445-0.203c-0.107-0.044-0.216-0.082-0.324-0.121  c-0.136-0.049-0.272-0.097-0.41-0.139c-0.123-0.037-0.247-0.067-0.371-0.098c-0.126-0.031-0.252-0.063-0.381-0.087  c-0.136-0.027-0.273-0.047-0.41-0.067c-0.119-0.017-0.237-0.034-0.357-0.046c-0.148-0.014-0.295-0.021-0.443-0.027  c-0.111-0.004-0.222-0.01-0.333-0.01c-0.16,0-0.32,0.009-0.479,0.019c-0.101,0.006-0.201,0.01-0.302,0.021  c-0.173,0.017-0.345,0.044-0.517,0.073c-0.069,0.011-0.137,0.016-0.206,0.029c-18.682,3.591-36.304-0.415-53.346-4.288  c-27.067-6.152-55.036-12.493-84.375,12.233c-1.595-0.117-3.197-0.194-4.812-0.194c-34.665,0-62.963,27.375-63.969,61.396  c-0.03,0.283-0.048,0.57-0.048,0.861c0,0.234,0.007,0.47,0.008,0.705c0,0.101-0.008,0.2-0.008,0.301  c0,0.094,0.011,0.186,0.014,0.279c0.3,37.381,13.561,80.008,16.166,88.025v14.721c0,37.17,15.845,70.448,40.674,92.482  c-0.531,1.07-0.837,2.271-0.837,3.546v11.478l-3.889-2.333c-3.662-2.195-8.403-1.13-10.772,2.423l-7.911,11.866  c-1.531-0.491-3.223-0.532-4.871-0.004l-50.065,16.02c-17.723,5.671-32.762,18.153-43.49,36.1  c-9.701,16.227-15.043,35.777-15.043,55.051v69.46c0,17.648,14.358,32.007,32.007,32.007h152.021c0.009,0,0.017,0.002,0.026,0.002  c0.014,0,0.028-0.002,0.042-0.002h47.926c0.014,0,0.028,0.002,0.042,0.002c0.009,0,0.017-0.002,0.026-0.002H432.05  c17.648,0,32.007-14.358,32.007-32.007v-69.46C464.057,391.253,458.714,371.702,449.014,355.475z M375.329,386.046  c0.155,1.392-0.445,2.777-1.565,3.617l-26.538,19.903c-1.855,1.392-3.016,3.52-3.18,5.833c-0.164,2.313,0.683,4.584,2.323,6.225  l16.664,16.663c1.389,1.39,1.548,3.623,0.37,5.195l-39.384,52.511h-32.293l67.75-173.14c0.166-0.423,0.28-0.857,0.37-1.295  l8.624,2.76L375.329,386.046z M237.451,495.993l-5.63-14.388c0.003-0.017,0.009-0.033,0.012-0.05l14.747-73.733  c0.469,0.027,0.94,0.045,1.416,0.045H264c0.476,0,0.947-0.018,1.416-0.045l14.747,73.733c0.003,0.017,0.009,0.033,0.012,0.05  l-5.63,14.388H237.451z M187.976,495.993l-39.383-52.511c-1.179-1.572-1.021-3.806,0.369-5.194l16.664-16.664  c1.64-1.641,2.487-3.911,2.323-6.225c-0.165-2.313-1.325-4.441-3.18-5.833l-26.538-19.902c-1.12-0.841-1.72-2.227-1.565-3.618  l6.859-61.728l8.624-2.76c0.091,0.438,0.205,0.872,0.37,1.295l67.75,173.14H187.976z M247.995,359.854H264  c4.414,0,8.005,3.591,8.005,8.004v16.005c0,4.414-3.591,8.005-8.005,8.005h-16.004c-4.414,0-8.005-3.591-8.005-8.005v-16.005  C239.991,363.445,243.581,359.854,247.995,359.854z M290.971,454.014l-10.536-52.679c0.317-0.298,0.625-0.605,0.926-0.921  l0.225,0.338c3.25,4.875,8.458,8.002,14.288,8.579c0.649,0.063,1.296,0.096,1.94,0.096c4.508,0,8.851-1.558,12.333-4.421  L290.971,454.014z M230.409,400.753l0.225-0.338c0.3,0.315,0.609,0.622,0.926,0.921l-10.536,52.679l-19.177-49.007  c3.483,2.864,7.824,4.42,12.333,4.42c0.644,0,1.292-0.032,1.94-0.096C221.951,408.755,227.159,405.628,230.409,400.753z   M333.597,306.716l9.46,14.19l-18.772,47.972c-0.692,0.365-1.341,0.838-1.923,1.419l-22.11,22.11  c-1.012,1.013-2.189,1.067-2.802,1.001c-0.612-0.061-1.757-0.34-2.551-1.531l-6.895-10.342v-13.678  c0-11.057-7.518-20.388-17.71-23.161L333.597,306.716z M143.967,80.676c0.109-25.97,21.602-47.065,48.011-47.065  c6.425,0,12.656,1.226,18.52,3.642c4.084,1.685,8.762-0.264,10.444-4.349c1.574-3.82-0.027-8.155-3.581-10.078  c19.34-10.936,37.845-6.745,60.257-1.652c16.988,3.861,36.145,8.195,56.986,4.893c19.629,11.369,26.532,31.919,28.836,47.442  c2.664,17.951,0.757,39.244-5.335,61.289l-15.113-26.845c-1.613-2.865-4.819-4.452-8.076-3.999  c-0.886,0.125-89.414,12.011-155.886-15.473c-4.083-1.69-8.761,0.254-10.45,4.336c-1.688,4.083,0.253,8.762,4.336,10.449  c61.53,25.439,137.752,19.484,158.755,17.194l20.433,36.296v3.141c-0.027,0-0.053-0.004-0.08-0.004h-24.009h-48.01  c-4.713,0-9.164,2.063-12.21,5.659c-0.622,0.734-1.152,1.525-1.626,2.344h-20.347c-0.474-0.818-1.004-1.61-1.626-2.344  c-3.046-3.597-7.497-5.659-12.21-5.659h-48.01h-21.746c5.172-20.187,18.192-34.363,18.345-34.528  c3.03-3.216,2.878-8.279-0.338-11.309c-3.217-3.031-8.28-2.879-11.309,0.338c-0.61,0.647-9.475,10.217-16.433,25.32  C148.407,123.033,144.081,100.728,143.967,80.676z M327.747,175.896l-6.797,15.406c-0.019,0.043-0.037,0.085-0.055,0.128  c-2.365,5.623-6.736,8.475-12.994,8.475h-15.78c-3.929,0-7.25-2.813-7.896-6.688c-0.032-0.194-0.072-0.387-0.119-0.579l-4.08-16.744  L327.747,175.896z M231.969,175.896l-4.08,16.741c-0.047,0.192-0.086,0.385-0.119,0.579c-0.646,3.876-3.967,6.688-7.896,6.688  h-15.78c-6.257,0-10.629-2.852-12.994-8.475c-0.018-0.043-0.037-0.085-0.055-0.128l-6.798-15.409L231.969,175.896z M160.142,183.898  v-8.002v-0.003h7.856c0,0.876,0.049,1.755,0.195,2.634c0.11,0.659,0.302,1.302,0.572,1.914l7.615,17.26  c4.895,11.569,14.992,18.204,27.714,18.204h15.78c11.674,0,21.558-8.282,23.623-19.738l2.99-12.271h19.021l2.99,12.271  c2.065,11.457,11.948,19.738,23.622,19.738h15.78c12.723,0,22.819-6.633,27.713-18.203l7.616-17.261  c0.27-0.612,0.462-1.255,0.572-1.914c0.146-0.878,0.195-1.758,0.195-2.634h8.029c0.027,0,0.053-0.004,0.08-0.004v8.009  c0,57.364-43.057,104.033-95.982,104.033S160.142,241.262,160.142,183.898z M199.979,287.72  c16.516,10.302,35.698,16.211,56.145,16.211c20.342,0,39.434-5.846,55.893-16.051v13.124l-56.019,33.612l-56.019-33.612V287.72z   M178.399,306.716l63.301,37.982c-10.192,2.773-17.71,12.104-17.71,23.161v13.678l-6.895,10.342  c-0.794,1.191-1.94,1.471-2.552,1.531c-0.611,0.066-1.789,0.012-2.802-1.002l-22.109-22.109c-0.582-0.582-1.232-1.054-1.923-1.419  l-18.772-47.972L178.399,306.716z M63.938,479.986v-69.46c0-39.878,23.85-68.373,47.409-75.912l15.486-4.955l-6.069,54.619  c-0.777,6.994,2.237,13.962,7.867,18.186l19.159,14.368l-10.142,10.143c-6.982,6.982-7.78,18.207-1.855,26.107l32.184,42.911H79.946  C71.119,495.993,63.938,488.812,63.938,479.986z M448.057,479.986c0,8.826-7.181,16.007-16.007,16.007h-88.031l32.185-42.912  c5.924-7.9,5.126-19.124-1.856-26.107l-10.142-10.142l19.158-14.368c5.63-4.223,8.645-11.191,7.868-18.186l-6.069-54.619  l15.485,4.955c23.559,7.538,47.409,36.034,47.409,75.912V479.986z" fill="#FFFFFF"/>
<g>
</g>
<g>
</g>
<g>
</g>
<g>
</g>
<g>
</g>
<g>
</g>
<g>
</g>
<g>
</g>
<g>
</g>
<g>
</g>
<g>
</g>
<g>
</g>
<g>
</g>
<g>
</g>
<g>
</g>
</svg>
