<?xml version="1.0" encoding="iso-8859-1"?>
<!-- Generator: Adobe Illustrator 19.0.0, SVG Export Plug-In . SVG Version: 6.00 Build 0)  -->
<svg xmlns="http://www.w3.org/2000/svg" xmlns:xlink="http://www.w3.org/1999/xlink" version="1.1" id="Layer_1" x="0px" y="0px" viewBox="0 0 511.653 511.653" style="enable-background:new 0 0 511.653 511.653;" xml:space="preserve" width="512px" height="512px">
<g transform="translate(1 1)">
	<g>
		<g>
			<path d="M505.88,305.173c-15.36-20.48-30.72-20.48-68.267-0.853l-73.387,45.227c-10.24,5.973-33.28,7.68-54.613,7.68     c4.267-7.68,2.56-17.067-5.12-28.16c-5.762-8.283-13.201-15.192-21.73-20.418c2.577-1.872,5.022-3.903,7.336-6.065     c0.881-0.414,1.739-0.967,2.447-1.676c0.804-0.804,1.411-1.704,1.836-2.653c12.758-13.951,20.35-32.435,20.35-51.96     c0-42.667-34.133-76.8-76.8-76.8s-76.8,34.133-76.8,76.8c0,15.293,4.82,30.317,13.407,43.127     c-4.738-2.284-9.233-5.01-13.407-8.14c-30.791-23.093-78.94,2.035-102.4,17.023v-17.876H-1v221.867h59.733v-25.6h110.933     c17.067,0,34.987-1.707,52.053-2.56l110.933-17.067c4.267,0,8.533-0.853,11.947-1.707c10.24-1.707,19.627-6.827,28.16-14.507     l128.853-101.547C511.853,330.773,513.56,315.413,505.88,305.173z M190.044,210.35l12.237,12.237     c-2.968,4.507-5.101,9.631-6.188,15.173h-17.29C180.232,227.534,184.187,218.181,190.044,210.35z M297.064,237.76h-17.29     c-1.087-5.542-3.22-10.667-6.188-15.173l12.237-12.237C291.68,218.181,295.635,227.534,297.064,237.76z M285.504,281.917     L273.587,270c2.968-4.507,5.101-9.631,6.188-15.173h17.261C295.551,264.793,291.5,274.049,285.504,281.917z M212.333,246.293     c0-6.402,2.163-12.137,5.823-16.549c0.668-0.372,1.308-0.823,1.857-1.371c0.604-0.604,1.095-1.263,1.486-1.955     c4.397-3.602,10.089-5.725,16.434-5.725s12.038,2.123,16.434,5.725c0.39,0.692,0.882,1.351,1.486,1.955     c0.664,0.664,1.33,1.195,2.045,1.601c3.546,4.381,5.635,10.028,5.635,16.319c0,14.507-11.093,25.6-25.6,25.6     S212.333,260.8,212.333,246.293z M246.467,288.134c5.542-1.087,10.667-3.22,15.173-6.188l11.89,11.89     c-3.105,2.351-6.445,4.441-9.996,6.217c-5.689-1.422-11.378-2.243-17.067-2.48V288.134z M261.64,210.64     c-4.507-2.968-9.631-5.101-15.173-6.188v-17.29c10.225,1.429,19.578,5.384,27.41,11.241L261.64,210.64z M229.4,204.452     c-5.542,1.087-10.667,3.22-15.173,6.188l-12.237-12.237c7.831-5.857,17.184-9.812,27.41-11.241V204.452z M196.092,254.826     c1.087,5.542,3.22,10.667,6.188,15.173l-11.99,11.99c-5.988-7.998-9.964-17.35-11.441-27.163H196.092z M202.167,294.006     l12.059-12.059c4.507,2.968,9.631,5.101,15.173,6.188v9.359h-19.627c-0.885,0-1.766-0.026-2.646-0.055     C205.41,296.371,203.756,295.223,202.167,294.006z M41.667,485.226h-25.6V297.493h25.6v12.8v166.4V485.226z M491.373,326.506     L361.667,427.2l-0.853,0.853c-5.12,5.973-11.947,9.387-19.627,10.24c-3.413,0.853-5.973,0.853-9.387,0.853l-112.64,17.067     c-16.213,2.56-33.28,3.413-49.493,3.413H58.733v-140.8c20.48-14.507,68.267-41.813,92.16-23.893     c13.862,10.943,31.468,17.504,49.615,19.181c0.245,0.147,0.485,0.301,0.732,0.445c1.707,0,2.56,0.853,4.267,0.853     c1.707,0,3.413,0,5.12,0h33.28c5.973,0,11.947,0.853,17.92,2.56c0.412,0,0.823,0,1.235,0     c11.466,4.02,21.474,11.423,28.632,21.333c3.413,5.12,4.267,10.24,3.413,11.947c-2.56,4.267-12.8,5.973-23.893,6.827     c-2.704,0-5.4,0-7.68,0c-0.598,0-1.174,0-1.707,0H180.76c-26.453,0-42.667,12.8-42.667,34.133c0,5.12,3.413,8.533,8.533,8.533     s8.533-3.413,8.533-8.533c0-4.267,0-17.067,25.6-17.067h80.213c0.765,0,1.619,0,2.56,0c2.206,0,4.944,0,8.533,0     c0.853,0,2.56,0,4.267,0c40.107,0.853,77.653,0,97.28-10.24L447,319.68c35.84-17.92,39.253-13.653,46.08-3.413     C494.787,318.826,494.787,323.947,491.373,326.506z" fill="#FFFFFF"/>
			<path d="M391.533,160.96c42.667,0,76.8-34.133,76.8-76.8c0-42.667-34.133-76.8-76.8-76.8c-42.667,0-76.8,34.133-76.8,76.8     C314.733,126.826,348.867,160.96,391.533,160.96z M391.533,58.56c14.507,0,25.6,11.093,25.6,25.6s-11.093,25.6-25.6,25.6     c-14.507,0-25.6-11.093-25.6-25.6S377.027,58.56,391.533,58.56z M365.488,118.153c5.04,3.838,10.986,6.568,17.512,7.848v17.29     c-11.219-1.568-21.387-6.178-29.649-13.001L365.488,118.153z M400.067,126.001c5.095-0.999,9.836-2.883,14.07-5.486     l12.289,12.285c-7.613,5.439-16.583,9.124-26.358,10.49V126.001z M412.521,46.864c-3.813-2.117-7.998-3.671-12.455-4.545v-17.29     c9.136,1.277,17.575,4.569,24.855,9.435L412.521,46.864z M383,42.319c-5.923,1.162-11.367,3.521-16.091,6.816l-12.185-12.185     c8.006-6.223,17.667-10.437,28.276-11.92V42.319z M355.185,61.546c-2.607,4.237-4.493,8.981-5.493,14.08h-17.29     c1.367-9.779,5.054-18.752,10.496-26.367L355.185,61.546z M349.692,92.693c0.88,4.487,2.45,8.697,4.589,12.531l-12.397,12.397     c-4.892-7.296-8.201-15.762-9.482-24.928H349.692z M438.738,120.977l-12.186-12.183c3.298-4.727,5.66-10.174,6.823-16.101h17.29     C449.181,103.306,444.965,112.97,438.738,120.977z M450.664,75.626h-17.29c-1.286-6.555-4.036-12.525-7.901-17.579l12.134-12.134     C444.46,54.187,449.092,64.378,450.664,75.626z" fill="#FFFFFF"/>
		</g>
	</g>
</g>
<g>
</g>
<g>
</g>
<g>
</g>
<g>
</g>
<g>
</g>
<g>
</g>
<g>
</g>
<g>
</g>
<g>
</g>
<g>
</g>
<g>
</g>
<g>
</g>
<g>
</g>
<g>
</g>
<g>
</g>
</svg>
