<?xml version="1.0" encoding="iso-8859-1"?>
<!-- Generator: Adobe Illustrator 19.0.0, SVG Export Plug-In . SVG Version: 6.00 Build 0)  -->
<svg version="1.1" id="Layer_1" xmlns="http://www.w3.org/2000/svg" xmlns:xlink="http://www.w3.org/1999/xlink" x="0px" y="0px"
	 viewBox="0 0 529.655 529.655" style="enable-background:new 0 0 529.655 529.655;" xml:space="preserve">
<g>
	<g>
		<path d="M123.586,97.103C54.285,97.103,0,128.123,0,167.724v52.966v52.966v52.966v52.966v52.966
			c0,39.601,54.285,70.621,123.586,70.621s123.586-31.019,123.586-70.621v-52.966v-52.966v-52.966V220.69v-52.966
			C247.172,128.123,192.887,97.103,123.586,97.103z M229.517,432.552c0,28.711-48.511,52.966-105.931,52.966
			S17.655,461.263,17.655,432.552v-16.075c22.069,20.373,60.457,33.731,105.931,33.731s86.069-13.358,105.931-33.731V432.552z
			 M229.517,379.586c0,28.711-48.511,52.966-105.931,52.966S17.655,408.297,17.655,379.586v-16.075
			c22.069,20.373,60.457,33.731,105.931,33.731s86.069-13.358,105.931-33.731V379.586z M229.517,326.621
			c0,28.711-48.511,52.966-105.931,52.966S17.655,355.332,17.655,326.621v-16.075c22.069,20.373,60.457,33.731,105.931,33.731
			s86.069-13.358,105.931-33.731V326.621z M229.517,273.655c0,28.711-48.511,52.966-105.931,52.966S17.655,302.366,17.655,273.655
			V257.58c22.069,20.373,60.457,33.731,105.931,33.731s86.069-13.358,105.931-33.731V273.655z M229.517,220.69
			c0,28.711-48.511,52.966-105.931,52.966S17.655,249.401,17.655,220.69v-16.076c22.069,20.373,60.457,33.731,105.931,33.731
			s86.069-13.358,105.931-33.731V220.69z M124.69,220.69c-57.42,0-105.931-24.254-105.931-52.966s48.511-52.966,105.931-52.966
			s105.931,24.254,105.931,52.966S182.11,220.69,124.69,220.69z"/>
	</g>
</g>
<g>
	<g>
		<path d="M406.069,26.483c-69.301,0-123.586,31.019-123.586,70.621v52.966v52.966V256v52.966v52.966v52.966
			c0,39.601,54.285,70.621,123.586,70.621s123.586-31.019,123.586-70.621v-52.966v-52.966V256v-52.966v-52.966V97.103
			C529.655,57.502,475.37,26.483,406.069,26.483z M512,414.897c0,28.711-48.511,52.966-105.931,52.966
			c-57.42,0-105.931-24.254-105.931-52.966v-16.076c22.069,20.373,60.457,33.731,105.931,33.731
			c45.474,0,86.069-13.358,105.931-33.731V414.897z M512,361.931c0,28.711-48.511,52.966-105.931,52.966
			c-57.42,0-105.931-24.254-105.931-52.966v-16.076c22.069,20.373,60.457,33.731,105.931,33.731
			c45.474,0,86.069-13.358,105.931-33.731V361.931z M512,308.966c0,28.711-48.511,52.966-105.931,52.966
			c-57.42,0-105.931-24.254-105.931-52.966V292.89c22.069,20.373,60.457,33.731,105.931,33.731
			c45.474,0,86.069-13.358,105.931-33.731V308.966z M512,256c0,28.711-48.511,52.966-105.931,52.966
			c-57.42,0-105.931-24.254-105.931-52.966v-16.076c22.069,20.373,60.457,33.731,105.931,33.731
			c45.474,0,86.069-13.358,105.931-33.731V256z M512,203.034C512,231.746,463.489,256,406.069,256
			c-57.42,0-105.931-24.254-105.931-52.966v-16.076c22.069,20.373,60.457,33.731,105.931,33.731
			c45.474,0,86.069-13.358,105.931-33.731V203.034z M512,150.069c0,28.711-48.511,52.966-105.931,52.966
			c-57.42,0-105.931-24.254-105.931-52.966v-16.076c22.069,20.373,60.457,33.731,105.931,33.731
			c45.474,0,86.069-13.358,105.931-33.731V150.069z M407.172,150.069c-57.42,0-105.931-24.254-105.931-52.966
			c0-28.711,48.511-52.966,105.931-52.966c57.42,0,105.931,24.254,105.931,52.966C513.103,125.815,464.593,150.069,407.172,150.069z
			"/>
	</g>
</g>
<g>
</g>
<g>
</g>
<g>
</g>
<g>
</g>
<g>
</g>
<g>
</g>
<g>
</g>
<g>
</g>
<g>
</g>
<g>
</g>
<g>
</g>
<g>
</g>
<g>
</g>
<g>
</g>
<g>
</g>
</svg>
