<?xml version="1.0" encoding="iso-8859-1"?>
<!-- Generator: Adobe Illustrator 19.0.0, SVG Export Plug-In . SVG Version: 6.00 Build 0)  -->
<svg xmlns="http://www.w3.org/2000/svg" xmlns:xlink="http://www.w3.org/1999/xlink" version="1.1" id="Layer_1" x="0px" y="0px" viewBox="0 0 512.002 512.002" style="enable-background:new 0 0 512.002 512.002;" xml:space="preserve" width="512px" height="512px">
<g>
	<g>
		<path d="M509.83,132.422L415.793,15.704c-1.861-2.311-4.669-3.654-7.637-3.654h-304.31c-2.969,0-5.776,1.343-7.637,3.654    L2.171,132.422c-2.741,3.401-2.902,8.202-0.398,11.78l246.193,351.568c0.018,0.026,0.041,0.048,0.059,0.075    c0.207,0.289,0.425,0.568,0.662,0.832c0.033,0.037,0.069,0.071,0.103,0.107c0.205,0.222,0.421,0.434,0.646,0.637    c0.073,0.065,0.146,0.131,0.221,0.194c0.247,0.209,0.502,0.411,0.768,0.595c0.02,0.013,0.037,0.029,0.056,0.042    c0.286,0.195,0.586,0.369,0.892,0.534c0.08,0.042,0.159,0.082,0.239,0.122c0.26,0.131,0.526,0.25,0.798,0.357    c0.06,0.024,0.118,0.05,0.178,0.072c0.328,0.123,0.664,0.226,1.008,0.314c0.067,0.017,0.135,0.029,0.203,0.044    c0.281,0.065,0.565,0.116,0.854,0.157c0.093,0.013,0.186,0.026,0.28,0.037c0.353,0.038,0.709,0.065,1.07,0.065    c0.361,0,0.717-0.026,1.07-0.065c0.094-0.01,0.187-0.024,0.28-0.037c0.289-0.041,0.573-0.092,0.854-0.157    c0.068-0.016,0.136-0.027,0.203-0.044c0.343-0.086,0.68-0.191,1.008-0.314c0.06-0.022,0.118-0.048,0.178-0.072    c0.272-0.107,0.537-0.226,0.798-0.357c0.08-0.041,0.16-0.08,0.239-0.122c0.306-0.164,0.605-0.339,0.892-0.534    c0.02-0.013,0.037-0.029,0.056-0.042c0.267-0.184,0.52-0.384,0.768-0.595c0.075-0.064,0.148-0.128,0.221-0.194    c0.225-0.203,0.441-0.415,0.646-0.637c0.034-0.037,0.071-0.069,0.103-0.107c0.235-0.264,0.454-0.543,0.662-0.832    c0.018-0.026,0.041-0.048,0.059-0.075l246.193-351.568C512.732,140.625,512.571,135.823,509.83,132.422z M408.953,38.48    l72.743,90.288H349.501L408.953,38.48z M389.955,31.666l-58.572,88.948l-57.383-88.948H389.955z M313.3,128.768H198.702    l57.299-88.816L313.3,128.768z M238,31.666l-57.383,88.948l-58.571-88.948H238z M103.049,38.48l59.452,90.288H30.306    L103.049,38.48z M28.65,148.384h144.123l63.503,296.492L28.65,148.384z M256.001,443.313l-63.167-294.929h126.334L256.001,443.313    z M275.727,444.876l63.503-296.492h144.121L275.727,444.876z" fill="#FFFFFF"/>
	</g>
</g>
<g>
</g>
<g>
</g>
<g>
</g>
<g>
</g>
<g>
</g>
<g>
</g>
<g>
</g>
<g>
</g>
<g>
</g>
<g>
</g>
<g>
</g>
<g>
</g>
<g>
</g>
<g>
</g>
<g>
</g>
</svg>
