<?xml version="1.0" encoding="utf-8"?>
<!-- Generator: Adobe Illustrator 18.0.0, SVG Export Plug-In . SVG Version: 6.00 Build 0)  -->
<!DOCTYPE svg PUBLIC "-//W3C//DTD SVG 1.1//EN" "http://www.w3.org/Graphics/SVG/1.1/DTD/svg11.dtd">
<svg version="1.1" id="Capa_1" xmlns="http://www.w3.org/2000/svg" xmlns:xlink="http://www.w3.org/1999/xlink" x="0px" y="0px"
	 viewBox="0 16.8 512 478.4" enable-background="new 0 16.8 512 478.4" xml:space="preserve">
<g>
	<g>
		<path fill="#FFFFFF" d="M465,496.8H46.5c-17.4,0-30.6-14.3-30.6-30.6V47.7c0-17.4,14.3-30.6,30.6-30.6H464
			c17.4,0,30.6,14.3,30.6,30.6v417.5C495.6,482.6,481.4,496.8,465,496.8z M46.5,62v388.9c0,8.2,6.1,14.3,14.3,14.3h383.8
			c11.2,0,19.4-9.2,19.4-19.4V63c0-8.2-6.1-14.3-14.3-14.3l-387.9-1C53.7,47.7,46.5,53.9,46.5,62z"/>
	</g>
	<path fill="#FFFFFF" d="M289.5,173.3H219c-4.1,0-8.2-4.1-8.2-8.2V94.7c0-4.1,4.1-8.2,8.2-8.2h70.4c4.1,0,8.2,4.1,8.2,8.2v70.4
		C298.6,170.2,294.6,173.3,289.5,173.3z"/>
	<path fill="#FFFFFF" d="M419.1,173.3h-70.4c-4.1,0-8.2-4.1-8.2-8.2V94.7c0-4.1,4.1-8.2,8.2-8.2h70.4c4.1,0,8.2,4.1,8.2,8.2v70.4
		C427.3,170.2,424.2,173.3,419.1,173.3z"/>
	<path fill="#FFFFFF" d="M160.8,300.9H90.4c-4.1,0-8.2-4.1-8.2-8.2v-70.4c0-4.1,4.1-8.2,8.2-8.2h70.4c4.1,0,8.2,4.1,8.2,8.2v70.4
		C169,296.8,164.9,300.9,160.8,300.9z"/>
	<path fill="#FFFFFF" d="M419.1,300.9h-70.4c-4.1,0-8.2-4.1-8.2-8.2v-70.4c0-4.1,4.1-8.2,8.2-8.2h70.4c4.1,0,8.2,4.1,8.2,8.2v70.4
		C427.3,296.8,424.2,300.9,419.1,300.9z"/>
	<path fill="#FFFFFF" d="M160.8,427.4H90.4c-4.1,0-8.2-4.1-8.2-8.2v-70.4c0-4.1,4.1-8.2,8.2-8.2h70.4c4.1,0,8.2,4.1,8.2,8.2v70.4
		C169,423.4,164.9,427.4,160.8,427.4z"/>
	<path fill="#FFFFFF" d="M289.5,427.4H219c-4.1,0-8.2-4.1-8.2-8.2v-70.4c0-4.1,4.1-8.2,8.2-8.2h70.4c4.1,0,8.2,4.1,8.2,8.2v70.4
		C298.6,423.4,294.6,427.4,289.5,427.4z"/>
	<path fill="#FFFFFF" d="M160.8,86.5H90.4c-5.1,0-8.2,4.1-8.2,8.2v70.4c0,4.1,4.1,8.2,8.2,8.2h70.4c4.1,0,8.2-4.1,8.2-8.2V94.7
		C169,90.6,164.9,86.5,160.8,86.5z M139.4,131.4l10.2,10.2c4.1,4.1,4.1,9.2,0,13.3c-2,2-4.1,3.1-6.1,3.1s-5.1-1-6.1-3.1l-10.2-10.2
		c-1-1-2-1-2,0l-10.2,10.2c-2,2-4.1,3.1-6.1,3.1c-2,0-5.1-1-6.1-3.1c-4.1-4.1-4.1-9.2,0-13.3l10.2-10.2c1-1,1-2,0-2l-10.2-10.2
		c-4.1-4.1-4.1-9.2,0-13.3c4.1-4.1,9.2-4.1,13.3,0l10.2,10.2c1,1,2,1,2,0l10.2-10.2c4.1-4.1,9.2-4.1,13.3,0c4.1,4.1,4.1,9.2,0,13.3
		l-10.2,10.2C138.4,129.4,138.4,130.4,139.4,131.4z"/>
	<path fill="#FFFFFF" d="M289.5,213.1H219c-4.1,0-8.2,4.1-8.2,8.2v70.4c0,4.1,4.1,8.2,8.2,8.2h70.4c4.1,0,8.2-4.1,8.2-8.2v-70.4
		C298.6,217.2,294.6,213.1,289.5,213.1z M269,258l10.2,10.2c4.1,4.1,4.1,9.2,0,13.3c-2,2-4.1,3.1-6.1,3.1c-2,0-5.1-1-6.1-3.1
		l-10.2-10.2c-1-1-2-1-2,0l-10.2,10.2c-2,2-4.1,3.1-6.1,3.1s-5.1-1-6.1-3.1c-4.1-4.1-4.1-9.2,0-13.3l10.2-10.2c1-1,1-2,0-2
		l-10.2-10.2c-4.1-4.1-4.1-9.2,0-13.3c4.1-4.1,9.2-4.1,13.3,0l10.2,10.2c1,1,2,1,2,0l10.2-10.2c4.1-4.1,9.2-4.1,13.3,0
		c4.1,4.1,4.1,9.2,0,13.3L271.1,256C268,256,268,258,269,258z"/>
	<path fill="#FFFFFF" d="M419.1,340.7h-70.4c-4.1,0-8.2,4.1-8.2,8.2v70.4c0,4.1,4.1,8.2,8.2,8.2h70.4c4.1,0,8.2-4.1,8.2-8.2v-70.4
		C427.3,343.7,424.2,340.7,419.1,340.7z M398.7,384.6l10.2,10.2c4.1,4.1,4.1,9.2,0,13.3c-2,2-4.1,3.1-6.1,3.1c-2,0-5.1-1-6.1-3.1
		l-10.2-10.2c-1-1-2-1-2,0L374.2,408c-2,2-4.1,3.1-6.1,3.1c-2,0-5.1-1-6.1-3.1c-4.1-4.1-4.1-9.2,0-13.3l10.2-10.2c1-1,1-2,0-2
		l-10.2-10.2c-4.1-4.1-4.1-9.2,0-13.3c4.1-4.1,9.2-4.1,13.3,0l10.2,10.2c1,1,2,1,2,0l10.2-10.2c4.1-4.1,9.2-4.1,13.3,0
		c4.1,4.1,4.1,9.2,0,13.3l-10.2,10.2C397.7,383.5,397.7,384.6,398.7,384.6z"/>
</g>
</svg>
