<?xml version="1.0" encoding="utf-8"?>
<!-- Generator: Adobe Illustrator 18.0.0, SVG Export Plug-In . SVG Version: 6.00 Build 0)  -->
<!DOCTYPE svg PUBLIC "-//W3C//DTD SVG 1.1//EN" "http://www.w3.org/Graphics/SVG/1.1/DTD/svg11.dtd">
<svg version="1.1" id="Layer_1" xmlns="http://www.w3.org/2000/svg" xmlns:xlink="http://www.w3.org/1999/xlink" x="0px" y="0px"
	 viewBox="0 0 900 900" enable-background="new 0 0 900 900" xml:space="preserve">
<path fill="#FFFFFF" d="M634.6,1.5H265.1c-62.8,0-114.9,52-114.9,114.9v667.5c0,62.8,52,114.9,114.9,114.9h369.5
	c62.8,0,114.9-52,114.9-114.9V116.4C749.4,52.4,697.4,1.5,634.6,1.5z M449.3,873.7c-16.3,0-29.3-13-29.3-29.3
	c0-16.3,13-29.3,29.3-29.3s29.3,13,29.3,29.3C478.6,860.7,465.6,873.7,449.3,873.7z M696.3,698.2c0,52-42.3,94.3-94.3,94.3H297.6
	c-52,0-94.3-42.3-94.3-94.3V148.9c0-52,42.3-94.3,94.3-94.3h304.5c52,0,94.3,42.3,94.3,94.3V698.2z"/>
<path fill="#FFFFFF" d="M449.8,620.7c-35.8,0-70.4-10.8-98.6-32.5c-75.8-54.2-93.2-160.4-37.9-236.2c31.4-44.4,83.4-70.4,137.6-70.4
	c35.8,0,70.4,10.8,98.6,32.5c69.3,49.8,88.8,141.9,50.9,215.6l17.3,14.1c15.2-27.1,23.8-58.5,23.8-92.1
	c0-106.2-85.6-192.9-190.7-192.9c-106.2,0-191.8,85.6-192.9,189.6c0,107.3,85.6,192.9,190.7,192.9c37.9,0,72.6-10.8,101.9-29.3
	l-14.1-17.3C511.6,612.1,481.3,620.7,449.8,620.7z"/>
<path fill="#FFFFFF" d="M417.7,589.9c1.1-6.5,3.3-13,4.3-19.5c8.7,2.2,17.3,3.3,26,3.3c4.3,0,7.6,0,11.9-1.1l-2.2-19.5
	c-3.3,0-6.5,0-9.8,0c-27.1,0-53.1-10.8-72.6-30.3c-40.1-40.1-40.1-105.1,0-145.2c19.5-19.5,45.5-30.3,72.6-30.3s53.1,10.8,72.6,30.3
	c20.6,20.6,30.3,47.7,30.3,74.8l19.5,2.2c0-5.4,0-11.9-1.1-17.3c6.5-1.1,14.1-1.1,21.7-2.2c3.3,27.1-2.2,53.1-13,76.9l15.2,11.9
	c35.8-69.3,16.3-157.1-48.8-204.8c-28.2-20.6-60.7-30.3-94.3-30.3c-52,0-100.8,24.9-131.1,67.2c-52,72.6-35.8,173.4,36.8,225.4
	c28.2,19.5,60.7,30.3,94.3,30.3c29.3,0,57.4-8.7,82.3-22.8l-11.9-14.1C489.2,593.1,444.8,599.6,417.7,589.9z M510.9,322.2
	c29.3,15.2,52,36.8,66.1,66.1c-6.5,3.3-13,6.5-19.5,9.8c-5.4-11.9-14.1-22.8-23.8-33.6c-9.8-9.8-21.7-18.4-33.6-23.8
	C504.4,335.2,507.7,328.7,510.9,322.2z M464.3,308.1c-1.1,7.6-1.1,14.1-2.2,21.7c-4.3,0-8.7-1.1-13-1.1c-23.8,0-45.5,6.5-65,18.4
	c-3.3-5.4-7.6-11.9-10.8-18.4C400.4,312.5,430.7,306,464.3,308.1z M336.5,364.5c5.4,4.3,10.8,9.8,16.3,14.1
	c-17.3,21.7-26,48.8-26,76.9c-6.5,0-14.1,0-21.7,0C306.1,423,315.9,390.5,336.5,364.5z M372.2,572.5c-28.2-17.3-47.7-42.3-58.5-72.6
	c6.5-2.2,13-5.4,19.5-7.6c5.4,16.3,15.2,32.5,28.2,45.5c6.5,6.5,14.1,11.9,21.7,17.3C380.9,560.6,376.6,566,372.2,572.5z"/>
<polygon fill="#FFFFFF" points="507.3,459.8 489.9,445.8 484.5,440.3 469.3,429.5 456.3,418.7 453.1,415.4 437.9,403.5 428.2,394.8 
	447.7,375.3 452,372.1 448.8,371 364.2,364.5 371.8,452.3 394.6,428.4 404.3,440.3 416.3,454.4 418.4,457.7 429.3,470.7 
	442.3,485.8 446.6,491.3 460.7,508.6 482.3,535.7 535.4,482.6 "/>
</svg>
