<?xml version="1.0" encoding="iso-8859-1"?>
<!-- Generator: Adobe Illustrator 17.1.0, SVG Export Plug-In . SVG Version: 6.00 Build 0)  -->
<!DOCTYPE svg PUBLIC "-//W3C//DTD SVG 1.1//EN" "http://www.w3.org/Graphics/SVG/1.1/DTD/svg11.dtd">
<svg xmlns="http://www.w3.org/2000/svg" xmlns:xlink="http://www.w3.org/1999/xlink" version="1.1" id="Capa_1" x="0px" y="0px" viewBox="0 0 512.016 512.016" style="enable-background:new 0 0 512.016 512.016;" xml:space="preserve" width="512px" height="512px">
<g>
	<path d="M456.014,112.003H56.001c-4.418,0-8,3.582-8,8v240.008c0,4.418,3.582,8,8,8h400.013c4.418,0,8-3.582,8-8V120.003   C464.014,115.585,460.433,112.003,456.014,112.003z M448.014,352.011H64.001V128.003h384.013V352.011z" fill="#FFFFFF"/>
	<path d="M504.016,384.012h-8V116.769c0-20.273-16.539-36.767-36.868-36.767H52.853C32.532,80.002,16,96.496,16,116.769v267.243H8   c-4.418,0-8,3.582-8,8V407.9c0,13.296,10.817,24.113,24.113,24.113h463.789c13.296,0,24.113-10.817,24.113-24.113v-15.888   C512.016,387.594,508.434,384.012,504.016,384.012z M32,116.769c0-11.451,9.354-20.767,20.852-20.767h406.294   c11.507,0,20.868,9.316,20.868,20.767v267.243H32V116.769z M496.016,407.9c0,4.474-3.64,8.113-8.113,8.113H24.113   c-4.474,0-8.113-3.64-8.113-8.113v-7.888h208.007v0c0,4.418,3.582,8,8,8h48.002c4.418,0,8-3.582,8-8v0h208.007V407.9z" fill="#FFFFFF"/>
	<path d="M224.007,312.009h64.002c8.823,0,16-7.178,16-16V184.006c0-8.823-7.178-16-16-16h-64.002c-8.823,0-16,7.178-16,16v112.003   C208.006,304.832,215.184,312.009,224.007,312.009z M224.007,184.005l64.002-0.001l0,112.005l-64.002,0L224.007,184.005z" fill="#FFFFFF"/>
	<path d="M272.008,240.007c0-8.823-7.178-16-16-16s-16,7.178-16,16s7.178,16,16,16S272.008,248.83,272.008,240.007z" fill="#FFFFFF"/>
	<path d="M240.008,208.003c2.11,0,4.17-0.85,5.66-2.34c1.49-1.49,2.34-3.55,2.34-5.66c0-2.1-0.85-4.16-2.34-5.65   c-1.49-1.49-3.56-2.35-5.66-2.35c-2.11,0-4.17,0.86-5.66,2.35c-1.49,1.48-2.34,3.55-2.34,5.65c0,2.11,0.85,4.17,2.34,5.66   C235.838,207.153,237.897,208.003,240.008,208.003z" fill="#FFFFFF"/>
	<path d="M272.008,192.003c-2.11,0-4.17,0.86-5.66,2.35c-1.49,1.49-2.34,3.55-2.34,5.65c0,2.11,0.85,4.17,2.34,5.66   c1.49,1.49,3.56,2.34,5.66,2.34c2.11,0,4.17-0.85,5.66-2.34c1.49-1.49,2.34-3.55,2.34-5.66c0-2.1-0.85-4.16-2.34-5.65   C276.178,192.863,274.118,192.003,272.008,192.003z" fill="#FFFFFF"/>
	<path d="M272.008,272.013c-2.1,0-4.17,0.85-5.66,2.34c-1.49,1.49-2.34,3.55-2.34,5.66c0,2.1,0.85,4.16,2.34,5.65   c1.49,1.49,3.55,2.35,5.66,2.35c2.11,0,4.17-0.86,5.66-2.35c1.49-1.49,2.34-3.55,2.34-5.65c0-2.11-0.85-4.17-2.34-5.66   C276.178,272.863,274.118,272.013,272.008,272.013z" fill="#FFFFFF"/>
	<path d="M240.008,272.003c-2.11,0-4.17,0.86-5.66,2.35c-1.49,1.49-2.34,3.55-2.34,5.66c0,2.1,0.85,4.16,2.34,5.65   c1.49,1.49,3.55,2.35,5.66,2.35c2.1,0,4.17-0.86,5.66-2.35c1.49-1.49,2.34-3.55,2.34-5.65c0-2.11-0.85-4.17-2.34-5.66   C244.178,272.863,242.108,272.003,240.008,272.003z" fill="#FFFFFF"/>
	<path d="M112.003,312.009h64.002c8.822,0,16-7.178,16-16V184.006c0-8.823-7.178-16-16-16h-64.002c-8.823,0-16,7.178-16,16v112.003   C96.003,304.832,103.181,312.009,112.003,312.009z M112.003,184.005l64.002-0.001v112.005l-64.002,0L112.003,184.005z" fill="#FFFFFF"/>
	<path d="M160.004,240.007c0-8.823-7.178-16-16-16c-8.823,0-16,7.178-16,16s7.178,16,16,16   C152.827,256.008,160.004,248.83,160.004,240.007z" fill="#FFFFFF"/>
	<path d="M128.008,208.003c2.1,0,4.17-0.85,5.65-2.34c1.49-1.49,2.35-3.55,2.35-5.66c0-2.1-0.86-4.16-2.35-5.65   c-1.49-1.49-3.55-2.35-5.65-2.35c-2.11,0-4.17,0.86-5.66,2.35c-1.49,1.49-2.34,3.55-2.34,5.65c0,2.11,0.85,4.17,2.34,5.66   C123.838,207.153,125.897,208.003,128.008,208.003z" fill="#FFFFFF"/>
	<path d="M160.008,192.003c-2.11,0-4.17,0.86-5.66,2.35c-1.49,1.48-2.34,3.55-2.34,5.65c0,2.11,0.85,4.17,2.34,5.66   c1.49,1.49,3.55,2.34,5.66,2.34c2.1,0,4.16-0.85,5.65-2.34c1.49-1.49,2.35-3.55,2.35-5.66c0-2.1-0.86-4.16-2.35-5.65   C164.178,192.863,162.108,192.003,160.008,192.003z" fill="#FFFFFF"/>
	<path d="M160.008,272.013c-2.11,0-4.17,0.85-5.66,2.34c-1.49,1.49-2.34,3.55-2.34,5.66c0,2.1,0.85,4.16,2.34,5.65   c1.49,1.49,3.55,2.35,5.66,2.35c2.1,0,4.17-0.86,5.65-2.35c1.49-1.49,2.35-3.55,2.35-5.65c0-2.11-0.86-4.17-2.35-5.66   C164.178,272.863,162.108,272.013,160.008,272.013z" fill="#FFFFFF"/>
	<path d="M128.008,272.013c-2.11,0-4.17,0.85-5.66,2.34c-1.49,1.49-2.34,3.55-2.34,5.66c0,2.1,0.85,4.16,2.34,5.65   c1.49,1.49,3.55,2.35,5.66,2.35c2.1,0,4.16-0.86,5.65-2.35c1.49-1.49,2.35-3.55,2.35-5.65c0-2.11-0.86-4.17-2.35-5.66   C132.167,272.863,130.108,272.013,128.008,272.013z" fill="#FFFFFF"/>
	<path d="M320.01,256.01v39.999c0,8.823,7.178,16,16,16h64.002c8.555,0,15.544-6.755,15.96-15.208   c0.026-0.264,0.04-0.529,0.04-0.795V256.01c0-0.001,0-0.003,0-0.005v-39.996c0-0.002,0-0.003,0-0.005v-31.998   c0-8.823-7.178-16-16-16h-31.998c-0.002,0-0.003,0-0.005,0H336.01c-8.822,0-16,7.178-16,16v31.998c0,0.002,0,0.003,0,0.005v39.996   C320.01,256.007,320.01,256.009,320.01,256.01z M364.697,184.005l35.315,35.315l0,17.374l-52.689-52.689L364.697,184.005z    M400.012,259.321l0,17.374l-64.002-64.002v-17.374L400.012,259.321z M396.699,296.009h-17.374l-43.315-43.315V235.32   L396.699,296.009z M336.01,275.322l20.688,20.688H336.01V275.322z M400.013,184.004l0,12.689l-12.689-12.689L400.013,184.004z" fill="#FFFFFF"/>
</g>
<g>
</g>
<g>
</g>
<g>
</g>
<g>
</g>
<g>
</g>
<g>
</g>
<g>
</g>
<g>
</g>
<g>
</g>
<g>
</g>
<g>
</g>
<g>
</g>
<g>
</g>
<g>
</g>
<g>
</g>
</svg>
