<?xml version="1.0" encoding="iso-8859-1"?>
<!-- Generator: Adobe Illustrator 17.1.0, SVG Export Plug-In . SVG Version: 6.00 Build 0)  -->
<!DOCTYPE svg PUBLIC "-//W3C//DTD SVG 1.1//EN" "http://www.w3.org/Graphics/SVG/1.1/DTD/svg11.dtd">
<svg xmlns="http://www.w3.org/2000/svg" xmlns:xlink="http://www.w3.org/1999/xlink" version="1.1" id="Capa_1" x="0px" y="0px" viewBox="0 0 512 512" style="enable-background:new 0 0 512 512;" xml:space="preserve" width="512px" height="512px">
<g>
	<path d="M360,0H152c-22.056,0-40,17.944-40,40v432c0,22.056,17.944,40,40,40h208c22.056,0,40-17.944,40-40V40   C400,17.944,382.056,0,360,0z M360,496H152c-13.234,0-24-10.766-24-24v-24h200c4.418,0,8-3.582,8-8s-3.582-8-8-8H128V80h200   c4.418,0,8-3.582,8-8s-3.582-8-8-8H128V40c0-13.234,10.766-24,24-24h208c13.234,0,24,10.766,24,24v24h-24c-4.418,0-8,3.582-8,8   s3.582,8,8,8h24v352h-24c-4.418,0-8,3.582-8,8s3.582,8,8,8h24v24C384,485.234,373.234,496,360,496z" fill="#FFFFFF"/>
	<path d="M272,32h-32c-4.418,0-8,3.582-8,8s3.582,8,8,8h32c4.418,0,8-3.582,8-8S276.418,32,272,32z" fill="#FFFFFF"/>
	<path d="M216,32c-2.11,0-4.17,0.85-5.66,2.34S208,37.89,208,40c0,2.11,0.85,4.17,2.34,5.66S213.89,48,216,48   c2.11,0,4.17-0.85,5.66-2.34c1.49-1.49,2.34-3.55,2.34-5.66c0-2.11-0.85-4.17-2.34-5.66C220.17,32.85,218.1,32,216,32z" fill="#FFFFFF"/>
	<path d="M256,456c-8.822,0-16,7.178-16,16s7.178,16,16,16s16-7.178,16-16S264.822,456,256,456z" fill="#FFFFFF"/>
	<path d="M248,288c0-13.234-10.766-24-24-24s-24,10.766-24,24s10.766,24,24,24S248,301.234,248,288z M224,296c-4.411,0-8-3.589-8-8   s3.589-8,8-8s8,3.589,8,8S228.411,296,224,296z" fill="#FFFFFF"/>
	<path d="M200,240c2.11,0,4.17-0.85,5.66-2.34c1.49-1.49,2.34-3.55,2.34-5.66c0-2.11-0.85-4.17-2.34-5.66   c-1.49-1.49-3.55-2.34-5.66-2.34c-2.11,0-4.17,0.85-5.66,2.34S192,229.89,192,232c0,2.11,0.85,4.17,2.34,5.66S197.89,240,200,240z" fill="#FFFFFF"/>
	<path d="M248,224c-2.1,0-4.17,0.85-5.66,2.34S240,229.9,240,232c0,2.1,0.85,4.17,2.34,5.66S245.9,240,248,240   c2.1,0,4.17-0.85,5.66-2.34c1.49-1.49,2.34-3.55,2.34-5.66c0-2.11-0.85-4.17-2.34-5.66C252.17,224.85,250.11,224,248,224z" fill="#FFFFFF"/>
	<path d="M248,336c-2.1,0-4.17,0.85-5.66,2.34S240,341.9,240,344c0,2.11,0.85,4.17,2.34,5.66S245.89,352,248,352   c2.11,0,4.17-0.85,5.66-2.34c1.49-1.49,2.34-3.55,2.34-5.66c0-2.11-0.85-4.17-2.34-5.66C252.17,336.85,250.1,336,248,336z" fill="#FFFFFF"/>
	<path d="M200,336c-2.11,0-4.17,0.85-5.66,2.34S192,341.89,192,344c0,2.11,0.85,4.17,2.34,5.66S197.89,352,200,352   c2.11,0,4.17-0.85,5.66-2.34c1.49-1.49,2.34-3.55,2.34-5.66c0-2.11-0.85-4.17-2.34-5.66C204.17,336.85,202.11,336,200,336z" fill="#FFFFFF"/>
	<path d="M344,191.998V152c0-8.823-7.178-16-16-16h-39.997c-0.002,0-0.003,0-0.005,0h-39.995c-0.265,0-0.53,0.014-0.794,0.04   C238.755,136.457,232,143.445,232,152v23.998c0,0.001,0,0.003,0,0.005V200h-48c-8.822,0-16,7.177-16,16v144c0,8.823,7.178,16,16,16   h80c8.822,0,16-7.177,16-16v-48h48c0.264,0,0.528-0.014,0.791-0.04C337.245,311.544,344,304.556,344,296v-23.998   c0-0.001,0-0.003,0-0.005v-39.995c0-0.001,0-0.003,0-0.005v-39.995C344,192.001,344,191.999,344,191.998z M291.313,296L280,284.687   v-17.373L308.687,296H291.313z M280,244.687v-17.373l48,48v17.373L280,244.687z M248,172.687v-17.373l80,80v17.373L248,172.687z    M267.313,152h17.373L328,195.313v17.373L267.313,152z M328,172.687L307.313,152H328V172.687z M248,195.313l4.687,4.687H248   V195.313z M184,360V216l80-0.001v31.999c0,0.001,0,0.003,0,0.005v39.995c0,0.001,0,0.003,0,0.005V360H184z" fill="#FFFFFF"/>
</g>
<g>
</g>
<g>
</g>
<g>
</g>
<g>
</g>
<g>
</g>
<g>
</g>
<g>
</g>
<g>
</g>
<g>
</g>
<g>
</g>
<g>
</g>
<g>
</g>
<g>
</g>
<g>
</g>
<g>
</g>
</svg>
