<?xml version="1.0" encoding="utf-8"?>
<!-- Generator: Adobe Illustrator 19.2.1, SVG Export Plug-In . SVG Version: 6.00 Build 0)  -->
<svg version="1.1" id="Layer_1" xmlns="http://www.w3.org/2000/svg" xmlns:xlink="http://www.w3.org/1999/xlink" x="0px" y="0px"
	 viewBox="0 0 64 64" style="enable-background:new 0 0 64 64;" xml:space="preserve">
<style type="text/css">
	.st0{fill:#656565;}
</style>
<g>
	<ellipse transform="matrix(0.4277 -0.9039 0.9039 0.4277 -10.6131 47.2358)" class="st0" cx="32" cy="32" rx="1.5" ry="1.5"/>
	<path class="st0" d="M38.5,18.3c-7.6-3.6-16.6-0.4-20.2,7.2c-3.6,7.6-0.4,16.6,7.2,20.2c7.6,3.6,16.6,0.4,20.2-7.2
		C49.3,30.9,46,21.9,38.5,18.3z M44.7,38c-0.3,0.6-1,0.8-1.5,0.6c-0.5-0.2-0.7-0.7-0.7-1.2c-2.9-1.1-6-2.4-8.7-3.7
		c-0.5,0.5-1.2,0.7-1.9,0.7c-1.4,2.9-2.9,5.7-4.6,8.6c0.3,0.3,0.4,0.9,0.2,1.3c-0.2,0.5-0.8,0.8-1.4,0.6c-0.7-0.2-1-1-0.7-1.6
		c0.2-0.5,0.7-0.7,1.2-0.7c1-2.8,2.4-6.1,3.7-9c-0.5-0.5-0.7-1.2-0.7-1.9c-3.3-1.6-6.1-3.1-8.3-4.4c-0.3,0.4-0.9,0.5-1.3,0.3
		c-0.7-0.3-0.9-1.2-0.4-1.8c0.7-0.9,2.1-0.4,2.1,0.7c3.1,1.1,5.9,2.4,8.7,3.7c0.5-0.5,1.2-0.7,1.9-0.7c1.4-2.8,2.9-5.7,4.5-8.4
		c-1-1,0.3-2.6,1.5-1.8c1,0.7,0.4,2.2-0.7,2.1c-1.1,3-2.3,5.9-3.7,8.8c0.5,0.5,0.7,1.2,0.7,1.9c2.8,1.4,5.7,2.9,8.4,4.5
		C43.8,35.8,45.2,36.8,44.7,38z"/>
	<path class="st0" d="M32,64C14.4,64,0,49.6,0,32C0,14.4,14.4,0,32,0c17.6,0,32,14.4,32,32C64,49.6,49.6,64,32,64z M32,1.8
		C15.3,1.8,1.8,15.3,1.8,32c0,16.7,13.6,30.2,30.2,30.2c16.7,0,30.2-13.6,30.2-30.2C62.2,15.3,48.7,1.8,32,1.8z"/>
	<path class="st0" d="M14.9,37.8c0.6,1.6,1.4,3.2,2.4,4.6L13,45.5c-1.3-1.9-2.4-3.9-3.1-6.1L14.9,37.8 M15.1,37.5l-5.5,1.8
		c0.8,2.4,1.9,4.6,3.4,6.6l4.7-3.4C16.5,41,15.6,39.3,15.1,37.5L15.1,37.5z"/>
	<path class="st0" d="M17.6,42.5l-4.7,3.4c1.5,2,3.2,3.8,5.2,5.2l3.4-4.7C20,45.3,18.7,44,17.6,42.5z"/>
	<path class="st0" d="M21.6,46.7c1.4,1,3,1.8,4.6,2.4l-1.6,5.1c-2.2-0.7-4.2-1.8-6.1-3.1L21.6,46.7 M21.5,46.4l-3.4,4.7
		c2,1.4,4.2,2.6,6.6,3.4l1.8-5.5C24.7,48.4,23,47.5,21.5,46.4L21.5,46.4z"/>
	<path class="st0" d="M14.2,32H8.4c0,2.5,0.4,5,1.2,7.3l5.5-1.8C14.5,35.8,14.2,33.9,14.2,32z"/>
	<path class="st0" d="M26.5,48.9l-1.8,5.5c2.3,0.7,4.7,1.2,7.3,1.2v-5.8C30.1,49.8,28.2,49.5,26.5,48.9z"/>
	<path class="st0" d="M37.5,48.9l1.8,5.5c2.4-0.8,4.6-1.9,6.6-3.4l-3.4-4.7C41,47.5,39.3,48.4,37.5,48.9z"/>
	<path class="st0" d="M48.9,37.5c-0.6,1.8-1.4,3.5-2.5,5l4.7,3.4c1.4-2,2.6-4.2,3.4-6.6L48.9,37.5z"/>
	<path class="st0" d="M9.7,25l5.1,1.6C14.3,28.3,14,30,14,31.8l-5.3,0C8.7,29.5,9,27.2,9.7,25 M9.6,24.7C8.8,27,8.4,29.5,8.4,32
		c0.7,0,5.1,0,5.8,0c0-1.9,0.3-3.8,0.9-5.5L9.6,24.7L9.6,24.7z"/>
	<path class="st0" d="M37.4,49.2l1.6,5.1c-2.2,0.7-4.5,1.1-6.8,1.1V50C34,50,35.7,49.7,37.4,49.2 M37.5,48.9
		c-1.8,0.6-3.6,0.9-5.5,0.9v5.8c2.5,0,4.9-0.4,7.3-1.2L37.5,48.9L37.5,48.9z"/>
	<path class="st0" d="M46.5,42.8l4.3,3.1c-1.4,1.8-3,3.5-4.9,4.9l-3.1-4.3C44.2,45.4,45.4,44.2,46.5,42.8 M46.4,42.5
		c-1.1,1.5-2.4,2.8-3.9,3.9l3.4,4.7c2-1.5,3.8-3.2,5.2-5.2L46.4,42.5L46.4,42.5z"/>
	<path class="st0" d="M39.4,9.9c2.2,0.7,4.2,1.8,6.1,3.1l-3.1,4.3c-1.4-1-3-1.8-4.6-2.4L39.4,9.9 M39.3,9.6l-1.8,5.5
		c1.8,0.6,3.5,1.4,5,2.5l3.4-4.7C43.9,11.5,41.7,10.4,39.3,9.6L39.3,9.6z"/>
	<path class="st0" d="M46.4,21.5l4.7-3.4c-1.5-2-3.2-3.8-5.2-5.2l-3.4,4.7C44,18.7,45.3,20,46.4,21.5z"/>
	<path class="st0" d="M51,18.5c1.3,1.9,2.4,3.9,3.1,6.1l-5.1,1.6c-0.6-1.6-1.4-3.2-2.4-4.6L51,18.5 M51.1,18.2l-4.7,3.4
		c1.1,1.5,2,3.2,2.5,5l5.5-1.8C53.6,22.3,52.5,20.1,51.1,18.2L51.1,18.2z"/>
	<path class="st0" d="M49.8,32c0.1,0,5.9,0,5.8,0c0-2.5-0.4-5-1.2-7.3l-5.5,1.8C49.5,28.2,49.8,30.1,49.8,32z"/>
	<path class="st0" d="M55.3,32.2c0,2.3-0.4,4.6-1.1,6.8l-5.1-1.6c0.5-1.7,0.8-3.4,0.8-5.1H55.3 M55.6,32h-5.8c0,1.9-0.3,3.8-0.9,5.5
		l5.5,1.8C55.2,37,55.6,34.5,55.6,32L55.6,32z"/>
	<path class="st0" d="M26.5,15.1l-1.8-5.5c-2.4,0.8-4.6,1.9-6.6,3.4l3.4,4.7C23,16.5,24.7,15.6,26.5,15.1z"/>
	<path class="st0" d="M37.5,15.1l1.8-5.5c-2.3-0.8-4.8-1.2-7.3-1.2v5.8C33.9,14.2,35.7,14.5,37.5,15.1z"/>
	<path class="st0" d="M17.6,21.5l-4.7-3.4c-1.4,2-2.6,4.2-3.4,6.6l5.5,1.8C15.6,24.7,16.5,23,17.6,21.5z"/>
	<path class="st0" d="M18.1,13.3l3.1,4.3c-1.4,1-2.6,2.3-3.7,3.7l-4.3-3.1C14.6,16.3,16.3,14.6,18.1,13.3 M18.2,12.9
		c-2,1.5-3.8,3.2-5.2,5.2l4.7,3.4c1.1-1.5,2.4-2.8,3.9-3.9L18.2,12.9L18.2,12.9z"/>
	<path class="st0" d="M31.8,8.7V14c-1.7,0-3.5,0.3-5.1,0.8L25,9.7C27.2,9,29.5,8.7,31.8,8.7 M32,8.4c-2.5,0-5,0.4-7.3,1.2l1.8,5.5
		c1.7-0.6,3.6-0.9,5.5-0.9V8.4L32,8.4z"/>
</g>
</svg>
