<?xml version="1.0" encoding="iso-8859-1"?>
<!-- Generator: Adobe Illustrator 19.0.0, SVG Export Plug-In . SVG Version: 6.00 Build 0)  -->
<svg xmlns="http://www.w3.org/2000/svg" xmlns:xlink="http://www.w3.org/1999/xlink" version="1.1" id="Capa_1" x="0px" y="0px" viewBox="0 0 259 259" style="enable-background:new 0 0 259 259;" xml:space="preserve" width="512px" height="512px">
<g>
	<path d="M54.31,114.398c-2.296-2.057-5.738-3.636-10.237-4.693c-3.465-0.795-5.074-1.705-5.824-2.336   c-0.925-0.761-1.374-1.779-1.374-3.123c-0.014-1.602,0.457-2.62,1.489-3.482c1.065-0.909,2.711-1.263,4.771-1.263h0.117   c1.79,0,2.509,0.25,3.537,1.154c0.974,0.854,1.599,2.208,1.862,4.179l0.218,1.303l7.835-0.065l-0.059-1.656   c-0.199-3.758-1.632-6.781-4.27-8.987c-1.766-1.438-3.317-2.397-5.689-2.862l-0.022-4.935l-8.096,0.055l0.039,5.108   c-2.124,0.523-4.012,1.463-5.617,2.799c-2.745,2.269-4.125,5.213-4.103,8.751c0.019,3.089,1.138,5.708,3.331,7.789   c2.058,1.927,5.136,3.377,9.15,4.312c3.307,0.774,5.644,1.685,6.942,2.704c1.138,0.897,1.667,2.047,1.667,3.615   c0,1.975-0.579,3.445-1.774,4.498c-1.244,1.105-3.073,1.675-5.428,1.694c-2.391,0-3.438-0.548-4.653-1.639   c-1.209-1.048-1.813-2.557-1.846-4.634l-0.058-1.543l-7.91,0.028L28,123.691v0.055c0,3.14,1.656,5.941,4.44,8.34   c2.092,1.732,3.903,2.883,6.335,3.442l0.066,5.839l8.112-0.021l-0.038-5.839c2.616-0.572,4.863-1.678,6.67-3.282   c2.916-2.491,4.385-5.725,4.361-9.604C57.947,119.348,56.726,116.583,54.31,114.398z" fill="#FFFFFF"/>
	<path d="M118.331,114.398c-2.296-2.057-5.739-3.636-10.238-4.693c-3.465-0.795-5.074-1.705-5.823-2.336   c-0.925-0.761-1.375-1.779-1.375-3.122c-0.013-1.603,0.458-2.621,1.49-3.483c1.064-0.909,2.71-1.263,4.77-1.263h0.117   c1.789,0,2.509,0.25,3.538,1.153c0.973,0.854,1.598,2.209,1.862,4.178l0.216,1.305l7.834-0.065l-0.056-1.656   c-0.2-3.758-1.634-6.781-4.271-8.987c-1.766-1.438-3.317-2.397-5.689-2.862l-0.022-4.935l-8.095,0.055l0.039,5.108   c-2.125,0.523-4.013,1.463-5.618,2.799c-2.745,2.269-4.125,5.214-4.102,8.751c0.017,3.089,1.137,5.708,3.331,7.789   c2.056,1.927,5.135,3.377,9.15,4.312c3.307,0.774,5.644,1.685,6.942,2.703c1.137,0.898,1.666,2.048,1.666,3.616   c0,1.975-0.579,3.445-1.773,4.498c-1.244,1.105-3.073,1.675-5.429,1.694c-2.391,0-3.438-0.548-4.653-1.639   c-1.209-1.048-1.813-2.557-1.846-4.632l-0.055-1.545l-7.924,0.028L92,123.691v0.054c0,3.141,1.666,5.942,4.45,8.341   c2.145,1.774,3.909,2.891,6.34,3.443l0.068,5.838l8.114-0.021l-0.036-5.839c2.615-0.572,4.862-1.678,6.67-3.282   c2.916-2.491,4.385-5.725,4.361-9.604C121.967,119.349,120.746,116.583,118.331,114.398z" fill="#FFFFFF"/>
	<path d="M176.725,127.262c-1.244,1.105-3.073,1.675-5.429,1.694c-2.391,0-3.438-0.548-4.653-1.639   c-1.209-1.048-1.813-2.557-1.846-4.632l-0.055-1.545l-8.174,0.028L156,123.691v0.054c1,3.141,1.916,5.942,4.7,8.341   c2.145,1.774,4.034,2.891,6.465,3.443l0.131,5.838l8.145-0.021l-0.021-5.839c2.615-0.572,4.87-1.678,6.678-3.282   c2.916-2.491,4.389-5.725,4.365-9.604c0-3.271-1.22-6.037-3.635-8.223c-2.296-2.057-5.738-3.636-10.237-4.693   c-3.465-0.795-5.073-1.705-5.823-2.336c-0.925-0.761-1.375-1.779-1.375-3.122c-0.013-1.603,0.458-2.621,1.49-3.483   c1.064-0.909,2.71-1.263,4.77-1.263h0.117c1.789,0,2.509,0.25,3.538,1.153c0.973,0.854,1.598,2.209,1.862,4.178l0.216,1.305   l7.834-0.065l-0.056-1.656c-0.2-3.758-1.634-6.781-4.271-8.987c-1.766-1.438-3.317-2.397-5.689-2.862l-0.022-4.935l-8.095,0.055   l0.039,5.108c-2.125,0.523-4.013,1.463-5.618,2.799c-2.745,2.269-4.125,5.214-4.102,8.751c0.017,3.089,1.137,5.708,3.331,7.789   c2.056,1.927,5.135,3.377,9.15,4.312c3.307,0.774,5.644,1.685,6.942,2.703c1.137,0.898,1.666,2.048,1.666,3.616   C178.498,124.738,177.919,126.209,176.725,127.262z" fill="#FFFFFF"/>
	<path d="M259,31c0-12.406-10.01-22.5-22.417-22.5S213.959,18.594,213.959,31c0,8.682,5.041,16.226,12.041,19.976V188.5h-24v-16h11   v-116h-11v-21h-69.827c-2.465-11.549-12.744-20.238-25.017-20.238c-12.274,0-22.552,8.689-25.017,20.238H12v21H0v116h12v78h190v-42   h44V51.314C254,47.691,259,39.948,259,31z M84,152.5v-76h45v76H84z M193,152.5h-44v-76h44V152.5z M20,76.5h44v76H20V76.5z" fill="#FFFFFF"/>
</g>
<g>
</g>
<g>
</g>
<g>
</g>
<g>
</g>
<g>
</g>
<g>
</g>
<g>
</g>
<g>
</g>
<g>
</g>
<g>
</g>
<g>
</g>
<g>
</g>
<g>
</g>
<g>
</g>
<g>
</g>
</svg>
