<?xml version="1.0" encoding="iso-8859-1"?>
<!-- Generator: Adobe Illustrator 17.1.0, SVG Export Plug-In . SVG Version: 6.00 Build 0)  -->
<!DOCTYPE svg PUBLIC "-//W3C//DTD SVG 1.1//EN" "http://www.w3.org/Graphics/SVG/1.1/DTD/svg11.dtd">
<svg xmlns="http://www.w3.org/2000/svg" xmlns:xlink="http://www.w3.org/1999/xlink" version="1.1" id="Capa_1" x="0px" y="0px" viewBox="0 0 512 512" style="enable-background:new 0 0 512 512;" xml:space="preserve" width="512px" height="512px">
<g>
	<path d="M80,240h272c8.822,0,16-7.178,16-16V88c0-8.822-7.178-16-16-16H80c-8.822,0-16,7.178-16,16v136   C64,232.822,71.178,240,80,240z M176,224V88h80v136H176z M352,224h-80V88h80V224z M80,88h80v136H80V88z" fill="#FFFFFF"/>
	<path d="M120,296c-4.418,0-8,3.582-8,8c0,8.822-7.178,16-16,16s-16-7.178-16-16s7.178-16,16-16c4.418,0,8-3.582,8-8s-3.582-8-8-8   c-17.645,0-32,14.355-32,32s14.355,32,32,32s32-14.355,32-32C128,299.582,124.418,296,120,296z" fill="#FFFFFF"/>
	<path d="M200,296c-4.418,0-8,3.582-8,8c0,8.822-7.178,16-16,16s-16-7.178-16-16s7.178-16,16-16c4.418,0,8-3.582,8-8s-3.582-8-8-8   c-17.645,0-32,14.355-32,32s14.355,32,32,32s32-14.355,32-32C208,299.582,204.418,296,200,296z" fill="#FFFFFF"/>
	<path d="M280,296c-4.418,0-8,3.582-8,8c0,8.822-7.178,16-16,16s-16-7.178-16-16s7.178-16,16-16c4.418,0,8-3.582,8-8s-3.582-8-8-8   c-17.645,0-32,14.355-32,32s14.355,32,32,32s32-14.355,32-32C288,299.582,284.418,296,280,296z" fill="#FFFFFF"/>
	<path d="M368,304c0-4.418-3.582-8-8-8s-8,3.582-8,8c0,8.822-7.178,16-16,16s-16-7.178-16-16s7.178-16,16-16c4.418,0,8-3.582,8-8   s-3.582-8-8-8c-17.645,0-32,14.355-32,32s14.355,32,32,32S368,321.645,368,304z" fill="#FFFFFF"/>
	<path d="M472,288V182.987c13.786-3.561,24-16.104,24-30.987c0-17.645-14.355-32-32-32s-32,14.355-32,32   c0,14.884,10.214,27.426,24,30.987V288h-8v-16c0-13.233-10.767-24-24-24h-8V40c0-22.056-17.944-40-40-40H56   C33.944,0,16,17.944,16,40v432c0,22.056,17.944,40,40,40h320c22.056,0,40-17.944,40-40v-96h8c13.233,0,24-10.767,24-24v-16h24   c13.234,0,24-10.766,24-24S485.234,288,472,288z M448,152c0-8.822,7.178-16,16-16s16,7.178,16,16s-7.178,16-16,16   S448,160.822,448,152z M376,496H56c-13.234,0-24-10.766-24-24v-88h296c4.418,0,8-3.582,8-8s-3.582-8-8-8H32V40   c0-13.234,10.766-24,24-24h320c13.234,0,24,10.766,24,24v328h-40c-4.418,0-8,3.582-8,8s3.582,8,8,8h40v88   C400,485.234,389.234,496,376,496z M432,352c0,4.411-3.589,8-8,8h-8v-96h8c4.411,0,8,3.589,8,8V352z M472,320h-24v-16h24   c4.411,0,8,3.589,8,8S476.411,320,472,320z" fill="#FFFFFF"/>
	<path d="M248,416H80c-8.822,0-16,7.178-16,16v16c0,8.822,7.178,16,16,16h168c8.822,0,16-7.178,16-16v-16   C264,423.178,256.822,416,248,416z M248,448H80v-16h168V448z" fill="#FFFFFF"/>
	<path d="M368,416h-56c-8.822,0-16,7.178-16,16v16c0,8.822,7.178,16,16,16h56c8.822,0,16-7.178,16-16v-16   C384,423.178,376.822,416,368,416z M368,448h-56v-16h56V448z" fill="#FFFFFF"/>
	<path d="M149.981,133.3c0.085-0.095,0.17-0.19,0.25-0.289c0.089-0.11,0.171-0.224,0.253-0.339c0.069-0.096,0.139-0.191,0.204-0.29   c0.077-0.117,0.147-0.237,0.217-0.358c0.062-0.105,0.123-0.21,0.18-0.319c0.061-0.116,0.115-0.234,0.17-0.353   c0.055-0.12,0.11-0.239,0.16-0.361c0.045-0.112,0.085-0.226,0.125-0.34c0.047-0.132,0.093-0.265,0.133-0.4   c0.033-0.113,0.06-0.227,0.088-0.342c0.034-0.137,0.068-0.274,0.094-0.413c0.024-0.126,0.04-0.252,0.058-0.379   c0.018-0.129,0.038-0.257,0.05-0.388c0.014-0.153,0.018-0.306,0.023-0.46c0.003-0.09,0.014-0.179,0.014-0.269   c0-0.019-0.003-0.037-0.003-0.055c-0.001-0.175-0.014-0.35-0.026-0.525c-0.006-0.089-0.007-0.18-0.017-0.268   c-0.019-0.176-0.05-0.351-0.08-0.526c-0.015-0.084-0.023-0.171-0.041-0.254c-0.034-0.163-0.081-0.324-0.125-0.485   c-0.025-0.091-0.043-0.185-0.071-0.274c-0.041-0.131-0.094-0.259-0.142-0.388c-0.042-0.115-0.079-0.232-0.127-0.344   c-0.04-0.093-0.089-0.184-0.133-0.276c-0.068-0.144-0.132-0.29-0.208-0.429c-0.042-0.077-0.093-0.151-0.138-0.227   c-0.089-0.151-0.176-0.302-0.275-0.446c-0.05-0.074-0.109-0.144-0.162-0.216c-0.103-0.141-0.206-0.282-0.318-0.416   c-0.011-0.013-0.02-0.027-0.031-0.04c-0.06-0.07-0.126-0.132-0.187-0.2c-0.104-0.114-0.206-0.229-0.316-0.337   c-0.094-0.093-0.194-0.178-0.292-0.265c-0.095-0.085-0.188-0.17-0.287-0.25c-0.112-0.09-0.227-0.173-0.343-0.256   c-0.095-0.069-0.188-0.138-0.286-0.203c-0.119-0.078-0.24-0.149-0.362-0.22c-0.104-0.061-0.207-0.122-0.313-0.178   c-0.118-0.062-0.238-0.117-0.358-0.172c-0.118-0.055-0.236-0.11-0.357-0.159c-0.114-0.046-0.229-0.086-0.345-0.126   c-0.131-0.046-0.262-0.093-0.396-0.132c-0.115-0.034-0.232-0.061-0.348-0.089c-0.135-0.033-0.27-0.067-0.408-0.094   c-0.129-0.025-0.259-0.041-0.389-0.059c-0.126-0.018-0.251-0.038-0.379-0.05c-0.16-0.015-0.319-0.019-0.48-0.024   C144.172,120.01,144.087,120,144,120H96c-4.418,0-8,3.582-8,8v8c0,4.418,3.582,8,8,8s8-3.582,8-8h22.762   C119.633,146.557,112,162.798,112,184c0,4.418,3.582,8,8,8s8-3.582,8-8c0-31.247,20.269-49.117,21.192-49.914   c0.069-0.059,0.128-0.123,0.195-0.184c0.112-0.102,0.225-0.204,0.331-0.312C149.81,133.496,149.895,133.398,149.981,133.3z" fill="#FFFFFF"/>
	<path d="M245.981,133.3c0.085-0.095,0.17-0.19,0.25-0.289c0.089-0.11,0.171-0.224,0.253-0.339c0.069-0.096,0.139-0.191,0.204-0.29   c0.077-0.117,0.147-0.237,0.217-0.358c0.062-0.105,0.123-0.21,0.18-0.319c0.061-0.116,0.115-0.234,0.17-0.353   c0.055-0.12,0.11-0.239,0.16-0.361c0.045-0.112,0.085-0.226,0.125-0.34c0.047-0.132,0.093-0.265,0.133-0.4   c0.033-0.113,0.06-0.227,0.088-0.342c0.034-0.137,0.068-0.274,0.094-0.413c0.024-0.126,0.04-0.252,0.058-0.379   c0.018-0.129,0.038-0.257,0.05-0.388c0.014-0.153,0.018-0.306,0.023-0.46c0.003-0.09,0.014-0.179,0.014-0.269   c0-0.019-0.003-0.037-0.003-0.055c-0.001-0.175-0.014-0.35-0.026-0.525c-0.006-0.089-0.007-0.18-0.017-0.268   c-0.019-0.176-0.05-0.351-0.08-0.526c-0.015-0.084-0.023-0.171-0.041-0.254c-0.034-0.163-0.081-0.324-0.125-0.485   c-0.025-0.091-0.043-0.185-0.071-0.274c-0.041-0.131-0.094-0.259-0.142-0.388c-0.042-0.115-0.079-0.232-0.127-0.344   c-0.04-0.093-0.089-0.184-0.133-0.276c-0.068-0.144-0.132-0.29-0.208-0.429c-0.042-0.077-0.093-0.151-0.138-0.227   c-0.089-0.151-0.176-0.302-0.275-0.446c-0.05-0.074-0.109-0.144-0.162-0.216c-0.103-0.141-0.206-0.282-0.318-0.416   c-0.011-0.013-0.02-0.027-0.031-0.04c-0.06-0.07-0.126-0.132-0.187-0.2c-0.104-0.114-0.206-0.229-0.316-0.337   c-0.094-0.093-0.194-0.178-0.292-0.265c-0.095-0.085-0.188-0.17-0.287-0.25c-0.111-0.09-0.227-0.172-0.342-0.256   c-0.095-0.069-0.189-0.139-0.287-0.203c-0.118-0.078-0.24-0.148-0.361-0.219c-0.104-0.061-0.208-0.123-0.315-0.179   c-0.117-0.062-0.237-0.116-0.356-0.172c-0.119-0.055-0.237-0.11-0.358-0.16c-0.113-0.046-0.228-0.085-0.343-0.125   c-0.132-0.047-0.263-0.093-0.398-0.133c-0.114-0.034-0.23-0.06-0.346-0.089c-0.136-0.033-0.271-0.068-0.41-0.094   c-0.129-0.025-0.258-0.041-0.388-0.059c-0.126-0.018-0.252-0.038-0.38-0.05c-0.159-0.015-0.319-0.019-0.479-0.024   C240.172,120.01,240.087,120,240,120h-48c-4.418,0-8,3.582-8,8v8c0,4.418,3.582,8,8,8s8-3.582,8-8h22.762   C215.633,146.557,208,162.798,208,184c0,4.418,3.582,8,8,8s8-3.582,8-8c0-31.247,20.269-49.117,21.192-49.914   c0.069-0.059,0.128-0.123,0.195-0.184c0.112-0.102,0.225-0.204,0.331-0.312C245.81,133.496,245.895,133.398,245.981,133.3z" fill="#FFFFFF"/>
	<path d="M288,144c4.418,0,8-3.582,8-8h22.762C311.633,146.557,304,162.798,304,184c0,4.418,3.582,8,8,8s8-3.582,8-8   c0-31.247,20.269-49.117,21.192-49.914c0.069-0.059,0.128-0.123,0.195-0.184c0.112-0.102,0.225-0.204,0.331-0.312   c0.092-0.094,0.177-0.192,0.263-0.29c0.085-0.095,0.17-0.19,0.25-0.289c0.089-0.11,0.171-0.224,0.253-0.339   c0.069-0.096,0.139-0.191,0.204-0.29c0.077-0.117,0.147-0.237,0.217-0.358c0.062-0.105,0.123-0.21,0.18-0.319   c0.061-0.116,0.115-0.234,0.17-0.353c0.055-0.12,0.11-0.239,0.16-0.361c0.045-0.112,0.085-0.226,0.125-0.34   c0.047-0.132,0.093-0.265,0.133-0.4c0.033-0.113,0.06-0.227,0.088-0.342c0.034-0.137,0.068-0.274,0.094-0.413   c0.024-0.126,0.04-0.252,0.058-0.379c0.018-0.129,0.038-0.257,0.05-0.388c0.014-0.153,0.018-0.306,0.023-0.46   c0.003-0.09,0.014-0.179,0.014-0.269c0-0.019-0.003-0.037-0.003-0.055c-0.001-0.175-0.014-0.35-0.026-0.525   c-0.006-0.089-0.007-0.18-0.017-0.268c-0.019-0.176-0.05-0.351-0.08-0.526c-0.015-0.084-0.023-0.171-0.041-0.254   c-0.034-0.163-0.081-0.324-0.125-0.485c-0.025-0.091-0.043-0.185-0.071-0.274c-0.041-0.131-0.094-0.259-0.142-0.388   c-0.042-0.115-0.079-0.232-0.127-0.344c-0.04-0.093-0.089-0.184-0.133-0.276c-0.068-0.144-0.132-0.29-0.208-0.429   c-0.042-0.077-0.093-0.151-0.138-0.227c-0.089-0.151-0.176-0.302-0.275-0.446c-0.05-0.074-0.109-0.144-0.162-0.216   c-0.103-0.141-0.206-0.282-0.318-0.416c-0.011-0.013-0.02-0.027-0.031-0.04c-0.06-0.071-0.127-0.133-0.189-0.201   c-0.103-0.113-0.205-0.228-0.314-0.335c-0.096-0.094-0.196-0.18-0.295-0.269c-0.094-0.083-0.186-0.168-0.284-0.247   c-0.112-0.091-0.229-0.174-0.345-0.258c-0.094-0.068-0.186-0.137-0.283-0.201c-0.119-0.079-0.242-0.15-0.365-0.222   c-0.103-0.06-0.205-0.121-0.311-0.177c-0.118-0.062-0.239-0.118-0.36-0.174c-0.117-0.054-0.234-0.109-0.354-0.158   c-0.115-0.046-0.23-0.086-0.347-0.127c-0.131-0.046-0.261-0.092-0.395-0.132c-0.115-0.034-0.232-0.061-0.349-0.09   c-0.135-0.033-0.269-0.067-0.407-0.093c-0.129-0.025-0.26-0.041-0.39-0.06c-0.126-0.018-0.251-0.038-0.378-0.049   c-0.16-0.015-0.319-0.019-0.48-0.024C336.172,120.01,336.087,120,336,120h-48c-4.418,0-8,3.582-8,8v8   C280,140.418,283.582,144,288,144z" fill="#FFFFFF"/>
</g>
<g>
</g>
<g>
</g>
<g>
</g>
<g>
</g>
<g>
</g>
<g>
</g>
<g>
</g>
<g>
</g>
<g>
</g>
<g>
</g>
<g>
</g>
<g>
</g>
<g>
</g>
<g>
</g>
<g>
</g>
</svg>
