<?xml version="1.0" encoding="utf-8"?>
<!-- Generator: Adobe Illustrator 18.0.0, SVG Export Plug-In . SVG Version: 6.00 Build 0)  -->
<!DOCTYPE svg PUBLIC "-//W3C//DTD SVG 1.1//EN" "http://www.w3.org/Graphics/SVG/1.1/DTD/svg11.dtd">
<svg version="1.1" id="Capa_1" xmlns="http://www.w3.org/2000/svg" xmlns:xlink="http://www.w3.org/1999/xlink" x="0px" y="0px"
	 viewBox="-144 -144 800 800" enable-background="new -144 -144 800 800" xml:space="preserve">
<g>
	<path fill="#FFFFFF" d="M657,277.6L604.9,92.5c-6.7-23.7-28.5-39.3-52-39.3c-3.8,0-7.7,0.4-11.6,1.3l45.9,53.3
		c16.9,19.6,25.1,44.7,23.2,70.6c-1.9,25.9-13.8,49.5-33.4,66.4L384.6,410.3l235.1-66.2C648.2,336.1,665,306.2,657,277.6z
		 M621.9,307.5l-6.1-18.1l-9.9,2.1c0.9,0.6,1.7,1.4,2.5,2.5c0.8,1.1,1.4,2.3,1.9,3.7c1.6,4.4,1.5,8.3-0.4,11.6
		c-1.9,3.3-5.2,5.8-10.2,7.4c-4.3,1.4-8.3,1.3-12.2-0.4c-3.9-1.7-6.7-5.1-8.4-10.2c-1.5-4.3-1.5-8.6-0.2-12.5c1.3-4,3.9-7.9,7.9-7.9
		h0.2l4.1,10.2c-1.8,0.6-3.1,1.6-3.7,3c-0.7,1.4-0.7,2.9-0.2,4.5c0.6,1.9,1.8,3,3.4,3.4c1.6,0.3,3.4,0.2,5.5-0.5
		c2.5-0.8,4.3-2,5.4-3.3c1.1-1.4,1.4-3,0.7-5c-0.5-1.4-1.2-2.4-2.1-3.1c-0.9-0.7-1.9-1-2.9-1l-2.7-9.6l26.3-6l9,26.6L621.9,307.5z"
		/>
	<path fill="#FFFFFF" d="M355.4-17.3l64.1,28.9c48.8,22,70.6,79.6,48.6,128.5L363.7,371.4l185.1-159.3c22.5-19.4,25.1-53.6,5.7-76.1
		L429-9.7c-10.6-12.3-25.8-18.7-40.9-18.7C376.6-28.4,365-24.7,355.4-17.3z M535.2,161.4L535.2,161.4l7.4,8.3L520.5,189l3.2,3.6
		l-6.4,5.6l-3.2-3.6l-7.6,6.6l-7.3-8.4l7.6-6.6l-12.2-14l4.7-5L535.2,161.4z"/>
	<polygon fill="#FFFFFF" points="524.4,170.8 524.3,170.6 522.7,170.9 507.1,173.6 513.2,180.6 	"/>
	<path fill="#FFFFFF" d="M226.8-4.7c0.4,0,0.8,0,1.2,0c52.9,0,96.4,43,97.1,95.9l3.2,253.7l100.4-222.6c12.2-27,0.1-59.2-27-71.4
		L226.4-28.1c-7.1-3.2-14.6-4.7-22-4.7c-19.6,0-38.5,10.8-48,29L226.8-4.7z M400.8,100.4c-0.9,2-2.3,3.6-4.3,4.7
		c-2,1.1-4.2,1.7-6.7,1.8c2,1.9,3.2,4,3.8,6.3c0.6,2.3,0.3,4.7-0.8,7.2c-1.8,4-4.7,6.5-8.8,7.5c-4.1,1-8.5,0.4-13.3-1.7
		c-4.1-1.8-7.3-4.4-9.4-8c-2.1-3.5-2.3-7.3-0.4-11.4l0.1-0.2l10,4.3c-0.6,1.4-0.6,2.8,0.1,4.3c0.7,1.4,1.8,2.5,3.4,3.2
		c1.8,0.8,3.4,0.9,4.9,0.4c1.5-0.5,2.6-1.6,3.3-3.1c0.9-2.1,1-3.9,0.4-5.4c-0.7-1.5-2.1-2.6-4.1-3.5l-4.8-2.1l3.3-7.6l4.8,2.1
		c1.8,0.8,3.5,0.9,4.9,0.4c1.4-0.6,2.5-1.7,3.3-3.5c0.6-1.4,0.7-2.7,0.2-4.1c-0.5-1.3-1.6-2.4-3.2-3.1c-1.3-0.6-2.7-0.7-4-0.4
		c-1.3,0.3-2.3,1.1-2.8,2.3l-9.9-4.3l0-0.2c1.4-3.6,4-5.8,7.8-6.7c3.8-0.9,7.8-0.5,11.9,1.3c4.8,2.1,8.1,4.8,10,8.3
		C402.5,92.7,402.6,96.4,400.8,100.4z"/>
	<path fill="#FFFFFF" d="M35.1,40.9C6.4,41.2-16.8,64.1-18.1,92.4l63.4-30.5c13.2-6.4,27.3-9.6,42-9.6c37.2,0,71.6,21.6,87.6,54.9
		L285,335.9L282,91.7c-0.4-29.4-24.6-53.3-53.9-53.3c-0.2,0-0.5,0-0.7,0L35.1,40.9z M248.7,85.4c0.1,3-0.5,5.7-2,8.1
		c-1.5,2.4-4.2,6-8.2,10.7l-6.2,7.2l0.1,0.2l18.7-0.8l0.4,8.6l-33.5,1.5l-0.3-7.2l14.7-16.9c1.9-2.3,3.2-4.4,4-6.2
		c0.8-1.8,1.2-3.3,1.2-4.6c-0.1-1.8-0.6-3.3-1.6-4.3c-1-1.1-2.4-1.5-4.3-1.5c-1.7,0.1-2.9,0.8-3.8,2.3c-0.9,1.5-1.3,3.3-1.2,5.5
		l-10.9,0.5l-0.1-0.2c-0.3-4.4,1-8.2,3.8-11.5c2.9-3.2,6.8-4.9,11.7-5.2c5.3-0.2,9.4,0.9,12.5,3.3C246.9,77.4,248.5,80.9,248.7,85.4
		z"/>
	<path fill="#FFFFFF" d="M64.5,544.9l173.2-83.5c26.7-12.9,38.1-45.3,25.2-72L136,126c-9.3-19.2-28.7-30.5-48.8-30.5
		c-7.8,0-15.8,1.7-23.3,5.3l-173.2,83.4c-26.7,12.9-38.1,45.3-25.2,72L-7.6,519.7c9.3,19.2,28.7,30.5,48.8,30.5
		C49,550.2,57,548.5,64.5,544.9z M120.4,293.8l-20.9,96.7l-87.8-41.4l20.9-96.7L120.4,293.8z M120.7,169l-10.3,4.4l-6.2-7.5
		l-13.9,5.9l1.2,9.6l-10.3,4.4l-4.5-50.2l11-4.7L120.7,169z"/>
	<polygon fill="#FFFFFF" points="87.1,145.3 89.2,163 98.6,159 87.3,145.2 	"/>
</g>
</svg>
