<svg xmlns="http://www.w3.org/2000/svg" width="25.828" height="23.48" viewBox="0 0 25.828 23.48">
  <g id="money_1_" data-name="money (1)" transform="translate(0 -23.272)">
    <path id="Path_15" data-name="Path 15" d="M24.654,38.534H1.174A1.177,1.177,0,0,1,0,37.36V24.446a1.177,1.177,0,0,1,1.174-1.174h23.48a1.177,1.177,0,0,1,1.174,1.174V37.36A1.178,1.178,0,0,1,24.654,38.534Z" transform="translate(0 0)" fill="#0e9347"/>
    <path id="Path_16" data-name="Path 16" d="M254.86,232.727a3.929,3.929,0,0,0-3.287,1.7,4.379,4.379,0,0,0-2-.528,4.107,4.107,0,0,0-4.05,3.522H257.8a1.194,1.194,0,0,0,1.174-1A4.181,4.181,0,0,0,254.86,232.727Z" transform="translate(-233.141 -198.889)" fill="#0d8944"/>
    <path id="Path_17" data-name="Path 17" d="M44.405,59.46H25.621a2.355,2.355,0,0,0-2.348-2.348V48.894a2.355,2.355,0,0,0,2.348-2.348H44.405a2.355,2.355,0,0,0,2.348,2.348v8.218A2.355,2.355,0,0,0,44.405,59.46Z" transform="translate(-22.099 -22.1)" fill="#3bb54a"/>
    <g id="Group_1" data-name="Group 1" transform="translate(4.696 25.62)">
      <path id="Path_18" data-name="Path 18" d="M261.49,232.727a3.929,3.929,0,0,0-3.287,1.7,4.379,4.379,0,0,0-2-.528,4.032,4.032,0,0,0-3.7,2.348h9.568a2.343,2.343,0,0,1,2.289-2.348A4.243,4.243,0,0,0,261.49,232.727Z" transform="translate(-244.467 -224.509)" fill="#0e9347"/>
      <ellipse id="Ellipse_1" data-name="Ellipse 1" cx="4.696" cy="5.283" rx="4.696" ry="5.283" transform="translate(3.522 0)" fill="#0e9347"/>
      <circle id="Ellipse_2" data-name="Ellipse 2" cx="1.174" cy="1.174" r="1.174" transform="translate(0 4.109)" fill="#0e9347"/>
      <circle id="Ellipse_3" data-name="Ellipse 3" cx="1.174" cy="1.174" r="1.174" transform="translate(14.088 4.109)" fill="#0e9347"/>
    </g>
    <path id="Path_19" data-name="Path 19" d="M212.39,107.664h-1.174a.587.587,0,1,1,0-1.174h1.761a.587.587,0,1,0,0-1.174h-.587a.587.587,0,1,0-1.174,0,1.761,1.761,0,0,0,0,3.522h1.174a.587.587,0,1,1,0,1.174h-1.761a.587.587,0,1,0,0,1.174h.587a.587.587,0,1,0,1.174,0,1.761,1.761,0,0,0,0-3.522Z" transform="translate(-198.889 -77.348)" fill="#89c763"/>
    <circle id="Ellipse_4" data-name="Ellipse 4" cx="4.109" cy="4.109" r="4.109" transform="translate(11.153 35.012)" fill="#ffca5d"/>
    <circle id="Ellipse_5" data-name="Ellipse 5" cx="4.109" cy="4.109" r="4.109" transform="translate(16.436 33.838)" fill="#f6b545"/>
    <path id="Path_20" data-name="Path 20" d="M329.927,232.727a4.109,4.109,0,1,0,4.109,4.109A4.084,4.084,0,0,0,329.927,232.727Zm0,7.044a2.935,2.935,0,1,1,2.935-2.935A2.907,2.907,0,0,1,329.927,239.771Z" transform="translate(-309.382 -198.889)" fill="#ffcb5b"/>
    <path id="Path_21" data-name="Path 21" d="M407.273,318.232h0a4.034,4.034,0,0,0,4.109-4.05h-.059a.624.624,0,0,0-.587.528,3.549,3.549,0,0,1-1.115,2.113,3.326,3.326,0,0,1-1.82.88A.526.526,0,0,0,407.273,318.232Z" transform="translate(-386.728 -276.235)" fill="#f6b545"/>
    <path id="Path_22" data-name="Path 22" d="M329.927,233.866h0a4.035,4.035,0,0,0-4.109,4.05h.059a.624.624,0,0,0,.587-.528,3.549,3.549,0,0,1,1.115-2.113,3.326,3.326,0,0,1,1.82-.881A.526.526,0,0,0,329.927,233.866Z" transform="translate(-309.382 -199.969)" fill="#ffe27a"/>
    <path id="Path_23" data-name="Path 23" d="M349.5,259.346a2.907,2.907,0,0,1,2.935-2.935,2.769,2.769,0,0,1,1.878.7,2.926,2.926,0,0,0-5.224,1.82,2.814,2.814,0,0,0,1.057,2.231A2.753,2.753,0,0,1,349.5,259.346Z" transform="translate(-331.481 -220.988)" fill="#f19920"/>
    <path id="Path_24" data-name="Path 24" d="M437.21,310.477a.216.216,0,0,1-.176-.059.284.284,0,0,1,0-.411,1.959,1.959,0,0,0,.528-1.35.293.293,0,1,1,.587,0,2.711,2.711,0,0,1-.646,1.761A.638.638,0,0,1,437.21,310.477Z" transform="translate(-414.904 -270.71)" fill="#ffcb5b"/>
    <g id="Group_2" data-name="Group 2" transform="translate(16.495 35.012)">
      <path id="Path_25" data-name="Path 25" d="M396.224,282.8a.555.555,0,0,1-.587-.587v-2.348a.587.587,0,1,1,1.174,0v2.348A.555.555,0,0,1,396.224,282.8Z" transform="translate(-392.174 -278.1)" fill="#f19920"/>
      <path id="Path_26" data-name="Path 26" d="M333.2,262.4a4.769,4.769,0,0,0-2.818-3.17A4.907,4.907,0,0,0,328.155,256a4.243,4.243,0,0,0-1.174,2.876,4.084,4.084,0,0,0,4.109,4.109A3.4,3.4,0,0,0,333.2,262.4Z" transform="translate(-326.981 -256)" fill="#f19920"/>
    </g>
    <g id="Group_3" data-name="Group 3" transform="translate(17.61 35.775)">
      <path id="Path_27" data-name="Path 27" d="M350.147,275.531a3.088,3.088,0,0,1-.7-1.878,2.842,2.842,0,0,1,.939-2.113,2.552,2.552,0,0,0-.352-.411,2.876,2.876,0,0,0-.939,2.172A2.814,2.814,0,0,0,350.147,275.531Z" transform="translate(-349.09 -271.128)" fill="#e78825"/>
      <path id="Path_28" data-name="Path 28" d="M395.636,321.164v.822a.587.587,0,0,0,1.174,0v-.117A4.8,4.8,0,0,0,395.636,321.164Z" transform="translate(-393.288 -318.64)" fill="#e78825"/>
    </g>
    <path id="Path_29" data-name="Path 29" d="M332.1,263.5a3.752,3.752,0,0,0-.47-1.115,2.841,2.841,0,0,1-1.7.587,2.907,2.907,0,0,1-2.935-2.935,2.876,2.876,0,0,1,.939-2.172,3.581,3.581,0,0,0-.939-.7,4.243,4.243,0,0,0-1.174,2.876,4.084,4.084,0,0,0,4.109,4.109A3.936,3.936,0,0,0,332.1,263.5Z" transform="translate(-309.382 -222.091)" fill="#f6b545"/>
    <path id="Path_30" data-name="Path 30" d="M409.268,372.364a4.058,4.058,0,0,1-1.468.587.624.624,0,0,0-.528.587h0a3.937,3.937,0,0,0,2.172-.646Z" transform="translate(-386.727 -331.482)" fill="#f19920"/>
    <path id="Path_31" data-name="Path 31" d="M326.992,257.164a4.243,4.243,0,0,0-1.174,2.876h.059a.624.624,0,0,0,.587-.528,3.653,3.653,0,0,1,1.057-2.055A2.382,2.382,0,0,1,326.992,257.164Z" transform="translate(-309.382 -222.093)" fill="#ffcb5b"/>
    <circle id="Ellipse_6" data-name="Ellipse 6" cx="4.109" cy="4.109" r="4.109" transform="translate(11.153 35.012)" fill="#f6b545"/>
    <path id="Path_32" data-name="Path 32" d="M290.909,318.29a4.067,4.067,0,0,0,.176,1.174h.411a4.1,4.1,0,0,0,3.933-5.283h-.411A4.084,4.084,0,0,0,290.909,318.29Z" transform="translate(-276.234 -276.234)" fill="#f19920"/>
    <path id="Path_33" data-name="Path 33" d="M225.2,256a4.109,4.109,0,1,0,4.109,4.109A4.084,4.084,0,0,0,225.2,256Zm0,7.044a2.935,2.935,0,1,1,2.935-2.935A2.907,2.907,0,0,1,225.2,263.044Z" transform="translate(-209.937 -220.988)" fill="#ffcb5b"/>
    <path id="Path_34" data-name="Path 34" d="M302.545,341.505h0a4.034,4.034,0,0,0,4.109-4.05H306.6a.624.624,0,0,0-.587.528,3.549,3.549,0,0,1-1.115,2.113,3.326,3.326,0,0,1-1.82.881A.526.526,0,0,0,302.545,341.505Z" transform="translate(-287.283 -298.334)" fill="#f6b545"/>
    <path id="Path_35" data-name="Path 35" d="M225.2,257.139h0a4.035,4.035,0,0,0-4.109,4.05h.059a.624.624,0,0,0,.587-.528,3.549,3.549,0,0,1,1.115-2.113,3.326,3.326,0,0,1,1.82-.881A.526.526,0,0,0,225.2,257.139Z" transform="translate(-209.937 -222.068)" fill="#ffe27a"/>
    <path id="Path_36" data-name="Path 36" d="M244.774,282.619a2.907,2.907,0,0,1,2.935-2.935,2.769,2.769,0,0,1,1.878.7,2.926,2.926,0,0,0-5.224,1.82,2.814,2.814,0,0,0,1.057,2.231A2.753,2.753,0,0,1,244.774,282.619Z" transform="translate(-232.036 -243.087)" fill="#f19920"/>
    <path id="Path_37" data-name="Path 37" d="M332.483,333.749a.216.216,0,0,1-.176-.059.284.284,0,0,1,0-.411,1.959,1.959,0,0,0,.528-1.35.294.294,0,0,1,.587,0,2.711,2.711,0,0,1-.646,1.761A.639.639,0,0,1,332.483,333.749Z" transform="translate(-315.46 -292.808)" fill="#ffcb5b"/>
    <path id="Path_38" data-name="Path 38" d="M291.5,306.069a.555.555,0,0,1-.587-.587v-2.348a.587.587,0,1,1,1.174,0v2.348A.555.555,0,0,1,291.5,306.069Z" transform="translate(-276.234 -265.187)" fill="#f19920"/>
    <g id="Group_4" data-name="Group 4" transform="translate(14.088 37.947)">
      <path id="Path_39" data-name="Path 39" d="M294.2,314.24a3.432,3.432,0,0,1,.235,1.115,2.907,2.907,0,0,1-2.935,2.935,2,2,0,0,1-.587-.059v.059a4.067,4.067,0,0,0,.176,1.174h.411a4.1,4.1,0,0,0,3.933-5.283h-.411A3.881,3.881,0,0,0,294.2,314.24Z" transform="translate(-290.323 -314.181)" fill="#f6b545"/>
      <circle id="Ellipse_7" data-name="Ellipse 7" cx="4.109" cy="4.109" r="4.109" transform="translate(0 0.587)" fill="#f6b545"/>
    </g>
    <path id="Path_40" data-name="Path 40" d="M283.381,325.818a4.109,4.109,0,1,0,4.109,4.109A4.084,4.084,0,0,0,283.381,325.818Zm0,7.044a2.935,2.935,0,1,1,2.935-2.935A2.907,2.907,0,0,1,283.381,332.862Z" transform="translate(-265.184 -287.284)" fill="#ffcb5b"/>
    <path id="Path_41" data-name="Path 41" d="M360.727,411.323h0a4.035,4.035,0,0,0,4.109-4.05h-.059a.624.624,0,0,0-.587.528,3.549,3.549,0,0,1-1.115,2.113,3.326,3.326,0,0,1-1.82.881A.526.526,0,0,0,360.727,411.323Z" transform="translate(-342.53 -364.63)" fill="#f6b545"/>
    <path id="Path_42" data-name="Path 42" d="M283.381,326.957h0a4.035,4.035,0,0,0-4.109,4.05h.059a.624.624,0,0,0,.587-.528,3.549,3.549,0,0,1,1.115-2.113,3.327,3.327,0,0,1,1.82-.881A.526.526,0,0,0,283.381,326.957Z" transform="translate(-265.184 -288.364)" fill="#ffe27a"/>
    <path id="Path_43" data-name="Path 43" d="M302.956,352.437a2.907,2.907,0,0,1,2.935-2.935,2.769,2.769,0,0,1,1.878.7,2.926,2.926,0,0,0-5.224,1.82,2.814,2.814,0,0,0,1.057,2.231A2.753,2.753,0,0,1,302.956,352.437Z" transform="translate(-287.283 -309.383)" fill="#f19920"/>
    <path id="Path_44" data-name="Path 44" d="M390.664,403.567a.216.216,0,0,1-.176-.059.284.284,0,0,1,0-.411,1.959,1.959,0,0,0,.528-1.35.294.294,0,0,1,.587,0,2.711,2.711,0,0,1-.646,1.761A.638.638,0,0,1,390.664,403.567Z" transform="translate(-370.706 -359.104)" fill="#ffcb5b"/>
    <path id="Path_45" data-name="Path 45" d="M349.678,375.886a.555.555,0,0,1-.587-.587v-2.348a.587.587,0,0,1,1.174,0V375.3A.555.555,0,0,1,349.678,375.886Z" transform="translate(-331.481 -331.482)" fill="#f19920"/>
  </g>
</svg>
