<?xml version="1.0" encoding="utf-8"?>
<!-- Generator: Adobe Illustrator 16.0.0, SVG Export Plug-In . SVG Version: 6.00 Build 0)  -->
<!DOCTYPE svg PUBLIC "-//W3C//DTD SVG 1.1//EN" "http://www.w3.org/Graphics/SVG/1.1/DTD/svg11.dtd">
<svg version="1.1" id="shop_x5F_icon_拷贝_1_" xmlns="http://www.w3.org/2000/svg" xmlns:xlink="http://www.w3.org/1999/xlink"
	 x="0px" y="0px" width="100%" height="100%" viewBox="0 0 160 160" enable-background="new 0 0 160 160" xml:space="preserve">
<g id="shop_x5F_icon_拷贝">
	<g>
		<path fill="#FFFFFF" d="M106.182,103.956c-3.877,0.259-6.771,3.666-6.513,7.487c0.259,3.665,3.309,6.557,6.979,6.557h0.517
			c1.861-0.155,3.566-0.98,4.808-2.427c1.241-1.394,1.81-3.201,1.706-5.111C113.419,106.642,110.059,103.698,106.182,103.956z
			 M62.709,103.957c-3.877,0-7.03,3.148-7.03,7.021c0,3.872,3.153,7.021,7.03,7.021s7.03-3.149,7.03-7.021
			S66.586,103.957,62.709,103.957z M121.328,58.883C120.76,58.005,120.033,57,119,57H76c-1.706,0-3,1.296-3,3s1.294,3,3,3h39
			l-12.488,27.017h-34.53L55.317,44.271C54.955,42.93,53.396,42,52,42H41c-1.706,0-3,1.394-3,3.098S39.294,48,41,48h9l12.657,45.94
			C63.019,95.282,64.604,96,66,96h38c1.24,0,2.906-0.511,3.423-1.646l14.163-32.527C122,60.845,121.896,59.761,121.328,58.883z"/>
	</g>
</g>
</svg>
