<?xml version="1.0" encoding="utf-8"?>
<!-- Generator: Adobe Illustrator 16.0.0, SVG Export Plug-In . SVG Version: 6.00 Build 0)  -->
<!DOCTYPE svg PUBLIC "-//W3C//DTD SVG 1.1//EN" "http://www.w3.org/Graphics/SVG/1.1/DTD/svg11.dtd">
<svg version="1.1" id="icon_拷贝_1_" xmlns="http://www.w3.org/2000/svg" xmlns:xlink="http://www.w3.org/1999/xlink" x="0px"
	 y="0px" width="104px" height="76px" viewBox="0 0 104 76" enable-background="new 0 0 104 76" xml:space="preserve">
<g id="icon_拷贝">
	<g>
		<path fill="#A0A0A0" d="M95.068,32V16c0-2.614-1.23-4-3.967-4H83.17V4c0-3.363-1.623-4-4.232-4H9.796C1,0,1.864,8,1.864,8v60
			c0,4.607,3.198,8,7.932,8h80.975c2.621,0,4.297-1.27,4.297-4V52c4.248-1.612,7.932-3.979,7.932-8.955
			C103,38.069,99.432,33.624,95.068,32z M9.796,4h69.407v8H9.796c0,0-3.966-0.084-3.966-4C5.83,3.98,9.796,4,9.796,4z M91.102,72
			H9.796c-2.125,0-3.966-1.881-3.966-4V16h85.271v16H79.203c-6.361,0-9.915,3.653-9.915,10c0,0-1.277,10,9.915,10h11.898V72z
			 M93.085,48c-2.789,0-13.882,0-13.882,0c-3.685,0-6.035-2.271-6.035-6.013c0-4.032,2.295-5.987,6.035-5.987c0,0,11.527,0,13.882,0
			c3.718,0,5.948,1.911,5.948,6C99.033,45.911,96.988,48,93.085,48z M81.187,40c-1.374,0-1.983,0.629-1.983,2s0.609,2,1.983,2
			s1.983-0.629,1.983-2S82.561,40,81.187,40z"/>
	</g>
</g>
</svg>
