<?xml version="1.0" encoding="utf-8"?>
<!-- Generator: Adobe Illustrator 16.0.0, SVG Export Plug-In . SVG Version: 6.00 Build 0)  -->
<!DOCTYPE svg PUBLIC "-//W3C//DTD SVG 1.1//EN" "http://www.w3.org/Graphics/SVG/1.1/DTD/svg11.dtd">
<svg version="1.1" id="logo_拷贝_1_" xmlns="http://www.w3.org/2000/svg" xmlns:xlink="http://www.w3.org/1999/xlink" x="0px"
	 y="0px" width="260px" height="260px" viewBox="0 0 260 260" enable-background="new 0 0 260 260" xml:space="preserve">
<g id="logo_拷贝">
	<g>
		<path fill-rule="evenodd" clip-rule="evenodd" fill="#FB7F4C" d="M111.024,98.711h-0.11c0,0-20.079,13.872-20.07,24.459
			c0.008,6.313,4.292,10.317,10.355,10.309c2.907,0,6.377-2.22,8.186-3.892c0,0-0.389,6.726-3.385,13.101
			c-0.363,0.771,10.399,0.762,10,0c-3.082-5.88-3.295-13.101-3.295-13.101c1.802,1.752,4.985,3.865,8.13,3.865
			c6.076-0.009,10.333-4.03,10.333-10.351C131.148,112.529,111.024,98.711,111.024,98.711z M121,129c-4.394-0.022-10-4-10-4
			s-5.813,4-10,4s-6-2.161-6-6c0-8.301,15.996-18.994,16-19c0,0,16,10.021,16,19C127,127.603,123.639,129.014,121,129z
			 M98.611,144.034H96.04c-0.237,0-0.399,0.054-0.478,0.156c-0.081,0.103-0.15,0.268-0.219,0.485l-0.684,2.443h-4.126l-0.744-2.515
			c-0.069-0.223-0.157-0.365-0.267-0.454c-0.11-0.067-0.256-0.116-0.459-0.116h-2.295c-0.15,0-0.26,0.031-0.312,0.099
			c-0.049,0.063-0.049,0.204,0.027,0.441l3.995,12.565c0.069,0.192,0.152,0.339,0.249,0.438c0.092,0.098,0.28,0.151,0.556,0.151
			h2.607c0.289,0,0.477-0.054,0.569-0.165c0.092-0.103,0.159-0.264,0.237-0.455l4.16-12.584c0.049-0.169,0.049-0.285,0.022-0.365
			C98.851,144.088,98.763,144.034,98.611,144.034z M93.314,151.897l-0.67,2.514h-0.097l-0.684-2.495l-0.621-2.301h2.689
			L93.314,151.897z M176.272,91.454l-21.644-5.697L154,90.913l22,5.974c2.452,0.648,7.167,4.113,6,7.966s-20,71.687-20,71.687
			c-0.646,2.421-2.333,7.966-8,7.966s-34.043-7.966-30-7.966l-20.279-0.552c0.742,0.348,1.515,0.659,2.335,0.873l44.377,11.68
			c7.352,1.938,14.893-2.426,16.838-9.736l18.793-70.603C188,100.893,183.625,93.389,176.272,91.454z M159.045,115.305
			c0.193,0.049,0.35,0.045,0.479-0.009c0.122-0.047,0.256-0.161,0.376-0.356l1.381-2.238l3.981,1.07l0.019,2.547
			c0,0.224,0.035,0.406,0.085,0.52c0.058,0.123,0.192,0.215,0.425,0.278l2.484,0.667c0.144,0.04,0.242,0.022,0.291-0.056
			c0.045-0.066,0.072-0.183,0.072-0.354l-0.73-13.239c-0.018-0.205-0.059-0.368-0.104-0.497c-0.067-0.132-0.237-0.231-0.512-0.301
			l-2.519-0.676c-0.265-0.073-0.462-0.073-0.573,0c-0.122,0.078-0.243,0.196-0.355,0.361l-7.15,11.091
			c-0.143,0.216-0.179,0.343-0.143,0.426c0.031,0.073,0.121,0.127,0.282,0.169L159.045,115.305z M163.806,108.411l1.317-2.231
			l0.095,0.027l-0.019,2.603l-0.004,2.367l-2.596-0.697L163.806,108.411z M150.039,157.729V84.694
			c0-7.561-6.168-13.694-13.771-13.694H85.771C78.169,71,72,77.134,72,84.694v73.034c0,7.56,6.169,13.693,13.771,13.693h50.496
			C143.871,171.422,150.039,165.288,150.039,157.729z M86,166.583c-5.667,0-10-5.451-10-7.966V84.939c0-2.515,2.5-9.957,8-9.957h52
			c6.833,0,10,7.442,10,9.957c0,0,0,68.894,0,73.678c0,3.716-7.472,7.966-10,7.966C136,166.583,91.667,166.583,86,166.583z
			 M131.419,85.313c-0.078-0.191-0.146-0.346-0.237-0.455c-0.092-0.108-0.28-0.164-0.565-0.164h-2.611
			c-0.28,0-0.469,0.056-0.561,0.155c-0.097,0.097-0.179,0.245-0.249,0.438l-3.994,12.565c-0.076,0.239-0.081,0.379-0.027,0.444
			c0.056,0.064,0.166,0.091,0.316,0.091h2.295c0.204,0,0.35-0.049,0.464-0.127c0.105-0.082,0.197-0.225,0.267-0.448l0.744-2.514
			h4.122l0.684,2.449c0.07,0.216,0.139,0.383,0.22,0.479c0.079,0.104,0.244,0.16,0.478,0.16h2.571c0.152,0,0.241-0.049,0.269-0.127
			s0.027-0.196-0.018-0.365L131.419,85.313z M127.962,92.809l0.621-2.3l0.684-2.501h0.096l0.67,2.519l0.619,2.282H127.962z"/>
	</g>
</g>
</svg>
