<?xml version="1.0" standalone="no"?>
<!DOCTYPE svg PUBLIC "-//W3C//DTD SVG 1.1//EN" "http://www.w3.org/Graphics/SVG/1.1/DTD/svg11.dtd">
<svg xmlns="http://www.w3.org/2000/svg">
<metadata>Generated by Fontastic.me</metadata>
<defs>
<font id="wbicon" horiz-adv-x="512">
<font-face font-family="wbicon" units-per-em="512" ascent="480" descent="-32"/>
<missing-glyph horiz-adv-x="512" />

<glyph glyph-name="transfer" unicode="&#97;" d="M234 187c-13 3-24 9-32 17-3 3-8 5-12 5-5 0-10-2-13-5l-1-1c-4-4-6-8-6-13 1-5 3-10 6-13 15-15 37-25 59-29l2 0 0-17c0-10 8-18 18-18l2 0c10 0 18 8 18 18l0 17 2 0c37 7 59 30 59 62 0 43-32 59-60 67l-1 1 0 58 3-1c8-2 15-4 21-8 3-1 6-2 9-2 6 0 12 3 15 8l1 1c3 5 3 9 2 14-1 5-4 9-8 11-11 7-26 12-41 14l-2 1 0 13c0 9-8 17-18 17l-2 0c-10 0-18-8-18-17l0-14-2-1c-34-6-55-28-55-57 0-31 18-52 55-64l2-1 0-64z m41 51l3-2c15-6 20-13 20-26 0-10-7-18-20-22l-3-2z m-42 55c-11 5-15 12-15 22 0 8 5 14 15 18l4 1 0-43z m272 121c-5 4-12 5-18 1l-35-19c-44 67-118 108-199 108-131 0-237-107-237-237 0-15 11-26 26-26 14 0 26 11 26 26 0 102 83 185 185 185 62 0 119-31 153-81l-33-18c-5-3-9-10-8-17 1-6 5-12 12-14l88-25c1-1 3-1 4-1 3 0 6 1 8 2 4 2 7 6 8 10l26 88c2 7 0 13-6 18z m-35-142c-15 0-26-12-26-26 0-102-83-186-185-186-62 0-119 31-154 82l33 18c6 3 9 9 9 16-1 7-6 12-12 14l-88 26c-2 0-3 0-5 0-3 0-5 0-8-2-4-2-7-5-8-10l-25-88c-2-6 0-13 5-17 6-4 13-5 19-2l35 19c43-66 118-107 199-107 130 0 237 106 237 237 0 14-12 26-26 26z"/>
<glyph glyph-name="slots" unicode="&#98;" d="M502 402c7 5 10 12 10 20 0 8-2 14-7 19-5 5-11 7-18 7-7 0-13-2-18-7-5-5-8-11-8-19 0-8 3-15 10-20l0-159-20 0 0 194-62 0 0 21-124 0c-3 10-8 19-16 26-9 7-18 10-29 10-11 0-20-3-28-10-9-7-14-16-17-26l-124 0 0-21-51 0 0-420 451 0 0 144 30 0 0 3c17 7 26 20 26 38 0 7-2 13-5 19z m-338-6l123 0 0-143-123 0z m-144 0l123 0 0-143-123 0z m369-327l-338 0 0 71 338 0z m41 184l-123 0 0 143 123 0z m-205 123c-13 0-27-3-41-10l0 10-10 0 0-62 10 0c0 1 0 2 1 3 0 1 0 3 1 5 1 2 2 4 3 6 1 2 3 4 6 5 3 2 6 2 10 2l14 0c9 0 15 0 17 0-3-2-7-4-12-8-5-4-11-11-18-22-8-10-12-21-12-32l52 0c0 5 0 11 1 18 0 7 3 19 8 35 5 16 12 30 21 40l-10 10c-13-6-27-6-41 0z m106-49c4 6 10 8 17 8l15 0c9 0 15 0 16 0-3-2-7-4-11-8-5-4-11-11-18-22-8-10-12-21-12-32l51 0c0 5 0 11 1 18 1 7 4 19 9 35 5 16 12 30 21 40l-10 10c-14-6-28-6-41 0-14 0-28-3-41-10l0 10-11 0 0-62 11 0z m-249 49c-14 0-28-3-41-10l0 10-10 0 0-62 10 0c0 2 0 5 1 7 0 2 2 5 5 9 3 4 8 5 14 5 1 0 6 0 15 0 9 0 15 0 16 0-3-2-6-4-11-8-5-4-11-11-18-22-8-10-12-21-12-32l51 0c0 5 0 11 1 18 1 7 4 19 9 35 5 16 12 30 21 40l-10 10c-14-6-28-6-41 0z"/>
<glyph glyph-name="phone" unicode="&#99;" d="M512 108c1-8-2-16-8-22l-72-71c-3-4-7-7-13-9-5-3-10-5-15-5 0 0-2 0-3-1-2 0-5 0-7 0-7 0-18 1-34 4-15 2-34 8-56 17-22 9-48 23-76 41-28 19-58 44-90 76-25 25-46 49-63 72-16 23-30 44-40 63-10 19-17 37-22 53-6 15-9 29-11 40-2 12-2 21-2 27 0 7 1 10 1 11 0 5 2 10 5 15 2 6 5 10 9 13l72 72c5 5 11 8 17 8 5 0 9-2 13-4 3-3 6-6 9-10l58-110c3-6 4-12 3-19-2-7-5-13-10-18l-26-26c-1-1-2-2-2-4-1-1-1-3-1-4 2-7 5-16 10-26 4-8 11-19 20-31 9-13 22-27 38-44 17-16 31-29 44-38 12-10 23-16 31-21 9-4 15-7 20-8l7-1c0 0 2 0 3 1 2 0 3 1 4 2l31 31c6 6 14 9 22 9 7 0 11-1 15-3l1 0 104-62c8-5 12-11 14-18z"/>
<glyph glyph-name="lock" unicode="&#101;" d="M424 307l-25 0 0 62c0 79-64 143-143 143-79 0-143-64-143-143l0-62-25 0c-8 0-15-7-15-15l0-277c0-9 7-15 15-15l336 0c8 0 15 6 15 15l0 277c0 8-7 15-15 15z m-145-169l0-59c0-5-4-10-9-10l-28 0c-5 0-9 5-9 10l0 59c-10 7-17 19-17 32 0 22 18 40 40 40 22 0 40-18 40-40 0-13-7-25-17-32z m52 169l-150 0 0 62c0 41 34 75 75 75 41 0 75-34 75-75z"/>
<glyph glyph-name="home" unicode="&#102;" d="M505 274l-230 202c-11 10-28 10-39 0l-230-202c-10-9-7-17 7-17l71 0 0-207c0-12 9-21 21-21l86 0 0 136c0 12 10 21 21 21l88 0c11 0 20-9 20-21l0-136 87 0c12 0 21 9 21 21l0 207 71 0c14 0 17 8 6 17z"/>
<glyph glyph-name="gift" unicode="&#103;" d="M383 432c5 4 10 8 13 13 7 14 5 30-6 45l-1 2c-11 13-25 20-38 20-25 0-46-23-67-46-10-11-19-21-28-28-9 7-18 17-28 28-21 23-42 46-67 46-13 0-27-7-38-20l-1-2c-11-15-13-31-6-45 3-5 8-9 13-13l-107 0 0-102 468 0 0 102z m-254 20c-5 10-1 22 5 31 9 10 18 15 27 15 19 0 38-21 56-41 8-9 16-18 23-24-1 0-3-1-5-1l-51 0c-29 1-49 10-55 20z m153-109l-52 0 0 70 52 0z m46 89l-51 0c-2 0-4 1-5 1 7 6 15 15 23 24 18 20 37 41 56 41 9 0 18-5 27-15 6-9 10-21 5-31-6-10-26-19-55-20z m-46-418l-52 0 0 300-181 0 0-314 414 0 0 314-181 0z"/>
<glyph glyph-name="deposit" unicode="&#104;" d="M383 68c0 10 1 20 1 30 44-5 87-3 122 28 9-10 5-23-2-32-10-12-24-18-39-23-26-8-53-8-80-4-1 0-2 0-2 1m-383 177c7 20 24 28 42 35 23 7 46 9 69 7 21-2 41-6 59-17 9-6 17-13 20-24-3-1-6-3-10-4-21-9-38-22-48-44-1-1-3-3-5-3-32-5-63-4-94 9-10 4-19 9-26 18-3 4-5 9-7 14l0 9m239-244c-9 1-18 2-27 5-17 4-33 10-45 24-9 10-9 24-2 33 14-15 32-22 51-27 33-7 66-6 97 6 13 4 24 11 33 21 5-7 7-15 3-24-3-9-11-16-19-21-14-8-30-13-46-15-4-1-8-2-12-2z m-239 180c2 3 3 7 5 11 16-18 36-25 58-29 17-3 34-4 51-2 4 0 8 1 12 1 1 0 3-1 4-2 1-3 1-6 3-8 4-5 4-10 0-16-2-3-3-5-6-5-31-5-61-4-91 8-10 4-20 9-28 18-3 4-5 10-8 15l0 9m0-64c2 3 3 7 5 11 16-18 37-25 59-29 16-3 33-4 50-2 4 0 9 1 14 2l0-32c-5 0-12-2-18-2-25-1-51 0-74 10-9 4-17 9-24 15-7 4-10 11-12 18l0 9m224 268c-13 0-26 0-39 0-10 0-19 4-23 14-4 9-2 18 5 26 23 26 46 51 69 77 8 9 17 12 28 9 3-1 6-3 8-6 25-27 50-54 74-82 11-12 5-31-10-36-3-2-6-2-10-2-12 0-25 0-39 0 0-2 0-4 0-6 0-30 0-61 0-91 0-18-14-31-32-31-17 0-31 14-31 31 0 30 0 61 0 91l0 6m32-257c-23 0-44 4-65 13-9 4-17 9-24 17-10 12-9 26 1 37 11 13 26 19 42 23 36 9 72 8 107-5 9-4 18-9 26-17 11-12 11-26 1-38-11-13-25-19-40-23-6-2-12-3-18-4-10-1-20-2-30-3m112 89c37 10 73 10 109-5 11-4 22-10 29-20 8-11 7-24-2-34-11-13-25-19-40-23-26-8-53-8-79-4-3 0-5 2-7 4-3 6-3 11 0 18 10 21 6 41-8 60 0 1-1 2-2 3 0 0 0 1 0 1m-203-90c13-14 29-21 46-26 36-8 71-7 105 6 11 4 22 10 30 20 8-10 7-23-2-33-10-12-24-18-39-23-38-10-77-10-114 6-9 4-18 10-25 18-8 10-8 24-1 32"/>
<glyph glyph-name="cog" unicode="&#105;" d="M257 247c9 13 15 28 18 44l44 0 0 45-44 0c-3 16-9 30-18 43l31 31-32 32-31-31c-12 9-27 15-43 18l0 44-45 0 0-44c-16-3-31-9-43-18l-31 31-32-32 31-31c-9-13-15-27-18-43l-44 0 0-45 44 0c3-16 9-31 18-44l-31-31 32-31 31 31c12-9 27-15 43-18l0-44 45 0 0 44c16 3 31 9 44 18l31-31 31 31z m-98 18c-26 0-48 21-48 48 0 27 22 49 48 49 27 0 49-22 49-49 0-27-22-48-49-48z m353-122l0 34-33 0c-3 13-7 24-14 34l24 23-25 24-23-23c-10 6-21 11-33 13l0 34-34 0 0-34c-12-2-24-7-33-13l-24 23-24-24 24-23c-7-10-12-21-14-34l-33 0 0-34 33 0c2-12 7-23 14-33l-24-23 24-24 24 23c9-6 21-11 33-13l0-34 34 0 0 34c12 2 23 7 33 13l23-23 24 24-23 23c7 10 11 21 14 33z m-121-20c-21 0-37 17-37 37 0 21 16 38 37 38 20 0 37-17 37-38 0-20-17-37-37-37z"/>
<glyph glyph-name="chip" unicode="&#106;" d="M494 349c-10 27-25 51-43 73-38 45-92 76-152 86-14 2-28 4-43 4-15 0-29-2-43-4-60-10-114-41-152-86-18-22-33-46-43-73-12-29-18-60-18-93 0-30 5-59 15-86 10-27 24-52 41-74 39-48 94-82 157-92 14-3 28-4 43-4 15 0 29 1 43 4 63 10 118 44 157 92 17 22 31 47 41 74 10 27 15 56 15 86 0 33-6 64-18 93z m-30-18l-44-26c-9 28-24 53-45 73l45 26c20-21 35-45 44-73z m-71-75c0-75-62-137-137-137-75 0-137 62-137 137 0 75 62 137 137 137 75 0 137-62 137-137z m-137 222c15 0 29-2 43-4l0-53c-14 4-28 6-43 6-15 0-29-2-43-6l0 53c14 2 28 4 43 4z m-164-74l45-26c-21-20-36-45-45-73l-44 26c9 28 25 52 44 73z m-47-216l45 26c8-29 22-54 42-75l-45-26c-19 22-33 47-42 75z m211-154c-15 0-29 2-43 4l0 53c14-4 28-6 43-6 15 0 29 2 43 6l0-53c-14-2-28-4-43-4z m169 79l-44 26c19 21 33 46 41 75l45-26c-9-28-23-53-42-75z m-155 162c-21 8-30 13-30 22 0 7 5 14 22 14 9 0 17-2 23-4 4-1 8 0 11 2 3 1 5 4 6 8l1 1c2 8-3 16-11 18-7 2-14 3-23 4l0 9c0 7-5 12-11 13-8 1-14-5-14-12l0-12c-28-6-43-23-43-46 0-25 18-37 46-47 19-6 27-12 27-22 0-10-10-16-25-16-10 0-20 2-29 5-3 2-7 1-11 0-3-2-5-5-6-9l0 0c-3-9 2-18 11-21 9-2 18-4 29-4l0-12c0-7 5-12 12-12 7 0 13 5 13 12l0 13c29 5 45 25 45 48 0 23-12 37-43 48z"/>
<glyph glyph-name="chatbox" unicode="&#107;" d="M423 502l-333 0c-50 0-90-41-90-90l0-206c0-49 40-90 90-90l212 0 101-101c4-3 8-5 13-5 2 0 5 0 7 1 7 3 11 9 11 17l0 89c44 6 79 44 79 89l0 206c0 49-41 90-90 90z m54-296c0-29-24-54-54-54l-7 0c-10 0-18-8-18-18l0-63-76 76c-3 4-8 5-13 5l-219 0c-30 0-54 25-54 54l0 206c0 29 24 54 54 54l333 0c30 0 54-25 54-54z m-88 168l-265 0c-10 0-18-8-18-18 0-10 8-18 18-18l265 0c10 0 18 8 18 18 0 10-8 18-18 18z m0-100l-265 0c-10 0-18-8-18-18 0-10 8-18 18-18l265 0c10 0 18 8 18 18 0 10-8 18-18 18z"/>
<glyph glyph-name="ball" unicode="&#108;" d="M512 262c0 1 0 1 0 2 0 1 0 3 0 4 0 1 0 2 0 2 0 2-1 3-1 4 0 1 0 2 0 2 0 2 0 4 0 5 0 1 0 1 0 1-1 2-1 4-1 6 0 1 0 1 0 2 0 1-1 3-1 4 0 1 0 2 0 2 0 2-1 3-1 4 0 1 0 1 0 2 0 2-1 3-1 4 0 1 0 1 0 2-1 2-1 4-1 6-1 0-1 1-1 1 0 1-1 3-1 4 0 1 0 2 0 2-1 2-1 3-1 4-1 1-1 1-1 2 0 1-1 2-1 4 0 0 0 1-1 2 0 1-1 3-1 5-1 0-1 1-1 1 0 2-1 3-1 4-1 1-1 2-1 2 0 2-1 3-1 4-1 1-1 1-1 2-1 1-1 2-2 3 0 1 0 2 0 2-1 2-2 3-2 4 0 1 0 1-1 2 0 1-1 3-2 4 0 1-1 2-1 2 0 2-1 3-2 4 0 0 0 1-1 2 0 1-1 2-1 3-1 0-1 1-1 2-1 1-1 2-2 3 0 1-1 1-1 2-1 1-2 3-3 4 0 1-1 2-1 2-1 1-1 2-2 3 0 1-1 2-1 2-1 1-1 2-2 3 0 1-1 1-1 2-1 1-2 2-2 3-1 0-1 1-2 2-1 1-2 3-3 4-28 37-66 67-110 85 0 0 0 0 0 0-1 0-3 1-5 2 0 0 0 0 0 0-2 0-4 1-5 2-1 0-1 0-1 0-2 0-3 1-5 2 0 0-1 0-1 0-1 0-3 1-5 1 0 0 0 1-1 1-1 0-3 1-4 1-1 0-1 0-2 0-1 1-3 1-4 1-1 1-1 1-2 1-1 0-3 1-4 1-1 0-1 0-2 0-1 1-3 1-4 1-1 0-1 0-2 1-1 0-3 0-4 0-1 0-2 0-2 1-2 0-3 0-4 0-1 0-2 0-3 1-1 0-2 0-3 0-1 0-2 0-3 0-1 0-2 1-4 1-1 0-2 0-3 0-1 0-2 0-3 0-1 0-2 0-3 1-1 0-2 0-3 0-1 0-3 0-4 0-1 0-2 0-3 0-2 0-4 0-6 0-2 0-4 0-6 0-1 0-2 0-3 0-1 0-2 0-4 0-1 0-2 0-3 0-1-1-2-1-3-1-1 0-2 0-3 0-1 0-2 0-3 0-2 0-3-1-4-1-1 0-2 0-3 0-1 0-2 0-3 0-1-1-2-1-3-1-1 0-2 0-4 0 0-1-1-1-2-1-1 0-3 0-4 0-1-1-1-1-2-1-1 0-3 0-4-1-1 0-1 0-2 0-1 0-3-1-4-1-1 0-1 0-2-1-1 0-3 0-4-1-1 0-1 0-2 0-1 0-3-1-4-1-1 0-1-1-1-1-2 0-4-1-5-1 0 0-1 0-1 0-2-1-3-2-5-2 0 0 0 0-1 0-1-1-3-2-5-2 0 0 0 0 0 0-46-18-86-48-115-87-1-2-2-3-3-4-1-1-1-2-2-2 0-1-1-2-2-3 0-1-1-1-1-2-1-1-1-2-2-3 0 0-1-1-1-2-1-1-1-2-2-3 0 0-1-1-1-2-1-1-2-3-3-4 0-1-1-1-1-2-1-1-1-2-2-3 0-1 0-2-1-2 0-1-1-2-1-3-1-1-1-2-1-2-1-1-1-2-2-3 0-1-1-2-1-3-1-1-2-3-2-4 0-1-1-1-1-2 0-1-1-2-2-4 0 0 0-1 0-2-1-1-1-2-2-3 0-1 0-1-1-2 0-1 0-2-1-4 0 0 0-1-1-2 0-1-1-2-1-4 0 0 0-1-1-1 0-2-1-4-1-5-1-1-1-2-1-2 0-2-1-3-1-4 0-1 0-1-1-2 0-1 0-2-1-4 0 0 0-1 0-2 0-1-1-3-1-4 0 0 0-1 0-1-1-2-1-4-2-6 0-1 0-1 0-2 0-1-1-2-1-4 0-1 0-1 0-2 0-1-1-3-1-4 0 0 0-1 0-2 0-1-1-3-1-4 0-1 0-1 0-2 0-2 0-4-1-6 0 0 0 0 0-1 0-1 0-3 0-5 0 0 0-1 0-2 0-1-1-2-1-4 0 0 0-1 0-2 0-1 0-3 0-4 0-1 0-1 0-2 0-2 0-4 0-6 0-2 0-4 0-5 0-1 0-2 0-3 0-1 0-1 0-2 2-46 16-89 39-126 0 0 0 0 0 0 4-6 9-13 14-20 0 0 0 0 0 0 5-6 10-12 15-18 1 0 1-1 1-1 1-1 2-2 3-3 0 0 0 0 0 0 3-4 7-7 10-10 0 0 1 0 1 0 1-1 2-2 3-3 0 0 0-1 1-1 1-1 2-2 3-3 0 0 0 0 0 0 4-3 7-6 11-8 0-1 0-1 1-1 1-1 2-2 3-2 0-1 1-1 1-1 1-1 2-2 3-3 0 0 1 0 1-1 4-2 7-4 10-6 1-1 2-1 2-1 1-1 2-1 3-2 1 0 1-1 2-1 1-1 2-1 3-2 0 0 1 0 2-1 3-2 6-3 10-5 0 0 1-1 2-1 1-1 2-1 3-2 0 0 1 0 2-1 1 0 2 0 3-1 1 0 1-1 2-1 1 0 2-1 3-1 0 0 0 0 0 0 30-13 64-20 99-20 35 0 68 7 98 19 0 0 0 0 0 0 1 1 3 2 4 2 1 0 1 0 1 1 1 0 3 1 4 2 1 0 1 0 1 0 8 3 15 7 23 12 0 0 0 0 0 0 1 1 3 2 4 2 0 1 1 1 1 1 1 1 2 2 4 2 0 1 0 1 0 1 2 1 3 2 4 2 0 1 0 1 0 1 5 2 9 5 12 8 1 1 1 1 1 1 1 1 2 2 3 2 1 1 1 1 2 1 1 1 1 2 2 3 1 0 1 1 2 1 1 1 2 2 3 2 0 1 1 1 1 2 1 1 2 1 3 2 0 1 1 1 1 1 2 2 4 4 6 6 0 0 0 0 1 1 0 0 1 1 2 2 0 0 1 1 2 2 0 0 1 1 2 2 0 1 1 1 2 2 0 1 1 1 2 2 0 1 1 1 1 2 1 1 2 2 2 2 1 1 2 2 2 3 1 0 1 1 2 2 1 1 2 2 2 3 1 0 1 1 1 1 2 2 3 3 4 5 0 0 1 1 1 1 1 1 2 2 2 3 1 1 1 1 2 2 0 1 1 2 2 3 0 1 1 1 1 2 1 1 1 2 2 3 0 0 1 1 1 2 1 1 1 2 2 3 0 1 1 1 1 2 1 1 2 3 3 4 0 1 0 1 0 1 0 0 0 0 0 0 20 34 32 74 34 117 0 1 0 1 0 2 0 1 0 2 0 3 0 1 0 3 0 5 0 2 0 4 0 6z m-246 170l65 47c6-2 11-4 17-6 28-12 53-29 74-51 12-12 22-24 31-38l-22-71-67-22-98 70z m-176-10c21 22 47 39 74 51 6 2 11 4 17 6l65-47 0-71-98-71-67 22-22 72c9 14 19 26 31 38z m41-316l-64 10c-11 15-20 31-28 48-12 29-18 59-18 90l54 38 66-22 38-116z m227-62c-4-2-7-3-10-5-29-12-60-18-92-18-32 0-63 6-92 18-3 2-7 4-11 6l-7 46 52 52 124 0 44-45z m115 120c-6-14-14-27-22-40l-70-11-46 47 36 111 66 22 54-39c0-31-6-61-18-90z"/>
<glyph glyph-name="arrow-right" unicode="&#109;" d="M45 259c0 63-1 126 0 190 1 63 26 79 80 48 95-56 188-113 283-170 3-2 7-5 10-7 66-49 65-94-5-137-77-47-155-90-233-134-21-13-43-25-64-37-45-23-67-11-70 40-2 43-1 85-1 128 0 26 0 52 0 79l0 0"/>
<glyph glyph-name="user" unicode="&#110;" d="M0 11c2 7 3 13 5 19 6 19 19 33 33 46 40 35 87 58 136 75 6 2 11 3 16 4 6 2 10 4 11 9 2 9 4 17 5 26 0 2-1 5-3 7-20 22-35 48-41 77-1 4-3 6-6 7-7 2-11 8-13 13-6 13-9 26-5 40 1 4 3 8 5 11 4 5 4 9 4 14-3 22-4 45 1 67 6 27 20 49 45 63 13 8 28 12 44 13 22 1 45 1 66-6 31-11 50-32 59-63 7-24 6-49 3-74 0-5 1-9 4-14 3-6 6-14 6-21 2-11-1-23-7-32-3-5-9-7-13-11-2-2-4-4-5-6-6-30-21-56-41-79-2-1-3-4-3-6 2-9 4-18 6-27 1-4 4-6 9-7 50-13 96-37 137-68 14-10 27-21 37-35 8-12 15-24 16-38 0-1 1-3 1-4l0-1-512 0 0 1"/>
<glyph glyph-name="withdraw" unicode="&#111;" d="M382 67c1 11 2 21 2 31 44-5 86-4 121 28 9-10 5-24-2-32-10-12-24-18-38-23-27-8-54-8-81-4-1 0-1 0-2 0m-381 177c7 20 24 28 42 35 22 7 45 9 69 7 20-2 40-6 58-17 9-6 17-13 20-24-3-1-6-3-9-4-21-9-39-22-49-44 0-1-3-2-4-3-32-4-64-3-94 9-10 4-19 9-26 18-3 4-5 9-7 14l0 9m238-243c-9 1-18 2-27 5-17 4-33 10-45 24-8 10-9 24-1 33 13-15 31-23 50-27 33-7 66-6 97 6 13 4 24 10 33 21 5-8 6-15 3-24-4-10-11-16-19-21-14-8-30-13-46-15-4-1-8-2-12-2z m-238 179c1 4 3 7 5 11 15-18 36-25 58-29 17-3 34-4 51-2 4 1 7 2 11 2 1 0 4-1 4-3 2-2 2-5 3-7 4-6 4-11 1-17-2-2-4-4-7-5-31-4-61-3-90 8-11 4-21 9-28 18-3 5-5 10-8 15l0 9m0-64c1 4 3 7 5 11 16-18 36-25 58-29 17-3 34-3 50-2 5 1 9 2 14 2l0-31c-5-1-11-2-18-2-25-2-50 0-74 10-8 3-16 9-24 14-6 5-9 11-11 18l0 9m223 267c-13 0-26 0-39 0-10 0-18-4-23-14-4-9-2-18 5-26 23-26 46-51 69-77 8-8 17-12 28-8 3 1 6 3 8 5 25 27 49 54 74 82 10 12 5 31-10 36-3 1-7 2-10 2-13 0-25 0-39 0 0 2 0 4 0 6 0 30 0 60 0 91 0 17-14 31-32 31-17 0-31-14-31-32 0-30 0-60 0-90l0-6m32-256c-23 1-44 4-65 13-9 4-17 10-24 18-9 11-9 25 1 36 12 13 26 19 42 23 36 9 72 8 106-5 10-4 19-9 26-17 11-11 12-26 1-38-10-12-25-18-40-23-5-1-11-3-17-4-10-1-20-2-30-3m112 90c36 9 73 9 108-5 11-5 22-11 29-21 8-11 7-23-2-34-11-12-25-18-40-23-26-7-52-7-79-4-3 1-4 2-6 5-4 6-3 11 0 17 10 22 6 42-8 60-1 1-2 2-2 3 0 0 0 1 0 2m-202-90c12-15 28-22 46-26 35-9 70-8 104 5 11 5 21 11 29 21 8-10 7-23-1-33-11-12-24-19-39-23-38-10-76-10-114 6-9 4-18 9-24 18-8 9-9 23-1 32"/>
<glyph glyph-name="close" unicode="&#112;" d="M306 256l196 196c13 13 13 36 0 50-14 13-37 13-50 0l-196-196-196 196c-13 13-36 13-50 0-13-14-13-37 0-50l196-196-196-196c-13-13-13-36 0-50 14-13 37-13 50 0l196 196 196-196c13-13 36-13 50 0 13 14 13 37 0 50z"/>
<glyph glyph-name="user-circled" unicode="&#113;" d="M254 512c-140 0-254-114-254-254 0-140 114-254 254-254 140 0 254 114 254 254 0 140-114 254-254 254z m147-394c0 6 0 10 0 10 0 34-40 47-62 56-7 3-22 11-37 18-5 2-10 9-10 15l-2 16c12 11 22 26 24 42l2 0c4 0 8 3 9 7l4 25c0 6-5 9-9 9 0 0 0 1 0 1 1 3 1 6 1 9 1 2 1 5 1 7 0 12-2 22-5 28-3 8-8 16-15 23-20 19-43 26-63 11-13 2-29-4-41-17-6-8-10-16-12-24-1-5-2-12-2-18-1-8 0-15 2-20-4-1-8-4-8-9l4-25c0-4 4-7 8-7l3 0c3-18 13-32 23-43l-1-16c-1-5-5-12-10-14-15-7-29-14-38-18-20-8-61-22-61-56l0-8c-34 36-55 84-55 138 0 112 91 203 203 203 112 0 203-91 203-203 0-55-21-104-56-140z"/>
<glyph glyph-name="exit" unicode="&#114;" d="M448 96c0-18-14-32-32-32l-320 0c-18 0-32 14-32 32l0 320c0 18 14 32 32 32l96 0 107 64-235 0c-35 0-64-29-64-64l0-384c0-35 29-64 64-64l384 0c35 0 64 29 64 64l0 264-64-48z m-97 353c0-3 0-2 0 0-16 1-215-15-223-260 2-12 43 162 224 198 0-3 0-67 0-67l160 96-160 96c1 0-1-51-1-63 1 0 2 0 0 0z m-223-248c0-5 0-9 0-9 0 3 0 6 0 9z"/>
<glyph glyph-name="mobile-phone" unicode="&#115;" d="M370 512l-228 0c-19 0-35-16-35-35l0-442c0-19 16-35 35-35l228 0c19 0 35 16 35 35l0 442c0 19-16 35-35 35z m-151-25l74 0c2 0 4-2 4-4 0-2-2-4-4-4l-74 0c-2 0-4 2-4 4 0 2 2 4 4 4z m37-470c-10 0-17 8-17 18 0 9 7 17 17 17 10 0 17-8 17-17 0-10-7-18-17-18z m125 47l-250 0 0 393 250 0z"/>
<glyph glyph-name="flag" unicode="&#117;" d="M65 472c-8 8-17 12-27 12-11 0-19-4-27-12-7-7-11-16-11-26 0-15 6-26 19-33l0-375c0-3 1-5 3-7 2-2 4-3 6-3l19 0c3 0 5 1 7 3 2 2 3 4 3 7l0 375c13 7 19 18 19 33 0 10-4 19-11 26z m442-32c-4 4-8 6-14 6-2 0-8-2-16-7-8-4-17-8-26-14-9-5-20-9-32-14-13-4-25-6-35-6-10 0-19 2-26 6-25 12-47 20-65 26-19 6-38 9-60 9-36 0-78-12-124-36-12-6-20-10-24-13-6-4-9-10-9-16l0-220c0-5 2-10 6-13 3-4 8-6 13-6 3 0 6 1 10 3 53 28 99 43 137 43 15 0 29-2 42-7 14-4 26-9 35-14 9-5 20-10 32-14 12-4 24-7 37-7 30 0 66 12 109 35 5 3 9 5 12 8 2 3 3 6 3 11l0 227c0 5-2 9-5 13z"/>
<glyph glyph-name="edit" unicode="&#118;" d="M498 498c19-19 19-49 0-68l-23-23-68 68 23 23c19 19 49 19 68 0z m-339-272l-23-90 90 23 227 226-68 68z m225 45l0-207-320 0 0 320 207 0 64 64-335 0 0-448 448 0 0 335z"/>
<glyph glyph-name="delete" unicode="&#116;" d="M100 12c0-7 5-12 12-12l288 0c6 0 11 5 11 12l0 368-311 0z m220 305l42 0 0-248-42 0z m-85 0l42 0 0-248-42 0z m-86 0l43 0 0-248-43 0z m203 143l0 41c0 6-5 11-12 11l-169 0c-6 0-11-5-11-11l0-55-79 0c-7 0-12-6-12-12l0-29c0-6 5-11 12-11l350 0c6 0 11 5 11 11l0 29c0 6-5 12-11 12l-79 0z m-43-12l-106 0 0 21 106 0z"/>
<glyph glyph-name="cross" unicode="&#119;" d="M496 320l-176 0 0 176c0 9-7 16-16 16l-96 0c-9 0-16-7-16-16l0-176-176 0c-9 0-16-7-16-16l0-96c0-9 7-16 16-16l176 0 0-176c0-9 7-16 16-16l96 0c9 0 16 7 16 16l0 176 176 0c9 0 16 7 16 16l0 96c0 9-7 16-16 16z"/>
<glyph glyph-name="money-bag-yen" unicode="&#120;" d="M271 185c11 0 21 0 31 0 4 0 7 2 6 7 0 1 0 3 1 5 1 7-3 9-10 9-6-1-12 0-19 0 1 2 2 4 3 6 10 19 21 39 32 58 3 7 2 9-6 9-4 0-8 0-12 0-7 1-10-2-13-8-8-19-17-38-26-58-8 17-16 32-24 48-10 19-10 19-32 18-6 0-8-2-5-8 7-11 13-23 20-34 5-10 11-20 17-31-8 0-14-1-21 0-8 0-8-5-8-11 0-6 0-10 8-10 10 1 19 0 29 0l0-9c-10 0-20-1-29 0-9 0-8-5-8-10 0-6 0-11 8-10 9 0 19 0 29 0 0-9 0-17 0-24 1-22-2-19 20-19 6 0 9 1 9 9-1 11 0 22 0 34 10 0 20 0 29 0 9-1 9 4 9 10 0 6-1 11-9 10-10-1-19 0-29 0z m-105 327l12 0c7-3 15-5 22-9 22-11 44-13 67-4 0 0 1 0 2 0 18 4 37 8 55 11 11 2 13-2 12-12-2-18-8-34-17-49-10-17-22-33-33-49 5-3 13-6 20-11 72-47 122-112 151-193 5-15 7-31 10-46l0-31c0-1-1-2-1-4-4-32-19-57-46-76-34-25-74-33-115-35-28-2-56-2-83-1-32 1-63 7-93 18-36 15-65 37-78 76-3 9-5 18-7 28l0 31c2 10 3 19 6 28 19 75 61 137 120 187 12 11 25 19 38 28-2 2-4 3-7 5-24 21-41 45-48 77-4 16 0 24 13 31z"/>
<glyph glyph-name="minus" unicode="&#121;" d="M0 312l520 0 0-120-520 0z"/>
<glyph glyph-name="check" unicode="&#122;" d="M506 393l-57 57c-6 7-17 7-24 0l-237-237-101 101c-7 7-18 7-25 0l-57-57c-7-7-7-18 0-25l170-170c4-3 8-5 13-5 4 0 8 2 12 5l306 307c4 3 5 8 5 12 0 5-1 9-5 12z"/>
<glyph glyph-name="next" unicode="&#100;" d="M398 265l-243 243c-5 5-13 5-18 0l-23-23c-3-2-4-6-4-9 0-3 1-6 4-9l211-211-211-211c-3-3-4-6-4-9 0-3 1-7 4-9l23-23c3-3 6-4 9-4 3 0 6 1 9 4l243 243c5 5 5 13 0 18z"/>
<glyph glyph-name="prev" unicode="&#65;" d="M114 265l243 243c5 5 13 5 17 0l24-23c2-2 3-5 3-9 0-3-1-6-3-9l-211-210 211-211c2-2 3-6 3-9 0-3-1-6-3-9l-24-23c-2-2-5-4-8-4-4 0-7 2-9 4l-243 243c-5 5-5 13 0 17z"/>
<glyph glyph-name="reload" unicode="&#66;" d="M452 370l-326 0 0 67-126-109 126-108 0 66 302 0 0-126-392 0 0-85 416 0c33 0 60 27 60 61l0 174c0 33-27 60-60 60z"/>
<glyph glyph-name="email" unicode="&#67;" d="M256 183l-63 55-181-155c6-6 15-10 25-10l438 0c10 0 19 4 25 10l-181 155z m244 246c-6 6-15 10-25 10l-438 0c-10 0-19-4-25-10l244-210z m-500-22l0-304 177 150z m335-154l177-150 0 304z"/>
<glyph glyph-name="info" unicode="&#68;" d="M477 385c-23 39-54 70-93 93-39 23-82 34-128 34-47 0-89-11-129-34-39-23-70-54-93-93-23-40-34-82-34-129 0-46 11-89 34-128 23-39 54-70 93-93 40-23 82-34 129-34 46 0 89 11 128 34 39 23 70 54 93 93 23 39 34 82 34 128 0 47-11 89-34 129z m-264 63c0 3 1 6 3 8 2 2 5 3 8 3l64 0c3 0 5-1 7-3 2-2 3-5 3-8l0-53c0-3-1-6-3-8-2-2-4-3-7-3l-64 0c-3 0-6 1-8 3-2 2-3 5-3 8z m128-352c0-3-1-5-3-7-2-2-5-3-8-3l-149 0c-3 0-6 1-8 3-2 2-3 4-3 7l0 54c0 3 1 5 3 7 2 2 5 3 8 3l32 0 0 107-32 0c-3 0-6 1-8 3-2 2-3 4-3 8l0 53c0 3 1 6 3 8 2 2 5 3 8 3l107 0c3 0 5-1 7-3 2-2 3-5 3-8l0-171 32 0c3 0 6-1 8-3 2-2 3-4 3-7l0-54z"/>
<glyph glyph-name="menu" unicode="&#69;" d="M486 282l-460 0c-15 0-26-12-26-26 0-14 11-26 26-26l460 0c14 0 26 12 26 26 0 14-12 26-26 26z m-460 102l460 0c14 0 26 11 26 26 0 14-12 25-26 25l-460 0c-15 0-26-11-26-25 0-15 11-26 26-26z m460-256l-460 0c-15 0-26-12-26-26 0-14 11-25 26-25l460 0c14 0 26 11 26 25 0 14-12 26-26 26z"/>
<glyph glyph-name="arrow-up" unicode="&#70;" d="M256 512c-141 0-256-115-256-256 0-141 115-256 256-256 141 0 256 115 256 256 0 141-115 256-256 256z m0-472c-119 0-216 97-216 216 0 119 97 216 216 216 119 0 216-97 216-216 0-119-97-216-216-216z m-112 129l224 0-112 192z"/>
<glyph glyph-name="arrow-up" unicode="&#70;" d="M256 512c-141 0-256-115-256-256 0-141 115-256 256-256 141 0 256 115 256 256 0 141-115 256-256 256z m0-472c-119 0-216 97-216 216 0 119 97 216 216 216 119 0 216-97 216-216 0-119-97-216-216-216z m-112 129l224 0-112 192z"/>
<glyph glyph-name="arrow-right-alt" unicode="&#71;" d="M96 506l0-162 115-88-115-88 0-162 326 250z"/>
<glyph glyph-name="arrow-down-alt" unicode="&#72;" d="M509 419l-162 0-88-115-88 115-163 0 251-326z"/>
<glyph glyph-name="back" unicode="&#73;" d="M393 415l-218 0 18 45c4 9 1 20-7 27-8 6-19 6-28 0l-148-102c-6-5-10-12-10-20 0-8 4-15 11-20l155-94c9-5 20-4 28 3 7 7 10 18 5 27l-20 44 214 0c16 0 29-14 29-29l0-157c0-16-13-29-29-29l-237 0c-21 0-38-17-38-38l0-14c0-21 17-38 38-38l237 0c66 0 119 53 119 119l0 157c0 65-53 119-119 119z"/>
<glyph glyph-name="question" unicode="&#74;" d="M256 512c-141 0-256-115-256-256 0-141 115-256 256-256 141 0 256 115 256 256 0 141-115 256-256 256z m0-478c-123 0-222 99-222 222 0 123 99 222 222 222 123 0 222-99 222-222 0-123-99-222-222-222z m0 361c-45 0-82-37-82-82 0-9 8-16 17-16 9 0 17 7 17 16 0 27 21 48 48 48 27 0 48-21 48-48 0-26-21-48-48-48-9 0-17-7-17-16l0-59c0-9 8-17 17-17 9 0 17 8 17 17l0 43c37 8 65 41 65 80 0 45-37 82-82 82z m0-233c-12 0-21-10-21-21 0-12 9-22 21-22 12 0 21 10 21 22 0 11-9 21-21 21z"/>
<glyph glyph-name="forward" unicode="&#75;" d="M119 415l219 0-19 45c-4 9-1 20 7 27 8 6 20 6 28 0l148-102c7-5 11-12 10-20 0-8-4-15-11-20l-155-94c-9-5-20-4-27 3-8 7-10 18-6 27l20 44-214 0c-16 0-29-14-29-29l0-157c0-16 13-29 29-29l237 0c22 0 39-17 39-38l0-14c0-21-17-38-39-38l-237 0c-66 0-119 53-119 119l0 157c0 65 53 119 119 119z"/>
<glyph glyph-name="plus" unicode="&#76;" d="M496 320l-176 0 0 176c0 9-7 16-16 16l-96 0c-9 0-16-7-16-16l0-176-176 0c-9 0-16-7-16-16l0-96c0-9 7-16 16-16l176 0 0-176c0-9 7-16 16-16l96 0c9 0 16 7 16 16l0 176 176 0c9 0 16 7 16 16l0 96c0 9-7 16-16 16z"/>
<glyph glyph-name="double-line" unicode="&#77;" d="M255 284c-61 0-122 0-183 0-18 0-36 2-52 11-10 5-20 12-20 25 0 13 10 20 20 25 15 8 32 11 48 11 125 0 250 1 374 0 15 0 29-5 43-8 5-2 10-5 15-9 15-11 15-27 0-38-16-13-35-17-55-17-42 0-85 0-128 0-21 0-41 0-62 0m0-127c-60 0-121 0-182 1-16 0-32 4-47 8-13 4-26 12-26 28 0 15 13 23 26 27 14 5 30 9 45 9 123 0 246 0 369 0 14 0 27-4 40-7 6-1 11-4 16-8 20-13 20-31 0-43-17-12-37-15-57-15-61 0-122 0-184 0"/>
<glyph glyph-name="search" unicode="&#79;" d="M345 453c-79 79-207 79-286 0-79-79-79-207 0-286 70-70 179-77 258-23 2-7 5-15 12-21l114-115c17-16 44-16 61 0 16 17 16 44 0 61l-115 114c-6 6-14 10-21 12 54 79 47 188-23 258z m-37-249c-58-59-154-59-213 0-58 58-58 154 0 213 59 58 155 58 213 0 59-59 59-155 0-213z"/>
<glyph glyph-name="sort" unicode="&#78;" d="M254 340c-61 0-122 0-182 1-13 0-25 2-37 5-6 1-12 4-17 7-24 13-24 34 0 47 15 9 32 13 49 13 125 0 250 0 375 0 17 0 34-4 50-13 22-14 22-33 0-47-17-9-35-13-54-13-61 0-123 0-184 0m8-146c17 0 33 0 50 0 12 0 12 0 12 12 0 28 0 56 0 83-1 8 2 10 9 10 35 0 70 0 105 0 8 0 10-3 10-10-1-27-1-54-1-81 0-14 0-14 15-14 16 0 31 0 50 0-4-4-6-5-8-7-37-27-74-55-111-83-6-4-10-4-15 1-37 27-73 54-110 81-2 1-4 3-7 5z m-134 19c-29 0-58 0-87 0-24 0-41 17-41 43 0 25 16 43 41 43 58 0 117 0 175 0 24 0 41-17 41-43 0-25-17-43-41-43-29 0-59 0-88 0m1-29c30 0 59 0 89 0 23 0 39-17 39-42 0-25-16-43-39-43-60 0-119 0-179 0-23 0-39 18-39 43 0 24 16 42 39 42 30 0 60 0 90 0"/>
<glyph glyph-name="cross-alt" unicode="&#80;" d="M416 512l-320 0c-53 0-96-43-96-96l0-320c0-53 43-96 96-96l320 0c53 0 96 43 96 96l0 320c0 53-43 96-96 96z m-38-335c6-6 6-16 0-22l-22-21c-5-6-15-6-21 0l-79 79-79-79c-6-6-16-6-22 0l-21 21c-6 6-6 16 0 22l79 79-79 79c-6 6-6 16 0 21l21 22c6 6 16 6 22 0l79-79 79 79c6 6 16 6 21 0l22-22c6-5 6-15 0-21l-79-79z"/>
<glyph glyph-name="edit-alt" unicode="&#81;" d="M456 272c-13 0-24-11-24-24l0-200-384 0 0 384 200 0c13 0 24 11 24 24 0 13-11 24-24 24l-216 0c-18 0-32-14-32-32l0-416c0-18 14-32 32-32l416 0c18 0 32 14 32 32l0 216c0 13-11 24-24 24z m50 166l-68 68c-4 4-9 6-14 6-5 0-10-2-14-6l-266-266 0-96 96 0 266 266c4 4 6 9 6 14 0 5-2 10-6 14z m-282-246l-32 0 0 32 232 232 32-32z"/>
</font>
</defs>
</svg>
