<svg width="20" height="20" viewBox="0 0 20 20" class="ole-icons ole-icon-register" fill="none" xmlns="http://www.w3.org/2000/svg">
<path d="M14.375 10C14.8723 10 15.3492 10.1975 15.7008 10.5492C16.0525 10.9008 16.25 11.3777 16.25 11.875V12.5C16.25 14.9637 13.925 17.5 10 17.5C6.075 17.5 3.75 14.9637 3.75 12.5V11.875C3.75 11.3777 3.94754 10.9008 4.29917 10.5492C4.65081 10.1975 5.12772 10 5.625 10H14.375ZM14.375 11.25H5.625C5.45924 11.25 5.30027 11.3158 5.18306 11.4331C5.06585 11.5503 5 11.7092 5 11.875V12.5C5 14.2975 6.79 16.25 10 16.25C13.21 16.25 15 14.2975 15 12.5V11.875C15 11.7092 14.9342 11.5503 14.8169 11.4331C14.6997 11.3158 14.5408 11.25 14.375 11.25ZM10 1.875C10.9117 1.875 11.786 2.23716 12.4307 2.88182C13.0753 3.52648 13.4375 4.40082 13.4375 5.3125C13.4375 6.22418 13.0753 7.09852 12.4307 7.74318C11.786 8.38784 10.9117 8.75 10 8.75C9.08832 8.75 8.21398 8.38784 7.56932 7.74318C6.92466 7.09852 6.5625 6.22418 6.5625 5.3125C6.5625 4.40082 6.92466 3.52648 7.56932 2.88182C8.21398 2.23716 9.08832 1.875 10 1.875ZM10 3.125C9.41984 3.125 8.86344 3.35547 8.4532 3.7657C8.04297 4.17594 7.8125 4.73234 7.8125 5.3125C7.8125 5.89266 8.04297 6.44906 8.4532 6.8593C8.86344 7.26953 9.41984 7.5 10 7.5C10.5802 7.5 11.1366 7.26953 11.5468 6.8593C11.957 6.44906 12.1875 5.89266 12.1875 5.3125C12.1875 4.73234 11.957 4.17594 11.5468 3.7657C11.1366 3.35547 10.5802 3.125 10 3.125Z" fill="white"/>
<circle cx="16" cy="16" r="3" fill="white"/>
<path d="M16 15V17" stroke="#FF7D00" stroke-linecap="round"/>
<path d="M15 16L17 16" stroke="#FF7D00" stroke-linecap="round"/>
</svg>
