<?xml version="1.0" encoding="utf-8"?>
<!-- Generator: Adobe Illustrator 16.0.0, SVG Export Plug-In . SVG Version: 6.00 Build 0)  -->
<!DOCTYPE svg PUBLIC "-//W3C//DTD SVG 1.1//EN" "http://www.w3.org/Graphics/SVG/1.1/DTD/svg11.dtd">
<svg version="1.1" id="形状_7_1_" xmlns="http://www.w3.org/2000/svg" xmlns:xlink="http://www.w3.org/1999/xlink" x="0px"
	 y="0px" width="640px" height="420px" viewBox="0 0 640 420" enable-background="new 0 0 640 420" xml:space="preserve">
<g id="形状_7">
	<g>
		<g>
			<path fill="#3E0D30" d="M556.132,20.25c16.296,0,29.518,14.163,29.518,31.627v42.17H54.35v-42.17
				c0-17.465,13.222-31.627,29.517-31.627H556.132 M585.649,157.294v210.828c0,17.487-13.222,31.628-29.518,31.628H83.867
				c-16.295,0-29.517-14.141-29.517-31.628V157.294H585.649 M113.384,273.247h118.07V252.17h-118.07V273.247 M467.299,336.504
				h39.954c10.695,0,19.377-9.146,19.377-20.448v-1.261c0-11.293-8.682-20.455-19.377-20.455h-39.954
				c-10.71,0-19.393,9.162-19.393,20.455v1.261C447.906,327.357,456.589,336.504,467.299,336.504 M113.384,336.503h196.779v-21.085
				H113.384V336.503 M556.132,5.25H83.867C59.32,5.25,39.35,26.167,39.35,51.877v42.17v15h15h531.3h15v-15v-42.17
				C600.649,26.167,580.679,5.25,556.132,5.25L556.132,5.25z M600.649,142.294h-15H54.35h-15v15v210.828
				c0,25.711,19.97,46.628,44.517,46.628h472.265c24.547,0,44.518-20.917,44.518-46.628V157.294V142.294L600.649,142.294z
				 M467.299,321.504c-2.381,0-4.393-2.495-4.393-5.448v-1.261c0-2.957,2.012-5.455,4.393-5.455h39.954
				c2.373,0,4.377,2.498,4.377,5.455v1.261c0,2.953-2.004,5.448-4.377,5.448H467.299L467.299,321.504z"/>
		</g>
	</g>
</g>
</svg>
