<?xml version="1.0" encoding="utf-8"?>
<!-- Generator: Adobe Illustrator 16.0.0, SVG Export Plug-In . SVG Version: 6.00 Build 0)  -->
<!DOCTYPE svg PUBLIC "-//W3C//DTD SVG 1.1//EN" "http://www.w3.org/Graphics/SVG/1.1/DTD/svg11.dtd">
<svg version="1.1" id="Capa_1" xmlns="http://www.w3.org/2000/svg" xmlns:xlink="http://www.w3.org/1999/xlink" x="0px" y="0px"
	 width="454.886px" height="454.886px" viewBox="0 0 454.886 454.886" enable-background="new 0 0 454.886 454.886"
	 xml:space="preserve">
<g>
	<g>
		<g>
			<path fill="#3B092E" d="M45.178,88.056c29.555-29.557,77.648-29.566,107.214,0l171.551,171.551
				c8.614,8.536,13.39,19.967,13.422,32.163c0.062,24.357-21.232,45.65-45.589,45.59c-12.198-0.031-23.631-4.806-32.221-13.476
				L109.508,173.835c-5.93-5.93-5.927-15.523,0-21.45c5.925-5.925,15.514-5.924,21.445,0.007l150.103,150.102
				c2.908,2.93,6.724,4.519,10.785,4.541c8.125,0.001,15.203-7.076,15.201-15.201c-0.021-4.063-1.611-7.872-4.492-10.733
				L130.948,109.5c-17.738-17.738-46.594-17.738-64.329-0.004c-17.738,17.738-17.738,46.594,0.001,64.333l192.992,192.993
				c29.56,29.559,77.655,29.561,107.215,0.001s29.561-77.661,0.003-107.219L216.725,109.498c-5.926-5.926-5.926-15.516,0-21.442
				c5.925-5.925,15.516-5.925,21.441,0.001l150.105,150.104c41.379,41.381,41.382,108.727,0.001,150.106
				c-41.381,41.382-108.73,41.382-150.109,0.002L45.17,195.278C15.605,165.71,15.605,117.627,45.178,88.056z"/>
		</g>
	</g>
</g>
</svg>
