<?xml version="1.0" standalone="no"?><!DOCTYPE svg PUBLIC "-//W3C//DTD SVG 1.1//EN" "http://www.w3.org/Graphics/SVG/1.1/DTD/svg11.dtd">
<svg t="1513158784667" class="icon" style="" viewBox="0 0 1024 1024" version="1.1" xmlns="http://www.w3.org/2000/svg" p-id="2419" xmlns:xlink="http://www.w3.org/1999/xlink"
     width="128" height="128">
    <defs>
        <style type="text/css"></style>
    </defs>
    <path d="M940 666.8c-18.4-70.4-100.5-119.2-226.9-135.9v-9.3c40.3-32.5 71.3-85.8 86.3-148.9 9-37.9 18.5-120.4 5.6-180.4C786.4 105.4 731.4 56.2 646 50c-20.3-1.5-61.3-1.3-81.6 0-66.6 4.1-114.7 34.9-141.6 89.9 6.4-1 13-1.7 19.8-2.1 20.3-1.2 61.3-1.4 81.6 0 85.4 6.2 140.4 55.4 158.9 142.3 12.9 60 3.4 142.5-5.6 180.4-15 63.1-46 116.4-86.3 148.9v9.3c126.4 16.7 208.5 65.6 226.9 135.9 6 22.9 5.1 44.8-2.6 64.6 45.2-13 84.6-32.6 107.3-62.1 20-25.8 25.9-57 17.2-90.3z"
          p-id="2420" fill="#3e0d30"></path>
    <path d="M419.1 975c-93.9-0.1-260.1-11.4-318-86.4-19.9-25.8-25.8-57-17.1-90.2 18.5-70.4 100.6-119.3 227-136v-9.3c-40.3-32.5-71.3-85.7-86.3-148.9-9-37.9-18.5-120.4-5.7-180.4 18.8-87.8 73.9-137 159.3-142.3 20.3-1.2 61.3-1.4 81.6 0 85.4 6.2 140.4 55.4 158.9 142.3 12.9 60 3.4 142.5-5.6 180.4-15 63.1-46 116.4-86.3 148.9v9.3C653.4 679.1 735.5 728 754 798.3c8.7 33.3 2.8 64.5-17.1 90.2-57.8 75.1-224 86.4-317.8 86.5z"
          p-id="2421" fill="#3e0d30"></path>
</svg>