<?xml version="1.0" encoding="utf-8"?>
<!-- Generator: Adobe Illustrator 16.0.0, SVG Export Plug-In . SVG Version: 6.00 Build 0)  -->
<!DOCTYPE svg PUBLIC "-//W3C//DTD SVG 1.1//EN" "http://www.w3.org/Graphics/SVG/1.1/DTD/svg11.dtd">
<svg version="1.1" id="形状_7_1_" xmlns="http://www.w3.org/2000/svg" xmlns:xlink="http://www.w3.org/1999/xlink" x="0px"
	 y="0px" width="640px" height="420px" viewBox="0 0 640 420" enable-background="new 0 0 640 420" xml:space="preserve">
<g>
	<path fill="none" stroke="#3e0d30" stroke-width="10" stroke-linecap="round" stroke-linejoin="round" stroke-miterlimit="10" d="
		M234.85,139.847h184.269c3.341,0,6.059,2.717,6.059,5.057v78.423c0,3.062-1.024,4.877-2.591,5.974l-53.198,42.338
		c-2.355,1.869-5.686,1.701-7.843-0.269l-5.7-4.509c-0.111-0.092-0.224-0.182-0.318-0.278l-0.018,0.021l-0.046-0.051h-0.008
		c-4.608-3.771-9.417-6.604-14.297-8.517c-4.935-1.925-9.945-2.937-14.91-3.021c-5.013-0.088-9.984,0.738-14.802,2.461
		c-4.811,1.729-9.507,4.383-13.984,7.949c-0.066,0.053-0.134,0.102-0.2,0.146l-2.664,2.045c-2.161,1.648-5.074,1.621-7.178,0.121
		l-55.98-38.455c-1.713-1.168-2.637-3.063-2.64-4.991h-0.011v-78.389C228.789,142.563,231.501,139.847,234.85,139.847
		L234.85,139.847z M252.48,164.834v7.503h148.459v-7.503H252.48L252.48,164.834z M252.48,185.992v7.508h148.459v-7.508H252.48z"/>
	<g>
		<path fill="#3e0d30" d="M326.044,43.412c13.67,0,26.032,5.771,36.692,14.096l137.136,96.602c0.743,0.519,0.35,0.206,0.938,0.745
			c11.635,9.738,18.28,26.003,18.28,41.04v137.674c0,14.729-5.859,28.731-16.271,39.146c-10.412,10.405-24.41,16.266-39.142,16.266
			H188.32c-14.73,0-28.733-5.858-39.139-16.266c-10.412-10.412-16.271-24.414-16.271-39.146V195.895
			c0-14.137,5.461-28.825,15.941-38.521l0.203-0.193l139.983-99.358c10.35-8.225,22.275-14.025,35.679-14.391
			C325.16,43.418,325.604,43.412,326.044,43.412 M298.511,76.84l-0.218-0.274c-1.236,0.877-2.464,1.778-3.646,2.606
			c-5.13,3.609-10.247,7.24-15.362,10.857c-14.987,10.621-29.96,21.273-44.928,31.922c-20.524,14.602-41.021,29.245-61.551,43.836
			l114.457,78.625c12.395-8.838,25.848-13.598,39.258-13.598c13.205,0,26.367,4.612,38.449,14.494
			c1.396,1.143,2.813,2.262,4.233,3.379l107.454-85.519L350.736,74.453c-9.256-6.308-17.441-9.888-25.627-9.888
			c-7.483-0.001-14.971,2.992-23.282,9.629L298.511,76.84 M495.034,348.158c2.134-4.551,3.255-9.506,3.255-14.59V195.895
			c0-6.754-1.973-13.313-5.645-18.904l-106.705,84.923L495.034,348.158 M155.713,345.143l114.165-87.478l-112.489-77.271
			c-2.416,4.783-3.681,10.099-3.681,15.5v137.674C153.707,337.539,154.389,341.441,155.713,345.143 M188.32,368.176h275.36
			c6.142,0,12.086-1.625,17.311-4.681l-117.715-93.056c-3.779-2.592-7.174-5.66-10.756-8.504
			c-9.797-6.455-19.252-10.627-28.769-10.627c-7.606,0-15.252,2.668-23.144,8.967l-6.537,5.015
			c-41.045,33.313-83.822,64.349-125.826,96.421C174.068,365.889,181.049,368.176,188.32,368.176 M326.046,36.03h-0.002
			c-0.509,0-1.021,0.007-1.526,0.021c-13.65,0.375-27.081,5.712-39.911,15.865L144.779,151.16c-0.301,0.215-0.586,0.451-0.854,0.708
			l-0.146,0.143c-11.43,10.607-18.251,27.006-18.251,43.883v137.674c0,16.724,6.546,32.479,18.433,44.364
			c11.885,11.886,27.639,18.429,44.359,18.429h275.36c16.718,0,32.471-6.543,44.358-18.427
			c11.887-11.889,18.433-27.646,18.433-44.364V195.895c0-8.543-1.862-17.346-5.391-25.452c-3.661-8.419-8.979-15.719-15.385-21.125
			c-0.036-0.033-0.063-0.058-0.083-0.078c-0.417-0.396-0.739-0.655-1.229-0.986c-0.059-0.039-0.144-0.098-0.278-0.191L367.134,51.58
			C353.875,41.261,340.053,36.03,326.046,36.03L326.046,36.03z M300.782,83.863c0.838-0.271,1.628-0.691,2.328-1.251l3.318-2.644
			c6.854-5.475,12.789-8.021,18.683-8.021c6.103,0,12.712,2.646,21.422,8.573l117.816,83.008l-95.139,75.715
			c-6.427-5.187-13.314-9.157-20.479-11.812c-7.174-2.654-14.646-4.002-22.211-4.002c-13.214,0-26.673,4.154-39.208,12.06
			l-101.623-69.808c8.578-6.105,17.179-12.235,25.563-18.212c9.125-6.504,18.25-13.008,27.379-19.504l0.292-0.207
			c14.621-10.403,29.741-21.159,44.624-31.707l4.074-2.883c3.693-2.614,7.511-5.317,11.269-7.963
			C299.517,84.772,300.157,84.313,300.782,83.863L300.782,83.863z M397.818,261.896l92.094-73.296
			c0.656,2.355,0.994,4.807,0.994,7.294v137.674c0,0.625-0.021,1.248-0.063,1.866L397.818,261.896L397.818,261.896z
			 M161.089,331.725v-135.83c0-1.277,0.091-2.553,0.271-3.815l95.956,65.914L161.089,331.725L161.089,331.725z M298.645,271.086
			l6.456-4.951c0.039-0.029,0.076-0.06,0.113-0.09c6.198-4.947,12.263-7.354,18.538-7.354c7.045,0,14.814,2.937,24.434,9.229
			c1.008,0.807,2.004,1.631,3.053,2.5c2.408,1.995,4.896,4.057,7.65,5.961l106.693,84.346c-0.633,0.046-1.267,0.066-1.902,0.066
			H188.32c-1.984,0-3.941-0.214-5.844-0.634c9.91-7.519,19.89-15.017,29.619-22.33C240.715,316.322,270.306,294.084,298.645,271.086
			L298.645,271.086z"/>
	</g>
</g>
</svg>
