<?xml version="1.0" encoding="utf-8"?>
<!-- Generator: Adobe Illustrator 16.0.0, SVG Export Plug-In . SVG Version: 6.00 Build 0)  -->
<!DOCTYPE svg PUBLIC "-//W3C//DTD SVG 1.1//EN" "http://www.w3.org/Graphics/SVG/1.1/DTD/svg11.dtd">
<svg version="1.1" id="money_1_" xmlns="http://www.w3.org/2000/svg" xmlns:xlink="http://www.w3.org/1999/xlink" x="0px" y="0px"
	 width="640px" height="420px" viewBox="0 0 640 420" enable-background="new 0 0 640 420" xml:space="preserve">
<g id="money">
	<g>
		<g>
			<path fill="#3E0D30" d="M258.921,20.44c13.486,0,31.349,14.595,48.446,14.595c1.135,0,2.268-0.064,3.394-0.202
				c14.714-2.186,43.554-13.572,60.573-13.571c1.92,0,3.689,0.145,5.271,0.464c11.739,2.364-7.337,56.622-35.885,80.704
				c103.259,42.691,252.176,294.847-13.271,294.847c-11.177,0-23.124-0.449-35.804-1.379
				c-226.82-16.629-96.809-245.806-4.311-291.458c-31.002-20.174-50.813-66.493-39.275-79.221
				C251.189,21.766,254.855,20.44,258.921,20.44 M310.442,294.941c-4.333-1.221-8.488-3.274-11.748-6.426
				c-1.575-1.529-2.949-3.298-4.046-5.215c-0.563-0.973-1.035-1.991-1.421-3.042c-0.394-1.058-0.633-2.156-0.989-3.222
				c-1.143-3.468-4.317-5.993-7.939-6.318c-0.268-0.024-0.534-0.036-0.8-0.036c-3.403,0-6.615,1.937-8.206,4.98
				c-0.834,1.599-1.182,3.438-1.004,5.229c0.108,1.066,0.417,2.109,0.727,3.137c0.34,1.135,0.718,2.254,1.151,3.358
				c1.645,4.211,4.031,8.111,6.958,11.548c5.87,6.897,13.912,11.554,22.584,13.949c1.553,0.433,3.137,0.796,4.728,1.104v10.782
				c0,3.585,2.132,6.928,5.376,8.427c1.215,0.563,2.523,0.836,3.827,0.836c2.225,0,4.436-0.796,6.145-2.311
				c1.97-1.746,3.112-4.303,3.112-6.944v-9.869c9.276-0.75,18.615-3.445,26.052-9.237c7.045-5.485,11.765-13.563,12.729-22.501
				c0.726-6.734-0.378-13.824-3.727-19.778c0.371,0.648,0.732,1.282,0.732,1.282c0.001-0.001-0.202-0.356-0.754-1.329
				c-0.561-0.988-0.767-1.35-0.768-1.35s0.368,0.652,0.744,1.313c-4.209-7.393-11.522-12.073-19.24-15.132
				c-5.104-2.016-10.441-3.421-15.771-4.704v-35.096c4.479,0.803,8.975,2.239,12.674,4.974c1.699,1.268,3.206,2.812,4.355,4.596
				c0.596,0.92,1.112,1.9,1.507,2.92c0.393,1.004,0.587,2.078,0.98,3.097c1.297,3.406,4.589,5.777,8.211,5.932
				c0.137,0.006,0.272,0.01,0.409,0.01c3.546,0,6.854-2.104,8.356-5.34c0.771-1.645,1.043-3.499,0.771-5.29
				c-0.161-1.12-0.508-2.225-0.856-3.306c-0.379-1.151-0.818-2.279-1.313-3.392c-1.768-3.962-4.303-7.592-7.375-10.643
				c-6.504-6.441-15.209-10.133-24.099-11.748c-1.196-0.216-2.409-0.402-3.615-0.556v-10.188c0-3.583-2.124-6.929-5.367-8.426
				c-1.218-0.563-2.53-0.838-3.837-0.838c-2.224,0-4.432,0.795-6.134,2.313c-1.978,1.746-3.121,4.301-3.121,6.943v10.249
				c-9.06,1.282-18.096,4.796-24.893,11.075c-3.182,2.943-5.777,6.488-7.577,10.443c-1.922,4.217-2.796,8.796-2.765,13.431
				c0.039,4.557,0.866,9.152,2.858,13.268c1.893,3.901,4.773,7.2,8.172,9.857c6.99,5.462,15.733,8.303,24.206,10.504V294.941
				 M310.43,208.522v30.507c-2.14-0.662-4.117-1.343-5.878-2.062c-2.101-0.843-4.162-1.846-6.04-3.12
				c-1.668-1.144-3.29-2.564-4.062-4.486c-0.812-2.024-0.928-4.411-0.719-6.559c0.216-2.139,0.973-4.155,2.179-5.925
				C299.138,212.137,305.038,209.672,310.43,208.522 M328.89,262.602c4.333,1.138,8.695,2.404,12.69,4.498
				c1.829,0.964,3.598,2.115,5.004,3.659c1.304,1.444,2.116,3.182,2.51,5.075c0.703,3.506,0.364,7.375-1.405,10.519
				c-3.691,6.589-11.771,9.152-18.799,9.956V262.602 M258.921,5.44c-8.622,0-16.221,3.355-21.975,9.704
				c-4.128,4.555-8.653,13.052-6.761,27.667c2.237,17.28,13.54,41.226,31.396,59.613c-26.708,18.635-54.132,48.474-74.929,82.2
				c-17.059,27.665-44.167,81.813-34.06,133.626c5.109,26.192,18.917,47.422,41.039,63.099
				c23.398,16.581,56.006,26.51,96.917,29.509c12.841,0.941,25.256,1.419,36.901,1.419c48.419,0,86.884-8.229,114.327-24.458
				c13.255-7.839,24.078-17.616,32.171-29.061c7.669-10.846,12.926-23.237,15.624-36.829c4.171-21.001,2.289-44.621-5.593-70.202
				c-6.847-22.223-18.363-45.851-33.306-68.332c-24.085-36.236-55.414-67.27-85.289-85.188c9.054-11.464,15.38-23.421,18.914-30.946
				c5.235-11.145,13.489-31.898,9.957-45.673c-1.965-7.665-7.457-13.111-14.689-14.567c-2.527-0.51-5.223-0.759-8.231-0.759
				c-12.452,0-28.388,4.558-42.447,8.579c-7.869,2.25-15.309,4.378-20.111,5.122c-0.448,0.048-0.921,0.072-1.409,0.072
				c-5.891,0-13.565-3.389-20.986-6.667C277.555,9.47,268.429,5.44,258.921,5.44L258.921,5.44z"/>
		</g>
	</g>
</g>
</svg>
