<?xml version="1.0" encoding="utf-8"?>
<!-- Generator: Adobe Illustrator 14.0.0, SVG Export Plug-In . SVG Version: 6.00 Build 43363)  -->
<!DOCTYPE svg PUBLIC "-//W3C//DTD SVG 1.1//EN" "http://www.w3.org/Graphics/SVG/1.1/DTD/svg11.dtd">
<svg version="1.1" id="Capa_1" xmlns="http://www.w3.org/2000/svg" xmlns:xlink="http://www.w3.org/1999/xlink" x="0px" y="0px"
	 width="640px" height="420px" viewBox="0 0 640 420" enable-background="new 0 0 640 420" xml:space="preserve">
<g>
	<path fill="none" stroke="#3E0D30" stroke-width="15" stroke-linejoin="round" stroke-miterlimit="10" d="M545.901,146.01
		c-1.78-1.785-4.063-2.677-6.852-2.677H408.102c18.449,0,34.175-6.494,47.175-19.493c12.993-12.997,19.491-28.721,19.491-47.174
		c0-18.454-6.497-34.177-19.491-47.174C442.275,16.499,426.552,10,408.102,10c-21.229,0-37.896,7.638-50,22.915l-38.099,49.106
		l-38.09-49.106C269.807,17.638,253.142,10,231.91,10c-18.454,0-34.181,6.495-47.174,19.493
		c-12.992,12.997-19.492,28.721-19.492,47.174s6.495,34.182,19.492,47.174c12.997,12.994,28.72,19.493,47.174,19.493H100.956
		c-2.78,0-5.062,0.892-6.847,2.677c-1.783,1.788-2.677,4.071-2.677,6.847v95.246c0,2.774,0.891,5.059,2.677,6.842
		c1.784,1.781,4.068,2.675,6.847,2.675h28.572v123.813c0,7.941,2.778,14.686,8.334,20.233c5.553,5.558,12.3,8.333,20.238,8.333
		h323.81c7.94,0,14.685-2.775,20.241-8.334c5.552-5.553,8.335-12.299,8.335-20.233V257.617h28.559c2.782,0,5.065-0.893,6.85-2.676
		c1.782-1.782,2.674-4.064,2.674-6.84v-95.247C548.57,150.081,547.685,147.798,545.901,146.01z M387.566,57.32
		c5.158-6.148,12.002-9.224,20.535-9.224c7.939,0,14.687,2.775,20.239,8.331c5.551,5.554,8.326,12.301,8.326,20.238
		s-2.783,14.685-8.326,20.238c-5.558,5.556-12.3,8.331-20.239,8.331h-57.742L387.566,57.32z M231.907,105.236
		c-7.938,0-14.68-2.776-20.244-8.332c-5.554-5.553-8.332-12.301-8.332-20.237c0-7.938,2.775-14.682,8.332-20.238
		c5.556-5.557,12.304-8.332,20.24-8.332c8.536,0,15.38,3.071,20.538,9.223l37.501,47.916H231.907L231.907,105.236z M367.627,200.479
		v139.288v16.664c0,4.961-1.792,8.779-5.359,11.462c-3.574,2.68-8.142,4.021-13.688,4.021h-57.146
		c-5.557,0-10.119-1.341-13.691-4.021c-3.572-2.683-5.36-6.501-5.36-11.462v-16.664V200.479v-57.145h95.244L367.627,200.479
		L367.627,200.479z"/>
</g>
</svg>
