<?xml version="1.0" encoding="utf-8"?>
<!-- Generator: Adobe Illustrator 16.0.0, SVG Export Plug-In . SVG Version: 6.00 Build 0)  -->
<!DOCTYPE svg PUBLIC "-//W3C//DTD SVG 1.1//EN" "http://www.w3.org/Graphics/SVG/1.1/DTD/svg11.dtd">
<svg version="1.1" id="money_1_" xmlns="http://www.w3.org/2000/svg" xmlns:xlink="http://www.w3.org/1999/xlink" x="0px" y="0px"
	 width="640px" height="420px" viewBox="0 0 640 420" enable-background="new 0 0 640 420" xml:space="preserve">
<g id="money">
	<g>
		<g>
			<path fill="#3E0D30" d="M262.653,27.608c4.615,0,9.231,1.857,12.956,5.571l58.053,57.937c7.442,7.421,7.742,18.713,0.294,26.142
				c-3.382,3.379-7.831,4.958-12.339,4.958c-5.009,0-10.091-1.952-13.854-5.553l-25.9-26.142v101.317
				c0,5.045-2.082,10.097-5.955,13.368c-3.705,3.449-8.586,5.111-13.458,5.111c-6.872,0-13.722-3.308-17.207-9.569
				c-1.488-2.669-2.383-5.947-2.383-8.91V90.522c0,0-25.899,25.848-25.899,26.142c-3.605,3.602-8.695,5.553-13.708,5.553
				c-4.509,0-8.956-1.58-12.199-4.959c-7.149-7.127-6.85-18.714,0.593-26.142l58.054-57.936
				C253.423,29.466,258.038,27.608,262.653,27.608 M403.302,136.873c9.826,0,17.862,8.022,17.862,17.826v79.627h68.475
				c6.849,0,11.014,7.127,8.03,13.066l-70.25,135.488c-2.977,5.654-9.223,9.511-15.779,9.511H159.208
				c-9.826,0-17.864-8.022-17.855-17.825V154.7c0-9.803,8.037-17.826,17.862-17.826h61.918v35.652h-35.131
				c-5.059,0-8.931,3.865-8.931,8.909v142.029l41.079-79.927c2.969-5.647,9.225-9.513,15.772-9.513h151.524v-52.591
				c0-5.053-3.871-8.909-8.931-8.909h-70.85v-35.652H403.302 M262.653,12.608c-8.753,0-17.115,3.535-23.547,9.954l-58.054,57.936
				c-6.566,6.552-10.181,15.162-10.178,24.242c0.002,6.153,1.683,12.039,4.827,17.133h-16.485c-18.12,0-32.862,14.726-32.862,32.826
				v219.867c-0.007,8.744,3.417,16.99,9.643,23.204c6.215,6.204,14.458,9.621,23.213,9.621H411.64
				c12.045,0,23.448-6.878,29.053-17.523l0.021-0.041l0.021-0.042l70.25-135.488l0.044-0.085l0.044-0.087
				c3.779-7.524,3.402-16.287-1.01-23.439c-4.387-7.113-12.022-11.359-20.425-11.359h-53.475v-64.627
				c0-18.1-14.742-32.826-32.862-32.826h-53.943c3.28-5.211,5.036-11.198,5.036-17.41c-0.001-8.935-3.603-17.447-10.143-23.968
				l-58.047-57.932C279.766,16.142,271.403,12.608,262.653,12.608L262.653,12.608z M296.862,187.525h8.804h64.78v31.5h-87.813
				c1.126-0.795,2.206-1.661,3.231-2.597c6.994-6.05,10.997-14.99,10.997-24.589V187.525L296.862,187.525z M192.071,187.526h29.063
				h6.727v4.313c0,5.504,1.521,11.262,4.282,16.214c2.454,4.409,5.885,8.128,9.969,10.972h-8.188
				c-12.048,0-23.451,6.882-29.05,17.533l-0.032,0.062l-0.031,0.062l-12.738,24.783V187.526L192.071,187.526z"/>
		</g>
	</g>
</g>
</svg>
