<?xml version="1.0" encoding="utf-8"?>
<!-- Generator: Adobe Illustrator 16.0.0, SVG Export Plug-In . SVG Version: 6.00 Build 0)  -->
<!DOCTYPE svg PUBLIC "-//W3C//DTD SVG 1.1//EN" "http://www.w3.org/Graphics/SVG/1.1/DTD/svg11.dtd">
<svg version="1.1" id="形状_6_1_" xmlns="http://www.w3.org/2000/svg" xmlns:xlink="http://www.w3.org/1999/xlink" x="0px"
	 y="0px" width="640px" height="420px" viewBox="0 0 640 420" enable-background="new 0 0 640 420" xml:space="preserve">
<g id="形状_6">
	<g>
		<path fill="none" stroke="#3E0D30" stroke-width="15" stroke-linejoin="round" stroke-miterlimit="10" d="M313,92.17
			c9.073,0,16.421-7.572,16.421-16.919V41.419c0-9.34-7.348-16.919-16.421-16.919c-9.074,0-16.429,7.579-16.429,16.919v33.838
			C296.571,84.598,303.926,92.17,313,92.17z M395.136,92.17c9.08,0,16.429-7.572,16.429-16.919V41.419
			c0-9.34-7.349-16.919-16.429-16.919c-9.066,0-16.421,7.579-16.421,16.919v33.838C378.715,84.598,386.069,92.17,395.136,92.17z
			 M230.865,92.17c9.074,0,16.428-7.572,16.428-16.919V41.419c-0.008-9.34-7.363-16.919-16.428-16.919s-16.429,7.579-16.429,16.919
			v33.838C214.436,84.598,221.791,92.17,230.865,92.17z M455.379,58.338H428v16.919c0,18.688-14.718,33.839-32.864,33.839
			s-32.85-15.151-32.85-33.839V58.338h-16.43v16.919c0,18.688-14.71,33.839-32.856,33.839c-18.147,0-32.857-15.151-32.857-33.839
			V58.338h-16.428v16.919c0,18.688-14.711,33.839-32.857,33.839C212.71,109.096,198,93.945,198,75.257V58.338h-27.378
			c-9.066,0-16.421,7.572-16.421,16.912v293.238c0,9.348,7.355,16.92,16.428,16.92h284.751c9.059,0,16.42-7.573,16.42-16.92V75.251
			C471.8,65.911,464.438,58.338,455.379,58.338z M414.307,329.021H211.693c-7.558,0-13.685-6.31-13.685-14.098
			c0-7.787,6.127-14.096,13.685-14.096h202.614c7.559,0,13.687,6.309,13.687,14.096
			C427.993,322.711,421.864,329.021,414.307,329.021z M411.564,261.35H214.436c-9.073,0-16.428-7.579-16.428-16.919
			s7.355-16.919,16.428-16.919h197.136c9.073,0,16.429,7.579,16.429,16.919S420.638,261.35,411.564,261.35z M411.564,188.036
			H214.436c-9.073,0-16.428-7.579-16.428-16.92s7.355-16.919,16.428-16.919h197.136c9.073,0,16.429,7.579,16.429,16.919
			S420.638,188.036,411.564,188.036z"/>
	</g>
</g>
</svg>
