<?xml version="1.0" encoding="utf-8"?>
<!-- Generator: Adobe Illustrator 14.0.0, SVG Export Plug-In . SVG Version: 6.00 Build 43363)  -->
<!DOCTYPE svg PUBLIC "-//W3C//DTD SVG 1.1//EN" "http://www.w3.org/Graphics/SVG/1.1/DTD/svg11.dtd">
<svg version="1.1" id="Capa_1" xmlns="http://www.w3.org/2000/svg" xmlns:xlink="http://www.w3.org/1999/xlink" x="0px" y="0px"
	 width="640px" height="420px" viewBox="0 0 640 420" enable-background="new 0 0 640 420" xml:space="preserve">
<g>
	<g>
		<g>
			<path fill="#3E0D30" d="M490.596,148.253h-69.797V29.179c0-13.332-10.846-24.18-24.18-24.18H137.316
				c-13.333-0.001-24.182,10.848-24.182,24.18v349.334c0,13.332,10.849,24.18,24.182,24.18h242.278
				c6.65,7.539,16.373,12.307,27.191,12.307h83.811c19.998,0,36.27-16.27,36.27-36.268V184.524
				C526.865,164.525,510.596,148.253,490.596,148.253z M137.316,29.179h259.303l0.002,38.106H137.316V29.179z M370.518,378.514
				H137.316v-38.107h233.2v38.107H370.518z M370.518,184.524v131.703H137.316V91.465h259.307l0.002,58.249
				C381.559,154.12,370.518,168.051,370.518,184.524z M502.686,378.729c0,6.666-5.424,12.09-12.09,12.09h-83.811
				c-6.666,0-12.09-5.424-12.09-12.09v-1.033h107.99V378.729L502.686,378.729z M502.686,353.516H394.697V209.738h107.988V353.516z
				 M502.686,185.557H394.697v-1.033c0-6.667,5.424-12.091,12.09-12.091h83.811c6.666,0,12.09,5.424,12.09,12.091v1.033H502.686z"/>
		</g>
	</g>
	<g>
		<g>
			<path display="none" fill="#3E0D30" d="M351.959,140.53c-9.461-9.463-24.805-9.463-34.266,0l-74.673,74.671l-16.233-17.313
				c-9.155-9.761-24.487-10.253-34.25-1.1c-9.761,9.154-10.253,24.489-1.101,34.249l33.351,35.564
				c4.489,4.785,10.726,7.547,17.287,7.652c0.13,0.002,0.259,0.004,0.39,0.004c6.421,0,12.585-2.551,17.134-7.098l92.364-92.365
				C361.422,165.333,361.422,149.993,351.959,140.53z"/>
			<path fill="#3E0D30" d="M242.113,269.256c-5.136-0.084-10.137-2.299-13.68-6.074l-33.349-35.563
				c-3.514-3.746-5.358-8.637-5.193-13.771c0.165-5.134,2.319-9.897,6.065-13.412c3.578-3.354,8.249-5.202,13.15-5.202
				c5.375,0,10.357,2.157,14.032,6.075l19.767,21.08l78.323-78.322c3.633-3.634,8.463-5.634,13.598-5.634
				c5.137,0,9.967,2,13.598,5.634c7.498,7.498,7.5,19.697,0.002,27.196l-92.363,92.364c-3.634,3.633-8.463,5.633-13.599,5.633
				L242.113,269.256z"/>
		</g>
	</g>
	<g>
		<g>
			<path fill="#3E0D30" d="M481.152,260.395c-4.721-4.721-12.375-4.721-17.098,0l-22.199,22.197l-2.662-2.84
				c-4.566-4.869-12.221-5.115-17.09-0.547c-4.869,4.564-5.115,12.217-0.549,17.088l11.203,11.947
				c2.238,2.387,5.352,3.764,8.625,3.816c0.064,0.002,0.129,0.002,0.195,0.002c3.203,0,6.277-1.271,8.547-3.541l31.027-31.025
				C485.875,272.771,485.875,265.119,481.152,260.395z"/>
		</g>
	</g>
</g>
</svg>
