<svg width="18" height="12" viewBox="0 0 18 12" fill="none" xmlns="http://www.w3.org/2000/svg">
<path fill-rule="evenodd" clip-rule="evenodd" d="M9 0C13.5 0 18 3.00012 18 6C18 8.99988 13 12 9 12C5 12 0 9.50012 0 6C0 2.49988 4.5 0 9 0ZM13 5.99988C13 8.20902 11.2091 9.99988 9 9.99988C6.79086 9.99988 5 8.20902 5 5.99988C5 3.79074 6.79086 1.99988 9 1.99988C11.2091 1.99988 13 3.79074 13 5.99988ZM11 6C11.3597 6 11.6972 5.90506 11.9888 5.73887C11.9962 5.82493 12 5.91202 12 6C12 7.65685 10.6569 9 9 9C7.34315 9 6 7.65685 6 6C6 4.34315 7.34315 3 9 3C9.08798 3 9.17507 3.00379 9.26113 3.01121C9.09494 3.30283 9 3.64033 9 4C9 5.10457 9.89543 6 11 6Z" fill="#6B727C"/>
</svg>