<svg width="19" height="9" viewBox="0 0 19 9" fill="none" xmlns="http://www.w3.org/2000/svg">
<path fill-rule="evenodd" clip-rule="evenodd" d="M13.5503 4.16067C12.5762 4.5702 11.4877 4.8849 10.3242 5.02008V7.28015C10.3242 7.83244 9.8765 8.28015 9.32422 8.28015C8.77193 8.28015 8.32422 7.83244 8.32422 7.28015V5.06285C7.23598 4.97843 6.2065 4.71912 5.26666 4.36016L2.63863 6.11218C2.1791 6.41854 1.55823 6.29436 1.25188 5.83483C0.945524 5.37531 1.0697 4.75444 1.52923 4.44808L3.19036 3.34066C0.936586 1.97374 -0.351215 0.276147 0.0840609 0.0924368C0.342906 -0.0168103 0.941887 0.279232 1.81425 0.710393L1.81426 0.710394C3.43582 1.51184 6.00199 2.78015 9.08406 2.78015C11.9299 2.78015 14.3359 1.56346 15.9645 0.739859C17.0486 0.191652 17.7883 -0.182398 18.0841 0.0924368C18.4908 0.470328 17.3938 1.94254 15.4104 3.19238L16.791 4.57303C17.1816 4.96355 17.1816 5.59672 16.791 5.98724C16.4005 6.37777 15.7673 6.37777 15.3768 5.98724L13.5503 4.16067Z" fill="#6B727C"/>
</svg>