<?xml version="1.0" encoding="utf-8"?>
<!-- Generator: Adobe Illustrator 16.0.0, SVG Export Plug-In . SVG Version: 6.00 Build 0)  -->
<!DOCTYPE svg PUBLIC "-//W3C//DTD SVG 1.1//EN" "http://www.w3.org/Graphics/SVG/1.1/DTD/svg11.dtd">
<svg version="1.1" id="zz_1_" xmlns="http://www.w3.org/2000/svg" xmlns:xlink="http://www.w3.org/1999/xlink" x="0px" y="0px"
	 width="640px" height="420px" viewBox="0 0 640 420" enable-background="new 0 0 640 420" xml:space="preserve">
<g id="zz">
	<g>
		<g>
			<path fill="#3E0D30" d="M317.899,19.804c62.164,0,119.472,31.39,153.016,82.842l26.963-14.813
				c1.937-1.064,4.063-1.588,6.181-1.588c2.848,0,5.678,0.947,7.999,2.797c4.047,3.226,5.744,8.574,4.32,13.535l-19.613,67.542
				c-0.936,3.257-3.142,6.003-6.124,7.639c-1.902,1.057-4.04,1.59-6.185,1.59c-1.188,0-2.398-0.16-3.562-0.502l-67.68-19.567
				c-4.968-1.445-8.58-5.729-9.159-10.871c-0.577-5.143,2.008-10.118,6.543-12.614l25.259-13.876
				c-26.429-38.755-70.373-62.286-117.959-62.286c-78.665,0-142.669,63.883-142.669,142.403c0,10.993-8.932,19.909-19.956,19.909
				c-11.023,0-19.955-8.915-19.955-19.909C135.318,101.55,217.224,19.804,317.899,19.804 M320.766,96.18
				c7.563,0,13.726,6.147,13.726,13.701v9.774l1.696,0.259c11.783,1.795,23.09,5.698,31.832,10.978
				c3.118,1.886,5.394,4.999,6.237,8.543c0.845,3.546,0.221,7.341-1.713,10.431l-0.698,1.111c-2.526,4.04-6.871,6.444-11.64,6.444
				c-2.473,0-4.916-0.677-7.053-1.956c-4.345-2.601-9.959-4.693-16.243-6.071l-2.42-0.525v44.398l1.393,0.449
				c21.324,6.803,45.791,18.836,45.548,51.794c0,24.248-16.943,41.951-45.32,47.336l-1.62,0.313v13.229
				c0,7.547-6.161,13.702-13.725,13.702h-1.559c-7.57,0-13.725-6.155-13.725-13.702v-12.933l-1.658-0.282
				c-17.095-2.944-33.604-11.114-45.289-22.412c-2.625-2.54-4.154-6.086-4.177-9.729c-0.023-3.644,1.438-7.221,4.024-9.8l1.05-1.042
				c2.587-2.579,6.033-4.009,9.7-4.009s7.106,1.416,9.7,4.002c5.988,5.972,14.562,10.674,24.132,13.253l2.52,0.676v-49.421
				l-1.354-0.456c-28.347-9.593-42.125-25.82-42.125-49.61c0-22.215,15.657-38.639,41.873-43.919l1.605-0.32v-10.506
				c0-7.554,6.155-13.701,13.725-13.701H320.766 M305.482,183.616V150.02l-2.686,0.989c-7.829,2.883-11.792,7.463-11.792,13.625
				c0,8.102,3.234,12.994,11.542,17.422L305.482,183.616 M334.475,263.582l2.619-0.86c10.164-3.331,15.322-9.182,15.322-17.384
				c0.09-9.844-4.011-15.3-15.141-20.168l-2.791-1.226h-0.01V263.582 M484.723,198.056c11.024,0,19.955,8.917,19.955,19.909
				c0,100.484-81.906,182.23-182.58,182.23c-62.163,0-119.473-31.397-153.015-82.842l-26.962,14.812
				c-1.934,1.064-4.061,1.588-6.179,1.588c-2.849,0-5.681-0.947-8.002-2.797c-4.047-3.225-5.744-8.581-4.313-13.533l19.613-67.542
				c0.944-3.264,3.15-6.004,6.125-7.646c1.918-1.05,4.04-1.582,6.186-1.582c1.195,0,2.388,0.159,3.561,0.502l67.671,19.567
				c4.976,1.445,8.597,5.729,9.167,10.87c0.579,5.145-2.016,10.119-6.55,12.614l-25.258,13.877
				c26.422,38.755,70.38,62.286,117.958,62.286c78.674,0,142.67-63.884,142.67-142.404
				C464.768,206.973,473.699,198.056,484.723,198.056 M317.899,4.804c-108.946,0-197.581,88.477-197.581,197.23
				c0,12.829,6.966,24.064,17.319,30.132c-4.198,3.514-7.258,8.185-8.809,13.548L109.22,313.24
				c-3.138,10.863,0.543,22.413,9.371,29.447c4.908,3.911,11.07,6.065,17.35,6.065c4.678,0,9.316-1.192,13.413-3.447l15.197-8.349
				c16.918,22.306,38.526,40.917,63.147,54.29c28.844,15.667,61.487,23.948,94.4,23.948c108.946,0,197.58-88.478,197.58-197.23
				c0-12.834-6.97-24.073-17.329-30.138c4.192-3.53,7.313-8.272,8.833-13.567l19.602-67.499c3.123-10.881-0.563-22.422-9.376-29.448
				c-4.909-3.913-11.07-6.067-17.349-6.067c-4.674,0-9.311,1.191-13.407,3.444l-15.204,8.353
				c-16.919-22.308-38.527-40.92-63.148-54.293C383.456,13.084,350.813,4.804,317.899,4.804L317.899,4.804z M175.71,230.34
				c8.79-6.347,14.519-16.67,14.519-28.306c0-70.25,57.272-127.403,127.669-127.403c36.695,0,71.254,15.68,95.307,42.616l-9.829,5.4
				c-7.218,3.972-12.14,10.766-13.791,18.5c-0.085-1.742-0.329-3.479-0.736-5.188c-1.767-7.422-6.529-13.948-13.065-17.902
				c-7.597-4.588-16.716-8.282-26.406-10.751c-1.308-14.625-13.64-26.126-28.611-26.126h-1.558
				c-15.458,0-28.103,12.264-28.703,27.565c-27.108,8.945-43.5,29.636-43.5,55.882c0,15.495,4.709,28.898,13.998,39.837
				c7.22,8.503,16.916,15.298,29.481,20.63v15.468c-0.368-0.327-0.722-0.66-1.06-0.998c-5.421-5.405-12.627-8.381-20.292-8.381
				c-7.66,0-14.866,2.979-20.291,8.386l-1.026,1.019c-3.114,3.105-5.453,6.888-6.873,10.991c-2.87-2.365-6.244-4.176-9.979-5.261
				L175.71,230.34L175.71,230.34z M360.206,172.422c9.969,0,19.074-5.043,24.357-13.49l0.682-1.086
				c1.816-2.901,3.081-6.096,3.769-9.407c0.029,0.546,0.074,1.093,0.136,1.641c1.261,11.194,9.063,20.456,19.876,23.602
				l55.262,15.977c-8.79,6.347-14.52,16.671-14.52,28.307c0,70.251-57.272,127.404-127.67,127.404
				c-36.699,0-71.26-15.681-95.308-42.616l9.83-5.4c6.002-3.303,10.416-8.553,12.685-14.672
				c11.15,10.371,25.691,18.377,41.177,22.806v0.903c0,15.826,12.886,28.702,28.725,28.702h1.559
				c15.839,0,28.725-12.876,28.725-28.702v-1.436c29.206-9.106,46.914-31.123,46.94-59.379c0.131-19.127-6.457-34.89-19.581-46.854
				c-8.469-7.721-18.594-12.733-27.359-16.127v-12.25C352.888,171.711,356.525,172.422,360.206,172.422L360.206,172.422z"/>
		</g>
	</g>
</g>
</svg>
