<svg xmlns="http://www.w3.org/2000/svg" width="13.429" height="15.348" viewBox="0 0 13.429 15.348">
  <path id="Icon_metro-attachment" data-name="Icon metro-attachment" d="M13.035,6.83l-.973-.973L7.193,10.724a2.065,2.065,0,0,0,2.921,2.92L15.955,7.8a3.442,3.442,0,1,0-4.868-4.867L4.954,9.069l-.013.013A4.8,4.8,0,0,0,11.73,15.87l.012-.013h0l4.187-4.186-.974-.973-4.187,4.186-.013.013a3.423,3.423,0,0,1-4.842-4.841l.013-.013h0L12.061,3.91a2.065,2.065,0,0,1,2.921,2.92L9.14,12.671a.688.688,0,1,1-.974-.973L13.035,6.83Z" transform="translate(-3.535 -1.928)" fill="#5d5d5d"/>
</svg>
