<svg xmlns="http://www.w3.org/2000/svg" width="38.097" height="38.102" viewBox="0 0 38.097 38.102">
  <g id="bitcoin" transform="translate(-289.637 -341.505)">
    <g id="Group_25" data-name="Group 25" transform="translate(289.637 341.505)">
      <path id="Path_108" data-name="Path 108" d="M156.361,49.627a19.044,19.044,0,1,1-13.872-23.089A19.046,19.046,0,0,1,156.361,49.627Z" transform="translate(-118.834 -25.968)" fill="#f7931a"/>
      <path id="Path_109" data-name="Path 109" d="M246.879,130.791a.761.761,0,0,1-.958.5c.021.03-1.519-.379-1.519-.379l-1.038,2.393,2.72.678c.506.127,1,.26,1.49.385l-.865,3.473,2.088.521.857-3.436c.57.155,1.124.3,1.666.432l-.854,3.42,2.09.521.865-3.467c3.564.674,6.244.4,7.373-2.821.909-2.6-.045-4.093-1.921-5.069a3.333,3.333,0,0,0,2.669-3.069h0c.379-2.535-1.551-3.9-4.19-4.807l.856-3.434-2.09-.521-.833,3.343c-.549-.137-1.114-.266-1.675-.394l.839-3.365-2.089-.521L251.5,118.6c-.455-.1-.9-.206-1.335-.314l0-.011-2.883-.72-.556,2.233s1.551.355,1.518.377a1.112,1.112,0,0,1,.974,1.216Zm9.887.775c-.646,2.6-5.016,1.192-6.433.841l1.148-4.6C252.9,128.159,257.442,128.859,256.766,131.566Zm.647-6.734c-.589,2.361-4.227,1.162-5.407.867l1.041-4.173C254.227,121.819,258.027,122.368,257.413,124.831Z" transform="translate(-234.097 -108.532)" fill="#fff"/>
    </g>
  </g>
</svg>
