<svg xmlns="http://www.w3.org/2000/svg" width="16.391" height="22" viewBox="0 0 16.391 22">
  <g id="Flat_2" data-name="Flat 2" transform="translate(-4 -1)">
    <path id="Path_67" data-name="Path 67" d="M20.354,6.313a7.222,7.222,0,0,0-4.4-4.284A.524.524,0,0,0,15.781,2H6.561A2.534,2.534,0,0,0,4,4.5v16A2.534,2.534,0,0,0,6.561,23H17.83a2.534,2.534,0,0,0,2.561-2.5V6.5a.5.5,0,0,0-.037-.187Z" fill="#e3f1fc"/>
    <path id="Path_68" data-name="Path 68" d="M4,6.538v5.945A9.65,9.65,0,0,0,9.63,11a7.132,7.132,0,0,0,1.792-1.766A9.769,9.769,0,0,1,4,6.538Z" fill="#ebf5fc"/>
    <path id="Path_69" data-name="Path 69" d="M12.484,2H6.561A2.534,2.534,0,0,0,4,4.5V6.538a9.769,9.769,0,0,0,7.422,2.7C13.126,6.82,12.881,3.829,12.484,2Z" fill="#f3f9ff"/>
    <path id="Path_70" data-name="Path 70" d="M15.954,2.029A.524.524,0,0,0,15.781,2h-3.3c.4,1.829.642,4.82-1.061,7.234A13.452,13.452,0,0,0,14.13,8.87c2.93-.7,4.105-2.915,4.5-5.184a7.061,7.061,0,0,0-2.678-1.657Z" fill="#ebf5fc"/>
    <path id="Path_71" data-name="Path 71" d="M8.5,2A1.5,1.5,0,0,0,7,3.5v4a1.5,1.5,0,0,0,.615,1.2,9.942,9.942,0,0,1-1.551-.66A2.487,2.487,0,0,1,6,7.5v-4A2.482,2.482,0,0,1,10.473,2Z" fill="#f7214a"/>
    <path id="Path_72" data-name="Path 72" d="M8.5,9a1.486,1.486,0,0,1-.885-.3,9.942,9.942,0,0,1-1.551-.66,2.489,2.489,0,0,0,4.248,1.168,10.958,10.958,0,0,1-1.656-.228A1.482,1.482,0,0,1,8.5,9Z" fill="#ef0739"/>
    <path id="Path_73" data-name="Path 73" d="M11,5.5a1.5,1.5,0,1,0-3,0v2a.5.5,0,0,0,1,0v-2a.5.5,0,0,1,1,0v2A1.5,1.5,0,0,1,8.656,8.984a10.958,10.958,0,0,0,1.656.228A2.485,2.485,0,0,0,11,7.5Z" fill="#f7214a"/>
    <path id="Path_74" data-name="Path 74" d="M6.561,23H17.83a2.534,2.534,0,0,0,2.561-2.5V10c0,2.707-1.759,9.484-8.391,10.552C6.254,21.477,4,19,4,19v1.5A2.534,2.534,0,0,0,6.561,23Z" fill="#dfebf4"/>
    <path id="Path_75" data-name="Path 75" d="M17.5,18H6.5a.5.5,0,0,0,0,1h11a.5.5,0,0,0,0-1Z" fill="#00b9ff"/>
    <path id="Path_76" data-name="Path 76" d="M17.5,14H6.5a.5.5,0,0,0,0,1h11a.5.5,0,0,0,0-1Z" fill="#00b9ff"/>
    <path id="Path_77" data-name="Path 77" d="M17.5,14h-.271c.043.25-.067.478-.529.576-.737.156-6.058.424-6.058.424H17.5a.5.5,0,0,0,0-1Z" fill="#00adff"/>
    <path id="Path_78" data-name="Path 78" d="M6.5,14a.5.5,0,0,0-.5.481c.279.008,6.369.117,7.991-.3A1.705,1.705,0,0,0,14.446,14Z" fill="#17c6fc"/>
    <path id="Path_79" data-name="Path 79" d="M17.5,18h-.271c.043.25-.067.478-.529.576-.737.156-6.058.424-6.058.424H17.5a.5.5,0,0,0,0-1Z" fill="#00adff"/>
    <path id="Path_80" data-name="Path 80" d="M6.5,18a.5.5,0,0,0-.5.481c.279.008,6.369.117,7.991-.3A1.705,1.705,0,0,0,14.446,18Z" fill="#17c6fc"/>
    <path id="Path_81" data-name="Path 81" d="M12.5,11h5a.5.5,0,0,0,0-1h-5a.5.5,0,0,0,0,1Z" fill="#00b9ff"/>
    <path id="Path_82" data-name="Path 82" d="M18,10.5a.5.5,0,0,0-.5-.5h-.156a.408.408,0,0,1-.084.581A8.737,8.737,0,0,1,14.779,11H17.5A.5.5,0,0,0,18,10.5Z" fill="#00adff"/>
    <path id="Path_83" data-name="Path 83" d="M12.5,10a.5.5,0,0,0-.476.347A18.025,18.025,0,0,0,15,10.372,1.75,1.75,0,0,0,15.967,10Z" fill="#17c6fc"/>
    <path id="Path_84" data-name="Path 84" d="M20.391,6.5a.5.5,0,0,0-.037-.187,7.222,7.222,0,0,0-4.4-4.284A.524.524,0,0,0,15.781,2H15V4.5A2.5,2.5,0,0,0,17.5,7h2.891Z" fill="#00b9ff"/>
    <path id="Path_85" data-name="Path 85" d="M15.232,5.537A2.5,2.5,0,0,0,17.5,7h2.891V6.5a.5.5,0,0,0-.037-.187,7.965,7.965,0,0,0-1.54-2.43c.191.413.655,1.562.087,1.929-1.067.688-3.394-.172-3.669-.275Z" fill="#00adff"/>
    <path id="Path_86" data-name="Path 86" d="M15.954,2.029A.524.524,0,0,0,15.781,2H15V3.852a2.645,2.645,0,0,0,1.527.4,1.587,1.587,0,0,0,1.334-1.223,7.232,7.232,0,0,0-1.907-1Z" fill="#17c6fc"/>
  </g>
</svg>
