<svg id="layer1" xmlns="http://www.w3.org/2000/svg" width="29.426" height="29.426" viewBox="0 0 29.426 29.426">
  <path id="path848" d="M5.916,22.96V20.017h7.352a9.4,9.4,0,0,0,9.323-9.134l.011-.034V8.725h-.878V12.21a7.329,7.329,0,0,1-10.239,2.839l-.163.063H5.916V12.17L.529,17.565Z" transform="translate(-0.529 6.467)" fill="#5bbf05"/>
  <path id="path893" d="M10.476,16.588a8.092,8.092,0,0,0,7.544-5.175c.016-.177.039-.351.046-.531l.011-.034V8.725H17.2V12.21A7.329,7.329,0,0,1,6.961,15.049l-.163.063H5.825A8.049,8.049,0,0,0,10.476,16.588Z" transform="translate(3.992 6.467)" fill="#809804"/>
  <path id="path9919" d="M21.182.529V3.472H13.83a9.4,9.4,0,0,0-9.323,9.134l-.011.034v2.124h.878V11.279A7.329,7.329,0,0,1,15.613,8.439l.163-.063h5.406v2.943l5.387-5.395Z" transform="translate(2.857 -0.529)" fill="#5bbf05"/>
  <path id="path850" d="M12.117,3.973A8.105,8.105,0,0,0,4.56,9.156c-.016.177-.039.352-.046.532L4.5,9.722v2.127h.88V8.357A7.341,7.341,0,0,1,15.638,5.514L15.8,5.45h.974a8.062,8.062,0,0,0-4.658-1.477Z" transform="translate(2.863 2.411)" fill="#809804"/>
  <path id="ellipse9904" d="M19.931,12.082A7.851,7.851,0,1,1,12.08,4.231,7.851,7.851,0,0,1,19.931,12.082Z" transform="translate(2.629 2.631)" fill="#ffca28"/>
  <path id="path846" d="M17.644,11.361a6.285,6.285,0,1,1-6.285-6.285,6.285,6.285,0,0,1,6.285,6.285Z" transform="translate(3.35 3.352)" fill="#ecb200"/>
  <path id="path829" d="M9.83,5.831a.486.486,0,0,0-.489.489v.489H8.364A1.472,1.472,0,0,0,6.893,8.285V9.757a1.469,1.469,0,0,0,1.472,1.476h.977v2.456H8.364a.491.491,0,0,1-.493-.489.489.489,0,1,0-.979,0,1.467,1.467,0,0,0,1.472,1.472h.977v.489a.491.491,0,1,0,.982,0v-.489h.99A1.47,1.47,0,0,0,12.786,13.2V11.722a1.469,1.469,0,0,0-1.473-1.472h-.99V7.792h.99a.49.49,0,0,1,.49.493.492.492,0,0,0,.493.49.48.48,0,0,0,.489-.49,1.472,1.472,0,0,0-1.473-1.476h-.99V6.32A.491.491,0,0,0,9.83,5.831ZM8.364,7.792h.977v2.459H8.364a.492.492,0,0,1-.493-.493V8.285A.5.5,0,0,1,8.364,7.792Zm1.959,3.441h.99a.484.484,0,0,1,.49.489V13.2a.484.484,0,0,1-.49.489h-.99Z" transform="translate(4.903 3.996)" fill="#e4eff8"/>
</svg>
