<?xml version="1.0" standalone="no"?>
<!DOCTYPE svg PUBLIC "-//W3C//DTD SVG 1.1//EN" "http://www.w3.org/Graphics/SVG/1.1/DTD/svg11.dtd" >
<svg xmlns="http://www.w3.org/2000/svg" xmlns:xlink="http://www.w3.org/1999/xlink" version="1.1">
<metadata></metadata>
<defs>
<font id="font448regular" horiz-adv-x="778" >
<font-face units-per-em="2048" ascent="1556" descent="-492" />
<missing-glyph horiz-adv-x="389" />
<glyph horiz-adv-x="0" />
<glyph unicode="&#xd;" horiz-adv-x="389" />
<glyph unicode=" "  horiz-adv-x="389" />
<glyph unicode="&#x09;" horiz-adv-x="389" />
<glyph unicode="&#xa0;" horiz-adv-x="389" />
<glyph unicode="!" horiz-adv-x="436" d="M84 0v305h268v-305h-268zM84 377v1098h268v-1098h-268z" />
<glyph unicode="&#x22;" horiz-adv-x="678" d="M80 879v559h192v-559h-192zM406 879v559h192v-559h-192z" />
<glyph unicode="#" horiz-adv-x="1575" d="M45 406l76 200h282l86 242h-299l74 201h297l148 415h221l-146 -415h242l148 415h221l-148 -415h283l-74 -201h-280l-84 -242h290l-71 -200h-291l-148 -416h-221l148 416h-244l-149 -416h-220l146 416h-287zM621 604h251l86 244h-249z" />
<glyph unicode="$" d="M41 367v194h293v-287q0 -49 11 -67.5t38 -18.5q33 0 45 24t12 112v38q0 125 -70 199q-9 10 -14 14l-168 181l-7 8q-140 149 -140 334q0 194 65 272t232 100v170h98v-170q168 -19 232.5 -88t64.5 -272v-170h-291v242q0 50 -11.5 68t-39.5 18q-32 0 -44.5 -23t-12.5 -96 q0 -127 69 -199q10 -11 15 -16l170 -180q99 -106 124 -173.5t25 -170.5q0 -235 -65 -310.5t-236 -99.5v-221h-98v221q-167 21 -232 96.5t-65 270.5z" />
<glyph unicode="%" horiz-adv-x="1128" d="M49 944v305q0 136 52 196t165 60q114 0 165.5 -60t51.5 -196v-305q0 -135 -51.5 -195.5t-165.5 -60.5q-113 0 -165 60.5t-52 195.5zM225 895q0 -36 10 -52t31 -16q22 0 31.5 16t9.5 52v403q0 37 -9.5 52.5t-31.5 15.5q-21 0 -31 -15.5t-10 -52.5v-403zM233 -33l541 1540 h117l-541 -1540h-117zM643 223v305q0 135 51.5 194.5t165.5 59.5t165.5 -59.5t51.5 -194.5v-305q0 -135 -51.5 -195.5t-165.5 -60.5q-113 0 -165 60.5t-52 195.5zM819 172q0 -36 10 -52t31 -16q22 0 31.5 16t9.5 52v406q0 36 -9.5 51.5t-31.5 15.5q-21 0 -31 -15.5 t-10 -51.5v-406z" />
<glyph unicode="&#x26;" horiz-adv-x="862" d="M23 344v279q0 91 30 144.5t107 100.5q-52 77 -70 126t-18 114v133q0 129 82.5 197.5t236.5 68.5q134 0 215.5 -66.5t81.5 -174.5v-156q0 -89 -48.5 -152.5t-182.5 -140.5q30 -47 108 -197l13 -24q-4 17 -5.5 34t-1.5 42v18v121h238v-440q0 -34 -7 -62.5t-22 -56.5 q16 -15 31.5 -21t36.5 -6q4 0 11 1t11 1v-227h-137q-21 0 -41.5 12.5t-40.5 38.5q-53 -45 -113.5 -64.5t-156.5 -19.5q-181 0 -269.5 93.5t-88.5 283.5zM303 338q0 -67 30 -105t83 -38q28 0 54 11t48 34l-215 385v-287zM332 1065q0 -28 7 -48t23 -42q41 22 53.5 40t12.5 54 v160q0 41 -11 56t-38 15q-25 0 -36 -16.5t-11 -60.5v-158z" />
<glyph unicode="'" horiz-adv-x="352" d="M80 879v559h192v-559h-192z" />
<glyph unicode="(" horiz-adv-x="598" d="M98 627q0 208 60.5 415t187.5 433h232q-112 -196 -168 -409t-56 -439q0 -228 56 -441t168 -409h-234q-126 224 -186 431t-60 419z" />
<glyph unicode=")" horiz-adv-x="598" d="M20 -223q111 196 167.5 409.5t56.5 440.5t-56 439t-168 409h234q127 -225 186.5 -431t59.5 -417q0 -209 -60.5 -417t-187.5 -433h-232z" />
<glyph unicode="*" horiz-adv-x="807" d="M72 1165l53 164l197 -65v211h165v-211l195 63l53 -162l-200 -63l122 -166l-135 -102l-125 170l-116 -173l-140 99l129 174z" />
<glyph unicode="+" horiz-adv-x="1706" d="M254 512v199h498v510h202v-510h498v-199h-498v-512h-202v512h-498z" />
<glyph unicode="," horiz-adv-x="389" d="M6 -264l80 563h274l-172 -563h-182z" />
<glyph unicode="-" horiz-adv-x="483" d="M59 489v201h365v-201h-365z" />
<glyph unicode="." horiz-adv-x="389" d="M59 0v301h271v-301h-271z" />
<glyph unicode="/" horiz-adv-x="569" d="M45 -190l324 1697h151l-323 -1697h-152z" />
<glyph unicode="0" d="M45 348v778q0 206 80 293.5t264 87.5q185 0 264.5 -86.5t79.5 -294.5v-778q0 -207 -79.5 -294t-264.5 -87t-264.5 87t-79.5 294zM338 262q0 -38 12 -55t39 -17t38 16.5t11 55.5v963q0 40 -11 55.5t-38 15.5q-26 0 -38.5 -17.5t-12.5 -53.5v-963z" />
<glyph unicode="1" d="M104 1128v179h7q85 0 142.5 44.5t74.5 123.5h231v-1475h-293v1128h-162z" />
<glyph unicode="2" d="M41 0v244q0 90 32 179t130 241q22 34 63 96q166 253 166 350v115q0 38 -12 55.5t-37 17.5q-27 0 -38 -16t-11 -57v-269h-291v170q0 208 79.5 294.5t264.5 86.5q173 0 258.5 -84.5t85.5 -255.5q0 -200 -212 -523q-41 -64 -62 -97q-75 -118 -102 -185.5t-27 -123.5 q0 -5 1 -13t1 -12h403v-213h-692z" />
<glyph unicode="3" d="M45 348v232h293v-318q0 -38 12 -55t39 -17q26 0 37.5 16.5t11.5 55.5v277q0 50 -26.5 83t-65.5 33h-102v213h102q44 0 68 31t24 86v240q0 37 -11.5 54t-37.5 17q-27 0 -39 -16t-12 -55v-273h-293v174q0 209 79 295t263 86q170 0 257 -77t87 -228v-170q0 -107 -54 -172.5 t-165 -93.5q112 -14 165.5 -72.5t53.5 -167.5v-258q0 -145 -89 -223t-255 -78q-183 0 -262.5 87t-79.5 294z" />
<glyph unicode="4" d="M0 365v210l281 900h399v-900h90v-210h-90v-365h-293v365h-387zM225 575h172l2 443q0 29 5 104t14 168h-19q-21 -120 -63 -293.5t-111 -421.5z" />
<glyph unicode="5" d="M45 346v229h293v-313q0 -38 12 -55t39 -17q26 0 37.5 16.5t11.5 55.5v465q0 35 -12 51.5t-37 16.5q-26 0 -38.5 -15.5t-12.5 -46.5h-293v742h680v-201h-401v-301q41 38 84.5 54.5t103.5 16.5q107 0 163 -66.5t56 -195.5v-514q0 -145 -89 -223t-255 -78 q-183 0 -262.5 86.5t-79.5 292.5z" />
<glyph unicode="6" d="M45 348v778q0 207 80 294t264 87q162 0 253 -75t91 -209v-271h-295v273q0 38 -11.5 54.5t-37.5 16.5q-27 0 -39 -16.5t-12 -54.5v-398q38 30 77.5 44t82.5 14q114 0 174.5 -66t60.5 -190v-281q0 -207 -79.5 -294t-264.5 -87t-264.5 87t-79.5 294zM338 262q0 -38 12 -55 t39 -17t38 16.5t11 55.5v293q0 40 -11 56t-38 16t-39 -17t-12 -55v-293z" />
<glyph unicode="7" d="M18 1270v205h738v-195l-369 -1280h-307l377 1270h-439z" />
<glyph unicode="8" d="M45 319v187q0 122 40.5 179t141.5 91q-96 32 -139 93t-43 165v166q0 149 89 228t255 79q167 0 255.5 -79t88.5 -228v-166q0 -104 -44.5 -166.5t-139.5 -91.5q102 -28 143 -87.5t41 -182.5v-187q0 -182 -83 -267t-261 -85q-180 0 -262 84t-82 268zM338 258q0 -38 12 -55 t39 -17t38 16.5t11 55.5v324q0 39 -11 55t-38 16t-39 -16.5t-12 -54.5v-324zM338 965q0 -39 12 -55.5t39 -16.5q26 0 37.5 16.5t11.5 55.5v252q0 38 -11.5 54.5t-37.5 16.5q-27 0 -39 -16.5t-12 -54.5v-252z" />
<glyph unicode="9" d="M45 252v190h293v-180q0 -38 12 -55t39 -17t38 16.5t11 55.5v311q-37 -28 -75 -41.5t-82 -13.5q-114 0 -175 66t-61 190v352q0 207 79.5 294t264.5 87q184 0 263 -86.5t79 -294.5v-778q0 -207 -79.5 -294t-262.5 -87q-162 0 -253 75.5t-91 209.5zM338 842q0 -39 12 -55.5 t39 -16.5q26 0 37.5 16.5t11.5 55.5v370q0 39 -11.5 55.5t-37.5 16.5q-27 0 -39 -16.5t-12 -55.5v-370z" />
<glyph unicode=":" horiz-adv-x="412" d="M72 0v301h270v-301h-270zM72 879v301h270v-301h-270z" />
<glyph unicode=";" horiz-adv-x="412" d="M14 -264l80 561h275l-174 -561h-181zM80 879v301h272v-301h-272z" />
<glyph unicode="&#x3c;" horiz-adv-x="1706" d="M264 512v199l1178 483v-219l-893 -365l893 -364v-219z" />
<glyph unicode="=" horiz-adv-x="1706" d="M254 297v199h1198v-199h-1198zM254 727v199h1198v-199h-1198z" />
<glyph unicode="&#x3e;" horiz-adv-x="1706" d="M264 27v219l895 364l-895 365v219l1178 -483v-199z" />
<glyph unicode="?" horiz-adv-x="768" d="M63 946v266q0 143 89 219t254 76q141 0 220 -74.5t79 -209.5v-144q0 -55 -11 -96.5t-35 -75.5l-98 -145q-5 -8 -15 -21q-34 -44 -34 -102v-268h-268v311q0 107 80 206l30 39l2 3q72 95 72 157v146q0 42 -11 58t-38 16q-25 0 -35 -16t-10 -56v-289h-271zM244 0v303h268 v-303h-268z" />
<glyph unicode="@" horiz-adv-x="2048" d="M90 520q0 167 52.5 318.5t154.5 275.5q148 181 356 274t463 93q169 0 317.5 -45.5t258.5 -128.5q135 -105 201.5 -239.5t66.5 -303.5q0 -165 -65.5 -304.5t-188.5 -238.5q-70 -56 -152.5 -85.5t-171.5 -29.5q-106 0 -159.5 42t-55.5 124q-55 -84 -127 -123.5t-170 -39.5 q-158 0 -240.5 86t-82.5 254q0 239 139.5 401t343.5 162q80 0 139 -33t97 -98l53 98h178l-147 -598q-3 -11 -5 -22.5t-2 -18.5q0 -35 24 -52.5t71 -17.5q39 0 81.5 20t79.5 56q86 80 130.5 187t44.5 235q0 240 -185.5 394.5t-478.5 154.5q-141 0 -262.5 -34t-220.5 -101 q-170 -114 -261.5 -285t-91.5 -375q0 -307 207 -490.5t553 -183.5q162 0 316.5 49t287.5 142l82 -117q-153 -115 -324.5 -173t-357.5 -58q-192 0 -353 48.5t-286 143.5q-155 121 -232 279t-77 358zM760 444q0 -92 40.5 -140t117.5 -48q83 0 151.5 63t93.5 164l54 217 q-13 81 -57.5 123.5t-117.5 42.5q-114 0 -198 -124t-84 -298z" />
<glyph unicode="A" horiz-adv-x="811" d="M12 0l236 1475h377l174 -1475h-305l-29 393h-146l-38 -393h-269zM342 610h109l-33 450q-3 38 -5 137q-1 43 -1 67h-11q-4 -85 -7 -135.5t-5 -66.5z" />
<glyph unicode="B" horiz-adv-x="770" d="M47 0v1475h344q173 0 257.5 -62.5t84.5 -189.5v-174q0 -119 -50 -175t-177 -81v-8q115 -10 171 -68.5t56 -169.5v-228q0 -174 -82 -246.5t-280 -72.5h-324zM342 209h16q45 0 63.5 18.5t18.5 63.5v309q0 45 -18.5 63.5t-63.5 18.5h-16v-473zM342 883q60 0 79 17.5t19 68.5 v235q0 50 -18.5 67t-79.5 17v-405z" />
<glyph unicode="C" horiz-adv-x="758" d="M41 346v780q0 207 79.5 294t262.5 87q184 0 264 -86.5t80 -294.5v-163h-293v262q0 39 -11.5 55t-39.5 16q-27 0 -38 -16t-11 -55v-963q0 -39 11.5 -55.5t37.5 -16.5q28 0 39.5 17t11.5 55v297h293v-213q0 -206 -79.5 -292.5t-264.5 -86.5q-184 0 -263 85.5t-79 293.5z " />
<glyph unicode="D" horiz-adv-x="776" d="M47 0v1475h344q188 0 266 -81.5t78 -281.5v-747q0 -199 -84 -282t-280 -83h-324zM340 209h16q46 0 65 19t19 63v899q0 51 -19.5 68.5t-80.5 17.5v-1067z" />
<glyph unicode="E" horiz-adv-x="629" d="M47 0v1475h549v-205h-254v-340h248v-213h-248v-494h254v-223h-549z" />
<glyph unicode="F" horiz-adv-x="627" d="M51 0v1475h549v-205h-254v-340h248v-213h-248v-717h-295z" />
<glyph unicode="G" horiz-adv-x="764" d="M39 348v778q0 207 79.5 294t264.5 87q173 0 258.5 -80.5t85.5 -242.5v-221h-293v262q0 39 -11.5 55t-39.5 16q-26 0 -37.5 -17t-11.5 -54v-963q0 -39 11.5 -55.5t37.5 -16.5q28 0 39.5 17t11.5 55v260h-74v228h367v-750h-145l-19 92q-51 -65 -113 -97t-137 -32 q-137 0 -205.5 96t-68.5 289z" />
<glyph unicode="H" horiz-adv-x="774" d="M47 0v1475h293v-547h92v547h295v-1475h-295v713h-92v-713h-293z" />
<glyph unicode="I" horiz-adv-x="387" d="M45 0v1475h295v-1475h-295z" />
<glyph unicode="J" horiz-adv-x="770" d="M35 346v213h295v-297q0 -39 11 -55.5t38 -16.5t39 17t12 55v1213h293v-1129q0 -206 -79.5 -292.5t-264.5 -86.5t-264.5 86.5t-79.5 292.5z" />
<glyph unicode="K" horiz-adv-x="758" d="M47 0v1475h295v-650h4l146 650h282l-182 -611l184 -864h-293l-137 760h-4v-760h-295z" />
<glyph unicode="L" horiz-adv-x="627" d="M47 0v1475h295v-1252h254v-223h-549z" />
<glyph unicode="M" horiz-adv-x="1198" d="M47 0v1475h422l96 -770q12 -90 23 -247q1 -13 2 -20l10 1q5 70 12.5 137.5t20.5 148.5l115 750h403v-1475h-268v780q0 61 1.5 140.5t4.5 178.5l-8 1q-6 -130 -28 -252q-1 -5 -1 -6l-143 -842h-250l-137 800q-7 40 -14.5 117.5t-14.5 181.5l-10 1v-34q2 -463 2 -1066h-238 z" />
<glyph unicode="N" horiz-adv-x="868" d="M45 0v1475h404l104 -625q14 -84 24 -188t17 -238h12q-7 156 -10.5 272.5t-3.5 167.5l-2 611h231v-1475h-346l-151 801q-9 47 -22.5 142t-27.5 208h-8q6 -92 9.5 -161t3.5 -113v-877h-234z" />
<glyph unicode="O" horiz-adv-x="768" d="M39 348v778q0 206 80 293.5t264 87.5t264 -86.5t80 -294.5v-778q0 -207 -79.5 -294t-264.5 -87t-264.5 87t-79.5 294zM334 262q0 -39 11.5 -55.5t37.5 -16.5q28 0 39.5 17t11.5 55v963q0 39 -11.5 55t-39.5 16q-26 0 -37.5 -17t-11.5 -54v-963z" />
<glyph unicode="P" horiz-adv-x="758" d="M47 0v1475h344q177 0 259.5 -64.5t82.5 -202.5v-315q0 -172 -81.5 -245t-274.5 -73h-35v-575h-295zM342 780h18q46 0 63 18t17 64v342q0 50 -17.5 67t-68.5 17h-12v-508z" />
<glyph unicode="Q" horiz-adv-x="768" d="M39 346v780q0 206 80 293.5t264 87.5t264 -86.5t80 -294.5v-780q0 -151 -38 -227.5t-130 -118.5q0 -24 10.5 -34.5t32.5 -10.5h119v-215h-182q-57 0 -88 56t-31 161v10q-17 -1 -31 -1.5t-27 -0.5q-167 0 -245 91t-78 290zM334 262q0 -39 11.5 -55.5t37.5 -16.5 q28 0 39.5 17t11.5 55v963q0 39 -11.5 55t-39.5 16q-26 0 -37.5 -17t-11.5 -54v-963z" />
<glyph unicode="R" horiz-adv-x="764" d="M47 0v1475h344q180 0 261 -63.5t81 -203.5v-155q0 -116 -57 -178t-170 -68v-8q126 -8 176.5 -62.5t50.5 -185.5v-375q0 -45 7 -90.5t20 -85.5h-291q-14 38 -21.5 84.5t-7.5 99.5v54v321q0 62 -23.5 93.5t-70.5 31.5h-4v-684h-295zM342 885h16q46 0 64 18.5t18 65.5v235 q0 50 -19.5 67t-78.5 17v-403z" />
<glyph unicode="S" horiz-adv-x="754" d="M33 283v276h293v-297q0 -38 11.5 -55t39.5 -17q26 0 37.5 16.5t11.5 55.5v156q0 32 -11.5 59.5t-39.5 59.5l-266 301q-41 46 -58.5 92.5t-17.5 124.5v22v133q0 141 90.5 219t253.5 78q164 0 253 -78.5t89 -224.5v-241h-293v262q0 40 -11 55.5t-38 15.5q-28 0 -39.5 -16.5 t-11.5 -54.5v-131q0 -33 8.5 -57.5t27.5 -47.5l283 -311q40 -43 57 -91t17 -153v-172q0 -142 -89.5 -218.5t-254.5 -76.5q-169 0 -255.5 80t-86.5 236z" />
<glyph unicode="T" horiz-adv-x="688" d="M8 1266v209h672v-209h-191v-1266h-292v1266h-189z" />
<glyph unicode="U" d="M45 346v1129h293v-1213q0 -38 12 -55t39 -17t38 16.5t11 55.5v1213h295v-1129q0 -206 -79.5 -292.5t-264.5 -86.5t-264.5 86.5t-79.5 292.5z" />
<glyph unicode="V" horiz-adv-x="784" d="M14 1475h303l58 -927q3 -39 7 -105t8 -142h7q6 85 12.5 161.5t14.5 149.5l86 863h262l-203 -1475h-391z" />
<glyph unicode="W" horiz-adv-x="1239" d="M23 1475h296l35 -563q5 -74 8.5 -162.5t8.5 -255.5h10q7 99 14.5 185.5t14.5 145.5l77 650h312l61 -696q1 -17 9 -114.5t14 -170.5h10q4 122 9.5 226t12.5 201l46 554h247l-159 -1475h-340l-74 791q-4 42 -7.5 97.5t-6.5 143.5h-11l-104 -1032h-336z" />
<glyph unicode="X" horiz-adv-x="774" d="M-12 0l176 762l-156 713h303l60 -334q7 -45 13.5 -93t10.5 -97l10 -1q8 59 15.5 110.5t13.5 86.5l70 328h264l-166 -668l172 -807h-311l-72 461q-10 68 -13.5 102.5t-4.5 64.5l-8 1q-6 -71 -23 -158q-1 -8 -2 -12l-78 -459h-274z" />
<glyph unicode="Y" horiz-adv-x="729" d="M-6 1475h303l53 -336q10 -62 16 -120.5t9 -117.5h12q9 78 16.5 137t14.5 99l59 338h262l-229 -916v-559h-293v559z" />
<glyph unicode="Z" horiz-adv-x="643" d="M31 0v227l274 1035h-274v213h577v-175l-289 -1077h291v-223h-579z" />
<glyph unicode="[" horiz-adv-x="592" d="M113 -225v1700h452v-191h-203v-1323h203v-186h-452z" />
<glyph unicode="\" horiz-adv-x="569" d="M45 1507h152l323 -1697h-151z" />
<glyph unicode="]" horiz-adv-x="592" d="M27 -37h202v1325h-202v187h450v-1700h-450v188z" />
<glyph unicode="^" horiz-adv-x="2048" d="M416 899l481 561h252l481 -561h-235l-371 371l-373 -371h-235z" />
<glyph unicode="_" horiz-adv-x="1024" d="M0 -279h1024v-204h-1024v204z" />
<glyph unicode="`" horiz-adv-x="1024" d="M279 1475h251l99 -224h-162z" />
<glyph unicode="a" horiz-adv-x="694" d="M39 178v250q0 93 33.5 151.5t107.5 98.5q24 13 68 35q147 75 147 143v84q0 38 -11.5 55t-37.5 17q-24 0 -34.5 -17t-10.5 -55v-172h-262v170q0 134 77.5 202t229.5 68q166 0 236.5 -75.5t70.5 -260.5v-718q0 -47 4.5 -83.5t14.5 -70.5h-264q-5 21 -8 42.5t-3 39.5v18h-4 q-28 -58 -75.5 -89t-110.5 -31q-83 0 -125.5 50t-42.5 148zM301 266q0 -40 10.5 -54.5t36.5 -14.5q24 0 35.5 16.5t11.5 52.5v313q-6 -4 -16 -12q-78 -60 -78 -106v-195z" />
<glyph unicode="b" horiz-adv-x="696" d="M43 0v1475h260v-394h4q30 61 75 91t107 30q85 0 127.5 -50.5t42.5 -150.5v-831q0 -99 -42 -149t-128 -50q-66 0 -113 33t-73 98h-4v-102h-256zM303 258q0 -36 11.5 -54t35.5 -18q26 0 36.5 15.5t10.5 56.5v657q0 41 -10.5 55.5t-36.5 14.5q-24 0 -35.5 -17t-11.5 -53 v-657z" />
<glyph unicode="c" horiz-adv-x="684" d="M39 307v565q0 186 70 261t235 75q145 0 227 -67.5t82 -186.5v-186h-260v184q0 39 -11 55.5t-36 16.5t-36 -16.5t-11 -55.5v-714q0 -39 11 -55.5t36 -16.5t36 16.5t11 55.5v221h260v-219q0 -128 -80.5 -198.5t-226.5 -70.5q-165 0 -236 76t-71 260z" />
<glyph unicode="d" horiz-adv-x="696" d="M39 170v831q0 101 42 151t126 50q62 0 107 -30t75 -91h4v394h260v-1475h-256v102h-4q-26 -65 -72.5 -98t-113.5 -33q-85 0 -126.5 49.5t-41.5 149.5zM299 258q0 -41 10.5 -56.5t36.5 -15.5q24 0 35.5 18t11.5 54v657q0 36 -11.5 53t-35.5 17q-26 0 -36.5 -14.5 t-10.5 -55.5v-657z" />
<glyph unicode="e" horiz-adv-x="692" d="M39 307v565q0 186 70 261t235 75q145 0 227 -67.5t82 -186.5v-401h-354v-315q0 -39 11 -55.5t36 -16.5t36 16.5t11 55.5v221h260v-219q0 -128 -80.5 -198.5t-226.5 -70.5q-165 0 -236 76t-71 260zM299 729h94v223q0 39 -11 55.5t-36 16.5t-36 -16.5t-11 -55.5v-223z" />
<glyph unicode="f" horiz-adv-x="432" d="M20 993v187h64v112q0 86 52 134.5t145 48.5h147v-185q-46 0 -65 -10.5t-19 -36.5v-63h84v-187h-84v-993h-260v993h-64z" />
<glyph unicode="g" horiz-adv-x="694" d="M39 2v90h260v-92q0 -39 11 -55.5t36 -16.5t36 17t11 55v260h-4q-28 -66 -73.5 -98.5t-110.5 -32.5q-86 0 -126 47.5t-40 151.5v690q0 89 43 136.5t125 47.5q62 0 107 -29t79 -92h6v99h254v-1110q0 -185 -71 -260.5t-236 -75.5q-146 0 -226.5 70.5t-80.5 197.5zM299 412 q0 -41 10.5 -56.5t36.5 -15.5q24 0 35.5 17.5t11.5 54.5v512q0 36 -11.5 52.5t-35.5 16.5q-26 0 -36.5 -14.5t-10.5 -54.5v-512z" />
<glyph unicode="h" horiz-adv-x="698" d="M43 0v1475h260v-394h4q29 62 74 91.5t108 29.5q85 0 127.5 -50.5t42.5 -150.5v-1001h-262v915q0 41 -10.5 55.5t-36.5 14.5q-24 0 -35.5 -17t-11.5 -53v-915h-260z" />
<glyph unicode="i" horiz-adv-x="346" d="M43 0v1180h260v-1180h-260zM43 1251v224h260v-224h-260z" />
<glyph unicode="j" horiz-adv-x="348" d="M-66 -82h21q58 0 75 12.5t17 57.5v1192h260v-1266q0 -94 -44.5 -137t-141.5 -43h-187v184zM47 1251v224h260v-224h-260z" />
<glyph unicode="k" horiz-adv-x="676" d="M43 0v1475h260v-809h4l111 514h266l-129 -510l129 -670h-274l-103 618h-4v-618h-260z" />
<glyph unicode="l" horiz-adv-x="346" d="M43 0v1475h260v-1475h-260z" />
<glyph unicode="m" horiz-adv-x="1044" d="M43 0v1180h254v-99h4q31 61 77.5 91t108.5 30q59 0 99 -30.5t59 -90.5h4q35 61 81.5 91t107.5 30q86 0 127 -49t41 -152v-1001h-261v915q0 41 -10.5 55.5t-36.5 14.5q-24 0 -35.5 -17t-11.5 -53v-915h-256v915q0 41 -10.5 55.5t-36.5 14.5q-24 0 -35.5 -17t-11.5 -53 v-915h-258z" />
<glyph unicode="n" horiz-adv-x="698" d="M43 0v1180h256v-99h4q33 62 79 91.5t107 29.5q85 0 127.5 -50.5t42.5 -150.5v-1001h-262v915q0 41 -10.5 55.5t-36.5 14.5q-24 0 -35.5 -17t-11.5 -53v-915h-260z" />
<glyph unicode="o" horiz-adv-x="692" d="M39 307v565q0 183 71.5 259.5t235.5 76.5t235.5 -76.5t71.5 -259.5v-565q0 -182 -71.5 -259t-235.5 -77t-235.5 77t-71.5 259zM301 238q0 -39 11 -55.5t36 -16.5t36 16.5t11 55.5v714q0 38 -11.5 55t-37.5 17q-24 0 -34.5 -16t-10.5 -56v-714z" />
<glyph unicode="p" horiz-adv-x="696" d="M43 -266v1446h256v-99h4q33 62 79 91.5t107 29.5q85 0 127.5 -50.5t42.5 -150.5v-825q0 -100 -42.5 -150.5t-127.5 -50.5q-60 0 -105.5 28.5t-76.5 84.5h-4v-354h-260zM303 260q0 -36 11.5 -53t35.5 -17q26 0 36.5 15t10.5 55v655q0 41 -10.5 55.5t-36.5 14.5 q-24 0 -35.5 -17t-11.5 -53v-655z" />
<glyph unicode="q" horiz-adv-x="696" d="M41 176v825q0 100 42.5 150.5t127.5 50.5q61 0 106 -29.5t78 -91.5h6v99h256v-1446h-262v354h-4q-30 -57 -75 -85t-105 -28q-85 0 -127.5 50.5t-42.5 150.5zM301 260q0 -40 10.5 -55t36.5 -15q24 0 35.5 17t11.5 53v655q0 36 -11.5 53t-35.5 17q-26 0 -36.5 -14.5 t-10.5 -55.5v-655z" />
<glyph unicode="r" horiz-adv-x="678" d="M43 0v1180h256v-99h4q33 62 79 91.5t107 29.5q85 0 127.5 -50.5t42.5 -150.5v-456h-262v370q0 41 -10.5 55.5t-36.5 14.5q-24 0 -35.5 -17t-11.5 -53v-915h-260z" />
<glyph unicode="s" horiz-adv-x="682" d="M35 240v219h262v-221q0 -39 11 -55.5t36 -16.5t36 16.5t11 55.5v106q0 72 -130 176q-28 22 -44 35l-2 2q-180 149 -180 299v105q0 117 81 182t226 65q147 0 228 -68t81 -192v-180h-260v184q0 39 -11 55.5t-36 16.5t-36 -16.5t-11 -55.5v-63q0 -80 125 -176q29 -22 45 -35 q123 -99 153.5 -154.5t30.5 -144.5v-135q0 -132 -79 -202.5t-228 -70.5q-146 0 -227.5 71t-81.5 198z" />
<glyph unicode="t" horiz-adv-x="408" d="M2 991v189h66v219h262v-219h76v-189h-76v-717q0 -55 13.5 -69.5t53.5 -14.5h9v-190h-164q-95 0 -134.5 43.5t-39.5 163.5v784h-66z" />
<glyph unicode="u" horiz-adv-x="698" d="M43 178v1002h260v-916q0 -39 11.5 -54t37.5 -15q24 0 34.5 16t10.5 53v916h262v-1180h-256v98h-6q-33 -61 -77.5 -89.5t-106.5 -28.5q-85 0 -127.5 49.5t-42.5 148.5z" />
<glyph unicode="v" horiz-adv-x="625" d="M-16 1180h262l57 -584q7 -66 11 -144.5t6 -168.5h8q2 97 7.5 186.5t12.5 164.5l53 546h246l-170 -1180h-323z" />
<glyph unicode="w" horiz-adv-x="1057" d="M-16 1180h264l49 -611q4 -58 6 -128t2 -148h10q4 147 21 291q1 11 2 16l65 580h273l53 -611q1 -9 4.5 -100t7.5 -176h11q6 131 19 270q3 28 3 35l53 582h252l-176 -1180h-301l-49 541q-2 25 -5 100t-6 172h-10q-5 -131 -20 -250v-4l-70 -559h-297z" />
<glyph unicode="x" horiz-adv-x="659" d="M-25 0l162 621l-131 559h275l45 -271q6 -36 10.5 -79t5.5 -88l8 -1q6 87 24 181q0 3 1 6l49 252h242l-134 -566l134 -614h-275l-53 295q-6 34 -9.5 80.5t-5.5 101.5h-7q-4 -57 -10 -107.5t-11 -74.5l-59 -295h-261z" />
<glyph unicode="y" horiz-adv-x="627" d="M-18 1180h268l45 -593q3 -42 6 -115t7 -177h7q5 66 11.5 138.5t17.5 178.5l59 568h244l-180 -1188q-23 -151 -74.5 -204.5t-167.5 -53.5h-221v190h111q26 0 37.5 8.5t11.5 28.5q0 7 -2 24t-8 64z" />
<glyph unicode="z" horiz-adv-x="522" d="M16 0v205l215 780h-208v195h489v-170l-225 -811h225v-199h-496z" />
<glyph unicode="{" horiz-adv-x="1024" d="M158 426v209q7 0 21 -1t20 -1q120 0 171.5 58t51.5 196v250q0 143 23.5 201t80.5 92q47 25 114 37t167 12q12 0 37 -1t39 -1v-209q-9 0 -25 1t-22 1q-101 0 -136.5 -38.5t-35.5 -162.5v-240q0 -148 -45 -210t-162 -89q117 -27 162 -88t45 -209v-241q0 -123 35 -161 t137 -38q6 0 22 1t25 1v-209q-14 0 -39 -1t-37 -1q-100 0 -167 12t-114 37q-57 34 -80.5 91.5t-23.5 199.5v252q0 137 -51 194.5t-172 57.5q-6 0 -20 -1t-21 -1z" />
<glyph unicode="|" horiz-adv-x="1024" d="M410 -483v2048h206v-2048h-206z" />
<glyph unicode="}" horiz-adv-x="1024" d="M143 -205q9 0 25 -1t22 -1q101 0 136.5 38.5t35.5 160.5v239q0 150 45 211.5t162 87.5q-117 27 -162 89t-45 210v242q0 122 -35.5 160.5t-136.5 38.5q-6 0 -22 -1t-25 -1v209h68q110 0 177 -12t112 -38q57 -32 80.5 -91.5t23.5 -198.5v-252q0 -137 51 -194.5t172 -57.5 q6 0 20 1t21 1v-209h-37q-125 0 -176 -56t-51 -194v-252q0 -143 -23.5 -201t-80.5 -90q-47 -25 -114 -37t-167 -12q-12 0 -37 1t-39 1v209z" />
<glyph unicode="~" horiz-adv-x="1706" d="M178 418v221q107 72 204 107.5t183 35.5q117 0 291 -58l4 -1q18 -6 55 -19q155 -55 240 -55t175 37t200 117v-221q-104 -71 -196.5 -104.5t-182.5 -33.5q-46 0 -92 8t-92 23q-24 8 -71 25q-219 75 -333 75q-85 0 -177.5 -37.5t-207.5 -119.5z" />
<glyph unicode="&#xa0;" />
<glyph unicode="&#xa1;" horiz-adv-x="436" d="M84 0v1098h266v-1098h-266zM84 1169v306h266v-306h-266z" />
<glyph unicode="&#xa2;" d="M80 332v553q0 176 58 247t204 87v196h94v-196q126 -11 193 -76t67 -176v-183h-260v181q0 38 -11 54.5t-36 16.5t-36 -16.5t-11 -54.5v-713q0 -39 11 -56.5t36 -17.5t36 17.5t11 56.5v229h260v-217q0 -117 -67 -185t-193 -79v-213h-94v213q-147 17 -204.5 87t-57.5 245z " />
<glyph unicode="&#xa3;" d="M41 0v217q59 38 87 98.5t28 151.5q0 27 -3.5 62t-11.5 89h-100v158h74q-36 176 -47 259t-11 151q0 157 87.5 239t252.5 82q169 0 253.5 -79.5t84.5 -237.5v-248h-289v268q0 52 -10.5 69t-38.5 17q-30 0 -41.5 -21.5t-11.5 -96.5q0 -108 29 -240t30 -162h332v-158h-313 q3 -33 4.5 -60t1.5 -46q0 -113 -45 -187t-135 -108v-16q46 8 88.5 12t83.5 4h315v-217h-694z" />
<glyph unicode="&#xa4;" d="M-27 575l37 113h68v103h-105l37 112h68v223q0 206 75.5 293.5t249.5 87.5q177 0 253.5 -86.5t76.5 -294.5v-129h-278v228q0 39 -12 55t-40 16q-25 0 -36 -16t-11 -55v-322h287l-37 -112h-250v-103h217l-36 -113h-181v-313q0 -38 11 -55t36 -17q28 0 40 17t12 55v215h278 v-131q0 -207 -76 -293t-254 -86q-174 0 -249.5 86.5t-75.5 292.5v229h-105z" />
<glyph unicode="&#xa5;" d="M18 559v115h193l-31 133h-162v113h136l-136 555h295l52 -336q9 -65 16.5 -125.5t11.5 -112.5h17q11 77 22.5 155.5t11.5 80.5l60 338h252l-140 -555h142v-113h-170l-33 -133h203v-115h-232v-559h-284v559h-224z" />
<glyph unicode="&#xa6;" horiz-adv-x="1024" d="M410 -350v758h206v-758h-206zM410 674v758h206v-758h-206z" />
<glyph unicode="&#xa7;" horiz-adv-x="807" d="M53 231v134h219v-185q0 -70 31 -100.5t100 -30.5q75 0 103.5 26.5t28.5 96.5q0 94 -158 169l-6 3l-123 59q-115 56 -155 118.5t-40 207.5q0 96 20 142t68 71q-48 40 -68 90t-20 144q0 167 88 249t265 82q93 0 163.5 -24.5t112.5 -71.5q34 -38 48.5 -82t14.5 -123v-67 v-125h-215v174q0 69 -31 99t-102 30q-64 0 -94.5 -28t-30.5 -87q0 -57 27 -89t135 -85l123 -59q113 -55 155 -113.5t42 -167.5q0 -136 -21 -184.5t-74 -73.5q53 -32 74 -75.5t21 -131.5q0 -113 -14 -164.5t-48 -91.5q-48 -56 -121.5 -84t-171.5 -28q-90 0 -162 25.5 t-114 72.5q-38 41 -54 95.5t-16 182.5zM272 717q0 -62 24.5 -90.5t152.5 -89.5l86 -41v129q0 76 -20.5 103.5t-125.5 80.5l-117 57v-149z" />
<glyph unicode="&#xa8;" horiz-adv-x="1024" d="M285 1262v200h182v-200h-182zM555 1262v200h184v-200h-184z" />
<glyph unicode="&#xa9;" horiz-adv-x="1706" d="M111 733q0 149 56 284.5t163 244.5q105 106 238 161.5t284 55.5q152 0 287.5 -56t242.5 -163q105 -105 160 -240.5t55 -286.5q0 -152 -54.5 -284t-160.5 -236q-111 -108 -248 -165.5t-282 -57.5q-147 0 -280.5 56.5t-241.5 164.5q-107 106 -163 240.5t-56 281.5zM233 735 q0 -125 47 -237t136 -201q88 -88 201 -135t237 -47t237.5 47t204.5 137q88 86 133.5 197t45.5 239q0 126 -46.5 238.5t-134.5 200.5q-89 89 -201 135.5t-239 46.5q-128 0 -239.5 -46t-198.5 -134q-89 -90 -136 -203.5t-47 -237.5zM453 729q0 206 109.5 328.5t293.5 122.5 q152 0 250.5 -78t105.5 -205h-188q-8 70 -53 108.5t-119 38.5q-91 0 -143 -81.5t-52 -227.5q0 -147 52 -224t151 -77q73 0 117 42t53 119l193 1q-8 -139 -109 -223t-260 -84q-186 0 -293.5 118t-107.5 322z" />
<glyph unicode="&#xaa;" horiz-adv-x="520" d="M29 774v174q0 66 25 106.5t82 70.5q18 9 50 24q111 53 111 100v58q0 27 -8.5 39t-28.5 12q-18 0 -26.5 -12.5t-8.5 -38.5v-119h-196v119q0 93 58.5 140.5t172.5 47.5q124 0 176.5 -52.5t52.5 -182.5v-502q1 -31 4 -56t10 -53l-198 1q-3 13 -4.5 28t-1.5 29v12h-4 q-20 -41 -56 -62.5t-83 -21.5q-63 0 -95 35t-32 104zM225 836q0 -29 8.5 -39.5t28.5 -10.5q18 0 26.5 12t8.5 38l-1 218q-5 -4 -17 -12q-54 -39 -54 -69v-137z" />
<glyph unicode="&#xab;" horiz-adv-x="748" d="M47 451v262l295 329v-262l-182 -198l182 -199v-260zM406 451v262l294 329v-262l-182 -198l182 -199v-260z" />
<glyph unicode="&#xac;" horiz-adv-x="1706" d="M254 668v196h1198v-502h-199v306h-999z" />
<glyph unicode="&#xad;" horiz-adv-x="483" d="M59 489v201h365v-201h-365z" />
<glyph unicode="&#xae;" horiz-adv-x="1706" d="M111 733q0 102 27 198.5t81 188.5q101 170 267 264.5t366 94.5q154 0 290.5 -57.5t243.5 -166.5q103 -104 157 -238t54 -284q0 -152 -56 -287.5t-163 -238.5q-107 -105 -243.5 -161t-282.5 -56q-149 0 -285 58t-243 167q-104 105 -158.5 238.5t-54.5 279.5zM233 735 q0 -124 46 -235.5t133 -198.5q89 -91 203 -139.5t237 -48.5q120 0 233.5 47t206.5 135q87 84 135 196t48 232q0 133 -44.5 245t-132.5 201q-90 93 -202.5 140t-241.5 47q-127 0 -236 -44.5t-196 -131.5q-91 -91 -140 -206.5t-49 -238.5zM545 336v825h323q176 0 264.5 -59.5 t88.5 -177.5q0 -82 -48 -140t-133 -79l185 -369h-224l-157 338h-99v-338h-200zM745 795h99q88 0 129 28t41 88q0 63 -44 93t-136 30h-89v-239z" />
<glyph unicode="&#xaf;" horiz-adv-x="1024" d="M295 1298v129h434v-129h-434z" />
<glyph unicode="&#xb0;" horiz-adv-x="674" d="M35 1159q0 127 88.5 216t214.5 89t214.5 -89.5t88.5 -215.5q0 -125 -89 -214t-216 -89q-126 0 -213.5 88t-87.5 215zM162 1161q0 -74 51 -125t125 -51q72 0 123 52t51 124t-51 123t-123 51q-73 0 -124.5 -51t-51.5 -123z" />
<glyph unicode="&#xb1;" horiz-adv-x="1706" d="M254 -2v199h1198v-199h-1198zM254 698v199h498v326h202v-326h498v-199h-498v-325h-202v325h-498z" />
<glyph unicode="&#xb2;" horiz-adv-x="514" d="M27 590v145q0 53 19.5 104t86.5 148q15 21 43 60q109 151 109 208v70q0 23 -8 33t-25 10t-24 -9.5t-7 -33.5v-162h-192v103q0 125 52.5 177t174.5 52q114 0 170.5 -51t56.5 -154q0 -119 -139 -313q-28 -39 -43 -59q-49 -70 -66.5 -110.5t-17.5 -74.5v-16h266v-127h-456z " />
<glyph unicode="&#xb3;" horiz-adv-x="514" d="M31 799v139h192v-190q0 -23 8 -33t25 -10q18 0 25.5 9.5t7.5 33.5v165q0 30 -17 50t-43 20h-67v127h67q28 0 44 19t16 53v143q0 23 -8 33t-25 10t-25 -10t-8 -33v-164h-192v105q0 126 52 177.5t173 51.5q112 0 169.5 -46.5t57.5 -137.5v-103q0 -64 -35.5 -103t-109.5 -56 q74 -8 109.5 -43t35.5 -101v-153q0 -89 -58.5 -136t-168.5 -47q-120 0 -172.5 53t-52.5 177z" />
<glyph unicode="&#xb4;" horiz-adv-x="1024" d="M397 1251l97 224h254l-189 -224h-162z" />
<glyph unicode="&#xb5;" horiz-adv-x="1249" d="M-63 -438l268 1530h289l-76 -435q-15 -80 -23 -151.5t-8 -116.5q0 -93 42 -138.5t128 -45.5q100 0 155.5 82t92.5 291l90 514h289l-193 -1092h-268l18 117q-42 -78 -93.5 -114t-121.5 -36q-67 0 -119 29.5t-94 91.5l-90 -526h-286z" />
<glyph unicode="&#xb6;" horiz-adv-x="1024" d="M41 1130q0 158 107 253.5t284 95.5h551v-111h-113v-1368h-151v1368h-158v-1368h-153v784q-167 6 -267 101t-100 245z" />
<glyph unicode="&#xb7;" horiz-adv-x="389" d="M35 737q0 66 46.5 112t113.5 46q65 0 111 -46.5t46 -111.5q0 -66 -46 -112.5t-111 -46.5q-66 0 -113 46.5t-47 112.5z" />
<glyph unicode="&#xb8;" horiz-adv-x="1024" d="M287 -266l159 198h170l-92 -198h-237z" />
<glyph unicode="&#xb9;" horiz-adv-x="514" d="M68 1268v106h4q57 0 94.5 26.5t48.5 74.5h154v-885h-195v678h-106z" />
<glyph unicode="&#xba;" horiz-adv-x="520" d="M29 864v396q0 128 53.5 181.5t177.5 53.5q123 0 176 -54t53 -181v-396q0 -128 -53 -181.5t-176 -53.5q-124 0 -177.5 53.5t-53.5 181.5zM225 815q0 -26 8.5 -37.5t28.5 -11.5q19 0 27 11.5t8 37.5v502q0 25 -9 37t-28 12q-18 0 -26.5 -11t-8.5 -38v-502z" />
<glyph unicode="&#xbb;" horiz-adv-x="748" d="M47 123v260l180 199l-180 198v260l295 -327v-262zM406 123v260l180 199l-180 198v260l294 -327v-262z" />
<glyph unicode="&#xbc;" horiz-adv-x="1239" d="M66 1282v98h2q53 0 89.5 25.5t47.5 68.5l145 1v-826h-184v633h-100zM229 -33l662 1540h117l-662 -1540h-117zM748 205v117l176 503h252v-503h57v-117h-57v-205h-185v205h-243zM889 322h108l2 247q0 21 3.5 62.5t9.5 91.5h-13q-15 -71 -42.5 -170.5t-67.5 -230.5z" />
<glyph unicode="&#xbd;" horiz-adv-x="1239" d="M66 1282v98h2q53 0 89.5 25.5t47.5 68.5l145 1v-826h-184v633h-100zM229 -33l662 1540h117l-662 -1540h-117zM774 0v137q0 51 20 100t80 134l42 56q104 141 104 196v63q0 21 -7.5 31t-23.5 10t-23.5 -9t-7.5 -32v-149h-184v94q0 116 50 164.5t167 48.5q109 0 163 -47.5 t54 -143.5q0 -111 -135 -293q-25 -34 -39 -53q-47 -70 -63.5 -107t-16.5 -67v-14h256v-119h-436z" />
<glyph unicode="&#xbe;" horiz-adv-x="1239" d="M29 844v129h184v-176q0 -23 7.5 -32t25.5 -9q16 0 23 9.5t7 31.5v153q0 29 -17 47.5t-42 18.5h-63v119h63q28 0 43.5 17.5t15.5 47.5v135q0 20 -7.5 29.5t-22.5 9.5q-18 0 -25.5 -9t-7.5 -30v-153h-184v98q0 117 49 165t166 48q107 0 162 -43t55 -127v-96 q0 -59 -33.5 -96t-103.5 -54q70 -8 103.5 -40.5t33.5 -92.5v-145q0 -81 -56.5 -124.5t-160.5 -43.5q-115 0 -165 48.5t-50 164.5zM229 -33l662 1540h117l-662 -1540h-117zM748 205v117l176 503h252v-503h57v-117h-57v-205h-185v205h-243zM889 322h108l2 247q0 21 3.5 62.5 t9.5 91.5h-13q-15 -71 -42.5 -170.5t-67.5 -230.5z" />
<glyph unicode="&#xbf;" horiz-adv-x="768" d="M61 252v143q0 56 11 97.5t34 74.5l101 146q4 6 13 18q34 45 34 105v268h268v-311q0 -108 -80 -207q-20 -25 -30 -39q-47 -62 -59.5 -93t-12.5 -67v-145q0 -43 11 -59.5t38 -16.5q24 0 34.5 16t10.5 58v286h271v-264q0 -142 -89.5 -218.5t-255.5 -76.5q-141 0 -220 75 t-79 210zM254 1171v304h268v-304h-268z" />
<glyph unicode="&#xc0;" horiz-adv-x="811" d="M12 0l236 1475h377l174 -1475h-305l-29 393h-146l-38 -393h-269zM199 1774h251l99 -224h-162zM342 610h109l-33 450q-3 38 -5 137q-1 43 -1 67h-11q-4 -85 -7 -135.5t-5 -66.5z" />
<glyph unicode="&#xc1;" horiz-adv-x="811" d="M12 0l236 1475h377l174 -1475h-305l-29 393h-146l-38 -393h-269zM317 1550l97 224h254l-189 -224h-162zM342 610h109l-33 450q-3 38 -5 137q-1 43 -1 67h-11q-4 -85 -7 -135.5t-5 -66.5z" />
<glyph unicode="&#xc2;" horiz-adv-x="811" d="M12 0l236 1475h377l174 -1475h-305l-29 393h-146l-38 -393h-269zM180 1550l154 224h196l154 -224h-162l-90 111l-90 -111h-162zM342 610h109l-33 450q-3 38 -5 137q-1 43 -1 67h-11q-4 -85 -7 -135.5t-5 -66.5z" />
<glyph unicode="&#xc3;" horiz-adv-x="811" d="M12 0l236 1475h377l174 -1475h-305l-29 393h-146l-38 -393h-269zM178 1561v16q0 86 42.5 136t115.5 50q45 0 107.5 -31.5t84.5 -31.5q24 0 37.5 15t13.5 40v8h107v-16q0 -87 -42.5 -136.5t-115.5 -49.5q-45 0 -107.5 31.5t-84.5 31.5q-24 0 -37.5 -15t-13.5 -40v-8h-107z M342 610h109l-33 450q-3 38 -5 137q-1 43 -1 67h-11q-4 -85 -7 -135.5t-5 -66.5z" />
<glyph unicode="&#xc4;" horiz-adv-x="811" d="M12 0l236 1475h377l174 -1475h-305l-29 393h-146l-38 -393h-269zM205 1561v200h182v-200h-182zM342 610h109l-33 450q-3 38 -5 137q-1 43 -1 67h-11q-4 -85 -7 -135.5t-5 -66.5zM475 1561v200h184v-200h-184z" />
<glyph unicode="&#xc5;" horiz-adv-x="811" d="M12 0l236 1475h377l174 -1475h-305l-29 393h-146l-38 -393h-269zM262 1700q0 74 52.5 126t125.5 52q74 0 126 -52t52 -126q0 -75 -51.5 -126.5t-126.5 -51.5t-126.5 51.5t-51.5 126.5zM342 610h109l-33 450q-3 38 -5 137q-1 43 -1 67h-11q-4 -85 -7 -135.5t-5 -66.5z M373 1700q0 -28 19 -48t46 -20q29 0 48.5 20t19.5 48q0 29 -19 47t-49 18q-27 0 -46 -19t-19 -46z" />
<glyph unicode="&#xc6;" horiz-adv-x="1028" d="M-18 0l311 1475h704v-205h-245v-340h245v-213h-245v-494h245v-223h-534v397h-141l-66 -397h-274zM358 627h105v643h-18q-7 -69 -16 -142q-1 -9 -1 -12z" />
<glyph unicode="&#xc7;" horiz-adv-x="758" d="M41 346v780q0 207 79.5 294t262.5 87q184 0 264 -86.5t80 -294.5v-163h-293v262q0 39 -11.5 55t-39.5 16q-27 0 -38 -16t-11 -55v-963q0 -39 11.5 -55.5t37.5 -16.5q28 0 39.5 17t11.5 55v297h293v-213q0 -206 -79.5 -292.5t-264.5 -86.5q-184 0 -263 85.5t-79 293.5z M154 -266l159 198h170l-92 -198h-237z" />
<glyph unicode="&#xc8;" horiz-adv-x="629" d="M47 0v1475h549v-205h-254v-340h248v-213h-248v-494h254v-223h-549zM91 1774h251l99 -224h-162z" />
<glyph unicode="&#xc9;" horiz-adv-x="629" d="M47 0v1475h549v-205h-254v-340h248v-213h-248v-494h254v-223h-549zM209 1550l97 224h254l-189 -224h-162z" />
<glyph unicode="&#xca;" horiz-adv-x="629" d="M47 0v1475h549v-205h-254v-340h248v-213h-248v-494h254v-223h-549zM72 1550l154 224h196l154 -224h-162l-90 111l-90 -111h-162z" />
<glyph unicode="&#xcb;" horiz-adv-x="629" d="M47 0v1475h549v-205h-254v-340h248v-213h-248v-494h254v-223h-549zM97 1561v200h182v-200h-182zM367 1561v200h184v-200h-184z" />
<glyph unicode="&#xcc;" horiz-adv-x="387" d="M-38 1774h251l99 -224h-162zM45 0v1475h295v-1475h-295z" />
<glyph unicode="&#xcd;" horiz-adv-x="387" d="M45 0v1475h295v-1475h-295zM80 1550l97 224h254l-189 -224h-162z" />
<glyph unicode="&#xce;" horiz-adv-x="387" d="M-57 1550l154 224h196l154 -224h-162l-90 111l-90 -111h-162zM45 0v1475h295v-1475h-295z" />
<glyph unicode="&#xcf;" horiz-adv-x="387" d="M-32 1561v200h182v-200h-182zM45 0v1475h295v-1475h-295zM238 1561v200h184v-200h-184z" />
<glyph unicode="&#xd0;" horiz-adv-x="842" d="M12 731v191h82v553h363q187 0 265.5 -81.5t78.5 -281.5v-747q0 -199 -84 -282t-281 -83h-342v731h-82zM383 209q5 0 15 -1t14 -1q54 0 77 19t23 65v899q0 51 -21 68.5t-88 17.5h-20v-354h84v-191h-84v-522z" />
<glyph unicode="&#xd1;" horiz-adv-x="868" d="M45 0v1475h404l104 -625q14 -84 24 -188t17 -238h12q-7 156 -10.5 272.5t-3.5 167.5l-2 611h231v-1475h-346l-151 801q-9 47 -22.5 142t-27.5 208h-8q6 -92 9.5 -161t3.5 -113v-877h-234zM190 1561v16q0 86 42.5 136t115.5 50q45 0 107.5 -31.5t84.5 -31.5q24 0 37.5 15 t13.5 40v8h107v-16q0 -87 -42.5 -136.5t-115.5 -49.5q-45 0 -107.5 31.5t-84.5 31.5q-24 0 -37.5 -15t-13.5 -40v-8h-107z" />
<glyph unicode="&#xd2;" horiz-adv-x="768" d="M39 348v778q0 206 80 293.5t264 87.5t264 -86.5t80 -294.5v-778q0 -207 -79.5 -294t-264.5 -87t-264.5 87t-79.5 294zM152 1774h251l99 -224h-162zM334 262q0 -39 11.5 -55.5t37.5 -16.5q28 0 39.5 17t11.5 55v963q0 39 -11.5 55t-39.5 16q-26 0 -37.5 -17t-11.5 -54 v-963z" />
<glyph unicode="&#xd3;" horiz-adv-x="768" d="M39 348v778q0 206 80 293.5t264 87.5t264 -86.5t80 -294.5v-778q0 -207 -79.5 -294t-264.5 -87t-264.5 87t-79.5 294zM270 1550l97 224h254l-189 -224h-162zM334 262q0 -39 11.5 -55.5t37.5 -16.5q28 0 39.5 17t11.5 55v963q0 39 -11.5 55t-39.5 16q-26 0 -37.5 -17 t-11.5 -54v-963z" />
<glyph unicode="&#xd4;" horiz-adv-x="768" d="M39 348v778q0 206 80 293.5t264 87.5t264 -86.5t80 -294.5v-778q0 -207 -79.5 -294t-264.5 -87t-264.5 87t-79.5 294zM133 1550l154 224h196l154 -224h-162l-90 111l-90 -111h-162zM334 262q0 -39 11.5 -55.5t37.5 -16.5q28 0 39.5 17t11.5 55v963q0 39 -11.5 55 t-39.5 16q-26 0 -37.5 -17t-11.5 -54v-963z" />
<glyph unicode="&#xd5;" horiz-adv-x="768" d="M39 348v778q0 206 80 293.5t264 87.5t264 -86.5t80 -294.5v-778q0 -207 -79.5 -294t-264.5 -87t-264.5 87t-79.5 294zM131 1561v16q0 86 42.5 136t115.5 50q45 0 107.5 -31.5t84.5 -31.5q24 0 37.5 15t13.5 40v8h107v-16q0 -87 -42.5 -136.5t-115.5 -49.5 q-45 0 -107.5 31.5t-84.5 31.5q-24 0 -37.5 -15t-13.5 -40v-8h-107zM334 262q0 -39 11.5 -55.5t37.5 -16.5q28 0 39.5 17t11.5 55v963q0 39 -11.5 55t-39.5 16q-26 0 -37.5 -17t-11.5 -54v-963z" />
<glyph unicode="&#xd6;" horiz-adv-x="768" d="M39 348v778q0 206 80 293.5t264 87.5t264 -86.5t80 -294.5v-778q0 -207 -79.5 -294t-264.5 -87t-264.5 87t-79.5 294zM158 1561v200h182v-200h-182zM334 262q0 -39 11.5 -55.5t37.5 -16.5q28 0 39.5 17t11.5 55v963q0 39 -11.5 55t-39.5 16q-26 0 -37.5 -17t-11.5 -54 v-963zM428 1561v200h184v-200h-184z" />
<glyph unicode="&#xd7;" horiz-adv-x="1706" d="M276 160l451 450l-451 453l140 139l450 -450l451 450l141 -139l-450 -453l450 -450l-141 -140l-451 451l-450 -451z" />
<glyph unicode="&#xd8;" horiz-adv-x="768" d="M37 -160l74 230q-38 47 -54 103t-16 173v780q0 207 79.5 294t262.5 87q50 0 93 -8.5t81 -25.5l57 167h119l-76 -231q38 -42 54 -100.5t16 -182.5v-780q0 -213 -81.5 -297t-280.5 -84q-58 0 -92.5 8.5t-63.5 28.5l-53 -162h-119zM322 262q0 -41 13.5 -56.5t47.5 -15.5 q33 0 48 17.5t15 54.5v580q-10 -43 -18 -74t-12 -43l-94 -340v-123zM322 684q10 43 15.5 65t8.5 31l100 353v92q0 38 -14.5 54.5t-48.5 16.5q-33 0 -47 -16t-14 -55v-541z" />
<glyph unicode="&#xd9;" d="M45 346v1129h293v-1213q0 -38 12 -55t39 -17t38 16.5t11 55.5v1213h295v-1129q0 -206 -79.5 -292.5t-264.5 -86.5t-264.5 86.5t-79.5 292.5zM156 1774h251l99 -224h-162z" />
<glyph unicode="&#xda;" d="M45 346v1129h293v-1213q0 -38 12 -55t39 -17t38 16.5t11 55.5v1213h295v-1129q0 -206 -79.5 -292.5t-264.5 -86.5t-264.5 86.5t-79.5 292.5zM274 1550l97 224h254l-189 -224h-162z" />
<glyph unicode="&#xdb;" d="M45 346v1129h293v-1213q0 -38 12 -55t39 -17t38 16.5t11 55.5v1213h295v-1129q0 -206 -79.5 -292.5t-264.5 -86.5t-264.5 86.5t-79.5 292.5zM137 1550l154 224h196l154 -224h-162l-90 111l-90 -111h-162z" />
<glyph unicode="&#xdc;" d="M45 346v1129h293v-1213q0 -38 12 -55t39 -17t38 16.5t11 55.5v1213h295v-1129q0 -206 -79.5 -292.5t-264.5 -86.5t-264.5 86.5t-79.5 292.5zM162 1561v200h182v-200h-182zM432 1561v200h184v-200h-184z" />
<glyph unicode="&#xdd;" horiz-adv-x="729" d="M-6 1475h303l53 -336q10 -62 16 -120.5t9 -117.5h12q9 78 16.5 137t14.5 99l59 338h262l-229 -916v-559h-293v559zM250 1550l97 224h254l-189 -224h-162z" />
<glyph unicode="&#xde;" horiz-adv-x="758" d="M47 0v1475h295v-234h49q181 0 261.5 -63t80.5 -205v-314q0 -172 -81.5 -244.5t-274.5 -72.5h-35v-342h-295zM342 547q4 0 12 -1t13 -1q40 0 56.5 18.5t16.5 65.5v342q0 49 -17.5 66.5t-68.5 17.5h-12v-508z" />
<glyph unicode="&#xdf;" horiz-adv-x="688" d="M41 0v1206q0 151 75.5 225t229.5 74q155 0 230 -73.5t75 -225.5v-98q0 -125 -37 -181.5t-125 -70.5v-10q91 -15 126.5 -68.5t35.5 -183.5v-344q0 -133 -46 -191.5t-150 -58.5h-119v184h6q30 0 41.5 15.5t11.5 56.5v416q0 41 -11.5 57t-41.5 16h-6v181h6q30 0 41.5 15.5 t11.5 55.5v250q0 38 -12 56t-37 18q-24 0 -34.5 -17t-10.5 -57v-1247h-260z" />
<glyph unicode="&#xe0;" horiz-adv-x="694" d="M39 178v250q0 93 33.5 151.5t107.5 98.5q24 13 68 35q147 75 147 143v84q0 38 -11.5 55t-37.5 17q-24 0 -34.5 -17t-10.5 -55v-172h-262v170q0 134 77.5 202t229.5 68q166 0 236.5 -75.5t70.5 -260.5v-718q0 -47 4.5 -83.5t14.5 -70.5h-264q-5 21 -8 42.5t-3 39.5v18h-4 q-28 -58 -75.5 -89t-110.5 -31q-83 0 -125.5 50t-42.5 148zM127 1475h251l99 -224h-162zM301 266q0 -40 10.5 -54.5t36.5 -14.5q24 0 35.5 16.5t11.5 52.5v313q-6 -4 -16 -12q-78 -60 -78 -106v-195z" />
<glyph unicode="&#xe1;" horiz-adv-x="694" d="M39 178v250q0 93 33.5 151.5t107.5 98.5q24 13 68 35q147 75 147 143v84q0 38 -11.5 55t-37.5 17q-24 0 -34.5 -17t-10.5 -55v-172h-262v170q0 134 77.5 202t229.5 68q166 0 236.5 -75.5t70.5 -260.5v-718q0 -47 4.5 -83.5t14.5 -70.5h-264q-5 21 -8 42.5t-3 39.5v18h-4 q-28 -58 -75.5 -89t-110.5 -31q-83 0 -125.5 50t-42.5 148zM245 1251l97 224h254l-189 -224h-162zM301 266q0 -40 10.5 -54.5t36.5 -14.5q24 0 35.5 16.5t11.5 52.5v313q-6 -4 -16 -12q-78 -60 -78 -106v-195z" />
<glyph unicode="&#xe2;" horiz-adv-x="694" d="M39 178v250q0 93 33.5 151.5t107.5 98.5q24 13 68 35q147 75 147 143v84q0 38 -11.5 55t-37.5 17q-24 0 -34.5 -17t-10.5 -55v-172h-262v170q0 134 77.5 202t229.5 68q166 0 236.5 -75.5t70.5 -260.5v-718q0 -47 4.5 -83.5t14.5 -70.5h-264q-5 21 -8 42.5t-3 39.5v18h-4 q-28 -58 -75.5 -89t-110.5 -31q-83 0 -125.5 50t-42.5 148zM108 1251l154 224h196l154 -224h-162l-90 111l-90 -111h-162zM301 266q0 -40 10.5 -54.5t36.5 -14.5q24 0 35.5 16.5t11.5 52.5v313q-6 -4 -16 -12q-78 -60 -78 -106v-195z" />
<glyph unicode="&#xe3;" horiz-adv-x="694" d="M39 178v250q0 93 33.5 151.5t107.5 98.5q24 13 68 35q147 75 147 143v84q0 38 -11.5 55t-37.5 17q-24 0 -34.5 -17t-10.5 -55v-172h-262v170q0 134 77.5 202t229.5 68q166 0 236.5 -75.5t70.5 -260.5v-718q0 -47 4.5 -83.5t14.5 -70.5h-264q-5 21 -8 42.5t-3 39.5v18h-4 q-28 -58 -75.5 -89t-110.5 -31q-83 0 -125.5 50t-42.5 148zM106 1262v16q0 86 42.5 136t115.5 50q45 0 107.5 -31.5t84.5 -31.5q24 0 37.5 15t13.5 40v8h107v-16q0 -87 -42.5 -136.5t-115.5 -49.5q-45 0 -107.5 31.5t-84.5 31.5q-24 0 -37.5 -15t-13.5 -40v-8h-107zM301 266 q0 -40 10.5 -54.5t36.5 -14.5q24 0 35.5 16.5t11.5 52.5v313q-6 -4 -16 -12q-78 -60 -78 -106v-195z" />
<glyph unicode="&#xe4;" horiz-adv-x="694" d="M39 178v250q0 93 33.5 151.5t107.5 98.5q24 13 68 35q147 75 147 143v84q0 38 -11.5 55t-37.5 17q-24 0 -34.5 -17t-10.5 -55v-172h-262v170q0 134 77.5 202t229.5 68q166 0 236.5 -75.5t70.5 -260.5v-718q0 -47 4.5 -83.5t14.5 -70.5h-264q-5 21 -8 42.5t-3 39.5v18h-4 q-28 -58 -75.5 -89t-110.5 -31q-83 0 -125.5 50t-42.5 148zM133 1262v200h182v-200h-182zM301 266q0 -40 10.5 -54.5t36.5 -14.5q24 0 35.5 16.5t11.5 52.5v313q-6 -4 -16 -12q-78 -60 -78 -106v-195zM403 1262v200h184v-200h-184z" />
<glyph unicode="&#xe5;" horiz-adv-x="694" d="M39 178v250q0 93 33.5 151.5t107.5 98.5q24 13 68 35q147 75 147 143v84q0 38 -11.5 55t-37.5 17q-24 0 -34.5 -17t-10.5 -55v-172h-262v170q0 134 77.5 202t229.5 68q166 0 236.5 -75.5t70.5 -260.5v-718q0 -47 4.5 -83.5t14.5 -70.5h-264q-5 21 -8 42.5t-3 39.5v18h-4 q-28 -58 -75.5 -89t-110.5 -31q-83 0 -125.5 50t-42.5 148zM188 1427q0 74 52.5 126.5t126.5 52.5q73 0 125.5 -52.5t52.5 -126.5t-52 -127t-126 -53q-75 0 -127 52.5t-52 127.5zM299 1425q0 -27 20 -46t48 -19t47.5 18.5t19.5 46.5q0 30 -19 49t-48 19q-28 0 -48 -20 t-20 -48zM301 266q0 -40 10.5 -54.5t36.5 -14.5q24 0 35.5 16.5t11.5 52.5v313q-6 -4 -16 -12q-78 -60 -78 -106v-195z" />
<glyph unicode="&#xe6;" horiz-adv-x="1036" d="M39 205v223q0 95 33.5 151.5t115.5 102.5q24 13 69 36q138 70 138 138v84q0 38 -11.5 55t-37.5 17q-24 0 -34.5 -17t-10.5 -55v-172h-262v170q0 136 76 203t231 67q57 0 99 -14t77 -45q37 31 82 45t107 14q136 0 213 -67.5t77 -186.5v-401h-354v-315q0 -39 11 -55.5 t36 -16.5t36 16.5t11 55.5v229h260v-227q0 -128 -68.5 -198.5t-193.5 -70.5q-68 0 -120.5 21.5t-98.5 66.5q-49 -46 -106.5 -67t-137.5 -21q-111 0 -174 62t-63 172zM301 266q0 -40 10.5 -54.5t36.5 -14.5q24 0 35.5 16.5t11.5 52.5v314q-63 -45 -78.5 -67.5t-15.5 -51.5 v-195zM647 729h94v223q0 38 -11.5 55t-37.5 17q-24 0 -34.5 -16t-10.5 -56v-223z" />
<glyph unicode="&#xe7;" horiz-adv-x="684" d="M39 307v565q0 186 70 261t235 75q145 0 227 -67.5t82 -186.5v-186h-260v184q0 39 -11 55.5t-36 16.5t-36 -16.5t-11 -55.5v-714q0 -39 11 -55.5t36 -16.5t36 16.5t11 55.5v221h260v-219q0 -128 -80.5 -198.5t-226.5 -70.5q-165 0 -236 76t-71 260zM117 -266l159 198h170 l-92 -198h-237z" />
<glyph unicode="&#xe8;" horiz-adv-x="692" d="M39 307v565q0 186 70 261t235 75q145 0 227 -67.5t82 -186.5v-401h-354v-315q0 -39 11 -55.5t36 -16.5t36 16.5t11 55.5v221h260v-219q0 -128 -80.5 -198.5t-226.5 -70.5q-165 0 -236 76t-71 260zM113 1475h251l99 -224h-162zM299 729h94v223q0 39 -11 55.5t-36 16.5 t-36 -16.5t-11 -55.5v-223z" />
<glyph unicode="&#xe9;" horiz-adv-x="692" d="M39 307v565q0 186 70 261t235 75q145 0 227 -67.5t82 -186.5v-401h-354v-315q0 -39 11 -55.5t36 -16.5t36 16.5t11 55.5v221h260v-219q0 -128 -80.5 -198.5t-226.5 -70.5q-165 0 -236 76t-71 260zM231 1251l97 224h254l-189 -224h-162zM299 729h94v223q0 39 -11 55.5 t-36 16.5t-36 -16.5t-11 -55.5v-223z" />
<glyph unicode="&#xea;" horiz-adv-x="692" d="M39 307v565q0 186 70 261t235 75q145 0 227 -67.5t82 -186.5v-401h-354v-315q0 -39 11 -55.5t36 -16.5t36 16.5t11 55.5v221h260v-219q0 -128 -80.5 -198.5t-226.5 -70.5q-165 0 -236 76t-71 260zM94 1251l154 224h196l154 -224h-162l-90 111l-90 -111h-162zM299 729h94 v223q0 39 -11 55.5t-36 16.5t-36 -16.5t-11 -55.5v-223z" />
<glyph unicode="&#xeb;" horiz-adv-x="692" d="M39 307v565q0 186 70 261t235 75q145 0 227 -67.5t82 -186.5v-401h-354v-315q0 -39 11 -55.5t36 -16.5t36 16.5t11 55.5v221h260v-219q0 -128 -80.5 -198.5t-226.5 -70.5q-165 0 -236 76t-71 260zM119 1262v200h182v-200h-182zM299 729h94v223q0 39 -11 55.5t-36 16.5 t-36 -16.5t-11 -55.5v-223zM389 1262v200h184v-200h-184z" />
<glyph unicode="&#xec;" horiz-adv-x="346" d="M-59 1475h251l99 -224h-162zM43 0v1180h260v-1180h-260z" />
<glyph unicode="&#xed;" horiz-adv-x="346" d="M43 0v1180h260v-1180h-260zM59 1251l97 224h254l-189 -224h-162z" />
<glyph unicode="&#xee;" horiz-adv-x="346" d="M-78 1251l154 224h196l154 -224h-162l-90 111l-90 -111h-162zM43 0v1180h260v-1180h-260z" />
<glyph unicode="&#xef;" horiz-adv-x="346" d="M-53 1262v200h182v-200h-182zM43 0v1180h260v-1180h-260zM217 1262v200h184v-200h-184z" />
<glyph unicode="&#xf0;" horiz-adv-x="692" d="M29 1241l137 51q-17 15 -37.5 31t-50.5 35l168 115q34 -30 63 -57.5t58 -55.5l206 74l33 -88l-166 -60q117 -121 165 -234t48 -304v-472q0 -165 -71 -235t-236 -70t-236 69.5t-71 235.5v539q0 178 38.5 241.5t131.5 63.5q38 0 71.5 -7t67.5 -21q-17 30 -44 62.5t-64 68.5 l-183 -64zM301 231q0 -35 11 -50t36 -15t36 15.5t11 49.5v635q0 34 -12 50t-37 16q-24 0 -34.5 -15.5t-10.5 -50.5v-635z" />
<glyph unicode="&#xf1;" horiz-adv-x="698" d="M43 0v1180h256v-99h4q33 62 79 91.5t107 29.5q85 0 127.5 -50.5t42.5 -150.5v-1001h-262v915q0 41 -10.5 55.5t-36.5 14.5q-24 0 -35.5 -17t-11.5 -53v-915h-260zM96 1262v16q0 86 42.5 136t115.5 50q45 0 107.5 -31.5t84.5 -31.5q24 0 37.5 15t13.5 40v8h107v-16 q0 -87 -42.5 -136.5t-115.5 -49.5q-45 0 -107.5 31.5t-84.5 31.5q-24 0 -37.5 -15t-13.5 -40v-8h-107z" />
<glyph unicode="&#xf2;" horiz-adv-x="692" d="M39 307v565q0 183 71.5 259.5t235.5 76.5t235.5 -76.5t71.5 -259.5v-565q0 -182 -71.5 -259t-235.5 -77t-235.5 77t-71.5 259zM113 1475h251l99 -224h-162zM301 238q0 -39 11 -55.5t36 -16.5t36 16.5t11 55.5v714q0 38 -11.5 55t-37.5 17q-24 0 -34.5 -16t-10.5 -56v-714 z" />
<glyph unicode="&#xf3;" horiz-adv-x="692" d="M39 307v565q0 183 71.5 259.5t235.5 76.5t235.5 -76.5t71.5 -259.5v-565q0 -182 -71.5 -259t-235.5 -77t-235.5 77t-71.5 259zM231 1251l97 224h254l-189 -224h-162zM301 238q0 -39 11 -55.5t36 -16.5t36 16.5t11 55.5v714q0 38 -11.5 55t-37.5 17q-24 0 -34.5 -16 t-10.5 -56v-714z" />
<glyph unicode="&#xf4;" horiz-adv-x="692" d="M39 307v565q0 183 71.5 259.5t235.5 76.5t235.5 -76.5t71.5 -259.5v-565q0 -182 -71.5 -259t-235.5 -77t-235.5 77t-71.5 259zM94 1251l154 224h196l154 -224h-162l-90 111l-90 -111h-162zM301 238q0 -39 11 -55.5t36 -16.5t36 16.5t11 55.5v714q0 38 -11.5 55t-37.5 17 q-24 0 -34.5 -16t-10.5 -56v-714z" />
<glyph unicode="&#xf5;" horiz-adv-x="692" d="M39 307v565q0 183 71.5 259.5t235.5 76.5t235.5 -76.5t71.5 -259.5v-565q0 -182 -71.5 -259t-235.5 -77t-235.5 77t-71.5 259zM92 1262v16q0 86 42.5 136t115.5 50q45 0 107.5 -31.5t84.5 -31.5q24 0 37.5 15t13.5 40v8h107v-16q0 -87 -42.5 -136.5t-115.5 -49.5 q-45 0 -107.5 31.5t-84.5 31.5q-24 0 -37.5 -15t-13.5 -40v-8h-107zM301 238q0 -39 11 -55.5t36 -16.5t36 16.5t11 55.5v714q0 38 -11.5 55t-37.5 17q-24 0 -34.5 -16t-10.5 -56v-714z" />
<glyph unicode="&#xf6;" horiz-adv-x="692" d="M39 307v565q0 183 71.5 259.5t235.5 76.5t235.5 -76.5t71.5 -259.5v-565q0 -182 -71.5 -259t-235.5 -77t-235.5 77t-71.5 259zM119 1262v200h182v-200h-182zM301 238q0 -39 11 -55.5t36 -16.5t36 16.5t11 55.5v714q0 38 -11.5 55t-37.5 17q-24 0 -34.5 -16t-10.5 -56 v-714zM389 1262v200h184v-200h-184z" />
<glyph unicode="&#xf7;" horiz-adv-x="1706" d="M254 512v199h1198v-199h-1198zM702 217q0 63 44.5 107.5t107.5 44.5q62 0 107 -45t45 -107q0 -61 -45 -105t-107 -44q-63 0 -107.5 43t-44.5 106zM702 1004q0 63 44.5 107t107.5 44q62 0 107 -44.5t45 -106.5q0 -63 -44.5 -107.5t-107.5 -44.5t-107.5 44.5t-44.5 107.5z " />
<glyph unicode="&#xf8;" horiz-adv-x="692" d="M33 -158l73 211q-36 38 -51.5 93.5t-15.5 160.5v565q0 183 71.5 259.5t235.5 76.5q54 0 86 -6t62 -20l59 164h113l-78 -218q35 -38 50 -92.5t15 -163.5v-565q0 -182 -71.5 -259t-235.5 -77q-49 0 -82 6t-63 19l-54 -154h-114zM289 238q0 -36 14.5 -54t44.5 -18 q31 0 44.5 16.5t13.5 55.5v426q-5 -15 -14.5 -49t-14.5 -47l-88 -236v-94zM289 526q11 42 32 95q5 13 7 18l78 215v98q0 39 -13.5 55.5t-44.5 16.5q-30 0 -44.5 -18t-14.5 -54v-426z" />
<glyph unicode="&#xf9;" horiz-adv-x="698" d="M43 178v1002h260v-916q0 -39 11.5 -54t37.5 -15q24 0 34.5 16t10.5 53v916h262v-1180h-256v98h-6q-33 -61 -77.5 -89.5t-106.5 -28.5q-85 0 -127.5 49.5t-42.5 148.5zM117 1475h251l99 -224h-162z" />
<glyph unicode="&#xfa;" horiz-adv-x="698" d="M43 178v1002h260v-916q0 -39 11.5 -54t37.5 -15q24 0 34.5 16t10.5 53v916h262v-1180h-256v98h-6q-33 -61 -77.5 -89.5t-106.5 -28.5q-85 0 -127.5 49.5t-42.5 148.5zM235 1251l97 224h254l-189 -224h-162z" />
<glyph unicode="&#xfb;" horiz-adv-x="698" d="M43 178v1002h260v-916q0 -39 11.5 -54t37.5 -15q24 0 34.5 16t10.5 53v916h262v-1180h-256v98h-6q-33 -61 -77.5 -89.5t-106.5 -28.5q-85 0 -127.5 49.5t-42.5 148.5zM98 1251l154 224h196l154 -224h-162l-90 111l-90 -111h-162z" />
<glyph unicode="&#xfc;" horiz-adv-x="698" d="M43 178v1002h260v-916q0 -39 11.5 -54t37.5 -15q24 0 34.5 16t10.5 53v916h262v-1180h-256v98h-6q-33 -61 -77.5 -89.5t-106.5 -28.5q-85 0 -127.5 49.5t-42.5 148.5zM123 1262v200h182v-200h-182zM393 1262v200h184v-200h-184z" />
<glyph unicode="&#xfd;" horiz-adv-x="627" d="M-18 1180h268l45 -593q3 -42 6 -115t7 -177h7q5 66 11.5 138.5t17.5 178.5l59 568h244l-180 -1188q-23 -151 -74.5 -204.5t-167.5 -53.5h-221v190h111q26 0 37.5 8.5t11.5 28.5q0 7 -2 24t-8 64zM198 1251l97 224h254l-189 -224h-162z" />
<glyph unicode="&#xfe;" horiz-adv-x="696" d="M43 -266v1741h260v-394q28 59 76 90t110 31q86 0 128 -50t42 -151v-825q0 -100 -42.5 -150.5t-127.5 -50.5q-59 0 -103 27t-83 86v-354h-260zM303 260q0 -36 11.5 -53t35.5 -17q26 0 36.5 15.5t10.5 54.5v655q0 39 -10.5 54.5t-36.5 15.5q-23 0 -35 -17.5t-12 -52.5v-655 z" />
<glyph unicode="&#xff;" horiz-adv-x="627" d="M-18 1180h268l45 -593q3 -42 6 -115t7 -177h7q5 66 11.5 138.5t17.5 178.5l59 568h244l-180 -1188q-23 -151 -74.5 -204.5t-167.5 -53.5h-221v190h111q26 0 37.5 8.5t11.5 28.5q0 7 -2 24t-8 64zM86 1262v200h182v-200h-182zM356 1262v200h184v-200h-184z" />
<glyph unicode="&#x152;" horiz-adv-x="997" d="M41 346v780q0 207 80.5 294t265.5 87q56 0 98.5 -7.5t81.5 -24.5h416v-205h-254v-340h250v-213h-250v-494h254v-223h-416q-37 -17 -79 -25t-101 -8q-184 0 -265 88.5t-81 290.5zM336 262q0 -39 11.5 -55.5t37.5 -16.5q28 0 39.5 17t11.5 55v963q0 38 -12 54.5t-39 16.5 t-38 -16t-11 -55v-963z" />
<glyph unicode="&#x153;" horiz-adv-x="1038" d="M39 307v565q0 183 71.5 259.5t235.5 76.5q58 0 98.5 -11.5t77.5 -37.5q36 26 76.5 37.5t95.5 11.5q145 0 227.5 -67.5t82.5 -186.5v-401h-355v-315q0 -39 11 -55.5t36 -16.5t36 16.5t11 55.5v221h261v-219q0 -127 -77 -198t-214 -71q-56 0 -101 12.5t-90 39.5 q-42 -27 -90 -39.5t-106 -12.5q-152 0 -219.5 78.5t-67.5 257.5zM301 238q0 -39 11 -55.5t36 -16.5t36 16.5t11 55.5v714q0 38 -11.5 55t-37.5 17q-24 0 -34.5 -16t-10.5 -56v-714zM649 729h94v223q0 39 -11 55.5t-36 16.5t-36 -16.5t-11 -55.5v-223z" />
<glyph unicode="&#x178;" horiz-adv-x="729" d="M-6 1475h303l53 -336q10 -62 16 -120.5t9 -117.5h12q9 78 16.5 137t14.5 99l59 338h262l-229 -916v-559h-293v559zM138 1561v200h182v-200h-182zM408 1561v200h184v-200h-184z" />
<glyph unicode="&#x2c6;" horiz-adv-x="1024" d="M260 1251l154 224h196l154 -224h-162l-90 111l-90 -111h-162z" />
<glyph unicode="&#x2dc;" horiz-adv-x="1024" d="M258 1262v16q0 86 42.5 136t115.5 50q45 0 107.5 -31.5t84.5 -31.5q24 0 37.5 15t13.5 40v8h107v-16q0 -87 -42.5 -136.5t-115.5 -49.5q-45 0 -107.5 31.5t-84.5 31.5q-24 0 -37.5 -15t-13.5 -40v-8h-107z" />
<glyph unicode="&#x2000;" horiz-adv-x="939" />
<glyph unicode="&#x2001;" horiz-adv-x="1878" />
<glyph unicode="&#x2002;" horiz-adv-x="939" />
<glyph unicode="&#x2003;" horiz-adv-x="1878" />
<glyph unicode="&#x2004;" horiz-adv-x="626" />
<glyph unicode="&#x2005;" horiz-adv-x="469" />
<glyph unicode="&#x2006;" horiz-adv-x="313" />
<glyph unicode="&#x2007;" horiz-adv-x="313" />
<glyph unicode="&#x2008;" horiz-adv-x="234" />
<glyph unicode="&#x2009;" horiz-adv-x="375" />
<glyph unicode="&#x200a;" horiz-adv-x="104" />
<glyph unicode="&#x2010;" horiz-adv-x="483" d="M59 489v201h365v-201h-365z" />
<glyph unicode="&#x2011;" horiz-adv-x="483" d="M59 489v201h365v-201h-365z" />
<glyph unicode="&#x2012;" horiz-adv-x="483" d="M59 489v201h365v-201h-365z" />
<glyph unicode="&#x2013;" horiz-adv-x="1024" d="M0 500v180h1024v-180h-1024z" />
<glyph unicode="&#x2014;" horiz-adv-x="2048" d="M0 500v180h2048v-180h-2048z" />
<glyph unicode="&#x2018;" horiz-adv-x="389" d="M29 1475h245l66 -525h-174z" />
<glyph unicode="&#x2019;" horiz-adv-x="389" d="M49 950l66 525h245l-137 -525h-174z" />
<glyph unicode="&#x201a;" horiz-adv-x="389" d="M43 -219l66 524h245l-137 -524h-174z" />
<glyph unicode="&#x201c;" horiz-adv-x="702" d="M27 1475h245l68 -525h-174zM342 1475h246l65 -525h-174z" />
<glyph unicode="&#x201d;" horiz-adv-x="702" d="M47 950l68 525h243l-137 -525h-174zM362 950l66 525h246l-137 -525h-175z" />
<glyph unicode="&#x201e;" horiz-adv-x="702" d="M43 -219l66 524h245l-137 -524h-174zM356 -219l66 524h246l-138 -524h-174z" />
<glyph unicode="&#x2022;" horiz-adv-x="1208" d="M307 762q0 123 87 209t210 86q122 0 208.5 -86.5t86.5 -208.5t-87.5 -209.5t-209.5 -87.5q-123 0 -209 87t-86 210z" />
<glyph unicode="&#x2026;" horiz-adv-x="2048" d="M206 0v301h271v-301h-271zM888 0v301h271v-301h-271zM1572 0v301h271v-301h-271z" />
<glyph unicode="&#x202f;" horiz-adv-x="375" />
<glyph unicode="&#x2039;" horiz-adv-x="389" d="M47 451v262l295 329v-262l-182 -198l182 -199v-260z" />
<glyph unicode="&#x203a;" horiz-adv-x="389" d="M47 123v260l180 199l-180 198v260l295 -327v-262z" />
<glyph unicode="&#x205f;" horiz-adv-x="469" />
<glyph unicode="&#x20ac;" d="M-27 575l37 113h68v103h-105l37 112h68v223q0 206 75.5 293.5t249.5 87.5q177 0 253.5 -86.5t76.5 -294.5v-129h-278v228q0 39 -12 55t-40 16q-25 0 -36 -16t-11 -55v-322h287l-37 -112h-250v-103h217l-36 -113h-181v-313q0 -38 11 -55t36 -17q28 0 40 17t12 55v215h278 v-131q0 -207 -76 -293t-254 -86q-174 0 -249.5 86.5t-75.5 292.5v229h-105z" />
<glyph unicode="&#x2122;" horiz-adv-x="1706" d="M207 1350v112h485v-112h-168v-435h-149v435h-168zM803 915v547h196l127 -332l123 332h197v-547h-135v410l-154 -410h-61l-158 410v-410h-135z" />
<glyph unicode="&#x25fc;" horiz-adv-x="1180" d="M0 0v1180h1180v-1180h-1180z" />
</font>
</defs>
</svg>
