<?xml version="1.0" encoding="utf-8"?>
<!-- Generator: Adobe Illustrator 17.0.0, SVG Export Plug-In . SVG Version: 6.00 Build 0)  -->
<!DOCTYPE svg PUBLIC "-//W3C//DTD SVG 1.1//EN" "http://www.w3.org/Graphics/SVG/1.1/DTD/svg11.dtd">
<svg version="1.1" id="形状_7_1_" xmlns="http://www.w3.org/2000/svg" xmlns:xlink="http://www.w3.org/1999/xlink" x="0px"
	 y="0px" width="1024px" height="768px" viewBox="0 0 1024 768" enable-background="new 0 0 1024 768" xml:space="preserve">
<g id="XMLID_235_">
	<path id="XMLID_236_" fill="#EE9A07" d="M266.521,145.941c0,80.474,65.468,145.941,145.941,145.941
		c80.476,0,145.944-65.468,145.944-145.941S492.939,0,412.463,0C331.989,0,266.521,65.468,266.521,145.941z"/>
	<path id="XMLID_237_" fill="#EE9A07" d="M179.887,664.004h267.462v68.61c0,19.267,15.62,34.886,34.886,34.886h105.434
		c9.25,0,18.127-3.675,24.669-10.219l289.943-289.943c13.624-13.622,13.624-35.71,0-49.336L796.848,312.568
		c-6.542-6.542-15.415-10.219-24.667-10.219c-9.252,0-18.127,3.675-24.669,10.219l-136.878,136.88
		c-50.308-55.588-121.788-87.793-198.171-87.793c-147.479,0-267.462,119.984-267.462,267.462
		C145.001,648.384,160.62,664.004,179.887,664.004z"/>
</g>
</svg>
