<?xml version="1.0" encoding="utf-8"?>
<!-- Generator: Adobe Illustrator 16.0.0, SVG Export Plug-In . SVG Version: 6.00 Build 0)  -->
<!DOCTYPE svg PUBLIC "-//W3C//DTD SVG 1.1//EN" "http://www.w3.org/Graphics/SVG/1.1/DTD/svg11.dtd">
<svg version="1.1" id="zz_1_" xmlns="http://www.w3.org/2000/svg" xmlns:xlink="http://www.w3.org/1999/xlink" x="0px" y="0px"
	 width="640px" height="420px" viewBox="192 174 640 420" enable-background="new 192 174 640 420" xml:space="preserve">
<g display="none">
	<path display="inline" fill="#EE9A07" d="M373.119,256.595c4.387,3.724,2.688,11.799-2.793,13.521
		c-14.453,4.701-28.882,9.425-43.349,14.138c11.451,10.348,23.029,20.521,34.456,30.854c4.145,3.979,2.188,11.915-3.305,13.496
		c-17.478,5.606-34.863,11.496-52.376,16.922c-4.201,18.061-7.689,36.28-11.739,54.39c-0.907,2.63-3.165,4.701-5.818,5.469
		c-37.655,12.195-75.259,24.416-112.88,36.574c-3.689,1.198-7.482-0.594-9.949-3.314c-28.807-25.947-57.625-51.925-86.448-77.851
		c-2.237-1.932-3.483-4.979-2.792-7.913c3.771-17.938,7.65-35.829,11.388-53.784c-13.728-12.265-27.395-24.588-41.091-36.863
		c-3.733-3.107-3.136-9.612,0.751-12.358c1.433-1.001,3.179-1.385,4.817-1.909c13.69-4.396,27.381-8.797,41.076-13.219
		c-11.426-10.354-22.941-20.62-34.355-30.988c-2.759-2.407-3.096-6.842-1.232-9.879c1.15-1.804,3.02-3.095,5.08-3.677
		c37.673-12.3,75.346-24.576,112.996-36.859c2.82-1.022,5.979,0.07,8.104,2.031c13.521,12.16,26.996,24.378,40.535,36.48
		c17.501-5.609,34.991-11.241,52.458-16.873c2.467-0.814,5.397-0.116,7.284,1.664C313.656,203.3,343.399,229.925,373.119,256.595z"
		/>
	<path display="inline" fill="#EE9A07" d="M276.885,191.896c-12.938,4.062-25.833,8.354-38.736,12.475
		c24.867,22.458,49.77,44.882,74.672,67.329c12.975-4.236,25.947-8.425,38.89-12.684
		C326.782,236.627,301.761,214.344,276.885,191.896z"/>
	<path display="inline" fill="#EE9A07" d="M175.553,170.357c-31.785,10.298-63.57,20.606-95.346,30.939
		c10.158,9.146,20.357,18.281,30.505,27.416c31.837-10.229,63.605-20.644,95.433-30.918
		C195.969,188.661,185.764,179.515,175.553,170.357z"/>
	<path display="inline" fill="#EE9A07" d="M224.194,213.727c-6.947,32.628-13.871,65.245-20.813,97.887
		c31.683-10.322,63.367-20.691,95.054-30.955C273.696,258.365,248.969,236.022,224.194,213.727z"/>
	<path display="inline" fill="#EE9A07" d="M120.303,242.795c24.978,22.482,49.896,45.012,74.896,67.471
		c7.174-32.862,14.033-65.782,21.039-98.701C184.269,221.989,152.268,232.345,120.303,242.795z"/>
	<path display="inline" fill="#EE9A07" d="M305.522,287.013c-31.805,10.285-63.617,20.629-95.434,30.931
		c11.357,10.19,22.691,20.442,34.025,30.627c17.233-5.573,34.525-11.008,51.725-16.71c14.58-4.864,29.23-9.495,43.857-14.173
		C328.304,307.448,316.856,297.3,305.522,287.013z"/>
	<path display="inline" fill="#EE9A07" d="M111.419,245.855c-14.48,4.573-28.928,9.228-43.41,13.857
		c24.774,22.482,49.632,44.896,74.476,67.283c14.476-4.688,28.987-9.312,43.474-13.987
		C161.089,290.62,136.251,268.232,111.419,245.855z"/>
	<path display="inline" fill="#EE9A07" d="M198.995,329.906c-6.639,31.256-13.301,62.559-19.938,93.813
		c33.421-10.819,66.827-21.716,100.249-32.583c2.814-13.256,5.633-26.463,8.425-39.683c-14.011,4.599-28.113,9.135-42.159,13.755
		c-2.117,0.756-4.538,0.907-6.633-0.035c-1.826-0.775-3.211-2.269-4.68-3.57C222.507,351.038,210.765,340.438,198.995,329.906z"/>
	<path display="inline" fill="#EE9A07" d="M143.623,343.813c-2.921,0.979-6.313,0.324-8.588-1.778
		c-11.171-10.124-22.354-20.248-33.542-30.36c-2.852,13.313-5.662,26.613-8.506,39.902c26.036,23.424,52.026,46.965,78.057,70.391
		c6.56-31.06,13.19-62.115,19.777-93.129C175.1,333.793,159.367,338.844,143.623,343.813z"/>
</g>
<g>
	<path fill="#3E0D30" d="M520.687,186.765c7.857,0,14.263,6.388,14.263,14.239v10.159l1.764,0.27
		c12.246,1.866,23.995,5.921,33.079,11.41c3.242,1.96,5.606,5.194,6.483,8.876c0.878,3.684,0.229,7.63-1.777,10.84l-0.729,1.156
		c-2.626,4.199-7.139,6.697-12.096,6.697c-2.57,0-5.105-0.705-7.329-2.032c-4.514-2.703-10.349-4.877-16.882-6.309l-2.513-0.544
		v46.139l1.447,0.467c22.164,7.068,47.589,19.577,47.335,53.828c0,25.195-17.605,43.595-47.098,49.191l-1.683,0.324v13.748
		c0,7.843-6.404,14.24-14.263,14.24h-1.62c-7.867,0-14.263-6.397-14.263-14.24v-13.439l-1.723-0.291
		c-17.766-3.06-34.923-11.555-47.065-23.294c-2.729-2.642-4.317-6.325-4.341-10.112c-0.024-3.786,1.494-7.502,4.182-10.181
		l1.092-1.083c2.689-2.681,6.271-4.169,10.082-4.169s7.384,1.471,10.08,4.161c6.223,6.206,15.133,11.092,25.078,13.772l2.616,0.703
		v-51.36l-1.409-0.473c-29.456-9.971-43.776-26.834-43.776-51.558c0-23.084,16.27-40.156,43.516-45.644l1.666-0.332v-10.919
		c0-7.851,6.397-14.239,14.264-14.239H520.687 M504.804,277.63v-34.912l-2.791,1.027c-8.136,2.996-12.253,7.756-12.253,14.161
		c0,8.419,3.36,13.503,11.995,18.104L504.804,277.63 M534.936,360.733l2.719-0.894c10.563-3.462,15.924-9.543,15.924-18.064
		c0.094-10.231-4.168-15.9-15.732-20.959l-2.902-1.274h-0.008v0.001V360.733 M447.85,246.843c-1.034,4.151-1.58,8.512-1.58,13.054
		c0,12.873,3.366,24.048,10.051,33.48c-22.604,7.346-41.207,12.687-63.837,19.957c-13.385-12.049-26.84-24.1-40.242-36.166
		C385.438,266.373,414.645,257.607,447.85,246.843 M611.692,264.764c32.82,29.613,65.825,59.008,98.706,88.543
		c-17.069,5.621-34.187,11.145-51.302,16.733c-32.853-29.611-65.7-59.193-98.509-88.819
		C577.613,275.787,594.625,270.123,611.692,264.764 M393.414,335.944c32.757,29.518,66.017,60.039,98.822,89.573
		c-19.11,6.177-38.254,12.269-57.35,18.456c-32.773-29.534-66.056-60.09-98.738-89.748
		C355.254,348.118,374.309,341.979,393.414,335.944 M649.472,390.24c14.952,13.571,30.057,26.959,45.085,40.466
		c-19.297,6.17-38.623,12.281-57.856,18.697c-22.688,7.52-45.993,14.691-68.727,22.043c-14.953-13.432-29.903-26.957-44.886-40.4
		C565.058,417.458,607.521,403.812,649.472,390.24 M381.552,415.385c14.759,13.338,29.512,26.695,44.249,40.052
		c2.084,1.93,4.882,2.934,7.688,2.934c1.231,0,2.465-0.193,3.641-0.587c20.769-6.555,41.524-13.216,62.262-19.759
		c-8.688,40.913-17.438,81.883-26.09,122.854c-34.339-30.899-68.624-61.956-102.97-92.856
		C374.084,450.492,377.79,432.947,381.552,415.385 M510.173,439.438c15.527,13.892,31.016,27.876,46.519,41.817
		c1.936,1.717,3.764,3.684,6.173,4.712c1.335,0.601,2.77,0.864,4.211,0.864c1.544,0,3.095-0.303,4.538-0.819
		c18.529-6.094,37.136-12.078,55.617-18.143c-3.683,17.439-7.398,34.859-11.114,52.343c-44.087,14.34-88.158,28.708-132.248,42.984
		C492.627,521.964,501.417,480.67,510.173,439.438 M520.687,171.765h-1.621c-15.886,0-28.856,12.712-29.254,28.49
		c-18.413,5.983-32.072,17.193-39.319,31.823c-0.87-0.156-1.755-0.235-2.644-0.235c-1.548,0-3.107,0.24-4.624,0.731
		c-16.157,5.238-31.638,10.086-46.609,14.775c-15.713,4.921-31.962,10.01-49.012,15.555c-5.096,1.657-8.92,5.907-10.034,11.148
		c-1.113,5.242,0.654,10.679,4.636,14.264c6.848,6.166,13.71,12.328,20.57,18.487c6.345,5.697,12.688,11.393,19.015,17.087
		c-11.403,3.618-22.86,7.289-34.005,10.86c-5.399,1.73-10.8,3.46-16.205,5.188c-5.106,1.632-8.954,5.867-10.091,11.106
		s0.608,10.687,4.579,14.29c12.608,11.441,25.537,23.228,38.041,34.626c2.035,1.855,4.076,3.715,6.124,5.582
		c-1.638,1.883-2.808,4.177-3.349,6.701c-1.926,8.995-3.838,17.985-5.75,26.972c-1.821,8.56-3.64,17.115-5.471,25.668
		c-1.124,5.25,0.644,10.7,4.635,14.291c17.398,15.652,35.076,31.612,52.172,47.046c16.644,15.025,33.854,30.563,50.797,45.81
		c2.795,2.515,6.383,3.85,10.035,3.85c0.761,0,1.524-0.058,2.284-0.175c2.469,1.636,5.356,2.493,8.283,2.493
		c1.547,0,3.104-0.239,4.62-0.729c32.868-10.643,66.272-21.515,98.577-32.028c11.229-3.654,22.459-7.31,33.689-10.962
		c5.095-1.657,8.919-5.906,10.032-11.146l2.957-13.903c2.729-12.831,5.455-25.64,8.162-38.459c0.526-2.492,0.401-5.029-0.304-7.389
		c15.861-5.289,32.063-10.461,47.734-15.462c3.263-1.041,6.524-2.082,9.786-3.125c5.118-1.637,8.971-5.886,10.098-11.141
		c1.128-5.255-0.643-10.711-4.639-14.303c-5.56-4.996-11.129-9.976-16.697-14.955c-7.566-6.766-15.341-13.717-23.026-20.657
		c5.866-1.914,11.732-3.821,17.597-5.728c10.698-3.479,21.762-7.075,32.633-10.655c5.083-1.674,8.89-5.929,9.988-11.167
		c1.1-5.238-0.675-10.664-4.656-14.24c-13.007-11.684-26.247-23.536-39.051-34.999c-19.569-17.519-39.806-35.634-59.63-53.522
		c-2.796-2.522-6.39-3.864-10.051-3.864c-1.503,0-3.017,0.226-4.491,0.689c-9.228,2.897-18.549,5.918-27.613,8.863
		c2.68-2.078,5.016-4.643,6.885-7.624l0.714-1.131c0.011-0.017,0.021-0.034,0.032-0.051c4.121-6.592,5.452-14.709,3.65-22.27
		c-1.802-7.562-6.654-14.208-13.315-18.235c-7.947-4.802-17.516-8.656-27.686-11.209
		C548.733,183.701,536.078,171.765,520.687,171.765L520.687,171.765z M549.949,270.646v-7.694c3.435,1.502,7.12,2.335,10.863,2.446
		c-1.6,0.514-3.196,1.026-4.785,1.533C553.691,267.676,551.619,268.965,549.949,270.646L549.949,270.646z M404.096,325.379
		c7.96-2.514,15.544-4.84,22.934-7.107c10.745-3.296,21.856-6.706,33.928-10.628c1.592-0.518,3.064-1.29,4.369-2.27
		c6.601,5.908,14.703,10.864,24.478,14.974v17.735c-0.75-0.612-1.452-1.244-2.102-1.891c-5.516-5.505-12.859-8.54-20.671-8.54
		c-7.802,0-15.144,3.035-20.672,8.546l-1.065,1.057c-4.783,4.767-7.772,11.104-8.464,17.766
		C425.94,345.128,414.934,335.147,404.096,325.379L404.096,325.379z M598.731,342.015c0.015-2.167-0.055-4.289-0.206-6.371
		c9.195,8.29,18.344,16.534,27.378,24.675l17.784,16.027c-19.425,6.284-38.959,12.583-58.499,18.885
		c-11.609,3.744-23.428,7.555-35.27,11.378c0.021-0.459,0.032-0.921,0.032-1.386V403.3
		C580.283,394.002,598.709,371.25,598.731,342.015L598.731,342.015z"/>
</g>
</svg>
