<?xml version="1.0" encoding="utf-8"?>
<!-- Generator: Adobe Illustrator 16.0.0, SVG Export Plug-In . SVG Version: 6.00 Build 0)  -->
<!DOCTYPE svg PUBLIC "-//W3C//DTD SVG 1.1//EN" "http://www.w3.org/Graphics/SVG/1.1/DTD/svg11.dtd">
<svg version="1.1" id="形状_7_1_" xmlns="http://www.w3.org/2000/svg" xmlns:xlink="http://www.w3.org/1999/xlink" x="0px"
	 y="0px" width="640px" height="420px" viewBox="192 174 640 420" enable-background="new 192 174 640 420" xml:space="preserve">
<g id="XMLID_235_">
	<g id="XMLID_236_">
		<path stroke="#3E0D30" stroke-width="15" stroke-miterlimit="10" d="M463.63,232.593c33.479,0,60.714,27.236,60.714,60.713
			c0,33.478-27.235,60.713-60.714,60.713c-33.478,0-60.713-27.235-60.713-60.713C402.916,259.829,430.151,232.593,463.63,232.593
			 M463.63,225.493c-37.393,0-67.814,30.421-67.814,67.813c0,37.393,30.421,67.813,67.813,67.813
			c37.393,0,67.815-30.42,67.815-67.813S501.022,225.493,463.63,225.493L463.63,225.493z"/>
	</g>
	<g id="XMLID_237_">
		<path stroke="#3E0D30" stroke-width="15" stroke-miterlimit="10" d="M613.275,358.373c3.85,0,7.541,1.53,10.262,4.252
			l43.862,43.86c5.666,5.67,5.666,14.857,0,20.523l-120.62,120.621c-2.722,2.723-6.414,4.252-10.263,4.252h-43.861
			c-8.016,0-14.515-6.498-14.515-14.514v-28.543H366.875c-8.015,0-14.512-6.498-14.512-14.512
			c0-61.354,49.914-111.267,111.267-111.267c31.775,0,61.512,13.398,82.44,36.523l56.943-56.943
			C605.734,359.902,609.426,358.373,613.275,358.373 M613.275,351.271c-5.773,0-11.202,2.249-15.284,6.333l-51.827,51.828
			c-9.999-9.758-21.528-17.576-34.36-23.285c-15.213-6.77-31.421-10.203-48.175-10.203c-65.268,0-118.368,53.101-118.368,118.369
			c0,11.918,9.696,21.613,21.614,21.613h104.166v21.441c0,11.918,9.696,21.613,21.615,21.613h43.861
			c5.774,0,11.202-2.248,15.284-6.332L672.42,432.031c8.426-8.426,8.427-22.137,0-30.564l-43.861-43.862
			C624.475,353.521,619.048,351.271,613.275,351.271L613.275,351.271z"/>
	</g>
</g>
</svg>
