<?xml version="1.0" encoding="utf-8"?>
<!-- Generator: Adobe Illustrator 16.0.0, SVG Export Plug-In . SVG Version: 6.00 Build 0)  -->
<!DOCTYPE svg PUBLIC "-//W3C//DTD SVG 1.1//EN" "http://www.w3.org/Graphics/SVG/1.1/DTD/svg11.dtd">
<svg version="1.1" id="形状_7_1_" xmlns="http://www.w3.org/2000/svg" xmlns:xlink="http://www.w3.org/1999/xlink" x="0px"
	 y="0px" width="640px" height="420px" viewBox="192 174 640 420" enable-background="new 192 174 640 420" xml:space="preserve">
<g>
	<g>
		<g>
			<path fill="#3E0D30" d="M677.118,286.119l93.646,93.646l-93.646,93.647V410.98h-166.33v-62.432h166.33V286.119 M677.115,271.118
				c-1.933,0-3.882,0.374-5.737,1.142c-5.605,2.322-9.26,7.792-9.26,13.858v47.43h-151.33c-8.284,0-15,6.716-15,15v62.432
				c0,8.284,6.716,15,15,15h151.33v47.431c0,6.067,3.654,11.536,9.26,13.858c1.855,0.769,3.805,1.142,5.737,1.142
				c3.903,0,7.74-1.523,10.609-4.394l93.646-93.646c5.858-5.858,5.858-15.355,0-21.213l-93.646-93.646
				C684.855,272.643,681.019,271.118,677.115,271.118L677.115,271.118z"/>
		</g>
	</g>
</g>
<g>
	<g>
		<g>
			<path fill="#3E0D30" d="M604.281,208.08v62.43H354.559v218.508h249.723v62.431H292.127V208.08H604.281 M604.281,193.08H292.127
				c-8.284,0-15,6.716-15,15v343.369c0,8.284,6.716,15,15,15h312.154c8.284,0,15-6.716,15-15v-62.431c0-8.284-6.716-15-15-15
				H369.559V285.51h234.723c8.284,0,15-6.716,15-15v-62.43C619.281,199.796,612.565,193.08,604.281,193.08L604.281,193.08z"/>
		</g>
	</g>
</g>
</svg>
