<?xml version="1.0" encoding="utf-8"?>
<!-- Generator: Adobe Illustrator 16.0.0, SVG Export Plug-In . SVG Version: 6.00 Build 0)  -->
<!DOCTYPE svg PUBLIC "-//W3C//DTD SVG 1.1//EN" "http://www.w3.org/Graphics/SVG/1.1/DTD/svg11.dtd">
<svg version="1.1" id="形状_7_1_" xmlns="http://www.w3.org/2000/svg" xmlns:xlink="http://www.w3.org/1999/xlink" x="0px"
	 y="0px" width="640px" height="420px" viewBox="192 174 640 420" enable-background="new 192 174 640 420" xml:space="preserve">
<g>
	<path fill="none" stroke="#3E0D30" stroke-width="10" stroke-linecap="round" stroke-linejoin="round" stroke-miterlimit="10" d="
		M420.849,315.45h184.269c3.341,0,6.059,2.717,6.059,5.057v78.423c0,3.061-1.026,4.877-2.591,5.973l-53.199,42.338
		c-2.356,1.869-5.685,1.701-7.842-0.268l-5.701-4.508c-0.111-0.092-0.223-0.182-0.318-0.279l-0.017,0.02l-0.046-0.051h-0.008
		c-4.608-3.77-9.417-6.604-14.297-8.516c-4.934-1.924-9.945-2.936-14.91-3.02c-5.013-0.088-9.984,0.738-14.802,2.461
		c-4.81,1.729-9.507,4.383-13.984,7.949c-0.067,0.053-0.134,0.102-0.2,0.146l-2.664,2.045c-2.161,1.648-5.075,1.621-7.178,0.121
		l-55.981-38.455c-1.712-1.168-2.637-3.063-2.639-4.992h-0.011v-78.388C414.789,318.167,417.501,315.45,420.849,315.45
		L420.849,315.45z M438.48,340.437v7.503h148.459v-7.503H438.48L438.48,340.437z M438.48,361.596v7.508h148.459v-7.508H438.48z"/>
	<g>
		<path fill="#3E0D30" d="M512.044,219.016c13.67,0,26.032,5.77,36.692,14.096l137.136,96.601c0.743,0.518,0.35,0.206,0.938,0.745
			c11.633,9.738,18.28,26.003,18.28,41.04v137.674c0,14.73-5.861,28.732-16.271,39.145c-10.412,10.406-24.41,16.266-39.14,16.266
			H374.32c-14.73,0-28.733-5.859-39.139-16.266c-10.412-10.412-16.271-24.414-16.271-39.145V371.498
			c0-14.137,5.461-28.825,15.942-38.52l0.202-0.194l139.984-99.358c10.35-8.225,22.276-14.026,35.679-14.391
			C511.16,219.022,511.604,219.016,512.044,219.016 M484.511,252.443l-0.218-0.274c-1.236,0.877-2.464,1.778-3.646,2.606
			c-5.129,3.61-10.247,7.24-15.362,10.858c-14.987,10.621-29.96,21.273-44.927,31.922c-20.525,14.601-41.021,29.245-61.552,43.836
			l114.458,78.625c12.394-8.838,25.847-13.598,39.258-13.598c13.206,0,26.368,4.613,38.449,14.494
			c1.396,1.143,2.813,2.262,4.234,3.379l107.454-85.518l-125.923-88.717c-9.256-6.307-17.441-9.887-25.626-9.887
			c-7.484-0.001-14.971,2.992-23.283,9.629L484.511,252.443 M681.034,523.762c2.134-4.551,3.255-9.506,3.255-14.59V371.498
			c0-6.754-1.973-13.313-5.644-18.904L571.94,437.518L681.034,523.762 M341.713,520.746l114.165-87.477l-112.489-77.272
			c-2.416,4.783-3.681,10.099-3.681,15.5v137.674C339.707,513.143,340.389,517.045,341.713,520.746 M374.321,543.779H649.68
			c6.14,0,12.086-1.625,17.309-4.68l-117.714-93.055c-3.779-2.592-7.173-5.66-10.754-8.504
			c-9.797-6.455-19.252-10.627-28.769-10.627c-7.606,0-15.252,2.668-23.144,8.967l-6.537,5.014
			c-41.045,33.313-83.822,64.348-125.826,96.42C360.069,541.492,367.049,543.779,374.321,543.779 M512.046,211.634h-0.002
			c-0.509,0-1.022,0.007-1.527,0.021c-13.651,0.374-27.08,5.711-39.911,15.865L330.78,326.764c-0.301,0.215-0.587,0.451-0.854,0.708
			l-0.147,0.142c-11.43,10.608-18.251,27.006-18.251,43.883v137.674c0,16.723,6.546,32.479,18.433,44.365
			c11.884,11.885,27.638,18.428,44.359,18.428h275.361c16.716,0,32.469-6.543,44.358-18.426
			c11.887-11.889,18.433-27.645,18.433-44.365V371.498c0-8.543-1.864-17.346-5.391-25.452c-3.661-8.419-8.979-15.719-15.385-21.125
			c-0.036-0.033-0.063-0.058-0.083-0.078c-0.417-0.397-0.739-0.655-1.229-0.987c-0.059-0.039-0.144-0.097-0.28-0.191
			l-136.969-96.483C539.875,216.864,526.053,211.634,512.046,211.634L512.046,211.634z M486.782,259.467
			c0.838-0.271,1.628-0.692,2.328-1.251l3.319-2.644c6.854-5.475,12.789-8.021,18.682-8.02c6.103,0,12.712,2.645,21.422,8.573
			l117.818,83.008l-95.139,75.715c-6.427-5.186-13.315-9.158-20.48-11.811c-7.172-2.654-14.645-4.002-22.21-4.002
			c-13.214,0-26.673,4.154-39.208,12.059l-101.623-69.808c8.579-6.105,17.179-12.235,25.564-18.212
			c9.125-6.504,18.25-13.008,27.379-19.504l0.292-0.207c14.621-10.403,29.741-21.159,44.624-31.707l4.074-2.883
			c3.693-2.614,7.511-5.317,11.269-7.962C485.517,260.376,486.157,259.917,486.782,259.467L486.782,259.467z M583.819,437.5
			l92.093-73.296c0.656,2.356,0.994,4.807,0.994,7.294v137.674c0,0.625-0.021,1.248-0.063,1.867L583.819,437.5L583.819,437.5z
			 M347.089,507.328V371.498c0-1.277,0.091-2.553,0.271-3.815l95.955,65.914L347.089,507.328L347.089,507.328z M484.645,446.689
			l6.456-4.951c0.039-0.029,0.076-0.059,0.113-0.09c6.198-4.947,12.263-7.354,18.538-7.354c7.045,0,14.815,2.936,24.433,9.229
			c1.007,0.807,2.003,1.631,3.052,2.5c2.409,1.996,4.898,4.057,7.651,5.961l106.694,84.346c-0.633,0.045-1.267,0.066-1.902,0.066
			H374.321c-1.985,0-3.942-0.213-5.845-0.633c9.911-7.518,19.89-15.016,29.62-22.33
			C426.715,491.926,456.306,469.688,484.645,446.689L484.645,446.689z"/>
	</g>
</g>
</svg>
