<?xml version="1.0" encoding="utf-8"?>
<!-- Generator: Adobe Illustrator 17.0.0, SVG Export Plug-In . SVG Version: 6.00 Build 0)  -->
<!DOCTYPE svg PUBLIC "-//W3C//DTD SVG 1.1//EN" "http://www.w3.org/Graphics/SVG/1.1/DTD/svg11.dtd">
<svg version="1.1" id="logo_1_" xmlns="http://www.w3.org/2000/svg" xmlns:xlink="http://www.w3.org/1999/xlink" x="0px" y="0px"
	 width="96px" height="96px" viewBox="0 0 96 96" enable-background="new 0 0 96 96" xml:space="preserve">
<path fill-rule="evenodd" clip-rule="evenodd" fill="#FFFFFF" d="M48.189,0c23.875,0,43.786,17.516,47.546,40.355l-15.724-0.56
	l-11.32-31.03l-11.32,31.03l-33.009,1.176l26.013,20.354l-9.081,31.758l27.396-18.451l12.622,8.501
	c-8.646,8.202-20.315,13.245-33.124,13.245C21.647,96.377,0,74.73,0,48.189C0,21.647,21.647,0,48.189,0L48.189,0z M95.99,54.295
	c-0.811,6.367-2.875,12.353-5.933,17.702l-3.052-10.672L95.99,54.295L95.99,54.295z"/>
</svg>
