<?xml version="1.0" encoding="utf-8"?>
<!-- Generator: Adobe Illustrator 16.0.0, SVG Export Plug-In . SVG Version: 6.00 Build 0)  -->
<!DOCTYPE svg PUBLIC "-//W3C//DTD SVG 1.1//EN" "http://www.w3.org/Graphics/SVG/1.1/DTD/svg11.dtd">
<svg version="1.1" id="形状_1_1_" xmlns="http://www.w3.org/2000/svg" xmlns:xlink="http://www.w3.org/1999/xlink" x="0px"
	 y="0px" width="80px" height="80px" viewBox="0 0 80 80" enable-background="new 0 0 80 80" xml:space="preserve">
<g id="形状_1">
	<g>
		<path fill="#FFFFFF" d="M44.84,53.704c-0.466,0-0.842,0.306-0.842,0.684c0,1.79-1.793,3.246-3.996,3.246
			c-2.205,0-3.998-1.456-3.998-3.246c0-0.378-0.377-0.684-0.842-0.684c-0.464,0-0.841,0.306-0.841,0.684
			c0,2.543,2.548,4.612,5.681,4.612c3.132,0,5.68-2.069,5.68-4.612C45.682,54.011,45.305,53.704,44.84,53.704z M54.09,45.219
			C52.201,44.296,51.4,42.766,51.4,41v-8c0-3.616-2.866-6.441-6.521-7.94c0-0.03,0.009-0.059,0.009-0.09
			c0-2.189-2.193-3.97-4.889-3.97c-2.696,0-5.065,1.811-5.065,4c0,0.027,0.184,0.022,0.185,0.049C31.445,26.536,28.6,29.563,28.6,33
			v8c0,0.378,0.802,1,1.267,1H40c0.465,0,1.267-0.622,1.267-1S40.465,40,40,40h-8.867v-7c0-3.534,2.089-6.24,6.333-7
			c0.454-0.081,1.253-0.785,1.153-1.153c-0.101-0.368-0.549-0.602-1.003-0.521c-0.26,0.047-0.514,0.105-0.766,0.166
			C37.13,23.284,38.433,23,40,23c1.569,0,2.873,0.289,3.146,1.5c-0.835-0.204-1.707-0.339-2.614-0.374
			c-0.444-0.015-0.857,0.273-0.88,0.65c-0.022,0.377,0.337,0.696,0.801,0.715c4.986,0.19,8.414,3.318,8.414,7.509v8
			c0,2.242,1.403,4.839,3.799,6c2.296,1.112,3.801,4,3.801,4H23.533c0.259-2.148,1.479-2.866,3.8-4c1.024-0.5,1.878-1.193,2.533-2
			c0.256-0.315,0.388-1.792,0-2c-0.387-0.207-2.278,0.686-2.533,1c-0.518,0.638-0.457,0.604-1.267,1
			C22.992,46.502,21,49.353,21,52.261c0,0.378,0.377,0.684,0.842,0.684h36.314c0.466,0,0.842-0.306,0.842-0.684
			C59,49.353,57.164,46.721,54.09,45.219z"/>
	</g>
</g>
</svg>
