<?xml version="1.0" encoding="utf-8"?>
<!-- Generator: Adobe Illustrator 16.0.0, SVG Export Plug-In . SVG Version: 6.00 Build 0)  -->
<!DOCTYPE svg PUBLIC "-//W3C//DTD SVG 1.1//EN" "http://www.w3.org/Graphics/SVG/1.1/DTD/svg11.dtd">
<svg version="1.1" id="icon_拷贝_1_" xmlns="http://www.w3.org/2000/svg" xmlns:xlink="http://www.w3.org/1999/xlink" x="0px"
	 y="0px" width="80px" height="80px" viewBox="0 0 80 80" enable-background="new 0 0 80 80" xml:space="preserve">
<g id="icon_拷贝">
	<g>
		<path fill="#ffcf87" d="M50.873,40.737c-0.512,0-0.738,0.231-0.738,0.736s0.227,0.737,0.738,0.737s0.739-0.232,0.739-0.737
			S51.385,40.737,50.873,40.737z M59,41.858c0-1.833-1.374-4.26-3-4.858l0.045-5.105c0-0.963-0.458-1.474-1.478-1.474h-2.955v-2.947
			c0-1.239-0.604-1.474-1.577-1.474H24.277C21,26,21,29,21,29v22c0,1.697,1.514,3,3.277,3h30.167c0.977,0,1.601-0.468,1.601-1.474
			L56,46C57.583,45.406,59,43.692,59,41.858z M24,28h26v2H24c0,0-1.201,0.39-1.201-1.053C22.799,27.467,24,28,24,28z M54,52H24
			c-0.792,0-1-0.219-1-1V32h31v5h-4c-2.37,0-4,1.662-4,4c0,0-0.17,5,4,5h4V52z M54,44c-1.039,0-4,0-4,0
			c-1.373,0-2.113-1.152-2.113-2.531C47.887,39.983,48.606,39,50,39c0,0,4.123,0,5,0c1.385,0,2,1.493,2,3C57,43.441,55.455,44,54,44
			z"/>
	</g>
</g>
</svg>
