<?xml version="1.0" standalone="no"?>
<!DOCTYPE svg PUBLIC "-//W3C//DTD SVG 1.1//EN" "http://www.w3.org/Graphics/SVG/1.1/DTD/svg11.dtd" >
<svg xmlns="http://www.w3.org/2000/svg" xmlns:xlink="http://www.w3.org/1999/xlink" version="1.1">
<metadata>
Created by FontForge 20190801 at Fri Dec 20 13:32:58 2019
 By www-data
Copyright (c) 2019 by Mike Abbink, Paul van der Laan, Pieter van Rosmalen, Mint Tantisuwanna. All rights reserved.
</metadata>
<defs>
<font id="AnuphanRegular" horiz-adv-x="0" >
  <font-face 
    font-family="AnuphanRegular"
    font-weight="400"
    font-stretch="normal"
    units-per-em="1000"
    panose-1="2 11 5 3 5 2 3 0 2 3"
    ascent="780"
    descent="-220"
    x-height="516"
    cap-height="698"
    bbox="-553 -267 1241 1119"
    underline-thickness="60"
    underline-position="-125"
    unicode-range="U+0020-FB02"
  />
<missing-glyph horiz-adv-x="472" 
d="M32 0v780h408v-780h-408zM92 60h288v660h-288v-660z" />
    <glyph glyph-name="fi" unicode="fi" horiz-adv-x="567" 
d="M113 0v446h-84v70h84v104q0 55 29 87.5t84 32.5h78v-70h-111v-154h289v-516h-80v446h-209v-446h-80zM442 637q-49 0 -49 45v13q0 45 49 45t49 -45v-13q0 -45 -49 -45z" />
    <glyph glyph-name="fl" unicode="fl" horiz-adv-x="596" 
d="M113 0v446h-84v70h84v104q0 55 29 87.5t84 32.5h78v-70h-111v-154h111v-70h-111v-446h-80zM494 0q-40 0 -62.5 23t-22.5 60v657h80v-670h76v-70h-71z" />
    <glyph glyph-name="uni0E240E45" unicode="&#xe24;&#xe45;" horiz-adv-x="988" 
d="M699 582q96 0 151.5 -58.5t55.5 -157.5v-566h-82v561q0 71 -39.5 109.5t-110.5 38.5q-63 0 -107 -32t-44 -91v-586h-82v561q0 72 -39 110.5t-111 38.5q-136 0 -149 -122h133v-60q-61 -2 -89 -33t-28 -96v-129h100v-70h-63q-117 0 -117 135v36q0 69 29.5 107t74.5 48v4
h-118v49q0 97 60 150t167 53q167 0 216 -122h5q17 52 65.5 87t121.5 35z" />
    <glyph glyph-name="uni0E260E45" unicode="&#xe26;&#xe45;" horiz-adv-x="1005" 
d="M716 582q96 0 151.5 -58.5t55.5 -157.5v-566h-82v561q0 71 -39.5 109.5t-110.5 38.5q-63 0 -107 -32t-44 -91v-586h-82v561q0 71 -41 110t-115 39t-110 -29t-41 -93h141v-60q-100 -4 -100 -129v-76q0 -73 -22 -98t-85 -25h-43v70h70v107q0 65 30 102t74 47v4h-145v49
q0 97 61 150t170 53q174 0 222 -122h5q17 52 65.5 87t121.5 35z" />
    <glyph glyph-name=".notdef" horiz-adv-x="472" 
d="M32 0v780h408v-780h-408zM92 60h288v660h-288v-660z" />
    <glyph glyph-name=".null" 
 />
    <glyph glyph-name="nonmarkingreturn" horiz-adv-x="333" 
 />
    <glyph glyph-name="space" unicode=" " horiz-adv-x="236" 
 />
    <glyph glyph-name="exclam" unicode="!" horiz-adv-x="284" 
d="M122 185l-24 310v203h88v-203l-24 -310h-40zM142 -12q-61 0 -61 58v13q0 58 61 58t61 -58v-13q0 -58 -61 -58z" />
    <glyph glyph-name="quotedbl" unicode="&#x22;" horiz-adv-x="419" 
d="M85 460v280h72v-280h-72zM262 460v280h72v-280h-72z" />
    <glyph glyph-name="numbersign" unicode="#" horiz-adv-x="713" 
d="M152 0l36 205h-128v60h138l28 168h-127v60h138l35 205h64l-35 -205h154l35 205h64l-35 -205h128v-60h-139l-28 -168h128v-60h-138l-36 -205h-64l36 205h-154l-36 -205h-64zM262 265h154l28 168h-154z" />
    <glyph glyph-name="dollar" unicode="$" horiz-adv-x="598" 
d="M270 -82v82q-135 9 -218 119l59 53q67 -88 160 -101v257q-103 23 -150.5 68t-47.5 122q0 78 53.5 124.5t143.5 55.5v82h62v-81q129 -11 203 -113l-61 -46q-53 74 -143 87v-234q112 -25 160 -69.5t48 -123.5q0 -85 -55.5 -138t-151.5 -62v-82h-62zM271 406v221
q-55 -7 -87 -33.5t-32 -69.5q0 -49 28 -75t91 -43zM331 71q60 8 94.5 40.5t34.5 83.5q0 50 -29.5 77.5t-99.5 44.5v-246z" />
    <glyph glyph-name="percent" unicode="%" horiz-adv-x="927" 
d="M223 314q-76 0 -117 51t-41 147t41 147t117 51t117 -51t41 -147t-41 -147t-117 -51zM183 0l484 698h77l-484 -698h-77zM223 366q86 0 86 116v60q0 116 -86 116t-86 -116v-60q0 -116 86 -116zM704 -12q-76 0 -117 51t-41 147t41 147t117 51t117 -51t41 -147t-41 -147
t-117 -51zM704 40q86 0 86 116v60q0 116 -86 116t-86 -116v-60q0 -116 86 -116z" />
    <glyph glyph-name="ampersand" unicode="&#x26;" horiz-adv-x="694" 
d="M286 -12q-100 0 -157 55t-57 138q0 71 38.5 116t104.5 81q-79 82 -79 164q0 72 50.5 120t130.5 48q74 0 121 -41.5t47 -108.5q0 -63 -41 -106.5t-119 -86.5l157 -169q28 72 33 169h136v-68h-71q-13 -84 -48 -154l136 -145h-104l-75 82q-75 -94 -203 -94zM282 412
q126 68 126 134v12q0 39 -27.5 62t-67.5 23q-42 0 -70 -27t-28 -67v-12q0 -50 67 -125zM293 58q94 0 151 72l-187 202q-50 -27 -76 -57t-26 -83v-15q0 -55 37.5 -87t100.5 -32z" />
    <glyph glyph-name="quotesingle" unicode="'" horiz-adv-x="242" 
d="M85 460v280h72v-280h-72z" />
    <glyph glyph-name="parenleft" unicode="(" horiz-adv-x="335" 
d="M264 -137q-78 66 -129.5 187t-51.5 262q0 140 50.5 260t130.5 188h76q-82 -74 -132 -187t-50 -219v-86q0 -106 51 -220t131 -185h-76z" />
    <glyph glyph-name="parenright" unicode=")" horiz-adv-x="335" 
d="M-5 -137q80 71 131 185t51 220v86q0 106 -50 219t-132 187h76q80 -68 130.5 -188t50.5 -260q0 -141 -51.5 -262t-129.5 -187h-76z" />
    <glyph glyph-name="asterisk" unicode="*" horiz-adv-x="450" 
d="M143 388l-56 41l91 116l-142 39l22 67l138 -51l-6 147h70l-6 -147l138 51l22 -67l-142 -39l91 -116l-56 -41l-82 123z" />
    <glyph glyph-name="plus" unicode="+" horiz-adv-x="600" 
d="M262 62v209h-195v68h195v209h76v-209h195v-68h-195v-209h-76z" />
    <glyph glyph-name="comma" unicode="," horiz-adv-x="272" 
d="M39 -133q61 64 75 124q-39 9 -39 53v14q0 59 61 59t61 -59v-14q0 -42 -24.5 -91.5t-66.5 -85.5h-67z" />
    <glyph glyph-name="hyphen" unicode="-" horiz-adv-x="399" 
d="M69 261v86h261v-86h-261z" />
    <glyph glyph-name="period" unicode="." horiz-adv-x="272" 
d="M136 -12q-30 0 -45.5 15.5t-15.5 42.5v13q0 27 15.5 42.5t45.5 15.5t45.5 -15.5t15.5 -42.5v-13q0 -27 -15.5 -42.5t-45.5 -15.5z" />
    <glyph glyph-name="slash" unicode="/" horiz-adv-x="383" 
d="M9 -151l261 891h72l-261 -891h-72z" />
    <glyph glyph-name="zero" unicode="0" horiz-adv-x="600" 
d="M300 -12q-240 0 -240 361t240 361t240 -361t-240 -361zM300 61q78 0 115 62t37 169v114q0 107 -37 169t-115 62t-115 -62t-37 -169v-114q0 -107 37 -169t115 -62z" />
    <glyph glyph-name="one" unicode="1" horiz-adv-x="600" 
d="M88 0v74h195v562h-7l-176 -164l-49 53l185 173h131v-624h180v-74h-459z" />
    <glyph glyph-name="two" unicode="2" horiz-adv-x="600" 
d="M75 0v86l228 210q115 106 115 197v12q0 60 -33 95t-96 35q-111 0 -145 -118l-75 29q54 164 224 164q100 0 157 -56t57 -147q0 -75 -38.5 -135.5t-114.5 -128.5l-188 -169h367v-74h-458z" />
    <glyph glyph-name="three" unicode="3" horiz-adv-x="600" 
d="M268 -12q-141 0 -226 119l63 48q30 -46 66.5 -69t95.5 -23q73 0 111.5 33.5t38.5 95.5v8q0 62 -38.5 95.5t-111.5 33.5h-82v73h76q68 0 105 32t37 84v7q0 53 -34 81.5t-91 28.5q-96 0 -144 -87l-62 48q71 114 208 114q92 0 152 -47t60 -129q0 -64 -37.5 -106t-96.5 -57
v-4q62 -12 104.5 -57t42.5 -119q0 -90 -65.5 -146.5t-171.5 -56.5z" />
    <glyph glyph-name="four" unicode="4" horiz-adv-x="600" 
d="M375 0v137h-337v74l292 487h125v-491h101v-70h-101v-137h-80zM117 207h258v426h-5z" />
    <glyph glyph-name="five" unicode="5" horiz-adv-x="600" 
d="M295 -12q-79 0 -129.5 32.5t-88.5 86.5l63 48q31 -47 64 -69.5t91 -22.5q71 0 108.5 38t37.5 107v10q0 69 -37.5 107t-108.5 38q-44 0 -71.5 -15t-53.5 -44l-71 10l25 384h374v-74h-306l-20 -266h7q27 39 59.5 58t83.5 19q92 0 150 -58.5t58 -157.5q0 -104 -63 -167.5
t-172 -63.5z" />
    <glyph glyph-name="six" unicode="6" horiz-adv-x="600" 
d="M301 -12q-109 0 -171.5 71.5t-62.5 196.5q0 142 75.5 260t173.5 182h108q-119 -87 -181 -166.5t-89 -195.5l5 -2q58 100 168 100q91 0 148.5 -58.5t57.5 -156.5q0 -103 -63.5 -167t-168.5 -64zM300 61q69 0 107.5 38.5t38.5 108.5v8q0 70 -38.5 108.5t-107.5 38.5
t-107.5 -38.5t-38.5 -108.5v-8q0 -70 38.5 -108.5t107.5 -38.5z" />
    <glyph glyph-name="seven" unicode="7" horiz-adv-x="600" 
d="M175 0l267 626h-298v-130h-75v202h458v-74l-262 -624h-90z" />
    <glyph glyph-name="eight" unicode="8" horiz-adv-x="600" 
d="M300 -12q-116 0 -179 56t-63 146q0 134 141 173v8q-56 19 -88 62t-32 102q0 80 59 127.5t162 47.5t162 -47.5t59 -127.5q0 -59 -32 -102t-88 -62v-8q141 -39 141 -173q0 -90 -63 -146t-179 -56zM300 402q65 0 99.5 28.5t34.5 81.5v15q0 53 -34.5 81.5t-99.5 28.5
t-99.5 -28.5t-34.5 -81.5v-15q0 -53 34.5 -81.5t99.5 -28.5zM300 61q73 0 113 33t40 92v21q0 59 -40 92t-113 33t-113 -33t-40 -92v-21q0 -59 40 -92t113 -33z" />
    <glyph glyph-name="nine" unicode="9" horiz-adv-x="600" 
d="M176 0q119 87 181 166.5t89 195.5l-5 2q-58 -100 -168 -100q-91 0 -148.5 58.5t-57.5 156.5q0 103 63.5 167t168.5 64q109 0 171.5 -71.5t62.5 -196.5q0 -142 -75.5 -260t-173.5 -182h-108zM300 335q69 0 107.5 38.5t38.5 108.5v8q0 70 -38.5 108.5t-107.5 38.5
t-107.5 -38.5t-38.5 -108.5v-8q0 -70 38.5 -108.5t107.5 -38.5z" />
    <glyph glyph-name="colon" unicode=":" horiz-adv-x="292" 
d="M146 399q-30 0 -45.5 15.5t-15.5 42.5v13q0 27 15.5 42.5t45.5 15.5t45.5 -15.5t15.5 -42.5v-13q0 -27 -15.5 -42.5t-45.5 -15.5zM146 -12q-30 0 -45.5 15.5t-15.5 42.5v13q0 27 15.5 42.5t45.5 15.5t45.5 -15.5t15.5 -42.5v-13q0 -27 -15.5 -42.5t-45.5 -15.5z" />
    <glyph glyph-name="semicolon" unicode=";" horiz-adv-x="292" 
d="M146 399q-30 0 -45.5 15.5t-15.5 42.5v13q0 27 15.5 42.5t45.5 15.5t45.5 -15.5t15.5 -42.5v-13q0 -27 -15.5 -42.5t-45.5 -15.5zM49 -133q61 64 75 124q-39 9 -39 53v14q0 59 61 59t61 -59v-14q0 -42 -24.5 -91.5t-66.5 -85.5h-67z" />
    <glyph glyph-name="less" unicode="&#x3c;" horiz-adv-x="600" 
d="M510 -12l-420 249v80l420 249v-84l-345 -201v-8l345 -201v-84z" />
    <glyph glyph-name="equal" unicode="=" horiz-adv-x="600" 
d="M67 372v68h466v-68h-466zM67 172v68h466v-68h-466z" />
    <glyph glyph-name="greater" unicode="&#x3e;" horiz-adv-x="600" 
d="M90 -12v84l345 201v8l-345 201v84l420 -249v-80z" />
    <glyph glyph-name="question" unicode="?" horiz-adv-x="477" 
d="M179 208v164q82 4 128.5 40t46.5 99v14q0 51 -32.5 81.5t-85.5 30.5q-55 0 -90.5 -32t-48.5 -85l-74 28q21 71 74.5 116.5t141.5 45.5q92 0 146.5 -51.5t54.5 -137.5q0 -88 -54 -139t-130 -66v-108h-77zM218 -12q-61 0 -61 58v13q0 58 61 58t61 -58v-13q0 -58 -61 -58z
" />
    <glyph glyph-name="at" unicode="@" horiz-adv-x="891" 
d="M447 -121q-173 0 -277.5 112t-104.5 297q0 187 107.5 303.5t283.5 116.5q73 0 137.5 -22t117.5 -66.5t84 -120.5t31 -176q0 -113 -42.5 -183.5t-131.5 -70.5q-46 0 -71 23t-30 63h-4q-42 -86 -124 -86q-74 0 -124 57t-50 163t50 163t124 57q82 0 114 -77h4v68h69v-304
q0 -38 13 -52t42 -14q46 0 70.5 48t24.5 132v46q0 130 -87 211t-218 81q-142 0 -232.5 -93.5t-90.5 -233.5v-59q0 -142 87.5 -232t228.5 -90h231v-61h-232zM437 135q104 0 104 96v122q0 40 -26.5 65t-77.5 25q-52 0 -78 -30.5t-26 -83.5v-80q0 -53 26 -83.5t78 -30.5z" />
    <glyph glyph-name="A" unicode="A" horiz-adv-x="641" 
d="M23 0l244 698h107l244 -698h-88l-70 206h-282l-70 -206h-85zM198 280h241l-118 340h-5z" />
    <glyph glyph-name="B" unicode="B" horiz-adv-x="653" 
d="M93 0v698h287q86 0 136 -49t50 -131q0 -70 -34.5 -105.5t-78.5 -42.5v-6q48 -3 92.5 -43.5t44.5 -118.5q0 -86 -51.5 -144t-128.5 -58h-317zM177 396h193q50 0 78 25.5t28 71.5v34q0 46 -28 71.5t-78 25.5h-193v-228zM177 74h207q55 0 85.5 28t30.5 80v34q0 52 -30.5 80
t-85.5 28h-207v-250z" />
    <glyph glyph-name="C" unicode="C" horiz-adv-x="621" 
d="M339 -12q-133 0 -207 92t-74 265q0 174 74 269.5t207 95.5q171 0 240 -153l-68 -41q-22 56 -65.5 87.5t-106.5 31.5q-89 0 -140 -65t-51 -173v-104q0 -108 50.5 -169t140.5 -61q65 0 110.5 33.5t67.5 92.5l67 -42q-34 -75 -97 -117t-148 -42z" />
    <glyph glyph-name="D" unicode="D" horiz-adv-x="671" 
d="M93 0v698h234q134 0 210 -89t76 -260t-76 -260t-210 -89h-234zM177 74h150q88 0 142 58t54 160v114q0 102 -54 160t-142 58h-150v-550z" />
    <glyph glyph-name="E" unicode="E" horiz-adv-x="583" 
d="M93 0v698h426v-74h-342v-234h322v-74h-322v-242h342v-74h-426z" />
    <glyph glyph-name="F" unicode="F" horiz-adv-x="559" 
d="M93 0v698h416v-74h-332v-234h303v-74h-303v-316h-84z" />
    <glyph glyph-name="G" unicode="G" horiz-adv-x="695" 
d="M348 -12q-131 0 -210.5 94.5t-79.5 266.5q0 171 80.5 266t216.5 95q178 0 254 -153l-69 -42q-24 56 -72 88t-113 32q-93 0 -150 -63t-57 -166v-113q0 -104 58 -167t157 -63q77 0 127.5 39.5t50.5 113.5v69h-154v74h236v-359h-78v102h-3q-13 -50 -65 -82t-129 -32z" />
    <glyph glyph-name="H" unicode="H" horiz-adv-x="707" 
d="M93 0v698h84v-308h353v308h84v-698h-84v316h-353v-316h-84z" />
    <glyph glyph-name="I" unicode="I" horiz-adv-x="400" 
d="M60 0v70h98v558h-98v70h280v-70h-98v-558h98v-70h-280z" />
    <glyph glyph-name="J" unicode="J" horiz-adv-x="510" 
d="M222 -12q-79 0 -129 43t-65 116l76 18q22 -102 120 -102q55 0 84.5 33.5t29.5 99.5v428h-240v74h324v-517q0 -88 -55.5 -140.5t-144.5 -52.5z" />
    <glyph glyph-name="K" unicode="K" horiz-adv-x="634" 
d="M93 0v698h84v-371h3l100 121l211 250h103l-260 -299l278 -399h-104l-232 343l-99 -110v-233h-84z" />
    <glyph glyph-name="L" unicode="L" horiz-adv-x="501" 
d="M93 0v698h84v-624h297v-74h-381z" />
    <glyph glyph-name="M" unicode="M" horiz-adv-x="812" 
d="M93 0v698h112l200 -376h5l201 376h108v-698h-82v588h-5l-59 -117l-167 -304l-167 304l-59 117h-5v-588h-82z" />
    <glyph glyph-name="N" unicode="N" horiz-adv-x="707" 
d="M93 0v698h97l255 -426l84 -155h3v581h82v-698h-97l-255 426l-84 155h-3v-581h-82z" />
    <glyph glyph-name="O" unicode="O" horiz-adv-x="708" 
d="M354 -12q-137 0 -216.5 94t-79.5 267t79.5 267t216.5 94t216.5 -94t79.5 -267t-79.5 -267t-216.5 -94zM354 63q91 0 148.5 62.5t57.5 165.5v116q0 103 -57.5 165.5t-148.5 62.5t-148.5 -62.5t-57.5 -165.5v-116q0 -103 57.5 -165.5t148.5 -62.5z" />
    <glyph glyph-name="P" unicode="P" horiz-adv-x="606" 
d="M93 0v698h278q93 0 144 -53.5t51 -146.5t-51 -146.5t-144 -53.5h-194v-298h-84zM177 372h194q50 0 77.5 26t27.5 74v52q0 48 -27.5 74t-77.5 26h-194v-252z" />
    <glyph glyph-name="Q" unicode="Q" horiz-adv-x="708" 
d="M405 -164q-40 0 -62 23t-22 59v71q-123 11 -193 104.5t-70 255.5q0 173 79.5 267t216.5 94t216.5 -94t79.5 -267q0 -157 -66 -249.5t-183 -108.5v-85h107v-70h-103zM354 63q91 0 148.5 62.5t57.5 165.5v116q0 103 -57.5 165.5t-148.5 62.5t-148.5 -62.5t-57.5 -165.5
v-116q0 -103 57.5 -165.5t148.5 -62.5z" />
    <glyph glyph-name="R" unicode="R" horiz-adv-x="640" 
d="M93 0v698h278q92 0 143.5 -51.5t51.5 -146.5q0 -77 -36 -126.5t-104 -65.5l160 -308h-95l-151 300h-163v-300h-84zM177 372h194q50 0 77.5 26t27.5 74v52q0 48 -27.5 74t-77.5 26h-194v-252z" />
    <glyph glyph-name="S" unicode="S" horiz-adv-x="581" 
d="M289 -12q-157 0 -247 122l62 52q75 -100 188 -100q74 0 114 35.5t40 96.5q0 49 -30 76.5t-99 43.5l-57 13q-98 22 -147.5 68t-49.5 124q0 91 63 141t168 50q151 0 231 -114l-63 -46q-62 86 -172 86q-68 0 -106 -29.5t-38 -84.5q0 -48 31.5 -74t99.5 -42l57 -13
q102 -23 148.5 -70t46.5 -125q0 -97 -64 -153.5t-176 -56.5z" />
    <glyph glyph-name="T" unicode="T" horiz-adv-x="572" 
d="M244 0v624h-222v74h528v-74h-222v-624h-84z" />
    <glyph glyph-name="U" unicode="U" horiz-adv-x="678" 
d="M336 -12q-136 0 -192 71t-56 227v412h84v-432q0 -103 38.5 -153t128.5 -50t128.5 50t38.5 153v432h84v-412q0 -155 -58.5 -226.5t-195.5 -71.5z" />
    <glyph glyph-name="V" unicode="V" horiz-adv-x="609" 
d="M252 0l-232 698h90l115 -352l77 -262h5l79 262l116 352h87l-235 -698h-102z" />
    <glyph glyph-name="W" unicode="W" horiz-adv-x="891" 
d="M190 0l-170 698h89l75 -336l58 -261h2l65 261l88 336h96l85 -336l65 -260h3l60 260l79 336h86l-179 -698h-93l-91 348l-64 256h-2l-66 -256l-93 -348h-93z" />
    <glyph glyph-name="X" unicode="X" horiz-adv-x="613" 
d="M24 0l228 355l-222 343h101l175 -278h2l179 278h96l-224 -340l230 -358h-101l-183 293h-2l-183 -293h-96z" />
    <glyph glyph-name="Y" unicode="Y" horiz-adv-x="593" 
d="M253 0v276l-240 422h96l186 -336h3l186 336h96l-243 -419v-279h-84z" />
    <glyph glyph-name="Z" unicode="Z" horiz-adv-x="580" 
d="M36 0v76l403 548h-382v74h473v-76l-404 -548h418v-74h-508z" />
    <glyph glyph-name="bracketleft" unicode="[" horiz-adv-x="317" 
d="M93 -138v898h164v-63h-95v-772h95v-63h-164z" />
    <glyph glyph-name="backslash" unicode="\" horiz-adv-x="383" 
d="M299 -151l-259 891h72l259 -891h-72z" />
    <glyph glyph-name="bracketright" unicode="]" horiz-adv-x="317" 
d="M60 -138v63h95v772h-95v63h164v-898h-164z" />
    <glyph glyph-name="asciicircum" unicode="^" horiz-adv-x="600" 
d="M111 296l-61 32l207 370h86l207 -370l-61 -32l-187 328h-4z" />
    <glyph glyph-name="underscore" unicode="_" horiz-adv-x="565" 
d="M30 -165v70h505v-70h-505z" />
    <glyph glyph-name="grave" unicode="`" horiz-adv-x="600" 
d="M293 585l-106 159l73 35l85 -170z" />
    <glyph glyph-name="a" unicode="a" horiz-adv-x="534" 
d="M217 -12q-81 0 -127 42t-46 114q0 151 220 151h102v51q0 113 -122 113q-85 0 -131 -77l-48 45q23 44 70 72.5t113 28.5q93 0 145.5 -46t52.5 -128v-284h59v-70h-45q-76 0 -88 78l-1 6h-5q-34 -96 -149 -96zM230 56q59 0 97.5 27t38.5 67v85h-106q-132 0 -132 -78v-21
q0 -38 27.5 -59t74.5 -21z" />
    <glyph glyph-name="b" unicode="b" horiz-adv-x="580" 
d="M320 -12q-104 0 -151 96h-4v-84h-80v740h80v-308h4q40 96 151 96q97 0 153.5 -73t56.5 -197t-56.5 -197t-153.5 -73zM298 60q67 0 106.5 42t39.5 112v88q0 70 -39.5 112t-106.5 42q-55 0 -94 -28.5t-39 -70.5v-192q0 -49 38 -77t95 -28z" />
    <glyph glyph-name="c" unicode="c" horiz-adv-x="503" 
d="M277 -12q-108 0 -169 72.5t-61 197.5t61 197.5t169 72.5q142 0 193 -121l-67 -34q-30 84 -126 84q-69 0 -106.5 -42.5t-37.5 -112.5v-88q0 -70 37.5 -112.5t106.5 -42.5q97 0 140 90l58 -39q-26 -57 -76 -89.5t-122 -32.5z" />
    <glyph glyph-name="d" unicode="d" horiz-adv-x="580" 
d="M260 -12q-97 0 -153.5 73t-56.5 197t56.5 197t153.5 73q111 0 151 -96h4v308h80v-740h-80v84h-4q-47 -96 -151 -96zM282 60q57 0 95 28t38 77v192q0 42 -39 70.5t-94 28.5q-67 0 -106.5 -42t-39.5 -112v-88q0 -70 39.5 -112t106.5 -42z" />
    <glyph glyph-name="e" unicode="e" horiz-adv-x="549" 
d="M279 -12q-105 0 -168.5 73.5t-63.5 196.5t63.5 196.5t168.5 73.5q102 0 162.5 -70.5t60.5 -181.5v-38h-371v-24q0 -68 41.5 -112t111.5 -44q100 0 142 89l57 -41q-25 -54 -79 -86t-125 -32zM131 298h285v11q0 68 -37.5 110t-99.5 42q-65 0 -106.5 -44t-41.5 -112v-7z" />
    <glyph glyph-name="f" unicode="f" horiz-adv-x="324" 
d="M113 0v446h-84v70h84v104q0 55 29 87.5t84 32.5h78v-70h-111v-154h111v-70h-111v-446h-80z" />
    <glyph glyph-name="g" unicode="g" horiz-adv-x="528" 
d="M270 -212q-227 0 -227 127q0 77 82 100v11q-46 22 -46 72q0 68 89 90v4q-46 22 -71.5 63t-25.5 95q0 79 53.5 128.5t140.5 49.5q55 0 98 -20v9q0 69 60 69h77v-70h-98v-33q59 -51 59 -133q0 -79 -53.5 -128.5t-141.5 -49.5q-25 0 -50 5q-68 -18 -68 -58q0 -39 79 -39h110
q183 0 183 -137q0 -155 -250 -155zM266 236q52 0 81.5 25t29.5 75v28q0 50 -29.5 75t-81.5 25t-81.5 -25t-29.5 -75v-28q0 -50 29.5 -75t81.5 -25zM230 -147h74q141 0 141 84q0 68 -107 68h-172q-48 -22 -48 -70q0 -37 27.5 -59.5t84.5 -22.5z" />
    <glyph glyph-name="h" unicode="h" horiz-adv-x="568" 
d="M85 0v740h80v-308h4q41 96 146 96q80 0 126.5 -52t46.5 -145v-331h-80v317q0 139 -117 139q-52 0 -89 -25.5t-37 -72.5v-358h-80z" />
    <glyph glyph-name="i" unicode="i" horiz-adv-x="250" 
d="M125 637q-49 0 -49 45v13q0 45 49 45t49 -45v-13q0 -45 -49 -45zM85 0v516h80v-516h-80z" />
    <glyph glyph-name="j" unicode="j" horiz-adv-x="250" 
d="M125 637q-49 0 -49 45v13q0 45 49 45t49 -45v-13q0 -45 -49 -45zM1 -200v70h84v646h80v-596q0 -55 -28 -87.5t-84 -32.5h-52z" />
    <glyph glyph-name="k" unicode="k" horiz-adv-x="527" 
d="M85 0v740h80v-469h4l79 88l146 157h97l-191 -204l210 -312h-97l-171 263l-77 -79v-184h-80z" />
    <glyph glyph-name="l" unicode="l" horiz-adv-x="272" 
d="M170 0q-40 0 -62.5 23t-22.5 60v657h80v-670h76v-70h-71z" />
    <glyph glyph-name="m" unicode="m" horiz-adv-x="873" 
d="M85 0v516h80v-84h4q20 45 52 70.5t87 25.5q118 0 158 -105h2q16 46 55.5 75.5t101.5 29.5q79 0 123.5 -52t44.5 -145v-331h-80v317q0 139 -113 139q-51 0 -86 -25.5t-35 -72.5v-358h-80v317q0 139 -111 139q-51 0 -87 -25.5t-36 -72.5v-358h-80z" />
    <glyph glyph-name="n" unicode="n" horiz-adv-x="568" 
d="M85 0v516h80v-84h4q41 96 146 96q80 0 126.5 -52t46.5 -145v-331h-80v317q0 139 -117 139q-52 0 -89 -25.5t-37 -72.5v-358h-80z" />
    <glyph glyph-name="o" unicode="o" horiz-adv-x="560" 
d="M280 -12q-104 0 -168.5 74t-64.5 196t64.5 196t168.5 74t168.5 -74t64.5 -196t-64.5 -196t-168.5 -74zM280 59q67 0 107 41.5t40 120.5v74q0 79 -40 120.5t-107 41.5t-107 -41.5t-40 -120.5v-74q0 -79 40 -120.5t107 -41.5z" />
    <glyph glyph-name="p" unicode="p" horiz-adv-x="580" 
d="M85 -200v716h80v-84h4q40 96 151 96q97 0 153.5 -73t56.5 -197t-56.5 -197t-153.5 -73q-104 0 -151 96h-4v-284h-80zM298 60q67 0 106.5 42t39.5 112v88q0 70 -39.5 112t-106.5 42q-55 0 -94 -28.5t-39 -70.5v-192q0 -49 38 -77t95 -28z" />
    <glyph glyph-name="q" unicode="q" horiz-adv-x="580" 
d="M415 -200v284h-4q-47 -96 -151 -96q-97 0 -153.5 73t-56.5 197t56.5 197t153.5 73q111 0 151 -96h4v84h80v-716h-80zM282 60q57 0 95 28t38 77v192q0 42 -39 70.5t-94 28.5q-67 0 -106.5 -42t-39.5 -112v-88q0 -70 39.5 -112t106.5 -42z" />
    <glyph glyph-name="r" unicode="r" horiz-adv-x="367" 
d="M85 0v516h80v-95h5q15 41 52.5 68t96.5 27h31v-80h-47q-63 0 -100.5 -24t-37.5 -62v-350h-80z" />
    <glyph glyph-name="s" unicode="s" horiz-adv-x="487" 
d="M240 -12q-128 0 -204 101l57 46q63 -79 153 -79q51 0 79.5 22t28.5 62q0 68 -90 81l-41 6q-166 24 -166 149q0 74 51 113t133 39q113 0 180 -83l-53 -48q-45 63 -133 63q-49 0 -75 -21.5t-26 -58.5q0 -36 24 -54t75 -26l40 -6q83 -12 120.5 -48.5t37.5 -96.5
q0 -75 -51 -118t-140 -43z" />
    <glyph glyph-name="t" unicode="t" horiz-adv-x="351" 
d="M199 0q-40 0 -62.5 23.5t-22.5 61.5v361h-85v70h48q25 0 35 10.5t10 36.5v96h72v-143h113v-70h-113v-376h105v-70h-100z" />
    <glyph glyph-name="u" unicode="u" horiz-adv-x="566" 
d="M252 -12q-80 0 -127 52t-47 145v331h80v-317q0 -139 118 -139q52 0 88.5 25.5t36.5 73.5v357h80v-516h-80v84h-4q-39 -96 -145 -96z" />
    <glyph glyph-name="v" unicode="v" horiz-adv-x="492" 
d="M199 0l-181 516h80l90 -256l56 -176h5l56 176l92 256h77l-182 -516h-93z" />
    <glyph glyph-name="w" unicode="w" horiz-adv-x="768" 
d="M169 0l-138 516h78l55 -223l55 -226h2l63 226l65 223h71l67 -223l64 -226h2l53 226l56 223h75l-137 -516h-99l-72 248l-45 157h-2l-44 -157l-72 -248h-97z" />
    <glyph glyph-name="x" unicode="x" horiz-adv-x="507" 
d="M21 0l191 260l-183 256h94l131 -192h3l136 192h89l-182 -250l186 -266h-94l-134 202h-3l-145 -202h-89z" />
    <glyph glyph-name="y" unicode="y" horiz-adv-x="499" 
d="M90 -200v70h81l39 110l-193 536h80l124 -351l24 -84h5l28 84l125 351h79l-231 -636q-18 -48 -41 -64t-79 -16h-41z" />
    <glyph glyph-name="z" unicode="z" horiz-adv-x="464" 
d="M33 0v67l293 379h-284v70h381v-60l-299 -386h307v-70h-398z" />
    <glyph glyph-name="braceleft" unicode="{" horiz-adv-x="343" 
d="M199 -138q-38 0 -59 23t-21 59v240q0 42 -27 65t-70 23v78q43 0 70 23t27 65v240q0 36 21 59t59 23h84v-63h-95v-250q0 -48 -26.5 -84t-68.5 -44v-16q42 -8 68.5 -44t26.5 -84v-250h95v-63h-84z" />
    <glyph glyph-name="bar" unicode="|" horiz-adv-x="314" 
d="M123 -138v898h68v-898h-68z" />
    <glyph glyph-name="braceright" unicode="}" horiz-adv-x="343" 
d="M60 -138v63h95v250q0 48 26.5 84t68.5 44v16q-42 8 -68.5 44t-26.5 84v250h-95v63h84q38 0 59 -23t21 -59v-240q0 -42 27 -65t70 -23v-78q-43 0 -70 -23t-27 -65v-240q0 -36 -21 -59t-59 -23h-84z" />
    <glyph glyph-name="asciitilde" unicode="~" horiz-adv-x="600" 
d="M419 236q-52 0 -129 37q-70 34 -113 34q-39 0 -83 -32l-33 44q45 55 120 55q52 0 129 -37q70 -34 113 -34q39 0 83 32l33 -44q-45 -55 -120 -55z" />
    <glyph glyph-name="uni00A0" unicode="&#xa0;" horiz-adv-x="236" 
 />
    <glyph glyph-name="exclamdown" unicode="&#xa1;" horiz-adv-x="284" 
d="M142 399q-61 0 -61 58v13q0 58 61 58t61 -58v-13q0 -58 -61 -58zM97 -182v203l24 310h40l24 -310v-203h-88z" />
    <glyph glyph-name="cent" unicode="&#xa2;" horiz-adv-x="514" 
d="M235 -114v105q-89 13 -138.5 83.5t-49.5 183.5t49.5 183.5t138.5 83.5v105h70v-103q117 -10 164 -118l-64 -35q-27 71 -101 82v-396q78 9 114 88l58 -39q-22 -52 -66 -83.5t-105 -36.5v-103h-70zM236 63v390q-50 -10 -76.5 -51t-26.5 -100v-88q0 -59 26.5 -99.5
t76.5 -51.5z" />
    <glyph glyph-name="sterling" unicode="&#xa3;" horiz-adv-x="595" 
d="M82 0v100q72 31 72 137q0 19 -4 49h-90v70h71q-31 93 -31 143q0 95 61.5 153t168.5 58q142 0 214 -114l-63 -46q-55 86 -154 86q-66 0 -103 -37t-37 -108q0 -45 28 -135h216v-70h-198q3 -20 3 -40q0 -54 -21.5 -99.5t-53.5 -66.5v-5h364v-75h-443z" />
    <glyph glyph-name="currency" unicode="&#xa4;" horiz-adv-x="612" 
d="M66 62l-48 47l106 106q-32 56 -32 134t32 134l-106 106l48 47l102 -102q54 45 138 45t138 -45l102 102l48 -47l-106 -106q32 -56 32 -134t-32 -134l106 -106l-48 -47l-102 102q-54 -45 -138 -45t-138 45zM306 186q60 0 94.5 33.5t34.5 97.5v64q0 64 -34.5 97.5
t-94.5 33.5t-94.5 -33.5t-34.5 -97.5v-64q0 -64 34.5 -97.5t94.5 -33.5z" />
    <glyph glyph-name="yen" unicode="&#xa5;" horiz-adv-x="605" 
d="M261 0v145h-176v67h176v96h-176v67h136l-187 323h94l175 -315h5l170 315h93l-187 -323h136v-67h-176v-96h176v-67h-176v-145h-83z" />
    <glyph glyph-name="brokenbar" unicode="&#xa6;" horiz-adv-x="314" 
d="M123 406v354h68v-354h-68zM123 -138v354h68v-354h-68z" />
    <glyph glyph-name="section" unicode="&#xa7;" horiz-adv-x="586" 
d="M277 -155q-103 0 -167 56l46 56q51 -43 122 -43q55 0 86.5 23.5t31.5 64.5q0 36 -26 58.5t-78 38.5l-63 19q-153 46 -153 153q0 48 28.5 85t80.5 58v7q-74 49 -74 131q0 72 54 115t143 43q102 0 168 -56l-47 -56q-51 43 -122 43q-55 0 -86.5 -23.5t-31.5 -64.5
q0 -36 26 -58.5t78 -38.5l63 -19q154 -46 154 -153q0 -99 -110 -143v-6q75 -47 75 -131q0 -73 -54.5 -116t-143.5 -43zM365 152q66 48 66 111q0 42 -28.5 68.5t-88.5 43.5l-62 17q-14 4 -32 11q-65 -45 -65 -111q0 -42 28 -68.5t88 -43.5l62 -17q14 -4 32 -11z" />
    <glyph glyph-name="dieresis" unicode="&#xa8;" horiz-adv-x="600" 
d="M207 618q-49 0 -49 46v11q0 46 49 46t49 -46v-11q0 -46 -49 -46zM393 618q-49 0 -49 46v11q0 46 49 46t49 -46v-11q0 -46 -49 -46z" />
    <glyph glyph-name="copyright" unicode="&#xa9;" horiz-adv-x="776" 
d="M388 -11q-144 0 -239 98.5t-95 261.5t95 261.5t239 98.5t239 -98.5t95 -261.5t-95 -261.5t-239 -98.5zM388 49q116 0 191 76.5t75 193.5v60q0 117 -75 193.5t-191 76.5t-191 -76.5t-75 -193.5v-60q0 -117 75 -193.5t191 -76.5zM396 155q-77 0 -121 52.5t-44 141.5
t44 141.5t121 52.5q95 0 133 -87l-57 -32q-24 56 -76 56q-42 0 -65.5 -27t-23.5 -72v-65q0 -45 23.5 -72t65.5 -27q52 0 85 60l54 -34q-40 -88 -139 -88z" />
    <glyph glyph-name="ordfeminine" unicode="&#xaa;" horiz-adv-x="399" 
d="M149 344q-52 0 -80.5 27t-28.5 71q0 104 149 104h71v28q0 78 -75 78q-67 0 -91 -52l-42 34q41 70 136 70q63 0 99 -33.5t36 -93.5v-171h37v-56h-34q-61 0 -62 51v2h-4q-29 -59 -111 -59zM163 395q40 0 68.5 18t28.5 46v41h-73q-84 0 -84 -47v-10q0 -48 60 -48z" />
    <glyph glyph-name="guillemotleft" unicode="&#xab;" horiz-adv-x="513" 
d="M228 80l-192 166v76l192 166l24 -54l-137 -150l137 -150zM437 80l-192 166v76l192 166l24 -54l-137 -150l137 -150z" />
    <glyph glyph-name="logicalnot" unicode="&#xac;" horiz-adv-x="600" 
d="M464 78v193h-397v68h466v-261h-69z" />
    <glyph glyph-name="uni00AD" unicode="&#xad;" horiz-adv-x="399" 
d="M69 261v86h261v-86h-261z" />
    <glyph glyph-name="registered" unicode="&#xae;" horiz-adv-x="476" 
d="M238 298q-82 0 -140 59.5t-58 146.5t58 146.5t140 59.5t140 -59.5t58 -146.5t-58 -146.5t-140 -59.5zM238 338q66 0 110.5 46.5t44.5 108.5v22q0 62 -44.5 108.5t-110.5 46.5t-110.5 -46.5t-44.5 -108.5v-22q0 -62 44.5 -108.5t110.5 -46.5zM163 396v209h90
q30 0 47 -17.5t17 -45.5q0 -45 -39 -61l49 -85h-45l-44 80h-35v-80h-40zM203 508h48q23 0 23 21v22q0 21 -23 21h-48v-64z" />
    <glyph glyph-name="macron" unicode="&#xaf;" horiz-adv-x="600" 
d="M160 637v68h280v-68h-280z" />
    <glyph glyph-name="degree" unicode="&#xb0;" horiz-adv-x="468" 
d="M234 366q-71 0 -119.5 49.5t-48.5 122.5t48.5 122.5t119.5 49.5t119.5 -49.5t48.5 -122.5t-48.5 -122.5t-119.5 -49.5zM234 430q44 0 71 31t27 77t-27 77t-71 31t-71 -31t-27 -77t27 -77t71 -31z" />
    <glyph glyph-name="plusminus" unicode="&#xb1;" horiz-adv-x="600" 
d="M262 152v199h-195v68h195v199h76v-199h195v-68h-195v-199h-76zM67 0v68h466v-68h-466z" />
    <glyph glyph-name="uni00B2" unicode="&#xb2;" horiz-adv-x="346" 
d="M39 329v57l130 105q62 51 62 98v6q0 26 -17 41.5t-48 15.5q-58 0 -78 -58l-54 20q31 90 136 90q60 0 94 -30t34 -79q0 -40 -24 -72.5t-71 -68.5l-97 -75h205v-50h-272z" />
    <glyph glyph-name="uni00B3" unicode="&#xb3;" horiz-adv-x="346" 
d="M160 323q-87 0 -136 66l47 34q33 -50 89 -50q37 0 57 16t20 45v6q0 55 -77 55h-45v51h40q37 0 56 14t19 38v4q0 25 -17.5 38.5t-47.5 13.5q-54 0 -83 -45l-43 34q43 61 128 61q58 0 94 -25.5t36 -69.5q0 -34 -22 -56t-56 -29v-3q37 -6 60.5 -29t23.5 -61q0 -49 -39 -78.5
t-104 -29.5z" />
    <glyph glyph-name="acute" unicode="&#xb4;" horiz-adv-x="600" 
d="M307 585l-52 24l85 170l73 -35z" />
    <glyph glyph-name="uni00B5" unicode="&#xb5;" horiz-adv-x="573" 
d="M85 -200v716h80v-317q0 -139 117 -139q52 0 89 26t37 74v356h80v-516h-80v84h-4q-39 -96 -142 -96q-73 0 -101 52h-3l7 -85v-155h-80z" />
    <glyph glyph-name="paragraph" unicode="&#xb6;" horiz-adv-x="652" 
d="M246 -149v449q-81 0 -137.5 59t-56.5 140t56.5 140t137.5 59h324v-68h-67v-779h-73v779h-111v-779h-73z" />
    <glyph glyph-name="periodcentered" unicode="&#xb7;" horiz-adv-x="326" 
d="M163 240q-30 0 -45.5 15.5t-15.5 42.5v13q0 27 15.5 42.5t45.5 15.5t45.5 -15.5t15.5 -42.5v-13q0 -27 -15.5 -42.5t-45.5 -15.5z" />
    <glyph glyph-name="cedilla" unicode="&#xb8;" horiz-adv-x="600" 
d="M312 -207q-69 0 -99 41l38 41q22 -28 61 -28q44 0 44 31t-68 41l-28 4l19 97h50l-16 -81l3 -3q19 6 39 6q30 0 49 -17.5t19 -48.5q0 -41 -31.5 -62t-79.5 -21z" />
    <glyph glyph-name="uni00B9" unicode="&#xb9;" horiz-adv-x="359" 
d="M55 329v50h109v268h-6l-90 -89l-36 37l102 103h93v-319h98v-50h-270z" />
    <glyph glyph-name="ordmasculine" unicode="&#xba;" horiz-adv-x="398" 
d="M199 344q-73 0 -114 48t-41 132t41 132t114 48t114 -48t41 -132t-41 -132t-114 -48zM199 396q42 0 64.5 26.5t22.5 70.5v62q0 44 -22.5 70.5t-64.5 26.5t-64.5 -26.5t-22.5 -70.5v-62q0 -44 22.5 -70.5t64.5 -26.5z" />
    <glyph glyph-name="guillemotright" unicode="&#xbb;" horiz-adv-x="513" 
d="M76 80l-24 54l137 150l-137 150l24 54l192 -166v-76zM285 80l-24 54l137 150l-137 150l24 54l192 -166v-76z" />
    <glyph glyph-name="onequarter" unicode="&#xbc;" horiz-adv-x="847" 
d="M55 329v50h109v268h-6l-90 -89l-36 37l102 103h93v-319h98v-50h-270zM171 0l486 698h67l-486 -698h-67zM710 0v72h-189v52l164 245h85v-249h56v-48h-56v-72h-60zM576 120h134v192h-4z" />
    <glyph glyph-name="onehalf" unicode="&#xbd;" horiz-adv-x="872" 
d="M55 329v50h109v268h-6l-90 -89l-36 37l102 103h93v-319h98v-50h-270zM171 0l486 698h67l-486 -698h-67zM565 0v57l130 105q62 51 62 98v6q0 26 -17 41.5t-48 15.5q-58 0 -78 -58l-54 20q31 90 136 90q60 0 94 -30t34 -79q0 -40 -24 -72.5t-71 -68.5l-97 -75h205v-50h-272
z" />
    <glyph glyph-name="threequarters" unicode="&#xbe;" horiz-adv-x="824" 
d="M160 323q-87 0 -136 66l47 34q33 -50 89 -50q37 0 57 16t20 45v6q0 55 -77 55h-45v51h40q37 0 56 14t19 38v4q0 25 -17.5 38.5t-47.5 13.5q-54 0 -83 -45l-43 34q43 61 128 61q58 0 94 -25.5t36 -69.5q0 -34 -22 -56t-56 -29v-3q37 -6 60.5 -29t23.5 -61q0 -49 -39 -78.5
t-104 -29.5zM148 0l486 698h67l-486 -698h-67zM687 0v72h-189v52l164 245h85v-249h56v-48h-56v-72h-60zM553 120h134v192h-4z" />
    <glyph glyph-name="questiondown" unicode="&#xbf;" horiz-adv-x="467" 
d="M262 399q-61 0 -61 58v13q0 58 61 58t61 -58v-13q0 -58 -61 -58zM238 -194q-92 0 -146.5 51.5t-54.5 137.5q0 88 54 139t130 66v108h77v-164q-82 -4 -128.5 -40t-46.5 -99v-14q0 -51 32.5 -81.5t85.5 -30.5q55 0 90.5 32t48.5 85l74 -28q-21 -71 -74.5 -116.5
t-141.5 -45.5z" />
    <glyph glyph-name="Agrave" unicode="&#xc0;" horiz-adv-x="641" 
d="M314 755l-106 159l73 35l85 -170zM23 0l244 698h107l244 -698h-88l-70 206h-282l-70 -206h-85zM198 280h241l-118 340h-5z" />
    <glyph glyph-name="Aacute" unicode="&#xc1;" horiz-adv-x="641" 
d="M328 755l-52 24l85 170l73 -35zM23 0l244 698h107l244 -698h-88l-70 206h-282l-70 -206h-85zM198 280h241l-118 340h-5z" />
    <glyph glyph-name="Acircumflex" unicode="&#xc2;" horiz-adv-x="641" 
d="M204 761l-44 31l111 143h100l111 -143l-44 -31l-117 117zM23 0l244 698h107l244 -698h-88l-70 206h-282l-70 -206h-85zM198 280h241l-118 340h-5z" />
    <glyph glyph-name="Atilde" unicode="&#xc3;" horiz-adv-x="641" 
d="M394 782q-30 0 -80 26q-45 24 -70 24q-26 0 -58 -27l-33 40q35 53 95 53q30 0 80 -26q45 -24 70 -24q26 0 58 27l33 -40q-35 -53 -95 -53zM23 0l244 698h107l244 -698h-88l-70 206h-282l-70 -206h-85zM198 280h241l-118 340h-5z" />
    <glyph glyph-name="Adieresis" unicode="&#xc4;" horiz-adv-x="641" 
d="M228 788q-50 0 -50 47v12q0 47 50 47t50 -47v-12q0 -47 -50 -47zM414 788q-50 0 -50 47v12q0 47 50 47t50 -47v-12q0 -47 -50 -47zM23 0l244 698h107l244 -698h-88l-70 206h-282l-70 -206h-85zM198 280h241l-118 340h-5z" />
    <glyph glyph-name="Aring" unicode="&#xc5;" horiz-adv-x="641" 
d="M321 746q-49 0 -82.5 33t-33.5 82t33.5 82t82.5 33t82.5 -33t33.5 -82t-33.5 -82t-82.5 -33zM321 795q27 0 42.5 14.5t15.5 40.5v22q0 26 -15.5 40.5t-42.5 14.5t-42.5 -14.5t-15.5 -40.5v-22q0 -26 15.5 -40.5t42.5 -14.5zM23 0l244 698h107l244 -698h-88l-70 206h-282
l-70 -206h-85zM198 280h241l-118 340h-5z" />
    <glyph glyph-name="AE" unicode="&#xc6;" horiz-adv-x="907" 
d="M4 0l357 698h482v-74h-343v-234h323v-74h-323v-242h343v-74h-426v205h-225l-102 -205h-86zM227 279h190v345h-13z" />
    <glyph glyph-name="Ccedilla" unicode="&#xc7;" horiz-adv-x="621" 
d="M350 -207q-69 0 -99 41l38 41q22 -28 61 -28q44 0 44 31t-68 41l-28 4l13 66q-121 9 -187 100.5t-66 255.5q0 174 74 269.5t207 95.5q171 0 240 -153l-68 -41q-22 56 -65.5 87.5t-106.5 31.5q-89 0 -140 -65t-51 -173v-104q0 -108 50.5 -169t140.5 -61q65 0 110.5 33.5
t67.5 92.5l67 -42q-31 -70 -88.5 -111.5t-134.5 -46.5l-10 -50l3 -3q20 6 39 6q30 0 49 -17.5t19 -48.5q0 -41 -31.5 -62t-79.5 -21z" />
    <glyph glyph-name="Egrave" unicode="&#xc8;" horiz-adv-x="583" 
d="M297 755l-106 159l73 35l85 -170zM93 0v698h426v-74h-342v-234h322v-74h-322v-242h342v-74h-426z" />
    <glyph glyph-name="Eacute" unicode="&#xc9;" horiz-adv-x="583" 
d="M311 755l-52 24l85 170l73 -35zM93 0v698h426v-74h-342v-234h322v-74h-322v-242h342v-74h-426z" />
    <glyph glyph-name="Ecircumflex" unicode="&#xca;" horiz-adv-x="583" 
d="M187 761l-44 31l111 143h100l111 -143l-44 -31l-117 117zM93 0v698h426v-74h-342v-234h322v-74h-322v-242h342v-74h-426z" />
    <glyph glyph-name="Edieresis" unicode="&#xcb;" horiz-adv-x="583" 
d="M211 788q-50 0 -50 47v12q0 47 50 47t50 -47v-12q0 -47 -50 -47zM397 788q-50 0 -50 47v12q0 47 50 47t50 -47v-12q0 -47 -50 -47zM93 0v698h426v-74h-342v-234h322v-74h-322v-242h342v-74h-426z" />
    <glyph glyph-name="Igrave" unicode="&#xcc;" horiz-adv-x="400" 
d="M193 755l-106 159l73 35l85 -170zM60 0v70h98v558h-98v70h280v-70h-98v-558h98v-70h-280z" />
    <glyph glyph-name="Iacute" unicode="&#xcd;" horiz-adv-x="400" 
d="M207 755l-52 24l85 170l73 -35zM60 0v70h98v558h-98v70h280v-70h-98v-558h98v-70h-280z" />
    <glyph glyph-name="Icircumflex" unicode="&#xce;" horiz-adv-x="400" 
d="M83 761l-44 31l111 143h100l111 -143l-44 -31l-117 117zM60 0v70h98v558h-98v70h280v-70h-98v-558h98v-70h-280z" />
    <glyph glyph-name="Idieresis" unicode="&#xcf;" horiz-adv-x="400" 
d="M107 788q-50 0 -50 47v12q0 47 50 47t50 -47v-12q0 -47 -50 -47zM293 788q-50 0 -50 47v12q0 47 50 47t50 -47v-12q0 -47 -50 -47zM60 0v70h98v558h-98v70h280v-70h-98v-558h98v-70h-280z" />
    <glyph glyph-name="Eth" unicode="&#xd0;" horiz-adv-x="674" 
d="M96 0v337h-79v64h79v297h234q134 0 210 -89t76 -260t-76 -260t-210 -89h-234zM180 74h150q88 0 142 58t54 160v114q0 102 -54 160t-142 58h-150v-223h137v-64h-137v-263z" />
    <glyph glyph-name="Ntilde" unicode="&#xd1;" horiz-adv-x="707" 
d="M426 782q-30 0 -80 26q-45 24 -70 24q-26 0 -58 -27l-33 40q35 53 95 53q30 0 80 -26q45 -24 70 -24q26 0 58 27l33 -40q-35 -53 -95 -53zM93 0v698h97l255 -426l84 -155h3v581h82v-698h-97l-255 426l-84 155h-3v-581h-82z" />
    <glyph glyph-name="Ograve" unicode="&#xd2;" horiz-adv-x="708" 
d="M347 755l-106 159l73 35l85 -170zM354 -12q-137 0 -216.5 94t-79.5 267t79.5 267t216.5 94t216.5 -94t79.5 -267t-79.5 -267t-216.5 -94zM354 63q91 0 148.5 62.5t57.5 165.5v116q0 103 -57.5 165.5t-148.5 62.5t-148.5 -62.5t-57.5 -165.5v-116q0 -103 57.5 -165.5
t148.5 -62.5z" />
    <glyph glyph-name="Oacute" unicode="&#xd3;" horiz-adv-x="708" 
d="M361 755l-52 24l85 170l73 -35zM354 -12q-137 0 -216.5 94t-79.5 267t79.5 267t216.5 94t216.5 -94t79.5 -267t-79.5 -267t-216.5 -94zM354 63q91 0 148.5 62.5t57.5 165.5v116q0 103 -57.5 165.5t-148.5 62.5t-148.5 -62.5t-57.5 -165.5v-116q0 -103 57.5 -165.5
t148.5 -62.5z" />
    <glyph glyph-name="Ocircumflex" unicode="&#xd4;" horiz-adv-x="708" 
d="M237 761l-44 31l111 143h100l111 -143l-44 -31l-117 117zM354 -12q-137 0 -216.5 94t-79.5 267t79.5 267t216.5 94t216.5 -94t79.5 -267t-79.5 -267t-216.5 -94zM354 63q91 0 148.5 62.5t57.5 165.5v116q0 103 -57.5 165.5t-148.5 62.5t-148.5 -62.5t-57.5 -165.5v-116
q0 -103 57.5 -165.5t148.5 -62.5z" />
    <glyph glyph-name="Otilde" unicode="&#xd5;" horiz-adv-x="708" 
d="M427 782q-30 0 -80 26q-45 24 -70 24q-26 0 -58 -27l-33 40q35 53 95 53q30 0 80 -26q45 -24 70 -24q26 0 58 27l33 -40q-35 -53 -95 -53zM354 -12q-137 0 -216.5 94t-79.5 267t79.5 267t216.5 94t216.5 -94t79.5 -267t-79.5 -267t-216.5 -94zM354 63q91 0 148.5 62.5
t57.5 165.5v116q0 103 -57.5 165.5t-148.5 62.5t-148.5 -62.5t-57.5 -165.5v-116q0 -103 57.5 -165.5t148.5 -62.5z" />
    <glyph glyph-name="Odieresis" unicode="&#xd6;" horiz-adv-x="708" 
d="M261 788q-50 0 -50 47v12q0 47 50 47t50 -47v-12q0 -47 -50 -47zM447 788q-50 0 -50 47v12q0 47 50 47t50 -47v-12q0 -47 -50 -47zM354 -12q-137 0 -216.5 94t-79.5 267t79.5 267t216.5 94t216.5 -94t79.5 -267t-79.5 -267t-216.5 -94zM354 63q91 0 148.5 62.5
t57.5 165.5v116q0 103 -57.5 165.5t-148.5 62.5t-148.5 -62.5t-57.5 -165.5v-116q0 -103 57.5 -165.5t148.5 -62.5z" />
    <glyph glyph-name="multiply" unicode="&#xd7;" horiz-adv-x="600" 
d="M141 93l-49 49l159 163l-159 163l49 49l159 -163l159 163l49 -49l-159 -163l159 -163l-49 -49l-159 163z" />
    <glyph glyph-name="Oslash" unicode="&#xd8;" horiz-adv-x="708" 
d="M121 -45l-57 37l68 97q-74 94 -74 260q0 173 79.5 267t216.5 94q102 0 173 -53l60 86l57 -37l-68 -97q74 -94 74 -260q0 -173 -79.5 -267t-216.5 -94q-102 0 -173 53zM180 160l302 432q-52 43 -128 43q-91 0 -148.5 -62.5t-57.5 -165.5v-116q0 -73 32 -131zM354 63
q91 0 148.5 62.5t57.5 165.5v116q0 73 -32 131l-302 -432q52 -43 128 -43z" />
    <glyph glyph-name="Ugrave" unicode="&#xd9;" horiz-adv-x="678" 
d="M330 755l-106 159l73 35l85 -170zM336 -12q-136 0 -192 71t-56 227v412h84v-432q0 -103 38.5 -153t128.5 -50t128.5 50t38.5 153v432h84v-412q0 -155 -58.5 -226.5t-195.5 -71.5z" />
    <glyph glyph-name="Uacute" unicode="&#xda;" horiz-adv-x="678" 
d="M344 755l-52 24l85 170l73 -35zM336 -12q-136 0 -192 71t-56 227v412h84v-432q0 -103 38.5 -153t128.5 -50t128.5 50t38.5 153v432h84v-412q0 -155 -58.5 -226.5t-195.5 -71.5z" />
    <glyph glyph-name="Ucircumflex" unicode="&#xdb;" horiz-adv-x="678" 
d="M220 761l-44 31l111 143h100l111 -143l-44 -31l-117 117zM336 -12q-136 0 -192 71t-56 227v412h84v-432q0 -103 38.5 -153t128.5 -50t128.5 50t38.5 153v432h84v-412q0 -155 -58.5 -226.5t-195.5 -71.5z" />
    <glyph glyph-name="Udieresis" unicode="&#xdc;" horiz-adv-x="678" 
d="M244 788q-50 0 -50 47v12q0 47 50 47t50 -47v-12q0 -47 -50 -47zM430 788q-50 0 -50 47v12q0 47 50 47t50 -47v-12q0 -47 -50 -47zM336 -12q-136 0 -192 71t-56 227v412h84v-432q0 -103 38.5 -153t128.5 -50t128.5 50t38.5 153v432h84v-412q0 -155 -58.5 -226.5
t-195.5 -71.5z" />
    <glyph glyph-name="Yacute" unicode="&#xdd;" horiz-adv-x="593" 
d="M304 755l-52 24l85 170l73 -35zM253 0v276l-240 422h96l186 -336h3l186 336h96l-243 -419v-279h-84z" />
    <glyph glyph-name="Thorn" unicode="&#xde;" horiz-adv-x="606" 
d="M93 0v698h84v-144h194q93 0 144 -53.5t51 -146.5t-51 -146.5t-144 -53.5h-194v-154h-84zM177 229h194q50 0 77.5 26.5t27.5 73.5v50q0 47 -27.5 73.5t-77.5 26.5h-194v-250z" />
    <glyph glyph-name="germandbls" unicode="&#xdf;" horiz-adv-x="640" 
d="M432 -12q-112 0 -177 84l54 48q52 -64 129 -64q46 0 72 22t26 62q0 66 -70 81l-31 7q-70 16 -108 49t-38 99q0 68 47.5 106t130.5 40v5q0 157 -138 157q-70 0 -103 -38.5t-33 -118.5v-527h-80v446h-84v70h84v5q0 106 57 168.5t159 62.5t159 -62.5t57 -168.5v-61h-47
q-132 0 -132 -80q0 -36 19.5 -53.5t59.5 -27.5l30 -7q73 -17 105.5 -51t32.5 -92q0 -75 -48.5 -118t-132.5 -43z" />
    <glyph glyph-name="agrave" unicode="&#xe0;" horiz-adv-x="534" 
d="M245 585l-106 159l73 35l85 -170zM217 -12q-81 0 -127 42t-46 114q0 151 220 151h102v51q0 113 -122 113q-85 0 -131 -77l-48 45q23 44 70 72.5t113 28.5q93 0 145.5 -46t52.5 -128v-284h59v-70h-45q-76 0 -88 78l-1 6h-5q-34 -96 -149 -96zM230 56q59 0 97.5 27t38.5 67
v85h-106q-132 0 -132 -78v-21q0 -38 27.5 -59t74.5 -21z" />
    <glyph glyph-name="aacute" unicode="&#xe1;" horiz-adv-x="534" 
d="M259 585l-52 24l85 170l73 -35zM217 -12q-81 0 -127 42t-46 114q0 151 220 151h102v51q0 113 -122 113q-85 0 -131 -77l-48 45q23 44 70 72.5t113 28.5q93 0 145.5 -46t52.5 -128v-284h59v-70h-45q-76 0 -88 78l-1 6h-5q-34 -96 -149 -96zM230 56q59 0 97.5 27t38.5 67
v85h-106q-132 0 -132 -78v-21q0 -38 27.5 -59t74.5 -21z" />
    <glyph glyph-name="acircumflex" unicode="&#xe2;" horiz-adv-x="534" 
d="M135 591l-44 31l111 143h100l111 -143l-44 -31l-117 117zM217 -12q-81 0 -127 42t-46 114q0 151 220 151h102v51q0 113 -122 113q-85 0 -131 -77l-48 45q23 44 70 72.5t113 28.5q93 0 145.5 -46t52.5 -128v-284h59v-70h-45q-76 0 -88 78l-1 6h-5q-34 -96 -149 -96z
M230 56q59 0 97.5 27t38.5 67v85h-106q-132 0 -132 -78v-21q0 -38 27.5 -59t74.5 -21z" />
    <glyph glyph-name="atilde" unicode="&#xe3;" horiz-adv-x="534" 
d="M325 612q-30 0 -80 26q-45 24 -70 24q-26 0 -58 -27l-33 40q35 53 95 53q30 0 80 -26q45 -24 70 -24q26 0 58 27l33 -40q-35 -53 -95 -53zM217 -12q-81 0 -127 42t-46 114q0 151 220 151h102v51q0 113 -122 113q-85 0 -131 -77l-48 45q23 44 70 72.5t113 28.5
q93 0 145.5 -46t52.5 -128v-284h59v-70h-45q-76 0 -88 78l-1 6h-5q-34 -96 -149 -96zM230 56q59 0 97.5 27t38.5 67v85h-106q-132 0 -132 -78v-21q0 -38 27.5 -59t74.5 -21z" />
    <glyph glyph-name="adieresis" unicode="&#xe4;" horiz-adv-x="534" 
d="M159 618q-49 0 -49 46v11q0 46 49 46t49 -46v-11q0 -46 -49 -46zM345 618q-49 0 -49 46v11q0 46 49 46t49 -46v-11q0 -46 -49 -46zM217 -12q-81 0 -127 42t-46 114q0 151 220 151h102v51q0 113 -122 113q-85 0 -131 -77l-48 45q23 44 70 72.5t113 28.5q93 0 145.5 -46
t52.5 -128v-284h59v-70h-45q-76 0 -88 78l-1 6h-5q-34 -96 -149 -96zM230 56q59 0 97.5 27t38.5 67v85h-106q-132 0 -132 -78v-21q0 -38 27.5 -59t74.5 -21z" />
    <glyph glyph-name="aring" unicode="&#xe5;" horiz-adv-x="534" 
d="M252 576q-49 0 -82.5 33t-33.5 82t33.5 82t82.5 33t82.5 -33t33.5 -82t-33.5 -82t-82.5 -33zM252 625q27 0 42.5 14.5t15.5 40.5v22q0 26 -15.5 40.5t-42.5 14.5t-42.5 -14.5t-15.5 -40.5v-22q0 -26 15.5 -40.5t42.5 -14.5zM217 -12q-81 0 -127 42t-46 114q0 151 220 151
h102v51q0 113 -122 113q-85 0 -131 -77l-48 45q23 44 70 72.5t113 28.5q93 0 145.5 -46t52.5 -128v-284h59v-70h-45q-76 0 -88 78l-1 6h-5q-34 -96 -149 -96zM230 56q59 0 97.5 27t38.5 67v85h-106q-132 0 -132 -78v-21q0 -38 27.5 -59t74.5 -21z" />
    <glyph glyph-name="ae" unicode="&#xe6;" horiz-adv-x="864" 
d="M215 -12q-78 0 -124.5 42t-46.5 112q0 75 56 115.5t164 40.5h102v48q0 55 -30.5 84t-88.5 29q-88 0 -134 -76l-48 44q22 44 69.5 72.5t114.5 28.5q42 0 73.5 -12t49 -31.5t26 -36t13.5 -35.5h6q11 40 62.5 77.5t123.5 37.5q97 0 155.5 -70.5t58.5 -181.5v-38h-371v-24
q0 -68 41.5 -112t111.5 -44q99 0 142 88l57 -40q-25 -54 -77 -86t-118 -32q-75 0 -128 38t-63 78h-6q-8 -40 -60.5 -78t-130.5 -38zM446 298h285v11q0 68 -37.5 110t-99.5 42q-65 0 -106.5 -44t-41.5 -112v-7zM231 56q58 0 96.5 27t38.5 67v88h-106q-132 -4 -132 -81v-21
q0 -38 27.5 -59t75.5 -21z" />
    <glyph glyph-name="ccedilla" unicode="&#xe7;" horiz-adv-x="503" 
d="M288 -207q-69 0 -99 41l38 41q22 -28 61 -28q44 0 44 31t-68 41l-28 4l13 66q-96 10 -149 81.5t-53 187.5q0 125 61 197.5t169 72.5q142 0 193 -120l-67 -35q-30 84 -126 84q-69 0 -106.5 -42.5t-37.5 -112.5v-88q0 -70 37.5 -112.5t106.5 -42.5q97 0 140 90l58 -39
q-23 -53 -68 -85t-108 -36l-10 -50l3 -3q20 6 39 6q30 0 49 -17.5t19 -48.5q0 -41 -31.5 -62t-79.5 -21z" />
    <glyph glyph-name="egrave" unicode="&#xe8;" horiz-adv-x="549" 
d="M272 585l-106 159l73 35l85 -170zM279 -12q-105 0 -168.5 73.5t-63.5 196.5t63.5 196.5t168.5 73.5q102 0 162.5 -70.5t60.5 -181.5v-38h-371v-24q0 -68 41.5 -112t111.5 -44q100 0 142 89l57 -41q-25 -54 -79 -86t-125 -32zM131 298h285v11q0 68 -37.5 110t-99.5 42
q-65 0 -106.5 -44t-41.5 -112v-7z" />
    <glyph glyph-name="eacute" unicode="&#xe9;" horiz-adv-x="549" 
d="M286 585l-52 24l85 170l73 -35zM279 -12q-105 0 -168.5 73.5t-63.5 196.5t63.5 196.5t168.5 73.5q102 0 162.5 -70.5t60.5 -181.5v-38h-371v-24q0 -68 41.5 -112t111.5 -44q100 0 142 89l57 -41q-25 -54 -79 -86t-125 -32zM131 298h285v11q0 68 -37.5 110t-99.5 42
q-65 0 -106.5 -44t-41.5 -112v-7z" />
    <glyph glyph-name="ecircumflex" unicode="&#xea;" horiz-adv-x="549" 
d="M162 591l-44 31l111 143h100l111 -143l-44 -31l-117 117zM279 -12q-105 0 -168.5 73.5t-63.5 196.5t63.5 196.5t168.5 73.5q102 0 162.5 -70.5t60.5 -181.5v-38h-371v-24q0 -68 41.5 -112t111.5 -44q100 0 142 89l57 -41q-25 -54 -79 -86t-125 -32zM131 298h285v11
q0 68 -37.5 110t-99.5 42q-65 0 -106.5 -44t-41.5 -112v-7z" />
    <glyph glyph-name="edieresis" unicode="&#xeb;" horiz-adv-x="549" 
d="M186 618q-49 0 -49 46v11q0 46 49 46t49 -46v-11q0 -46 -49 -46zM372 618q-49 0 -49 46v11q0 46 49 46t49 -46v-11q0 -46 -49 -46zM279 -12q-105 0 -168.5 73.5t-63.5 196.5t63.5 196.5t168.5 73.5q102 0 162.5 -70.5t60.5 -181.5v-38h-371v-24q0 -68 41.5 -112
t111.5 -44q100 0 142 89l57 -41q-25 -54 -79 -86t-125 -32zM131 298h285v11q0 68 -37.5 110t-99.5 42q-65 0 -106.5 -44t-41.5 -112v-7z" />
    <glyph glyph-name="igrave" unicode="&#xec;" horiz-adv-x="250" 
d="M118 585l-106 159l73 35l85 -170zM85 0v516h80v-516h-80z" />
    <glyph glyph-name="iacute" unicode="&#xed;" horiz-adv-x="250" 
d="M132 585l-52 24l85 170l73 -35zM85 0v516h80v-516h-80z" />
    <glyph glyph-name="icircumflex" unicode="&#xee;" horiz-adv-x="250" 
d="M8 591l-44 31l111 143h100l111 -143l-44 -31l-117 117zM85 0v516h80v-516h-80z" />
    <glyph glyph-name="idieresis" unicode="&#xef;" horiz-adv-x="250" 
d="M32 618q-49 0 -49 46v11q0 46 49 46t49 -46v-11q0 -46 -49 -46zM218 618q-49 0 -49 46v11q0 46 49 46t49 -46v-11q0 -46 -49 -46zM85 0v516h80v-516h-80z" />
    <glyph glyph-name="eth" unicode="&#xf0;" horiz-adv-x="555" 
d="M276 -12q-105 0 -167 71.5t-62 186.5t62 186.5t167 71.5q98 0 130 -98l4 2q-19 105 -128 207l-79 -56l-31 41l70 50q-58 47 -131 90h123q35 -21 66 -48l85 61l33 -41l-78 -56q165 -161 165 -385q0 -136 -62.5 -209.5t-166.5 -73.5zM276 57q65 0 104 42.5t39 113.5v66
q0 71 -39 113.5t-104 42.5t-104 -42.5t-39 -113.5v-66q0 -71 39 -113.5t104 -42.5z" />
    <glyph glyph-name="ntilde" unicode="&#xf1;" horiz-adv-x="568" 
d="M361 612q-30 0 -80 26q-45 24 -70 24q-26 0 -58 -27l-33 40q35 53 95 53q30 0 80 -26q45 -24 70 -24q26 0 58 27l33 -40q-35 -53 -95 -53zM85 0v516h80v-84h4q41 96 146 96q80 0 126.5 -52t46.5 -145v-331h-80v317q0 139 -117 139q-52 0 -89 -25.5t-37 -72.5v-358h-80z
" />
    <glyph glyph-name="ograve" unicode="&#xf2;" horiz-adv-x="560" 
d="M273 583l-106 159l73 35l85 -170zM280 -12q-104 0 -168.5 74t-64.5 196t64.5 196t168.5 74t168.5 -74t64.5 -196t-64.5 -196t-168.5 -74zM280 59q67 0 107 41.5t40 120.5v74q0 79 -40 120.5t-107 41.5t-107 -41.5t-40 -120.5v-74q0 -79 40 -120.5t107 -41.5z" />
    <glyph glyph-name="oacute" unicode="&#xf3;" horiz-adv-x="560" 
d="M287 583l-52 24l85 170l73 -35zM280 -12q-104 0 -168.5 74t-64.5 196t64.5 196t168.5 74t168.5 -74t64.5 -196t-64.5 -196t-168.5 -74zM280 59q67 0 107 41.5t40 120.5v74q0 79 -40 120.5t-107 41.5t-107 -41.5t-40 -120.5v-74q0 -79 40 -120.5t107 -41.5z" />
    <glyph glyph-name="ocircumflex" unicode="&#xf4;" horiz-adv-x="560" 
d="M163 589l-44 31l111 143h100l111 -143l-44 -31l-117 117zM280 -12q-104 0 -168.5 74t-64.5 196t64.5 196t168.5 74t168.5 -74t64.5 -196t-64.5 -196t-168.5 -74zM280 59q67 0 107 41.5t40 120.5v74q0 79 -40 120.5t-107 41.5t-107 -41.5t-40 -120.5v-74q0 -79 40 -120.5
t107 -41.5z" />
    <glyph glyph-name="otilde" unicode="&#xf5;" horiz-adv-x="560" 
d="M353 610q-30 0 -80 26q-45 24 -70 24q-26 0 -58 -27l-33 40q35 53 95 53q30 0 80 -26q45 -24 70 -24q26 0 58 27l33 -40q-35 -53 -95 -53zM280 -12q-104 0 -168.5 74t-64.5 196t64.5 196t168.5 74t168.5 -74t64.5 -196t-64.5 -196t-168.5 -74zM280 59q67 0 107 41.5
t40 120.5v74q0 79 -40 120.5t-107 41.5t-107 -41.5t-40 -120.5v-74q0 -79 40 -120.5t107 -41.5z" />
    <glyph glyph-name="odieresis" unicode="&#xf6;" horiz-adv-x="560" 
d="M187 616q-49 0 -49 46v11q0 46 49 46t49 -46v-11q0 -46 -49 -46zM373 616q-49 0 -49 46v11q0 46 49 46t49 -46v-11q0 -46 -49 -46zM280 -12q-104 0 -168.5 74t-64.5 196t64.5 196t168.5 74t168.5 -74t64.5 -196t-64.5 -196t-168.5 -74zM280 59q67 0 107 41.5t40 120.5v74
q0 79 -40 120.5t-107 41.5t-107 -41.5t-40 -120.5v-74q0 -79 40 -120.5t107 -41.5z" />
    <glyph glyph-name="divide" unicode="&#xf7;" horiz-adv-x="600" 
d="M300 440q-62 0 -62 48v22q0 48 62 48t62 -48v-22q0 -48 -62 -48zM67 271v68h466v-68h-466zM300 52q-62 0 -62 48v22q0 48 62 48t62 -48v-22q0 -48 -62 -48z" />
    <glyph glyph-name="oslash" unicode="&#xf8;" horiz-adv-x="568" 
d="M80 -40l-45 34l67 84q-51 71 -51 180q0 122 64.5 196t168.5 74q82 0 142 -49l62 77l45 -34l-67 -85q51 -72 51 -179q0 -122 -64.5 -196t-168.5 -74q-83 0 -142 48zM152 139l230 285q-39 33 -98 33q-67 0 -107 -41.5t-40 -120.5v-74q0 -47 15 -82zM284 59q67 0 107 41.5
t40 120.5v74q0 44 -15 81l-230 -284q38 -33 98 -33z" />
    <glyph glyph-name="ugrave" unicode="&#xf9;" horiz-adv-x="566" 
d="M273 585l-106 159l73 35l85 -170zM252 -12q-80 0 -127 52t-47 145v331h80v-317q0 -139 118 -139q52 0 88.5 25.5t36.5 73.5v357h80v-516h-80v84h-4q-39 -96 -145 -96z" />
    <glyph glyph-name="uacute" unicode="&#xfa;" horiz-adv-x="566" 
d="M287 585l-52 24l85 170l73 -35zM252 -12q-80 0 -127 52t-47 145v331h80v-317q0 -139 118 -139q52 0 88.5 25.5t36.5 73.5v357h80v-516h-80v84h-4q-39 -96 -145 -96z" />
    <glyph glyph-name="ucircumflex" unicode="&#xfb;" horiz-adv-x="566" 
d="M163 591l-44 31l111 143h100l111 -143l-44 -31l-117 117zM252 -12q-80 0 -127 52t-47 145v331h80v-317q0 -139 118 -139q52 0 88.5 25.5t36.5 73.5v357h80v-516h-80v84h-4q-39 -96 -145 -96z" />
    <glyph glyph-name="udieresis" unicode="&#xfc;" horiz-adv-x="566" 
d="M187 618q-49 0 -49 46v11q0 46 49 46t49 -46v-11q0 -46 -49 -46zM373 618q-49 0 -49 46v11q0 46 49 46t49 -46v-11q0 -46 -49 -46zM252 -12q-80 0 -127 52t-47 145v331h80v-317q0 -139 118 -139q52 0 88.5 25.5t36.5 73.5v357h80v-516h-80v84h-4q-39 -96 -145 -96z" />
    <glyph glyph-name="yacute" unicode="&#xfd;" horiz-adv-x="499" 
d="M257 585l-52 24l85 170l73 -35zM90 -200v70h81l39 110l-193 536h80l124 -351l24 -84h5l28 84l125 351h79l-231 -636q-18 -48 -41 -64t-79 -16h-41z" />
    <glyph glyph-name="thorn" unicode="&#xfe;" horiz-adv-x="580" 
d="M85 -200v940h80v-308h4q40 96 151 96q97 0 153.5 -73t56.5 -197t-56.5 -197t-153.5 -73q-104 0 -151 96h-4v-284h-80zM298 60q67 0 106.5 42t39.5 112v88q0 70 -39.5 112t-106.5 42q-55 0 -94 -28.5t-39 -70.5v-192q0 -49 38 -77t95 -28z" />
    <glyph glyph-name="ydieresis" unicode="&#xff;" horiz-adv-x="499" 
d="M157 618q-49 0 -49 46v11q0 46 49 46t49 -46v-11q0 -46 -49 -46zM343 618q-49 0 -49 46v11q0 46 49 46t49 -46v-11q0 -46 -49 -46zM90 -200v70h81l39 110l-193 536h80l124 -351l24 -84h5l28 84l125 351h79l-231 -636q-18 -48 -41 -64t-79 -16h-41z" />
    <glyph glyph-name="Amacron" unicode="&#x100;" horiz-adv-x="641" 
d="M181 807v68h280v-68h-280zM23 0l244 698h107l244 -698h-88l-70 206h-282l-70 -206h-85zM198 280h241l-118 340h-5z" />
    <glyph glyph-name="amacron" unicode="&#x101;" horiz-adv-x="534" 
d="M112 637v68h280v-68h-280zM217 -12q-81 0 -127 42t-46 114q0 151 220 151h102v51q0 113 -122 113q-85 0 -131 -77l-48 45q23 44 70 72.5t113 28.5q93 0 145.5 -46t52.5 -128v-284h59v-70h-45q-76 0 -88 78l-1 6h-5q-34 -96 -149 -96zM230 56q59 0 97.5 27t38.5 67v85
h-106q-132 0 -132 -78v-21q0 -38 27.5 -59t74.5 -21z" />
    <glyph glyph-name="Abreve" unicode="&#x102;" horiz-adv-x="641" 
d="M321 766q-38 0 -65.5 11t-44.5 32t-25 38t-17 44l45 22l21 -33q16 -26 33.5 -38.5t52.5 -12.5t52.5 12.5t33.5 38.5l21 33l45 -22q-9 -27 -17 -44t-25 -38t-44.5 -32t-65.5 -11zM23 0l244 698h107l244 -698h-88l-70 206h-282l-70 -206h-85zM198 280h241l-118 340h-5z" />
    <glyph glyph-name="abreve" unicode="&#x103;" horiz-adv-x="534" 
d="M252 596q-38 0 -65.5 11t-44.5 32t-25 38t-17 44l45 22l21 -33q16 -26 33.5 -38.5t52.5 -12.5t52.5 12.5t33.5 38.5l21 33l45 -22q-9 -27 -17 -44t-25 -38t-44.5 -32t-65.5 -11zM217 -12q-81 0 -127 42t-46 114q0 151 220 151h102v51q0 113 -122 113q-85 0 -131 -77
l-48 45q23 44 70 72.5t113 28.5q93 0 145.5 -46t52.5 -128v-284h59v-70h-45q-76 0 -88 78l-1 6h-5q-34 -96 -149 -96zM230 56q59 0 97.5 27t38.5 67v85h-106q-132 0 -132 -78v-21q0 -38 27.5 -59t74.5 -21z" />
    <glyph glyph-name="Aogonek" unicode="&#x104;" horiz-adv-x="641" 
d="M551 -207q-42 0 -68.5 19t-26.5 57q0 34 25.5 62.5t75.5 64.5l-1 4h-26l-70 206h-282l-70 -206h-85l244 698h107l244 -698q-60 -55 -79 -80t-19 -43q0 -30 31 -30q29 0 48 24l40 -39q-22 -39 -88 -39zM198 280h241l-118 340h-5z" />
    <glyph glyph-name="aogonek" unicode="&#x105;" horiz-adv-x="534" 
d="M438 -207q-42 0 -68.5 19t-26.5 57q0 35 25.5 63.5t76.5 65.5l-1 3l-6 1q-56 11 -66 75l-1 7h-5q-34 -96 -149 -96q-81 0 -127 42t-46 114q0 151 220 151h102v51q0 113 -122 113q-85 0 -131 -77l-48 45q23 44 70 72.5t113 28.5q93 0 145.5 -46t52.5 -128v-284h59v-70
q-60 -55 -79 -80t-19 -43q0 -30 31 -30q29 0 48 24l40 -39q-22 -39 -88 -39zM230 56q59 0 97.5 27t38.5 67v85h-106q-132 0 -132 -78v-21q0 -38 27.5 -59t74.5 -21z" />
    <glyph glyph-name="Cacute" unicode="&#x106;" horiz-adv-x="621" 
d="M345 755l-52 24l85 170l73 -35zM339 -12q-133 0 -207 92t-74 265q0 174 74 269.5t207 95.5q171 0 240 -153l-68 -41q-22 56 -65.5 87.5t-106.5 31.5q-89 0 -140 -65t-51 -173v-104q0 -108 50.5 -169t140.5 -61q65 0 110.5 33.5t67.5 92.5l67 -42q-34 -75 -97 -117
t-148 -42z" />
    <glyph glyph-name="cacute" unicode="&#x107;" horiz-adv-x="503" 
d="M283 585l-52 24l85 170l73 -35zM277 -12q-108 0 -169 72.5t-61 197.5t61 197.5t169 72.5q142 0 193 -121l-67 -34q-30 84 -126 84q-69 0 -106.5 -42.5t-37.5 -112.5v-88q0 -70 37.5 -112.5t106.5 -42.5q97 0 140 90l58 -39q-26 -57 -76 -89.5t-122 -32.5z" />
    <glyph glyph-name="Ccircumflex" unicode="&#x108;" horiz-adv-x="621" 
d="M221 761l-44 31l111 143h100l111 -143l-44 -31l-117 117zM339 -12q-133 0 -207 92t-74 265q0 174 74 269.5t207 95.5q171 0 240 -153l-68 -41q-22 56 -65.5 87.5t-106.5 31.5q-89 0 -140 -65t-51 -173v-104q0 -108 50.5 -169t140.5 -61q65 0 110.5 33.5t67.5 92.5l67 -42
q-34 -75 -97 -117t-148 -42z" />
    <glyph glyph-name="ccircumflex" unicode="&#x109;" horiz-adv-x="503" 
d="M159 591l-44 31l111 143h100l111 -143l-44 -31l-117 117zM277 -12q-108 0 -169 72.5t-61 197.5t61 197.5t169 72.5q142 0 193 -121l-67 -34q-30 84 -126 84q-69 0 -106.5 -42.5t-37.5 -112.5v-88q0 -70 37.5 -112.5t106.5 -42.5q97 0 140 90l58 -39q-26 -57 -76 -89.5
t-122 -32.5z" />
    <glyph glyph-name="Cdotaccent" unicode="&#x10a;" horiz-adv-x="621" 
d="M338 780q-56 0 -56 53v14q0 53 56 53t56 -53v-14q0 -53 -56 -53zM339 -12q-133 0 -207 92t-74 265q0 174 74 269.5t207 95.5q171 0 240 -153l-68 -41q-22 56 -65.5 87.5t-106.5 31.5q-89 0 -140 -65t-51 -173v-104q0 -108 50.5 -169t140.5 -61q65 0 110.5 33.5t67.5 92.5
l67 -42q-34 -75 -97 -117t-148 -42z" />
    <glyph glyph-name="cdotaccent" unicode="&#x10b;" horiz-adv-x="503" 
d="M276 616q-51 0 -51 46v11q0 46 51 46t51 -46v-11q0 -46 -51 -46zM277 -12q-108 0 -169 72.5t-61 197.5t61 197.5t169 72.5q142 0 193 -121l-67 -34q-30 84 -126 84q-69 0 -106.5 -42.5t-37.5 -112.5v-88q0 -70 37.5 -112.5t106.5 -42.5q97 0 140 90l58 -39
q-26 -57 -76 -89.5t-122 -32.5z" />
    <glyph glyph-name="Ccaron" unicode="&#x10c;" horiz-adv-x="621" 
d="M288 769l-111 143l44 31l117 -117l117 117l44 -31l-111 -143h-100zM339 -12q-133 0 -207 92t-74 265q0 174 74 269.5t207 95.5q171 0 240 -153l-68 -41q-22 56 -65.5 87.5t-106.5 31.5q-89 0 -140 -65t-51 -173v-104q0 -108 50.5 -169t140.5 -61q65 0 110.5 33.5
t67.5 92.5l67 -42q-34 -75 -97 -117t-148 -42z" />
    <glyph glyph-name="ccaron" unicode="&#x10d;" horiz-adv-x="503" 
d="M226 599l-111 143l44 31l117 -117l117 117l44 -31l-111 -143h-100zM277 -12q-108 0 -169 72.5t-61 197.5t61 197.5t169 72.5q142 0 193 -121l-67 -34q-30 84 -126 84q-69 0 -106.5 -42.5t-37.5 -112.5v-88q0 -70 37.5 -112.5t106.5 -42.5q97 0 140 90l58 -39
q-26 -57 -76 -89.5t-122 -32.5z" />
    <glyph glyph-name="Dcaron" unicode="&#x10e;" horiz-adv-x="671" 
d="M257 769l-111 143l44 31l117 -117l117 117l44 -31l-111 -143h-100zM93 0v698h234q134 0 210 -89t76 -260t-76 -260t-210 -89h-234zM177 74h150q88 0 142 58t54 160v114q0 102 -54 160t-142 58h-150v-550z" />
    <glyph glyph-name="dcaron" unicode="&#x10f;" horiz-adv-x="603" 
d="M260 -12q-97 0 -153.5 73t-56.5 197t56.5 197t153.5 73q111 0 151 -96h4v308h80v-740h-80v84h-4q-47 -96 -151 -96zM551 555l12 185h93l-52 -185h-53zM282 60q57 0 95 28t38 77v192q0 42 -39 70.5t-94 28.5q-67 0 -106.5 -42t-39.5 -112v-88q0 -70 39.5 -112t106.5 -42z
" />
    <glyph glyph-name="Dcroat" unicode="&#x110;" horiz-adv-x="674" 
d="M96 0v337h-79v64h79v297h234q134 0 210 -89t76 -260t-76 -260t-210 -89h-234zM180 74h150q88 0 142 58t54 160v114q0 102 -54 160t-142 58h-150v-223h137v-64h-137v-263z" />
    <glyph glyph-name="dcroat" unicode="&#x111;" horiz-adv-x="583" 
d="M260 -12q-97 0 -153.5 73t-56.5 197t56.5 197t153.5 73q111 0 151 -96h4v176h-150v62h150v70h80v-70h64v-62h-64v-608h-80v84h-4q-47 -96 -151 -96zM282 60q57 0 95 28t38 77v192q0 42 -39 70.5t-94 28.5q-67 0 -106.5 -42t-39.5 -112v-88q0 -70 39.5 -112t106.5 -42z
" />
    <glyph glyph-name="Emacron" unicode="&#x112;" horiz-adv-x="583" 
d="M164 807v68h280v-68h-280zM93 0v698h426v-74h-342v-234h322v-74h-322v-242h342v-74h-426z" />
    <glyph glyph-name="emacron" unicode="&#x113;" horiz-adv-x="549" 
d="M139 637v68h280v-68h-280zM279 -12q-105 0 -168.5 73.5t-63.5 196.5t63.5 196.5t168.5 73.5q102 0 162.5 -70.5t60.5 -181.5v-38h-371v-24q0 -68 41.5 -112t111.5 -44q100 0 142 89l57 -41q-25 -54 -79 -86t-125 -32zM131 298h285v11q0 68 -37.5 110t-99.5 42
q-65 0 -106.5 -44t-41.5 -112v-7z" />
    <glyph glyph-name="Ebreve" unicode="&#x114;" horiz-adv-x="583" 
d="M304 766q-38 0 -65.5 11t-44.5 32t-25 38t-17 44l45 22l21 -33q16 -26 33.5 -38.5t52.5 -12.5t52.5 12.5t33.5 38.5l21 33l45 -22q-9 -27 -17 -44t-25 -38t-44.5 -32t-65.5 -11zM93 0v698h426v-74h-342v-234h322v-74h-322v-242h342v-74h-426z" />
    <glyph glyph-name="ebreve" unicode="&#x115;" horiz-adv-x="549" 
d="M279 596q-38 0 -65.5 11t-44.5 32t-25 38t-17 44l45 22l21 -33q16 -26 33.5 -38.5t52.5 -12.5t52.5 12.5t33.5 38.5l21 33l45 -22q-9 -27 -17 -44t-25 -38t-44.5 -32t-65.5 -11zM279 -12q-105 0 -168.5 73.5t-63.5 196.5t63.5 196.5t168.5 73.5q102 0 162.5 -70.5
t60.5 -181.5v-38h-371v-24q0 -68 41.5 -112t111.5 -44q100 0 142 89l57 -41q-25 -54 -79 -86t-125 -32zM131 298h285v11q0 68 -37.5 110t-99.5 42q-65 0 -106.5 -44t-41.5 -112v-7z" />
    <glyph glyph-name="Edotaccent" unicode="&#x116;" horiz-adv-x="583" 
d="M304 780q-56 0 -56 53v14q0 53 56 53t56 -53v-14q0 -53 -56 -53zM93 0v698h426v-74h-342v-234h322v-74h-322v-242h342v-74h-426z" />
    <glyph glyph-name="edotaccent" unicode="&#x117;" horiz-adv-x="549" 
d="M279 616q-51 0 -51 46v11q0 46 51 46t51 -46v-11q0 -46 -51 -46zM279 -12q-105 0 -168.5 73.5t-63.5 196.5t63.5 196.5t168.5 73.5q102 0 162.5 -70.5t60.5 -181.5v-38h-371v-24q0 -68 41.5 -112t111.5 -44q100 0 142 89l57 -41q-25 -54 -79 -86t-125 -32zM131 298h285
v11q0 68 -37.5 110t-99.5 42q-65 0 -106.5 -44t-41.5 -112v-7z" />
    <glyph glyph-name="Eogonek" unicode="&#x118;" horiz-adv-x="583" 
d="M452 -207q-42 0 -68.5 19t-26.5 57q0 35 26 64t75 62l-1 5h-364v698h426v-74h-342v-234h322v-74h-322v-242h342v-74q-60 -55 -79 -80t-19 -43q0 -30 31 -30q29 0 48 24l40 -39q-22 -39 -88 -39z" />
    <glyph glyph-name="eogonek" unicode="&#x119;" horiz-adv-x="549" 
d="M356 -207q-42 0 -68 19t-26 58q0 40 27.5 70t74.5 60l-4 5q-32 -17 -81 -17q-105 0 -168.5 73.5t-63.5 196.5t63.5 196.5t168.5 73.5q102 0 162.5 -70.5t60.5 -181.5v-38h-371v-24q0 -68 41.5 -112t111.5 -44q100 0 142 89l57 -41q-15 -30 -34 -53q-10 -13 -46.5 -50.5
t-56.5 -67.5t-20 -57q0 -31 31 -31q29 0 48 24l39 -39q-22 -39 -88 -39zM131 298h285v11q0 68 -37.5 110t-99.5 42q-65 0 -106.5 -44t-41.5 -112v-7z" />
    <glyph glyph-name="Ecaron" unicode="&#x11a;" horiz-adv-x="583" 
d="M254 769l-111 143l44 31l117 -117l117 117l44 -31l-111 -143h-100zM93 0v698h426v-74h-342v-234h322v-74h-322v-242h342v-74h-426z" />
    <glyph glyph-name="ecaron" unicode="&#x11b;" horiz-adv-x="549" 
d="M229 599l-111 143l44 31l117 -117l117 117l44 -31l-111 -143h-100zM279 -12q-105 0 -168.5 73.5t-63.5 196.5t63.5 196.5t168.5 73.5q102 0 162.5 -70.5t60.5 -181.5v-38h-371v-24q0 -68 41.5 -112t111.5 -44q100 0 142 89l57 -41q-25 -54 -79 -86t-125 -32zM131 298h285
v11q0 68 -37.5 110t-99.5 42q-65 0 -106.5 -44t-41.5 -112v-7z" />
    <glyph glyph-name="Gcircumflex" unicode="&#x11c;" horiz-adv-x="695" 
d="M238 761l-44 31l111 143h100l111 -143l-44 -31l-117 117zM348 -12q-131 0 -210.5 94.5t-79.5 266.5q0 171 80.5 266t216.5 95q178 0 254 -153l-69 -42q-24 56 -72 88t-113 32q-93 0 -150 -63t-57 -166v-113q0 -104 58 -167t157 -63q77 0 127.5 39.5t50.5 113.5v69h-154
v74h236v-359h-78v102h-3q-13 -50 -65 -82t-129 -32z" />
    <glyph glyph-name="gcircumflex" unicode="&#x11d;" horiz-adv-x="531" 
d="M149 591l-44 31l111 143h100l111 -143l-44 -31l-117 117zM270 -212q-227 0 -227 127q0 77 82 100v11q-46 22 -46 72q0 68 89 90v4q-46 22 -71.5 63t-25.5 95q0 79 53.5 128.5t140.5 49.5q43 0 78 -12h161v-64h-80q37 -42 37 -102q0 -79 -53.5 -128.5t-141.5 -49.5
q-25 0 -50 5q-68 -18 -68 -58q0 -39 79 -39h110q183 0 183 -137q0 -155 -250 -155zM266 236q52 0 81.5 25t29.5 75v28q0 50 -29.5 75t-81.5 25t-81.5 -25t-29.5 -75v-28q0 -50 29.5 -75t81.5 -25zM230 -147h74q141 0 141 84q0 68 -107 68h-172q-48 -22 -48 -70
q0 -37 27.5 -59.5t84.5 -22.5z" />
    <glyph glyph-name="Gbreve" unicode="&#x11e;" horiz-adv-x="695" 
d="M355 766q-38 0 -65.5 11t-44.5 32t-25 38t-17 44l45 22l21 -33q16 -26 33.5 -38.5t52.5 -12.5t52.5 12.5t33.5 38.5l21 33l45 -22q-9 -27 -17 -44t-25 -38t-44.5 -32t-65.5 -11zM348 -12q-131 0 -210.5 94.5t-79.5 266.5q0 171 80.5 266t216.5 95q178 0 254 -153l-69 -42
q-24 56 -72 88t-113 32q-93 0 -150 -63t-57 -166v-113q0 -104 58 -167t157 -63q77 0 127.5 39.5t50.5 113.5v69h-154v74h236v-359h-78v102h-3q-13 -50 -65 -82t-129 -32z" />
    <glyph glyph-name="gbreve" unicode="&#x11f;" horiz-adv-x="531" 
d="M264 596q-38 0 -65.5 11t-44.5 32t-25 38t-17 44l45 22l21 -33q16 -26 33.5 -38.5t52.5 -12.5t52.5 12.5t33.5 38.5l21 33l45 -22q-9 -27 -17 -44t-25 -38t-44.5 -32t-65.5 -11zM270 -212q-227 0 -227 127q0 77 82 100v11q-46 22 -46 72q0 68 89 90v4q-46 22 -71.5 63
t-25.5 95q0 79 53.5 128.5t140.5 49.5q43 0 78 -12h161v-64h-80q37 -42 37 -102q0 -79 -53.5 -128.5t-141.5 -49.5q-25 0 -50 5q-68 -18 -68 -58q0 -39 79 -39h110q183 0 183 -137q0 -155 -250 -155zM266 236q52 0 81.5 25t29.5 75v28q0 50 -29.5 75t-81.5 25t-81.5 -25
t-29.5 -75v-28q0 -50 29.5 -75t81.5 -25zM230 -147h74q141 0 141 84q0 68 -107 68h-172q-48 -22 -48 -70q0 -37 27.5 -59.5t84.5 -22.5z" />
    <glyph glyph-name="Gdotaccent" unicode="&#x120;" horiz-adv-x="695" 
d="M355 780q-56 0 -56 53v14q0 53 56 53t56 -53v-14q0 -53 -56 -53zM348 -12q-131 0 -210.5 94.5t-79.5 266.5q0 171 80.5 266t216.5 95q178 0 254 -153l-69 -42q-24 56 -72 88t-113 32q-93 0 -150 -63t-57 -166v-113q0 -104 58 -167t157 -63q77 0 127.5 39.5t50.5 113.5v69
h-154v74h236v-359h-78v102h-3q-13 -50 -65 -82t-129 -32z" />
    <glyph glyph-name="gdotaccent" unicode="&#x121;" horiz-adv-x="531" 
d="M266 616q-51 0 -51 46v11q0 46 51 46t51 -46v-11q0 -46 -51 -46zM270 -212q-227 0 -227 127q0 77 82 100v11q-46 22 -46 72q0 68 89 90v4q-46 22 -71.5 63t-25.5 95q0 79 53.5 128.5t140.5 49.5q43 0 78 -12h161v-64h-80q37 -42 37 -102q0 -79 -53.5 -128.5t-141.5 -49.5
q-25 0 -50 5q-68 -18 -68 -58q0 -39 79 -39h110q183 0 183 -137q0 -155 -250 -155zM266 236q52 0 81.5 25t29.5 75v28q0 50 -29.5 75t-81.5 25t-81.5 -25t-29.5 -75v-28q0 -50 29.5 -75t81.5 -25zM230 -147h74q141 0 141 84q0 68 -107 68h-172q-48 -22 -48 -70
q0 -37 27.5 -59.5t84.5 -22.5z" />
    <glyph glyph-name="uni0122" unicode="&#x122;" horiz-adv-x="695" 
d="M348 -12q-131 0 -210.5 94.5t-79.5 266.5q0 171 80.5 266t216.5 95q178 0 254 -153l-69 -42q-24 56 -72 88t-113 32q-93 0 -150 -63t-57 -166v-113q0 -104 58 -167t157 -63q77 0 127.5 39.5t50.5 113.5v69h-154v74h236v-359h-78v102h-3q-13 -50 -65 -82t-129 -32z
M281 -245q41 42 51 78q-35 8 -35 44v10q0 47 51 47t51 -47v-11q0 -65 -60 -121h-58z" />
    <glyph glyph-name="uni0123" unicode="&#x123;" horiz-adv-x="531" 
d="M267 595q-51 0 -51 47v11q0 65 60 121h58q-41 -42 -51 -78q35 -8 35 -44v-10q0 -47 -51 -47zM270 -212q-227 0 -227 127q0 77 82 100v11q-46 22 -46 72q0 68 89 90v4q-46 22 -71.5 63t-25.5 95q0 79 53.5 128.5t140.5 49.5q43 0 78 -12h161v-64h-80q37 -42 37 -102
q0 -79 -53.5 -128.5t-141.5 -49.5q-25 0 -50 5q-68 -18 -68 -58q0 -39 79 -39h110q183 0 183 -137q0 -155 -250 -155zM266 236q52 0 81.5 25t29.5 75v28q0 50 -29.5 75t-81.5 25t-81.5 -25t-29.5 -75v-28q0 -50 29.5 -75t81.5 -25zM230 -147h74q141 0 141 84q0 68 -107 68
h-172q-48 -22 -48 -70q0 -37 27.5 -59.5t84.5 -22.5z" />
    <glyph glyph-name="Hcircumflex" unicode="&#x124;" horiz-adv-x="707" 
d="M237 761l-44 31l111 143h100l111 -143l-44 -31l-117 117zM93 0v698h84v-308h353v308h84v-698h-84v316h-353v-316h-84z" />
    <glyph glyph-name="hcircumflex" unicode="&#x125;" horiz-adv-x="568" 
d="M10 749l-44 31l111 143h100l111 -143l-44 -31l-117 117zM85 0v740h80v-308h4q41 96 146 96q80 0 126.5 -52t46.5 -145v-331h-80v317q0 139 -117 139q-52 0 -89 -25.5t-37 -72.5v-358h-80z" />
    <glyph glyph-name="Hbar" unicode="&#x126;" horiz-adv-x="713" 
d="M96 0v518h-69v64h69v116h84v-116h353v116h84v-116h69v-64h-69v-518h-84v316h-353v-316h-84zM180 390h353v128h-353v-128z" />
    <glyph glyph-name="hbar" unicode="&#x127;" horiz-adv-x="568" 
d="M85 0v608h-64v62h64v70h80v-70h150v-62h-150v-176h4q41 96 146 96q80 0 126.5 -52t46.5 -145v-331h-80v317q0 139 -117 139q-52 0 -89 -25.5t-37 -72.5v-358h-80z" />
    <glyph glyph-name="Itilde" unicode="&#x128;" horiz-adv-x="400" 
d="M273 782q-30 0 -80 26q-45 24 -70 24q-26 0 -58 -27l-33 40q35 53 95 53q30 0 80 -26q45 -24 70 -24q26 0 58 27l33 -40q-35 -53 -95 -53zM60 0v70h98v558h-98v70h280v-70h-98v-558h98v-70h-280z" />
    <glyph glyph-name="itilde" unicode="&#x129;" horiz-adv-x="250" 
d="M198 612q-30 0 -80 26q-45 24 -70 24q-26 0 -58 -27l-33 40q35 53 95 53q30 0 80 -26q45 -24 70 -24q26 0 58 27l33 -40q-35 -53 -95 -53zM85 0v516h80v-516h-80z" />
    <glyph glyph-name="Imacron" unicode="&#x12a;" horiz-adv-x="400" 
d="M60 807v68h280v-68h-280zM60 0v70h98v558h-98v70h280v-70h-98v-558h98v-70h-280z" />
    <glyph glyph-name="imacron" unicode="&#x12b;" horiz-adv-x="250" 
d="M-15 637v68h280v-68h-280zM85 0v516h80v-516h-80z" />
    <glyph glyph-name="Ibreve" unicode="&#x12c;" horiz-adv-x="400" 
d="M200 766q-38 0 -65.5 11t-44.5 32t-25 38t-17 44l45 22l21 -33q16 -26 33.5 -38.5t52.5 -12.5t52.5 12.5t33.5 38.5l21 33l45 -22q-9 -27 -17 -44t-25 -38t-44.5 -32t-65.5 -11zM60 0v70h98v558h-98v70h280v-70h-98v-558h98v-70h-280z" />
    <glyph glyph-name="ibreve" unicode="&#x12d;" horiz-adv-x="250" 
d="M125 596q-38 0 -65.5 11t-44.5 32t-25 38t-17 44l45 22l21 -33q16 -26 33.5 -38.5t52.5 -12.5t52.5 12.5t33.5 38.5l21 33l45 -22q-9 -27 -17 -44t-25 -38t-44.5 -32t-65.5 -11zM85 0v516h80v-516h-80z" />
    <glyph glyph-name="Iogonek" unicode="&#x12e;" horiz-adv-x="400" 
d="M273 -207q-42 0 -68.5 19t-26.5 57q0 35 24.5 63t76.5 63l-1 5h-218v70h98v558h-98v70h280v-70h-98v-558h98v-70q-60 -55 -79 -80t-19 -43q0 -30 31 -30q29 0 48 24l40 -39q-22 -39 -88 -39z" />
    <glyph glyph-name="iogonek" unicode="&#x12f;" horiz-adv-x="250" 
d="M125 637q-49 0 -49 45v13q0 45 49 45t49 -45v-13q0 -45 -49 -45zM98 -207q-42 0 -68.5 19t-26.5 57q0 24 16 48t34 39.5t52 39.5l-2 4h-18v516h80v-516q-60 -55 -79 -80t-19 -43q0 -30 31 -30q29 0 48 24l40 -39q-22 -39 -88 -39z" />
    <glyph glyph-name="Idotaccent" unicode="&#x130;" horiz-adv-x="400" 
d="M200 780q-56 0 -56 53v14q0 53 56 53t56 -53v-14q0 -53 -56 -53zM60 0v70h98v558h-98v70h280v-70h-98v-558h98v-70h-280z" />
    <glyph glyph-name="dotlessi" unicode="&#x131;" horiz-adv-x="250" 
d="M85 0v516h80v-516h-80z" />
    <glyph glyph-name="IJ" unicode="&#x132;" horiz-adv-x="645" 
d="M88 290v408h84v-408h-84zM320 -12q-96 0 -153.5 45.5t-73.5 120.5l76 18q26 -109 154 -109q72 0 111 36t39 109v415h-152v75h236v-473q0 -110 -63 -173.5t-174 -63.5z" />
    <glyph glyph-name="ij" unicode="&#x133;" horiz-adv-x="496" 
d="M125 637q-49 0 -49 45v13q0 45 49 45t49 -45v-13q0 -45 -49 -45zM371 637q-49 0 -49 45v13q0 45 49 45t49 -45v-13q0 -45 -49 -45zM85 0v516h80v-516h-80zM247 -200v70h84v646h80v-596q0 -55 -28 -87.5t-84 -32.5h-52z" />
    <glyph glyph-name="Jcircumflex" unicode="&#x134;" horiz-adv-x="510" 
d="M146 761l-44 31l111 143h100l111 -143l-44 -31l-117 117zM222 -12q-79 0 -129 43t-65 116l76 18q22 -102 120 -102q55 0 84.5 33.5t29.5 99.5v428h-240v74h324v-517q0 -88 -55.5 -140.5t-144.5 -52.5z" />
    <glyph glyph-name="jcircumflex" unicode="&#x135;" horiz-adv-x="250" 
d="M8 591l-44 31l111 143h100l111 -143l-44 -31l-117 117zM1 -200v70h84v646h80v-596q0 -55 -28 -87.5t-84 -32.5h-52z" />
    <glyph glyph-name="uni0136" unicode="&#x136;" horiz-adv-x="634" 
d="M93 0v698h84v-371h3l100 121l211 250h103l-260 -299l278 -399h-104l-232 343l-99 -110v-233h-84zM269 -245q41 42 51 78q-35 8 -35 44v10q0 47 51 47t51 -47v-11q0 -65 -60 -121h-58z" />
    <glyph glyph-name="uni0137" unicode="&#x137;" horiz-adv-x="527" 
d="M85 0v740h80v-469h4l79 88l146 157h97l-191 -204l210 -312h-97l-171 263l-77 -79v-184h-80zM225 -245q41 42 51 78q-35 8 -35 44v10q0 47 51 47t51 -47v-11q0 -65 -60 -121h-58z" />
    <glyph glyph-name="kgreenlandic" unicode="&#x138;" horiz-adv-x="527" 
d="M85 0v516h80v-243h4l80 88l147 155h98l-194 -202l210 -314h-97l-171 263l-77 -79v-184h-80z" />
    <glyph glyph-name="Lacute" unicode="&#x139;" horiz-adv-x="501" 
d="M142 755l-52 24l85 170l73 -35zM93 0v698h84v-624h297v-74h-381z" />
    <glyph glyph-name="lacute" unicode="&#x13a;" horiz-adv-x="272" 
d="M132 785l-52 24l85 170l73 -35zM170 0q-40 0 -62.5 23t-22.5 60v657h80v-670h76v-70h-71z" />
    <glyph glyph-name="uni013B" unicode="&#x13b;" horiz-adv-x="501" 
d="M93 0v698h84v-624h297v-74h-381zM231 -245q41 42 51 78q-35 8 -35 44v10q0 47 51 47t51 -47v-11q0 -65 -60 -121h-58z" />
    <glyph glyph-name="uni013C" unicode="&#x13c;" horiz-adv-x="272" 
d="M170 0q-40 0 -62.5 23t-22.5 60v657h80v-670h76v-70h-71zM97 -245q41 42 51 78q-35 8 -35 44v10q0 47 51 47t51 -47v-11q0 -65 -60 -121h-58z" />
    <glyph glyph-name="Lcaron" unicode="&#x13d;" horiz-adv-x="501" 
d="M255 555l12 185h93l-52 -185h-53zM93 0v698h84v-624h297v-74h-381z" />
    <glyph glyph-name="lcaron" unicode="&#x13e;" horiz-adv-x="274" 
d="M170 0q-40 0 -62.5 23t-22.5 60v657h80v-670h76v-70h-71zM220 555l12 185h93l-52 -185h-53z" />
    <glyph glyph-name="Ldot" unicode="&#x13f;" horiz-adv-x="501" 
d="M93 0v698h84v-624h297v-74h-381zM385 292q-51 0 -51 46v11q0 46 51 46t51 -46v-11q0 -46 -51 -46z" />
    <glyph glyph-name="ldot" unicode="&#x140;" horiz-adv-x="358" 
d="M170 0q-40 0 -62.5 23t-22.5 60v657h80v-670h76v-70h-71zM304 253q-51 0 -51 46v11q0 46 51 46t51 -46v-11q0 -46 -51 -46z" />
    <glyph glyph-name="Lslash" unicode="&#x141;" horiz-adv-x="508" 
d="M96 0v271l-103 -34v67l103 35v359h84v-331l181 61v-71l-181 -59v-223h297v-75h-381z" />
    <glyph glyph-name="lslash" unicode="&#x142;" horiz-adv-x="278" 
d="M173 0q-40 0 -62.5 23t-22.5 60v242l-70 -23v68l70 23v347h80v-320l103 34v-68l-103 -34v-282h76v-70h-71z" />
    <glyph glyph-name="Nacute" unicode="&#x143;" horiz-adv-x="707" 
d="M360 755l-52 24l85 170l73 -35zM93 0v698h97l255 -426l84 -155h3v581h82v-698h-97l-255 426l-84 155h-3v-581h-82z" />
    <glyph glyph-name="nacute" unicode="&#x144;" horiz-adv-x="568" 
d="M295 585l-52 24l85 170l73 -35zM85 0v516h80v-84h4q41 96 146 96q80 0 126.5 -52t46.5 -145v-331h-80v317q0 139 -117 139q-52 0 -89 -25.5t-37 -72.5v-358h-80z" />
    <glyph glyph-name="uni0145" unicode="&#x145;" horiz-adv-x="707" 
d="M93 0v698h97l255 -426l84 -155h3v581h82v-698h-97l-255 426l-84 155h-3v-581h-82zM286 -245q41 42 51 78q-35 8 -35 44v10q0 47 51 47t51 -47v-11q0 -65 -60 -121h-58z" />
    <glyph glyph-name="uni0146" unicode="&#x146;" horiz-adv-x="568" 
d="M85 0v516h80v-84h4q41 96 146 96q80 0 126.5 -52t46.5 -145v-331h-80v317q0 139 -117 139q-52 0 -89 -25.5t-37 -72.5v-358h-80zM220 -245q41 42 51 78q-35 8 -35 44v10q0 47 51 47t51 -47v-11q0 -65 -60 -121h-58z" />
    <glyph glyph-name="Ncaron" unicode="&#x147;" horiz-adv-x="707" 
d="M303 769l-111 143l44 31l117 -117l117 117l44 -31l-111 -143h-100zM93 0v698h97l255 -426l84 -155h3v581h82v-698h-97l-255 426l-84 155h-3v-581h-82z" />
    <glyph glyph-name="ncaron" unicode="&#x148;" horiz-adv-x="568" 
d="M238 599l-111 143l44 31l117 -117l117 117l44 -31l-111 -143h-100zM85 0v516h80v-84h4q41 96 146 96q80 0 126.5 -52t46.5 -145v-331h-80v317q0 139 -117 139q-52 0 -89 -25.5t-37 -72.5v-358h-80z" />
    <glyph glyph-name="napostrophe" unicode="&#x149;" horiz-adv-x="812" 
d="M45 500q61 64 75 124q-39 9 -39 53v14q0 59 61 59t61 -59v-14q0 -42 -24.5 -91.5t-66.5 -85.5h-67zM329 0v516h80v-84h4q41 96 146 96q80 0 126.5 -52t46.5 -145v-331h-80v317q0 139 -117 139q-52 0 -89 -25.5t-37 -72.5v-358h-80z" />
    <glyph glyph-name="Eng" unicode="&#x14a;" horiz-adv-x="707" 
d="M446 -200v74h86v126h-15l-255 426l-84 155h-3v-581h-82v698h97l255 -426l84 -155h3v581h82v-773q0 -57 -29 -91t-85 -34h-54z" />
    <glyph glyph-name="eng" unicode="&#x14b;" horiz-adv-x="568" 
d="M324 -200v70h84v447q0 139 -117 139q-52 0 -89 -25.5t-37 -72.5v-358h-80v516h80v-84h4q41 96 146 96q80 0 126.5 -52t46.5 -145v-413q0 -55 -28 -86.5t-83 -31.5h-53z" />
    <glyph glyph-name="Omacron" unicode="&#x14c;" horiz-adv-x="708" 
d="M214 807v68h280v-68h-280zM354 -12q-137 0 -216.5 94t-79.5 267t79.5 267t216.5 94t216.5 -94t79.5 -267t-79.5 -267t-216.5 -94zM354 63q91 0 148.5 62.5t57.5 165.5v116q0 103 -57.5 165.5t-148.5 62.5t-148.5 -62.5t-57.5 -165.5v-116q0 -103 57.5 -165.5t148.5 -62.5
z" />
    <glyph glyph-name="omacron" unicode="&#x14d;" horiz-adv-x="560" 
d="M140 635v68h280v-68h-280zM280 -12q-104 0 -168.5 74t-64.5 196t64.5 196t168.5 74t168.5 -74t64.5 -196t-64.5 -196t-168.5 -74zM280 59q67 0 107 41.5t40 120.5v74q0 79 -40 120.5t-107 41.5t-107 -41.5t-40 -120.5v-74q0 -79 40 -120.5t107 -41.5z" />
    <glyph glyph-name="Obreve" unicode="&#x14e;" horiz-adv-x="708" 
d="M354 766q-38 0 -65.5 11t-44.5 32t-25 38t-17 44l45 22l21 -33q16 -26 33.5 -38.5t52.5 -12.5t52.5 12.5t33.5 38.5l21 33l45 -22q-9 -27 -17 -44t-25 -38t-44.5 -32t-65.5 -11zM354 -12q-137 0 -216.5 94t-79.5 267t79.5 267t216.5 94t216.5 -94t79.5 -267t-79.5 -267
t-216.5 -94zM354 63q91 0 148.5 62.5t57.5 165.5v116q0 103 -57.5 165.5t-148.5 62.5t-148.5 -62.5t-57.5 -165.5v-116q0 -103 57.5 -165.5t148.5 -62.5z" />
    <glyph glyph-name="obreve" unicode="&#x14f;" horiz-adv-x="560" 
d="M280 594q-38 0 -65.5 11t-44.5 32t-25 38t-17 44l45 22l21 -33q16 -26 33.5 -38.5t52.5 -12.5t52.5 12.5t33.5 38.5l21 33l45 -22q-9 -27 -17 -44t-25 -38t-44.5 -32t-65.5 -11zM280 -12q-104 0 -168.5 74t-64.5 196t64.5 196t168.5 74t168.5 -74t64.5 -196t-64.5 -196
t-168.5 -74zM280 59q67 0 107 41.5t40 120.5v74q0 79 -40 120.5t-107 41.5t-107 -41.5t-40 -120.5v-74q0 -79 40 -120.5t107 -41.5z" />
    <glyph glyph-name="Ohungarumlaut" unicode="&#x150;" horiz-adv-x="708" 
d="M281 756l-48 22l85 170l69 -33zM441 756l-48 22l85 170l69 -33zM354 -12q-137 0 -216.5 94t-79.5 267t79.5 267t216.5 94t216.5 -94t79.5 -267t-79.5 -267t-216.5 -94zM354 63q91 0 148.5 62.5t57.5 165.5v116q0 103 -57.5 165.5t-148.5 62.5t-148.5 -62.5t-57.5 -165.5
v-116q0 -103 57.5 -165.5t148.5 -62.5z" />
    <glyph glyph-name="ohungarumlaut" unicode="&#x151;" horiz-adv-x="560" 
d="M207 584l-48 22l85 170l69 -33zM367 584l-48 22l85 170l69 -33zM280 -12q-104 0 -168.5 74t-64.5 196t64.5 196t168.5 74t168.5 -74t64.5 -196t-64.5 -196t-168.5 -74zM280 59q67 0 107 41.5t40 120.5v74q0 79 -40 120.5t-107 41.5t-107 -41.5t-40 -120.5v-74
q0 -79 40 -120.5t107 -41.5z" />
    <glyph glyph-name="OE" unicode="&#x152;" horiz-adv-x="985" 
d="M367 -12q-146 0 -227.5 93t-81.5 268t81.5 268t227.5 93q65 0 128 -12h426v-74h-343v-234h323v-74h-323v-242h343v-74h-426q-63 -12 -128 -12zM377 63q63 0 117 18v536q-54 18 -117 18q-114 0 -171.5 -60.5t-57.5 -167.5v-116q0 -107 57.5 -167.5t171.5 -60.5z" />
    <glyph glyph-name="oe" unicode="&#x153;" horiz-adv-x="931" 
d="M280 -12q-104 0 -168.5 74t-64.5 196t64.5 196t168.5 74q66 0 115 -30t73 -85h6q22 53 71 84t116 31q101 0 162 -70.5t61 -181.5v-38h-371v-24q0 -68 41.5 -112t111.5 -44q99 0 143 89l56 -41q-26 -54 -77.5 -86t-120.5 -32q-71 0 -120 32t-74 83h-5q-23 -51 -74 -83
t-114 -32zM513 298h285v11q0 68 -37.5 110t-99.5 42q-65 0 -106.5 -44t-41.5 -112v-7zM280 59q67 0 107 41.5t40 120.5v74q0 79 -40 120.5t-107 41.5t-107 -41.5t-40 -120.5v-74q0 -79 40 -120.5t107 -41.5z" />
    <glyph glyph-name="Racute" unicode="&#x154;" horiz-adv-x="640" 
d="M314 755l-52 24l85 170l73 -35zM93 0v698h278q92 0 143.5 -51.5t51.5 -146.5q0 -77 -36 -126.5t-104 -65.5l160 -308h-95l-151 300h-163v-300h-84zM177 372h194q50 0 77.5 26t27.5 74v52q0 48 -27.5 74t-77.5 26h-194v-252z" />
    <glyph glyph-name="racute" unicode="&#x155;" horiz-adv-x="367" 
d="M226 585l-52 24l85 170l73 -35zM85 0v516h80v-95h5q15 41 52.5 68t96.5 27h31v-80h-47q-63 0 -100.5 -24t-37.5 -62v-350h-80z" />
    <glyph glyph-name="uni0156" unicode="&#x156;" horiz-adv-x="640" 
d="M93 0v698h278q92 0 143.5 -51.5t51.5 -146.5q0 -77 -36 -126.5t-104 -65.5l160 -308h-95l-151 300h-163v-300h-84zM177 372h194q50 0 77.5 26t27.5 74v52q0 48 -27.5 74t-77.5 26h-194v-252zM257 -245q41 42 51 78q-35 8 -35 44v10q0 47 51 47t51 -47v-11q0 -65 -60 -121
h-58z" />
    <glyph glyph-name="uni0157" unicode="&#x157;" horiz-adv-x="367" 
d="M85 0v516h80v-95h5q15 41 52.5 68t96.5 27h31v-80h-47q-63 0 -100.5 -24t-37.5 -62v-350h-80zM60 -245q41 42 51 78q-35 8 -35 44v10q0 47 51 47t51 -47v-11q0 -65 -60 -121h-58z" />
    <glyph glyph-name="Rcaron" unicode="&#x158;" horiz-adv-x="640" 
d="M257 769l-111 143l44 31l117 -117l117 117l44 -31l-111 -143h-100zM93 0v698h278q92 0 143.5 -51.5t51.5 -146.5q0 -77 -36 -126.5t-104 -65.5l160 -308h-95l-151 300h-163v-300h-84zM177 372h194q50 0 77.5 26t27.5 74v52q0 48 -27.5 74t-77.5 26h-194v-252z" />
    <glyph glyph-name="rcaron" unicode="&#x159;" horiz-adv-x="367" 
d="M169 599l-111 143l44 31l117 -117l117 117l44 -31l-111 -143h-100zM85 0v516h80v-95h5q15 41 52.5 68t96.5 27h31v-80h-47q-63 0 -100.5 -24t-37.5 -62v-350h-80z" />
    <glyph glyph-name="Sacute" unicode="&#x15a;" horiz-adv-x="581" 
d="M295 755l-52 24l85 170l73 -35zM289 -12q-157 0 -247 122l62 52q75 -100 188 -100q74 0 114 35.5t40 96.5q0 49 -30 76.5t-99 43.5l-57 13q-98 22 -147.5 68t-49.5 124q0 91 63 141t168 50q151 0 231 -114l-63 -46q-62 86 -172 86q-68 0 -106 -29.5t-38 -84.5
q0 -48 31.5 -74t99.5 -42l57 -13q102 -23 148.5 -70t46.5 -125q0 -97 -64 -153.5t-176 -56.5z" />
    <glyph glyph-name="sacute" unicode="&#x15b;" horiz-adv-x="487" 
d="M245 585l-52 24l85 170l73 -35zM240 -12q-128 0 -204 101l57 46q63 -79 153 -79q51 0 79.5 22t28.5 62q0 68 -90 81l-41 6q-166 24 -166 149q0 74 51 113t133 39q113 0 180 -83l-53 -48q-45 63 -133 63q-49 0 -75 -21.5t-26 -58.5q0 -36 24 -54t75 -26l40 -6
q83 -12 120.5 -48.5t37.5 -96.5q0 -75 -51 -118t-140 -43z" />
    <glyph glyph-name="Scircumflex" unicode="&#x15c;" horiz-adv-x="581" 
d="M171 761l-44 31l111 143h100l111 -143l-44 -31l-117 117zM289 -12q-157 0 -247 122l62 52q75 -100 188 -100q74 0 114 35.5t40 96.5q0 49 -30 76.5t-99 43.5l-57 13q-98 22 -147.5 68t-49.5 124q0 91 63 141t168 50q151 0 231 -114l-63 -46q-62 86 -172 86
q-68 0 -106 -29.5t-38 -84.5q0 -48 31.5 -74t99.5 -42l57 -13q102 -23 148.5 -70t46.5 -125q0 -97 -64 -153.5t-176 -56.5z" />
    <glyph glyph-name="scircumflex" unicode="&#x15d;" horiz-adv-x="487" 
d="M121 591l-44 31l111 143h100l111 -143l-44 -31l-117 117zM240 -12q-128 0 -204 101l57 46q63 -79 153 -79q51 0 79.5 22t28.5 62q0 68 -90 81l-41 6q-166 24 -166 149q0 74 51 113t133 39q113 0 180 -83l-53 -48q-45 63 -133 63q-49 0 -75 -21.5t-26 -58.5q0 -36 24 -54
t75 -26l40 -6q83 -12 120.5 -48.5t37.5 -96.5q0 -75 -51 -118t-140 -43z" />
    <glyph glyph-name="Scedilla" unicode="&#x15e;" horiz-adv-x="581" 
d="M299 -207q-69 0 -99 41l38 41q22 -28 61 -28q44 0 44 31t-68 41l-28 4l13 66q-136 10 -218 121l62 52q75 -100 188 -100q74 0 114 35.5t40 96.5q0 49 -30 76.5t-99 43.5l-57 13q-98 22 -147.5 68t-49.5 124q0 91 63 141t168 50q151 0 231 -114l-63 -46q-62 86 -172 86
q-68 0 -106 -29.5t-38 -84.5q0 -48 31.5 -74t99.5 -42l57 -13q102 -23 148.5 -70t46.5 -125q0 -92 -58.5 -148t-160.5 -61l-10 -50l3 -3q19 6 39 6q30 0 49 -17.5t19 -48.5q0 -41 -31.5 -62t-79.5 -21z" />
    <glyph glyph-name="scedilla" unicode="&#x15f;" horiz-adv-x="487" 
d="M252 -207q-69 0 -99 41l38 41q22 -28 61 -28q44 0 44 31t-68 41l-28 4l13 66q-110 10 -177 100l57 46q63 -79 153 -79q51 0 79.5 22t28.5 62q0 68 -90 81l-41 6q-166 24 -166 149q0 74 51 113t133 39q113 0 180 -83l-53 -48q-45 63 -133 63q-49 0 -75 -21.5t-26 -58.5
q0 -36 24 -54t75 -26l40 -6q83 -12 120.5 -48.5t37.5 -96.5q0 -70 -45 -112.5t-123 -47.5l-10 -50l3 -3q20 6 39 6q30 0 49 -17.5t19 -48.5q0 -41 -31.5 -62t-79.5 -21z" />
    <glyph glyph-name="Scaron" unicode="&#x160;" horiz-adv-x="581" 
d="M238 769l-111 143l44 31l117 -117l117 117l44 -31l-111 -143h-100zM289 -12q-157 0 -247 122l62 52q75 -100 188 -100q74 0 114 35.5t40 96.5q0 49 -30 76.5t-99 43.5l-57 13q-98 22 -147.5 68t-49.5 124q0 91 63 141t168 50q151 0 231 -114l-63 -46q-62 86 -172 86
q-68 0 -106 -29.5t-38 -84.5q0 -48 31.5 -74t99.5 -42l57 -13q102 -23 148.5 -70t46.5 -125q0 -97 -64 -153.5t-176 -56.5z" />
    <glyph glyph-name="scaron" unicode="&#x161;" horiz-adv-x="487" 
d="M188 599l-111 143l44 31l117 -117l117 117l44 -31l-111 -143h-100zM240 -12q-128 0 -204 101l57 46q63 -79 153 -79q51 0 79.5 22t28.5 62q0 68 -90 81l-41 6q-166 24 -166 149q0 74 51 113t133 39q113 0 180 -83l-53 -48q-45 63 -133 63q-49 0 -75 -21.5t-26 -58.5
q0 -36 24 -54t75 -26l40 -6q83 -12 120.5 -48.5t37.5 -96.5q0 -75 -51 -118t-140 -43z" />
    <glyph glyph-name="uni0162" unicode="&#x162;" horiz-adv-x="572" 
d="M244 0v624h-222v74h528v-74h-222v-624h-84zM219 -245q41 42 51 78q-35 8 -35 44v10q0 47 51 47t51 -47v-11q0 -65 -60 -121h-58z" />
    <glyph glyph-name="uni0163" unicode="&#x163;" horiz-adv-x="351" 
d="M199 0q-40 0 -62.5 23.5t-22.5 61.5v361h-85v70h48q25 0 35 10.5t10 36.5v96h72v-143h113v-70h-113v-376h105v-70h-100zM146 -245q41 42 51 78q-35 8 -35 44v10q0 47 51 47t51 -47v-11q0 -65 -60 -121h-58z" />
    <glyph glyph-name="Tcaron" unicode="&#x164;" horiz-adv-x="572" 
d="M236 769l-111 143l44 31l117 -117l117 117l44 -31l-111 -143h-100zM244 0v624h-222v74h528v-74h-222v-624h-84z" />
    <glyph glyph-name="tcaron" unicode="&#x165;" horiz-adv-x="351" 
d="M263 566l12 185h93l-52 -185h-53zM199 0q-40 0 -62.5 23.5t-22.5 61.5v361h-85v70h48q25 0 35 10.5t10 36.5v96h72v-143h113v-70h-113v-376h105v-70h-100z" />
    <glyph glyph-name="Tbar" unicode="&#x166;" horiz-adv-x="582" 
d="M249 0v338h-165v64h165v222h-222v74h528v-74h-222v-222h164v-64h-164v-338h-84z" />
    <glyph glyph-name="tbar" unicode="&#x167;" horiz-adv-x="357" 
d="M202 0q-40 0 -62.5 23t-22.5 61v164h-64v62h64v136h-85v70h48q25 0 35 10.5t10 36.5v96h72v-143h113v-70h-113v-136h91v-62h-91v-178h105v-70h-100z" />
    <glyph glyph-name="Utilde" unicode="&#x168;" horiz-adv-x="678" 
d="M410 782q-30 0 -80 26q-45 24 -70 24q-26 0 -58 -27l-33 40q35 53 95 53q30 0 80 -26q45 -24 70 -24q26 0 58 27l33 -40q-35 -53 -95 -53zM336 -12q-136 0 -192 71t-56 227v412h84v-432q0 -103 38.5 -153t128.5 -50t128.5 50t38.5 153v432h84v-412q0 -155 -58.5 -226.5
t-195.5 -71.5z" />
    <glyph glyph-name="utilde" unicode="&#x169;" horiz-adv-x="566" 
d="M353 612q-30 0 -80 26q-45 24 -70 24q-26 0 -58 -27l-33 40q35 53 95 53q30 0 80 -26q45 -24 70 -24q26 0 58 27l33 -40q-35 -53 -95 -53zM252 -12q-80 0 -127 52t-47 145v331h80v-317q0 -139 118 -139q52 0 88.5 25.5t36.5 73.5v357h80v-516h-80v84h-4q-39 -96 -145 -96
z" />
    <glyph glyph-name="Umacron" unicode="&#x16a;" horiz-adv-x="678" 
d="M197 807v68h280v-68h-280zM336 -12q-136 0 -192 71t-56 227v412h84v-432q0 -103 38.5 -153t128.5 -50t128.5 50t38.5 153v432h84v-412q0 -155 -58.5 -226.5t-195.5 -71.5z" />
    <glyph glyph-name="umacron" unicode="&#x16b;" horiz-adv-x="566" 
d="M140 637v68h280v-68h-280zM252 -12q-80 0 -127 52t-47 145v331h80v-317q0 -139 118 -139q52 0 88.5 25.5t36.5 73.5v357h80v-516h-80v84h-4q-39 -96 -145 -96z" />
    <glyph glyph-name="Ubreve" unicode="&#x16c;" horiz-adv-x="678" 
d="M337 766q-38 0 -65.5 11t-44.5 32t-25 38t-17 44l45 22l21 -33q16 -26 33.5 -38.5t52.5 -12.5t52.5 12.5t33.5 38.5l21 33l45 -22q-9 -27 -17 -44t-25 -38t-44.5 -32t-65.5 -11zM336 -12q-136 0 -192 71t-56 227v412h84v-432q0 -103 38.5 -153t128.5 -50t128.5 50
t38.5 153v432h84v-412q0 -155 -58.5 -226.5t-195.5 -71.5z" />
    <glyph glyph-name="ubreve" unicode="&#x16d;" horiz-adv-x="566" 
d="M280 596q-38 0 -65.5 11t-44.5 32t-25 38t-17 44l45 22l21 -33q16 -26 33.5 -38.5t52.5 -12.5t52.5 12.5t33.5 38.5l21 33l45 -22q-9 -27 -17 -44t-25 -38t-44.5 -32t-65.5 -11zM252 -12q-80 0 -127 52t-47 145v331h80v-317q0 -139 118 -139q52 0 88.5 25.5t36.5 73.5
v357h80v-516h-80v84h-4q-39 -96 -145 -96z" />
    <glyph glyph-name="Uring" unicode="&#x16e;" horiz-adv-x="678" 
d="M337 746q-49 0 -82.5 33t-33.5 82t33.5 82t82.5 33t82.5 -33t33.5 -82t-33.5 -82t-82.5 -33zM337 795q27 0 42.5 14.5t15.5 40.5v22q0 26 -15.5 40.5t-42.5 14.5t-42.5 -14.5t-15.5 -40.5v-22q0 -26 15.5 -40.5t42.5 -14.5zM336 -12q-136 0 -192 71t-56 227v412h84v-432
q0 -103 38.5 -153t128.5 -50t128.5 50t38.5 153v432h84v-412q0 -155 -58.5 -226.5t-195.5 -71.5z" />
    <glyph glyph-name="uring" unicode="&#x16f;" horiz-adv-x="566" 
d="M280 576q-49 0 -82.5 33t-33.5 82t33.5 82t82.5 33t82.5 -33t33.5 -82t-33.5 -82t-82.5 -33zM280 625q27 0 42.5 14.5t15.5 40.5v22q0 26 -15.5 40.5t-42.5 14.5t-42.5 -14.5t-15.5 -40.5v-22q0 -26 15.5 -40.5t42.5 -14.5zM252 -12q-80 0 -127 52t-47 145v331h80v-317
q0 -139 118 -139q52 0 88.5 25.5t36.5 73.5v357h80v-516h-80v84h-4q-39 -96 -145 -96z" />
    <glyph glyph-name="Uhungarumlaut" unicode="&#x170;" horiz-adv-x="678" 
d="M264 756l-48 22l85 170l69 -33zM424 756l-48 22l85 170l69 -33zM336 -12q-136 0 -192 71t-56 227v412h84v-432q0 -103 38.5 -153t128.5 -50t128.5 50t38.5 153v432h84v-412q0 -155 -58.5 -226.5t-195.5 -71.5z" />
    <glyph glyph-name="uhungarumlaut" unicode="&#x171;" horiz-adv-x="566" 
d="M207 586l-48 22l85 170l69 -33zM367 586l-48 22l85 170l69 -33zM252 -12q-80 0 -127 52t-47 145v331h80v-317q0 -139 118 -139q52 0 88.5 25.5t36.5 73.5v357h80v-516h-80v84h-4q-39 -96 -145 -96z" />
    <glyph glyph-name="Uogonek" unicode="&#x172;" horiz-adv-x="678" 
d="M420 -207q-41 0 -68 19t-27 55q0 20 7.5 37t27 35t34.5 28.5t47 32.5l-4 5q-39 -17 -101 -17q-136 0 -192 71t-56 227v412h84v-432q0 -103 38.5 -153t128.5 -50t128.5 50t38.5 153v432h84v-412q0 -102 -24 -167t-91 -131q-55 -54 -70.5 -73t-15.5 -38q0 -30 31 -30
q29 0 48 24l40 -39q-22 -39 -88 -39z" />
    <glyph glyph-name="uogonek" unicode="&#x173;" horiz-adv-x="568" 
d="M416 -207q-42 0 -68.5 19t-26.5 57q0 35 25.5 64t75.5 64l-1 3h-18v84h-4q-39 -96 -145 -96q-80 0 -127 52t-47 145v331h80v-317q0 -139 118 -139q52 0 88.5 25.5t36.5 73.5v357h80v-516q-60 -55 -79 -80t-19 -43q0 -30 31 -30q29 0 48 24l40 -39q-22 -39 -88 -39z" />
    <glyph glyph-name="Wcircumflex" unicode="&#x174;" horiz-adv-x="891" 
d="M329 761l-44 31l111 143h100l111 -143l-44 -31l-117 117zM190 0l-170 698h89l75 -336l58 -261h2l65 261l88 336h96l85 -336l65 -260h3l60 260l79 336h86l-179 -698h-93l-91 348l-64 256h-2l-66 -256l-93 -348h-93z" />
    <glyph glyph-name="wcircumflex" unicode="&#x175;" horiz-adv-x="768" 
d="M267 591l-44 31l111 143h100l111 -143l-44 -31l-117 117zM169 0l-138 516h78l55 -223l55 -226h2l63 226l65 223h71l67 -223l64 -226h2l53 226l56 223h75l-137 -516h-99l-72 248l-45 157h-2l-44 -157l-72 -248h-97z" />
    <glyph glyph-name="Ycircumflex" unicode="&#x176;" horiz-adv-x="593" 
d="M180 761l-44 31l111 143h100l111 -143l-44 -31l-117 117zM253 0v276l-240 422h96l186 -336h3l186 336h96l-243 -419v-279h-84z" />
    <glyph glyph-name="ycircumflex" unicode="&#x177;" horiz-adv-x="499" 
d="M133 591l-44 31l111 143h100l111 -143l-44 -31l-117 117zM90 -200v70h81l39 110l-193 536h80l124 -351l24 -84h5l28 84l125 351h79l-231 -636q-18 -48 -41 -64t-79 -16h-41z" />
    <glyph glyph-name="Ydieresis" unicode="&#x178;" horiz-adv-x="593" 
d="M204 788q-50 0 -50 47v12q0 47 50 47t50 -47v-12q0 -47 -50 -47zM390 788q-50 0 -50 47v12q0 47 50 47t50 -47v-12q0 -47 -50 -47zM253 0v276l-240 422h96l186 -336h3l186 336h96l-243 -419v-279h-84z" />
    <glyph glyph-name="Zacute" unicode="&#x179;" horiz-adv-x="580" 
d="M304 755l-52 24l85 170l73 -35zM36 0v76l403 548h-382v74h473v-76l-404 -548h418v-74h-508z" />
    <glyph glyph-name="zacute" unicode="&#x17a;" horiz-adv-x="464" 
d="M239 585l-52 24l85 170l73 -35zM33 0v67l293 379h-284v70h381v-60l-299 -386h307v-70h-398z" />
    <glyph glyph-name="Zdotaccent" unicode="&#x17b;" horiz-adv-x="580" 
d="M297 780q-56 0 -56 53v14q0 53 56 53t56 -53v-14q0 -53 -56 -53zM36 0v76l403 548h-382v74h473v-76l-404 -548h418v-74h-508z" />
    <glyph glyph-name="zdotaccent" unicode="&#x17c;" horiz-adv-x="464" 
d="M232 616q-51 0 -51 46v11q0 46 51 46t51 -46v-11q0 -46 -51 -46zM33 0v67l293 379h-284v70h381v-60l-299 -386h307v-70h-398z" />
    <glyph glyph-name="Zcaron" unicode="&#x17d;" horiz-adv-x="580" 
d="M247 769l-111 143l44 31l117 -117l117 117l44 -31l-111 -143h-100zM36 0v76l403 548h-382v74h473v-76l-404 -548h418v-74h-508z" />
    <glyph glyph-name="zcaron" unicode="&#x17e;" horiz-adv-x="464" 
d="M182 599l-111 143l44 31l117 -117l117 117l44 -31l-111 -143h-100zM33 0v67l293 379h-284v70h381v-60l-299 -386h307v-70h-398z" />
    <glyph glyph-name="uni018F" unicode="&#x18f;" horiz-adv-x="708" 
d="M353 -12q-140 0 -217.5 92t-77.5 269v22h503v30q0 109 -55 171.5t-147 62.5q-67 0 -120.5 -37t-79.5 -100l-70 34q31 78 103.5 128t167.5 50q139 0 214.5 -95.5t75.5 -265.5q0 -169 -79.5 -265t-217.5 -96zM353 63q89 0 148.5 65t59.5 169v5h-416v-5q0 -104 59.5 -169
t148.5 -65z" />
    <glyph glyph-name="florin" unicode="&#x192;" horiz-adv-x="485" 
d="M-3 -134l7 70h145l37 365h-143l8 73h142l21 206q5 54 37.5 86t88.5 32h121l-8 -70h-153l-26 -254h169l-7 -73h-169l-32 -317q-5 -54 -37 -86t-89 -32h-112z" />
    <glyph glyph-name="Ohorn" unicode="&#x1a0;" horiz-adv-x="708" 
d="M354 -12q-137 0 -216.5 94t-79.5 267t79.5 267t216.5 94q48 0 90 -12h141v112h71v-100q0 -63 -63 -63h-53q110 -97 110 -298q0 -173 -79.5 -267t-216.5 -94zM354 63q91 0 148.5 62.5t57.5 165.5v116q0 103 -57.5 165.5t-148.5 62.5t-148.5 -62.5t-57.5 -165.5v-116
q0 -103 57.5 -165.5t148.5 -62.5z" />
    <glyph glyph-name="ohorn" unicode="&#x1a1;" horiz-adv-x="560" 
d="M280 -12q-104 0 -168.5 74t-64.5 196t64.5 196t168.5 74q42 0 76 -12h92v112h71v-98q0 -63 -62 -63h-21q77 -80 77 -209q0 -122 -64.5 -196t-168.5 -74zM280 59q67 0 107 41.5t40 120.5v74q0 79 -40 120.5t-107 41.5t-107 -41.5t-40 -120.5v-74q0 -79 40 -120.5
t107 -41.5z" />
    <glyph glyph-name="Uhorn" unicode="&#x1af;" horiz-adv-x="678" 
d="M336 -12q-136 0 -192 71t-56 227v412h84v-432q0 -103 38.5 -153t128.5 -50t128.5 50t38.5 153v432h91v112h71v-102q0 -63 -63 -63h-15v-359q0 -155 -58.5 -226.5t-195.5 -71.5z" />
    <glyph glyph-name="uhorn" unicode="&#x1b0;" horiz-adv-x="568" 
d="M254 -12q-80 0 -127 52t-47 145v331h80v-317q0 -139 118 -139q52 0 88.5 25.5t36.5 73.5v357h92v112h71v-102q0 -63 -63 -63h-20v-463h-80v84h-4q-39 -96 -145 -96z" />
    <glyph glyph-name="uni01B3" unicode="&#x1b3;" horiz-adv-x="593" 
d="M319 747l-46 23l58 104h-118v61h109q70 0 70 -55q0 -41 -49 -103zM253 0v276l-240 422h96l186 -336h3l186 336h96l-243 -419v-279h-84z" />
    <glyph glyph-name="uni01B4" unicode="&#x1b4;" horiz-adv-x="499" 
d="M272 589l-46 23l58 104h-118v61h109q70 0 70 -55q0 -41 -49 -103zM90 -200v70h81l39 110l-193 536h80l124 -351l24 -84h5l28 84l125 351h79l-231 -636q-18 -48 -41 -64t-79 -16h-41z" />
    <glyph glyph-name="Aringacute" unicode="&#x1fa;" horiz-adv-x="641" 
d="M335 987l-47 19l73 113l70 -25zM321 736q-49 0 -82.5 33t-33.5 82t33.5 82t82.5 33t82.5 -33t33.5 -82t-33.5 -82t-82.5 -33zM321 785q27 0 42.5 14.5t15.5 40.5v22q0 26 -15.5 40.5t-42.5 14.5t-42.5 -14.5t-15.5 -40.5v-22q0 -26 15.5 -40.5t42.5 -14.5zM23 0l244 698
h107l244 -698h-88l-70 206h-282l-70 -206h-85zM198 280h241l-118 340h-5z" />
    <glyph glyph-name="aringacute" unicode="&#x1fb;" horiz-adv-x="534" 
d="M266 817l-47 19l73 113l70 -25zM252 566q-49 0 -82.5 33t-33.5 82t33.5 82t82.5 33t82.5 -33t33.5 -82t-33.5 -82t-82.5 -33zM252 615q27 0 42.5 14.5t15.5 40.5v22q0 26 -15.5 40.5t-42.5 14.5t-42.5 -14.5t-15.5 -40.5v-22q0 -26 15.5 -40.5t42.5 -14.5zM217 -12
q-81 0 -127 42t-46 114q0 151 220 151h102v51q0 113 -122 113q-85 0 -131 -77l-48 45q23 44 70 72.5t113 28.5q93 0 145.5 -46t52.5 -128v-284h59v-70h-45q-76 0 -88 78l-1 6h-5q-34 -96 -149 -96zM230 56q59 0 97.5 27t38.5 67v85h-106q-132 0 -132 -78v-21q0 -38 27.5 -59
t74.5 -21z" />
    <glyph glyph-name="AEacute" unicode="&#x1fc;" horiz-adv-x="907" 
d="M598 755l-52 24l85 170l73 -35zM4 0l357 698h482v-74h-343v-234h323v-74h-323v-242h343v-74h-426v205h-225l-102 -205h-86zM227 279h190v345h-13z" />
    <glyph glyph-name="aeacute" unicode="&#x1fd;" horiz-adv-x="864" 
d="M421 585l-52 24l85 170l73 -35zM215 -12q-78 0 -124.5 42t-46.5 112q0 75 56 115.5t164 40.5h102v48q0 55 -30.5 84t-88.5 29q-88 0 -134 -76l-48 44q22 44 69.5 72.5t114.5 28.5q42 0 73.5 -12t49 -31.5t26 -36t13.5 -35.5h6q11 40 62.5 77.5t123.5 37.5
q97 0 155.5 -70.5t58.5 -181.5v-38h-371v-24q0 -68 41.5 -112t111.5 -44q99 0 142 88l57 -40q-25 -54 -77 -86t-118 -32q-75 0 -128 38t-63 78h-6q-8 -40 -60.5 -78t-130.5 -38zM446 298h285v11q0 68 -37.5 110t-99.5 42q-65 0 -106.5 -44t-41.5 -112v-7zM231 56
q58 0 96.5 27t38.5 67v88h-106q-132 -4 -132 -81v-21q0 -38 27.5 -59t75.5 -21z" />
    <glyph glyph-name="Oslashacute" unicode="&#x1fe;" horiz-adv-x="708" 
d="M361 755l-52 24l85 170l73 -35zM121 -45l-57 37l68 97q-74 94 -74 260q0 173 79.5 267t216.5 94q102 0 173 -53l60 86l57 -37l-68 -97q74 -94 74 -260q0 -173 -79.5 -267t-216.5 -94q-102 0 -173 53zM180 160l302 432q-52 43 -128 43q-91 0 -148.5 -62.5t-57.5 -165.5
v-116q0 -73 32 -131zM354 63q91 0 148.5 62.5t57.5 165.5v116q0 73 -32 131l-302 -432q52 -43 128 -43z" />
    <glyph glyph-name="oslashacute" unicode="&#x1ff;" horiz-adv-x="568" 
d="M291 585l-52 24l85 170l73 -35zM80 -40l-45 34l67 84q-51 71 -51 180q0 122 64.5 196t168.5 74q82 0 142 -49l62 77l45 -34l-67 -85q51 -72 51 -179q0 -122 -64.5 -196t-168.5 -74q-83 0 -142 48zM152 139l230 285q-39 33 -98 33q-67 0 -107 -41.5t-40 -120.5v-74
q0 -47 15 -82zM284 59q67 0 107 41.5t40 120.5v74q0 44 -15 81l-230 -284q38 -33 98 -33z" />
    <glyph glyph-name="uni0218" unicode="&#x218;" horiz-adv-x="581" 
d="M289 -12q-157 0 -247 122l62 52q75 -100 188 -100q74 0 114 35.5t40 96.5q0 49 -30 76.5t-99 43.5l-57 13q-98 22 -147.5 68t-49.5 124q0 91 63 141t168 50q151 0 231 -114l-63 -46q-62 86 -172 86q-68 0 -106 -29.5t-38 -84.5q0 -48 31.5 -74t99.5 -42l57 -13
q102 -23 148.5 -70t46.5 -125q0 -97 -64 -153.5t-176 -56.5zM220 -245q41 42 51 78q-35 8 -35 44v10q0 47 51 47t51 -47v-11q0 -65 -60 -121h-58z" />
    <glyph glyph-name="uni0219" unicode="&#x219;" horiz-adv-x="487" 
d="M240 -12q-128 0 -204 101l57 46q63 -79 153 -79q51 0 79.5 22t28.5 62q0 68 -90 81l-41 6q-166 24 -166 149q0 74 51 113t133 39q113 0 180 -83l-53 -48q-45 63 -133 63q-49 0 -75 -21.5t-26 -58.5q0 -36 24 -54t75 -26l40 -6q83 -12 120.5 -48.5t37.5 -96.5
q0 -75 -51 -118t-140 -43zM173 -245q41 42 51 78q-35 8 -35 44v10q0 47 51 47t51 -47v-11q0 -65 -60 -121h-58z" />
    <glyph glyph-name="uni021A" unicode="&#x21a;" horiz-adv-x="572" 
d="M244 0v624h-222v74h528v-74h-222v-624h-84zM219 -245q41 42 51 78q-35 8 -35 44v10q0 47 51 47t51 -47v-11q0 -65 -60 -121h-58z" />
    <glyph glyph-name="uni021B" unicode="&#x21b;" horiz-adv-x="351" 
d="M199 0q-40 0 -62.5 23.5t-22.5 61.5v361h-85v70h48q25 0 35 10.5t10 36.5v96h72v-143h113v-70h-113v-376h105v-70h-100zM146 -245q41 42 51 78q-35 8 -35 44v10q0 47 51 47t51 -47v-11q0 -65 -60 -121h-58z" />
    <glyph glyph-name="uni0237" unicode="&#x237;" horiz-adv-x="250" 
d="M1 -200v70h84v646h80v-596q0 -55 -28 -87.5t-84 -32.5h-52z" />
    <glyph glyph-name="uni0259" unicode="&#x259;" horiz-adv-x="549" 
d="M270 -12q-102 0 -162.5 70.5t-60.5 181.5v38h371v24q0 68 -41.5 112t-111.5 44q-100 0 -142 -89l-57 41q25 54 79 86t125 32q105 0 168.5 -73.5t63.5 -196.5t-63.5 -196.5t-168.5 -73.5zM270 55q65 0 106.5 44t41.5 112v7h-285v-11q0 -68 37.5 -110t99.5 -42z" />
    <glyph glyph-name="uni02BB" unicode="&#x2bb;" horiz-adv-x="600" 
d="M301 595q-51 0 -51 47v11q0 65 60 121h58q-41 -42 -51 -78q35 -8 35 -44v-10q0 -47 -51 -47z" />
    <glyph glyph-name="uni02BC" unicode="&#x2bc;" horiz-adv-x="600" 
d="M300 555l12 185h93l-52 -185h-53z" />
    <glyph glyph-name="circumflex" unicode="&#x2c6;" horiz-adv-x="600" 
d="M183 591l-44 31l111 143h100l111 -143l-44 -31l-117 117z" />
    <glyph glyph-name="caron" unicode="&#x2c7;" horiz-adv-x="600" 
d="M250 599l-111 143l44 31l117 -117l117 117l44 -31l-111 -143h-100z" />
    <glyph glyph-name="breve" unicode="&#x2d8;" horiz-adv-x="600" 
d="M300 596q-38 0 -65.5 11t-44.5 32t-25 38t-17 44l45 22l21 -33q16 -26 33.5 -38.5t52.5 -12.5t52.5 12.5t33.5 38.5l21 33l45 -22q-9 -27 -17 -44t-25 -38t-44.5 -32t-65.5 -11z" />
    <glyph glyph-name="dotaccent" unicode="&#x2d9;" horiz-adv-x="600" 
d="M300 616q-51 0 -51 46v11q0 46 51 46t51 -46v-11q0 -46 -51 -46z" />
    <glyph glyph-name="ring" unicode="&#x2da;" horiz-adv-x="600" 
d="M300 576q-49 0 -82.5 33t-33.5 82t33.5 82t82.5 33t82.5 -33t33.5 -82t-33.5 -82t-82.5 -33zM300 625q27 0 42.5 14.5t15.5 40.5v22q0 26 -15.5 40.5t-42.5 14.5t-42.5 -14.5t-15.5 -40.5v-22q0 -26 15.5 -40.5t42.5 -14.5z" />
    <glyph glyph-name="ogonek" unicode="&#x2db;" horiz-adv-x="600" 
d="M261 -207q-42 0 -68.5 19t-26.5 57q0 37 25.5 66.5t79.5 68.5l-5 18h54l8 -22q-60 -55 -79 -80t-19 -43q0 -30 31 -30q29 0 48 24l40 -39q-22 -39 -88 -39z" />
    <glyph glyph-name="tilde" unicode="&#x2dc;" horiz-adv-x="600" 
d="M373 612q-30 0 -80 26q-45 24 -70 24q-26 0 -58 -27l-33 40q35 53 95 53q30 0 80 -26q45 -24 70 -24q26 0 58 27l33 -40q-35 -53 -95 -53z" />
    <glyph glyph-name="hungarumlaut" unicode="&#x2dd;" horiz-adv-x="600" 
d="M227 586l-48 22l85 170l69 -33zM387 586l-48 22l85 170l69 -33z" />
    <glyph glyph-name="gravecomb" unicode="&#x300;" 
d="M-7 585l-106 159l73 35l85 -170z" />
    <glyph glyph-name="acutecomb" unicode="&#x301;" 
d="M7 585l-52 24l85 170l73 -35z" />
    <glyph glyph-name="uni0302" unicode="&#x302;" 
d="M-117 591l-44 31l111 143h100l111 -143l-44 -31l-117 117z" />
    <glyph glyph-name="tildecomb" unicode="&#x303;" 
d="M73 612q-30 0 -80 26q-45 24 -70 24q-26 0 -58 -27l-33 40q35 53 95 53q30 0 80 -26q45 -24 70 -24q26 0 58 27l33 -40q-35 -53 -95 -53z" />
    <glyph glyph-name="uni0304" unicode="&#x304;" 
d="M-140 637v68h280v-68h-280z" />
    <glyph glyph-name="uni0306" unicode="&#x306;" 
d="M0 596q-38 0 -65.5 11t-44.5 32t-25 38t-17 44l45 22l21 -33q16 -26 33.5 -38.5t52.5 -12.5t52.5 12.5t33.5 38.5l21 33l45 -22q-9 -27 -17 -44t-25 -38t-44.5 -32t-65.5 -11z" />
    <glyph glyph-name="uni0307" unicode="&#x307;" 
d="M0 616q-51 0 -51 46v11q0 46 51 46t51 -46v-11q0 -46 -51 -46z" />
    <glyph glyph-name="uni0308" unicode="&#x308;" 
d="M-93 618q-49 0 -49 46v11q0 46 49 46t49 -46v-11q0 -46 -49 -46zM93 618q-49 0 -49 46v11q0 46 49 46t49 -46v-11q0 -46 -49 -46z" />
    <glyph glyph-name="hookabovecomb" unicode="&#x309;" 
d="M22 577l-46 23l58 104h-118v61h109q70 0 70 -55q0 -41 -49 -103z" />
    <glyph glyph-name="uni030A" unicode="&#x30a;" 
d="M0 576q-49 0 -82.5 33t-33.5 82t33.5 82t82.5 33t82.5 -33t33.5 -82t-33.5 -82t-82.5 -33zM0 625q27 0 42.5 14.5t15.5 40.5v22q0 26 -15.5 40.5t-42.5 14.5t-42.5 -14.5t-15.5 -40.5v-22q0 -26 15.5 -40.5t42.5 -14.5z" />
    <glyph glyph-name="uni030B" unicode="&#x30b;" 
d="M-73 586l-48 22l85 170l69 -33zM87 586l-48 22l85 170l69 -33z" />
    <glyph glyph-name="uni030C" unicode="&#x30c;" 
d="M-50 599l-111 143l44 31l117 -117l117 117l44 -31l-111 -143h-100z" />
    <glyph glyph-name="uni0312" unicode="&#x312;" 
d="M1 595q-51 0 -51 47v11q0 65 60 121h58q-41 -42 -51 -78q35 -8 35 -44v-10q0 -47 -51 -47z" />
    <glyph glyph-name="uni0315" unicode="&#x315;" 
d="M0 555l12 185h93l-52 -185h-53z" />
    <glyph glyph-name="uni031B" unicode="&#x31b;" 
d="M-77 463v53h83v112h71v-102q0 -63 -63 -63h-91z" />
    <glyph glyph-name="dotbelowcomb" unicode="&#x323;" 
d="M0 -169q-51 0 -51 46v11q0 46 51 46t51 -46v-11q0 -46 -51 -46z" />
    <glyph glyph-name="uni0326" unicode="&#x326;" 
d="M-67 -245q41 42 51 78q-35 8 -35 44v10q0 47 51 47t51 -47v-11q0 -65 -60 -121h-58z" />
    <glyph glyph-name="uni0327" unicode="&#x327;" 
d="M12 -207q-69 0 -99 41l38 41q22 -28 61 -28q44 0 44 31t-68 41l-28 4l19 97h50l-16 -81l3 -3q19 6 39 6q30 0 49 -17.5t19 -48.5q0 -41 -31.5 -62t-79.5 -21z" />
    <glyph glyph-name="uni0328" unicode="&#x328;" 
d="M-67 -207q-42 0 -68.5 19t-26.5 57q0 37 25.5 66.5t79.5 68.5l-5 18h54l8 -22q-60 -55 -79 -80t-19 -43q0 -30 31 -30q29 0 48 24l40 -39q-22 -39 -88 -39z" />
    <glyph glyph-name="uni037E" unicode="&#x37e;" horiz-adv-x="292" 
d="M146 394q-30 0 -45.5 15.5t-15.5 42.5v13q0 27 15.5 42.5t45.5 15.5t45.5 -15.5t15.5 -42.5v-13q0 -27 -15.5 -42.5t-45.5 -15.5zM49 -133q61 64 75 124q-39 9 -39 53v14q0 59 61 59t61 -59v-14q0 -42 -24.5 -91.5t-66.5 -85.5h-67z" />
    <glyph glyph-name="tonos" unicode="&#x384;" horiz-adv-x="600" 
d="M336 585l-57 7l29 188l80 -11z" />
    <glyph glyph-name="dieresistonos" unicode="&#x385;" horiz-adv-x="600" 
d="M305 585l-49 7l29 188l72 -11zM183 618q-45 0 -45 46v11q0 46 45 46t45 -46v-11q0 -46 -45 -46zM417 618q-45 0 -45 46v11q0 46 45 46t45 -46v-11q0 -46 -45 -46z" />
    <glyph glyph-name="Alphatonos" unicode="&#x386;" horiz-adv-x="641" 
d="M90 585l-57 7l29 188l80 -11zM23 0l244 698h107l244 -698h-88l-70 206h-282l-70 -206h-85zM198 280h241l-118 340h-5z" />
    <glyph glyph-name="anoteleia" unicode="&#x387;" horiz-adv-x="292" 
d="M146 394q-30 0 -45.5 15.5t-15.5 42.5v13q0 27 15.5 42.5t45.5 15.5t45.5 -15.5t15.5 -42.5v-13q0 -27 -15.5 -42.5t-45.5 -15.5z" />
    <glyph glyph-name="Epsilontonos" unicode="&#x388;" horiz-adv-x="609" 
d="M32 585l-57 7l29 188l80 -11zM119 0v698h426v-74h-342v-234h322v-74h-322v-242h342v-74h-426z" />
    <glyph glyph-name="Etatonos" unicode="&#x389;" horiz-adv-x="733" 
d="M32 585l-57 7l29 188l80 -11zM119 0v698h84v-308h353v308h84v-698h-84v316h-353v-316h-84z" />
    <glyph glyph-name="Iotatonos" unicode="&#x38a;" horiz-adv-x="459" 
d="M32 585l-57 7l29 188l80 -11zM119 0v70h98v558h-98v70h280v-70h-98v-558h98v-70h-280z" />
    <glyph glyph-name="Omicrontonos" unicode="&#x38c;" horiz-adv-x="712" 
d="M32 585l-57 7l29 188l80 -11zM358 -12q-137 0 -216.5 94t-79.5 267t79.5 267t216.5 94t216.5 -94t79.5 -267t-79.5 -267t-216.5 -94zM358 63q91 0 148.5 62.5t57.5 165.5v116q0 103 -57.5 165.5t-148.5 62.5t-148.5 -62.5t-57.5 -165.5v-116q0 -103 57.5 -165.5
t148.5 -62.5z" />
    <glyph glyph-name="Upsilontonos" unicode="&#x38e;" horiz-adv-x="677" 
d="M32 585l-57 7l29 188l80 -11zM337 0v276l-240 422h96l186 -336h3l186 336h96l-243 -419v-279h-84z" />
    <glyph glyph-name="Omegatonos" unicode="&#x38f;" horiz-adv-x="716" 
d="M32 585l-57 7l29 188l80 -11zM58 0v74h159v10q-67 37 -111 113t-44 181q0 64 18 121.5t52.5 105.5t93 76.5t132.5 28.5t132.5 -28.5t93 -76.5t52.5 -105.5t18 -121.5q0 -105 -44 -181t-111 -113v-10h159v-74h-230v111q51 19 93.5 87t42.5 143v90q0 79 -57 141.5
t-149 62.5t-149 -62.5t-57 -141.5v-90q0 -75 42.5 -143t93.5 -87v-111h-230z" />
    <glyph glyph-name="iotadieresistonos" unicode="&#x390;" horiz-adv-x="295" 
d="M142 585l-49 7l29 188l72 -11zM20 618q-45 0 -45 46v11q0 46 45 46t45 -46v-11q0 -46 -45 -46zM254 618q-45 0 -45 46v11q0 46 45 46t45 -46v-11q0 -46 -45 -46zM170 0q-40 0 -62.5 23.5t-22.5 61.5v431h80v-446h105v-70h-100z" />
    <glyph glyph-name="Alpha" unicode="&#x391;" horiz-adv-x="641" 
d="M23 0l244 698h107l244 -698h-88l-70 206h-282l-70 -206h-85zM198 280h241l-118 340h-5z" />
    <glyph glyph-name="Beta" unicode="&#x392;" horiz-adv-x="653" 
d="M93 0v698h287q86 0 136 -49t50 -131q0 -70 -34.5 -105.5t-78.5 -42.5v-6q48 -3 92.5 -43.5t44.5 -118.5q0 -86 -51.5 -144t-128.5 -58h-317zM177 396h193q50 0 78 25.5t28 71.5v34q0 46 -28 71.5t-78 25.5h-193v-228zM177 74h207q55 0 85.5 28t30.5 80v34q0 52 -30.5 80
t-85.5 28h-207v-250z" />
    <glyph glyph-name="Gamma" unicode="&#x393;" horiz-adv-x="499" 
d="M93 0v698h380v-74h-296v-624h-84z" />
    <glyph glyph-name="uni0394" unicode="&#x394;" horiz-adv-x="643" 
d="M44 0v75l224 623h107l224 -623v-75h-555zM129 74h381l-188 546h-5z" />
    <glyph glyph-name="Epsilon" unicode="&#x395;" horiz-adv-x="583" 
d="M93 0v698h426v-74h-342v-234h322v-74h-322v-242h342v-74h-426z" />
    <glyph glyph-name="Zeta" unicode="&#x396;" horiz-adv-x="580" 
d="M36 0v76l403 548h-382v74h473v-76l-404 -548h418v-74h-508z" />
    <glyph glyph-name="Eta" unicode="&#x397;" horiz-adv-x="707" 
d="M93 0v698h84v-308h353v308h84v-698h-84v316h-353v-316h-84z" />
    <glyph glyph-name="Theta" unicode="&#x398;" horiz-adv-x="708" 
d="M354 -12q-137 0 -216.5 94t-79.5 267t79.5 267t216.5 94t216.5 -94t79.5 -267t-79.5 -267t-216.5 -94zM354 63q91 0 148.5 62.5t57.5 165.5v116q0 103 -57.5 165.5t-148.5 62.5t-148.5 -62.5t-57.5 -165.5v-116q0 -103 57.5 -165.5t148.5 -62.5zM203 316v74h302v-74h-302
z" />
    <glyph glyph-name="Iota" unicode="&#x399;" horiz-adv-x="400" 
d="M60 0v70h98v558h-98v70h280v-70h-98v-558h98v-70h-280z" />
    <glyph glyph-name="Kappa" unicode="&#x39a;" horiz-adv-x="634" 
d="M93 0v698h84v-371h3l100 121l211 250h103l-260 -299l278 -399h-104l-232 343l-99 -110v-233h-84z" />
    <glyph glyph-name="Lambda" unicode="&#x39b;" horiz-adv-x="629" 
d="M23 0l238 698h107l238 -698h-88l-115 352l-88 268h-5l-87 -268l-115 -352h-85z" />
    <glyph glyph-name="Mu" unicode="&#x39c;" horiz-adv-x="812" 
d="M93 0v698h112l200 -376h5l201 376h108v-698h-82v588h-5l-59 -117l-167 -304l-167 304l-59 117h-5v-588h-82z" />
    <glyph glyph-name="Nu" unicode="&#x39d;" horiz-adv-x="707" 
d="M93 0v698h97l255 -426l84 -155h3v581h82v-698h-97l-255 426l-84 155h-3v-581h-82z" />
    <glyph glyph-name="Xi" unicode="&#x39e;" horiz-adv-x="584" 
d="M64 624v74h456v-74h-456zM104 316v74h376v-74h-376zM64 0v74h456v-74h-456z" />
    <glyph glyph-name="Omicron" unicode="&#x39f;" horiz-adv-x="708" 
d="M354 -12q-137 0 -216.5 94t-79.5 267t79.5 267t216.5 94t216.5 -94t79.5 -267t-79.5 -267t-216.5 -94zM354 63q91 0 148.5 62.5t57.5 165.5v116q0 103 -57.5 165.5t-148.5 62.5t-148.5 -62.5t-57.5 -165.5v-116q0 -103 57.5 -165.5t148.5 -62.5z" />
    <glyph glyph-name="Pi" unicode="&#x3a0;" horiz-adv-x="693" 
d="M93 0v698h507v-698h-84v624h-339v-624h-84z" />
    <glyph glyph-name="Rho" unicode="&#x3a1;" horiz-adv-x="606" 
d="M93 0v698h278q93 0 144 -53.5t51 -146.5t-51 -146.5t-144 -53.5h-194v-298h-84zM177 372h194q50 0 77.5 26t27.5 74v52q0 48 -27.5 74t-77.5 26h-194v-252z" />
    <glyph glyph-name="Sigma" unicode="&#x3a3;" horiz-adv-x="569" 
d="M40 0v76l248 276l-240 270v76h461v-74h-361l240 -270l-252 -280h373v-74h-469z" />
    <glyph glyph-name="Tau" unicode="&#x3a4;" horiz-adv-x="572" 
d="M244 0v624h-222v74h528v-74h-222v-624h-84z" />
    <glyph glyph-name="Upsilon" unicode="&#x3a5;" horiz-adv-x="593" 
d="M253 0v276l-240 422h96l186 -336h3l186 336h96l-243 -419v-279h-84z" />
    <glyph glyph-name="Phi" unicode="&#x3a6;" horiz-adv-x="852" 
d="M384 -29v60h-18q-147 0 -229.5 90t-82.5 233t82.5 233t229.5 90h18v48h84v-48h18q147 0 229.5 -90t82.5 -233t-82.5 -233t-229.5 -90h-18v-60h-84zM366 101h20v506h-20q-100 0 -161 -63t-61 -159v-62q0 -96 61 -159t161 -63zM466 101h20q100 0 161 63t61 159v62
q0 96 -61 159t-161 63h-20v-506z" />
    <glyph glyph-name="Chi" unicode="&#x3a7;" horiz-adv-x="613" 
d="M24 0l228 355l-222 343h101l175 -278h2l179 278h96l-224 -340l230 -358h-101l-183 293h-2l-183 -293h-96z" />
    <glyph glyph-name="Psi" unicode="&#x3a8;" horiz-adv-x="790" 
d="M353 0v203q-131 0 -208 66.5t-77 198.5v230h84v-230q0 -103 54.5 -149t146.5 -46v425h84v-425q92 0 146.5 46t54.5 149v230h84v-230q0 -132 -77 -198.5t-208 -66.5v-203h-84z" />
    <glyph glyph-name="uni03A9" unicode="&#x3a9;" horiz-adv-x="716" 
d="M58 0v74h159v10q-67 37 -111 113t-44 181q0 64 18 121.5t52.5 105.5t93 76.5t132.5 28.5t132.5 -28.5t93 -76.5t52.5 -105.5t18 -121.5q0 -105 -44 -181t-111 -113v-10h159v-74h-230v111q51 19 93.5 87t42.5 143v90q0 79 -57 141.5t-149 62.5t-149 -62.5t-57 -141.5v-90
q0 -75 42.5 -143t93.5 -87v-111h-230z" />
    <glyph glyph-name="Iotadieresis" unicode="&#x3aa;" horiz-adv-x="400" 
d="M107 788q-50 0 -50 47v12q0 47 50 47t50 -47v-12q0 -47 -50 -47zM293 788q-50 0 -50 47v12q0 47 50 47t50 -47v-12q0 -47 -50 -47zM60 0v70h98v558h-98v70h280v-70h-98v-558h98v-70h-280z" />
    <glyph glyph-name="Upsilondieresis" unicode="&#x3ab;" horiz-adv-x="593" 
d="M204 788q-50 0 -50 47v12q0 47 50 47t50 -47v-12q0 -47 -50 -47zM390 788q-50 0 -50 47v12q0 47 50 47t50 -47v-12q0 -47 -50 -47zM253 0v276l-240 422h96l186 -336h3l186 336h96l-243 -419v-279h-84z" />
    <glyph glyph-name="alphatonos" unicode="&#x3ac;" horiz-adv-x="644" 
d="M346 615l-57 7l29 188l80 -11zM257 -12q-93 0 -150 74t-57 196t57 196t150 74q79 0 126.5 -48t68.5 -148h4l29 111l27 73h88l-109 -256l63 -190h54v-70h-45q-41 0 -63 19.5t-29 63.5l-17 101h-4q-21 -99 -67 -147.5t-126 -48.5zM257 59q47 0 75 24t52 90l31 85l-31 85
q-24 66 -52 90t-75 24q-50 0 -85.5 -43t-35.5 -120v-72q0 -77 35.5 -120t85.5 -43z" />
    <glyph glyph-name="epsilontonos" unicode="&#x3ad;" horiz-adv-x="518" 
d="M283 615l-57 7l29 188l80 -11zM266 -12q-101 0 -153.5 40t-52.5 109q0 105 127 128v4q-55 6 -85.5 34.5t-30.5 75.5q0 65 55.5 107t148.5 42q74 0 128 -27t82 -74l-58 -46q-41 76 -153 76q-59 0 -88 -21t-29 -50v-12q0 -33 26.5 -53.5t71.5 -20.5h122v-67h-122
q-109 0 -109 -80v-12q0 -82 125 -82q118 0 162 81l57 -41q-63 -111 -224 -111z" />
    <glyph glyph-name="etatonos" unicode="&#x3ae;" horiz-adv-x="573" 
d="M311 615l-57 7l29 188l80 -11zM413 -200v517q0 139 -117 139q-52 0 -89 -25.5t-37 -72.5v-358h-80v446h-59v70h54q76 0 84 -74l1 -10h4q41 96 146 96q80 0 126.5 -52t46.5 -145v-531h-80z" />
    <glyph glyph-name="iotatonos" unicode="&#x3af;" horiz-adv-x="295" 
d="M156 585l-57 7l29 188l80 -11zM170 0q-40 0 -62.5 23.5t-22.5 61.5v431h80v-446h105v-70h-100z" />
    <glyph glyph-name="upsilondieresistonos" unicode="&#x3b0;" horiz-adv-x="568" 
d="M294 585l-49 7l29 188l72 -11zM172 618q-45 0 -45 46v11q0 46 45 46t45 -46v-11q0 -46 -45 -46zM406 618q-45 0 -45 46v11q0 46 45 46t45 -46v-11q0 -46 -45 -46zM284 -12q-102 0 -153 63t-51 195v270h80v-282q0 -91 29.5 -133t94.5 -42t94.5 42t29.5 133v282h80v-270
q0 -132 -51 -195t-153 -63z" />
    <glyph glyph-name="alpha" unicode="&#x3b1;" horiz-adv-x="644" 
d="M257 -12q-93 0 -150 74t-57 196t57 196t150 74q79 0 126.5 -48t68.5 -148h4l29 111l27 73h88l-109 -256l63 -190h54v-70h-45q-41 0 -63 19.5t-29 63.5l-17 101h-4q-21 -99 -67 -147.5t-126 -48.5zM257 59q47 0 75 24t52 90l31 85l-31 85q-24 66 -52 90t-75 24
q-50 0 -85.5 -43t-35.5 -120v-72q0 -77 35.5 -120t85.5 -43z" />
    <glyph glyph-name="beta" unicode="&#x3b2;" horiz-adv-x="584" 
d="M85 -200v721q0 107 54.5 169t156.5 62q90 0 144 -48t54 -130q0 -71 -40 -114.5t-94 -52.5v-4q71 -9 120.5 -55t49.5 -137q0 -97 -58 -160t-156 -63q-104 0 -147 72h-4v-260h-80zM296 60q70 0 109 37t39 105v24q0 68 -39 105t-107 37h-52v70h47q58 0 86.5 30t28.5 83v24
q0 49 -29.5 77t-87.5 28q-64 0 -95 -36.5t-31 -116.5v-390q0 -35 38 -56t93 -21z" />
    <glyph glyph-name="gamma" unicode="&#x3b3;" horiz-adv-x="502" 
d="M216 -200v200l-152 446h-54v70h45q34 0 54.5 -13t31.5 -46l66 -198l47 -165h5l53 165l95 257h77l-188 -516v-200h-80z" />
    <glyph glyph-name="delta" unicode="&#x3b4;" horiz-adv-x="560" 
d="M280 -12q-104 0 -168.5 72.5t-64.5 189.5q0 125 62.5 195.5t152.5 70.5v5l-145 126v93h342v-70h-200l-70 5v-4l143 -114q100 -80 140.5 -147.5t40.5 -150.5q0 -125 -64 -198t-169 -73zM280 59q67 0 107 41.5t40 122.5v18q0 77 -24.5 126.5t-101.5 119.5
q-75 -9 -121.5 -63.5t-46.5 -146.5v-54q0 -81 40 -122.5t107 -41.5z" />
    <glyph glyph-name="epsilon" unicode="&#x3b5;" horiz-adv-x="518" 
d="M266 -12q-101 0 -153.5 40t-52.5 109q0 105 127 128v4q-55 6 -85.5 34.5t-30.5 75.5q0 65 55.5 107t148.5 42q74 0 128 -27t82 -74l-58 -46q-41 76 -153 76q-59 0 -88 -21t-29 -50v-12q0 -33 26.5 -53.5t71.5 -20.5h122v-67h-122q-109 0 -109 -80v-12q0 -82 125 -82
q118 0 162 81l57 -41q-63 -111 -224 -111z" />
    <glyph glyph-name="zeta" unicode="&#x3b6;" horiz-adv-x="428" 
d="M365 -159l-76 19l34 127l-72 18q-114 29 -159 76.5t-45 140.5q0 56 25.5 113.5t97.5 147.5l149 187v5l-62 -5h-193v70h352v-60l-176 -221q-107 -133 -107 -230v-14q0 -54 29.5 -86t98.5 -50l72 -19q67 -17 67 -74q0 -13 -5 -33z" />
    <glyph glyph-name="eta" unicode="&#x3b7;" horiz-adv-x="573" 
d="M413 -200v517q0 139 -117 139q-52 0 -89 -25.5t-37 -72.5v-358h-80v446h-59v70h54q76 0 84 -74l1 -10h4q41 96 146 96q80 0 126.5 -52t46.5 -145v-531h-80z" />
    <glyph glyph-name="theta" unicode="&#x3b8;" horiz-adv-x="562" 
d="M281 -12q-112 0 -168.5 87.5t-56.5 294.5t56.5 294.5t168.5 87.5t168.5 -87.5t56.5 -294.5t-56.5 -294.5t-168.5 -87.5zM142 405h278v63q0 114 -35 164.5t-104 50.5t-104 -50.5t-35 -164.5v-63zM281 57q69 0 104 50.5t35 164.5v63h-278v-63q0 -114 35 -164.5t104 -50.5z
" />
    <glyph glyph-name="iota" unicode="&#x3b9;" horiz-adv-x="295" 
d="M170 0q-40 0 -62.5 23.5t-22.5 61.5v431h80v-446h105v-70h-100z" />
    <glyph glyph-name="kappa" unicode="&#x3ba;" horiz-adv-x="527" 
d="M85 0v516h80v-253h4l50 59l153 165q26 29 66 29h49v-70h-59l-139 -150l221 -296h-97l-181 246l-67 -72v-174h-80z" />
    <glyph glyph-name="lambda" unicode="&#x3bb;" horiz-adv-x="509" 
d="M6 0l206 516l-50 154h-104v70h95q67 0 85 -57l199 -613h64v-70h-55q-67 0 -85 57l-65 201l-47 178h-5l-58 -178l-101 -258h-79z" />
    <glyph glyph-name="uni03BC" unicode="&#x3bc;" horiz-adv-x="578" 
d="M85 -200v716h80v-317q0 -139 118 -139q51 0 88 26t37 74v356h80v-446h59v-70h-54q-40 0 -62 22.5t-23 59.5v2h-4q-36 -96 -126 -96q-97 0 -126 96h-4l17 -149v-135h-80z" />
    <glyph glyph-name="nu" unicode="&#x3bd;" horiz-adv-x="511" 
d="M213 0l-149 446h-54v70h45q34 0 54.5 -13t31.5 -46l64 -198l53 -175h5l58 175l95 257h77l-187 -516h-93z" />
    <glyph glyph-name="xi" unicode="&#x3be;" horiz-adv-x="456" 
d="M378 -159l-76 19l34 127l-76 19q-114 29 -160 75.5t-46 134.5q0 67 41 113t112 55v4q-117 29 -117 147q0 97 92 128v7h-137v70h383v-70h-133q-55 0 -87 -33.5t-32 -94.5v-14q0 -53 28.5 -81t81.5 -28h87v-70h-87q-146 0 -146 -126v-14q0 -50 30.5 -80.5t99.5 -48.5
l76 -20q67 -17 67 -74q0 -13 -5 -33z" />
    <glyph glyph-name="omicron" unicode="&#x3bf;" horiz-adv-x="560" 
d="M280 -12q-104 0 -168.5 74t-64.5 196t64.5 196t168.5 74t168.5 -74t64.5 -196t-64.5 -196t-168.5 -74zM280 59q67 0 107 41.5t40 120.5v74q0 79 -40 120.5t-107 41.5t-107 -41.5t-40 -120.5v-74q0 -79 40 -120.5t107 -41.5z" />
    <glyph glyph-name="pi" unicode="&#x3c0;" horiz-adv-x="622" 
d="M119 0v446h-95v70h566v-70h-103v-376h64v-70h-59q-40 0 -62.5 23t-22.5 59v364h-208v-446h-80z" />
    <glyph glyph-name="rho" unicode="&#x3c1;" horiz-adv-x="552" 
d="M58 -200v496q0 101 58.5 166.5t165.5 65.5t163.5 -69.5t56.5 -196.5q0 -129 -56.5 -201.5t-155.5 -72.5q-105 0 -148 71h-4v-259h-80zM270 60q146 0 146 161v74q0 77 -36.5 119t-102.5 42t-102.5 -42t-36.5 -119v-158q0 -35 39 -56t93 -21z" />
    <glyph glyph-name="uni03C2" unicode="&#x3c2;" horiz-adv-x="483" 
d="M385 -159l-76 19l34 127l-121 33q-89 24 -132 81.5t-43 158.5q0 125 59 196.5t160 71.5q132 0 184 -121l-67 -34q-14 40 -45 62t-74 22q-60 0 -95.5 -43t-35.5 -112v-68q0 -114 128 -149l92 -25q67 -17 67 -74q0 -13 -5 -33z" />
    <glyph glyph-name="sigma" unicode="&#x3c3;" horiz-adv-x="583" 
d="M280 -12q-104 0 -168.5 73t-64.5 191q0 121 64.5 192.5t180.5 71.5h266v-70h-138v-7q49 -23 71 -68t22 -119q0 -118 -64.5 -191t-168.5 -73zM280 59q67 0 107 41.5t40 120.5v62q0 97 -65 163h-70q-75 0 -117 -41.5t-42 -121.5v-62q0 -79 40 -120.5t107 -41.5z" />
    <glyph glyph-name="tau" unicode="&#x3c4;" horiz-adv-x="477" 
d="M273 0q-40 0 -62.5 23.5t-22.5 61.5v361h-168v70h425v-70h-177v-376h115v-70h-110z" />
    <glyph glyph-name="upsilon" unicode="&#x3c5;" horiz-adv-x="568" 
d="M284 -12q-102 0 -153 63t-51 195v270h80v-282q0 -91 29.5 -133t94.5 -42t94.5 42t29.5 133v282h80v-270q0 -132 -51 -195t-153 -63z" />
    <glyph glyph-name="phi" unicode="&#x3c6;" horiz-adv-x="715" 
d="M307 -200v188q-112 0 -184.5 72.5t-72.5 189.5q0 209 145 278l45 -56q-54 -27 -79 -75t-25 -128v-39q0 -85 48 -128t123 -43v215q0 254 175 254q90 0 135.5 -61t45.5 -193q0 -138 -73 -212t-203 -74v-188h-80zM387 59q190 0 190 171v69q0 85 -24 121.5t-71 36.5
t-71 -36.5t-24 -121.5v-240z" />
    <glyph glyph-name="chi" unicode="&#x3c7;" horiz-adv-x="496" 
d="M17 -200l185 367l-121 279h-69v70h60q36 0 54 -12.5t32 -44.5l93 -219h3l134 276h88l-179 -344l128 -302h69v-70h-60q-36 0 -54.5 12.5t-31.5 44.5l-100 242h-3l-140 -299h-88z" />
    <glyph glyph-name="psi" unicode="&#x3c8;" horiz-adv-x="726" 
d="M323 -200v188q-116 0 -179.5 71t-63.5 199v258h80v-282q0 -175 163 -175v651h80v-651q163 0 163 175v282h80v-258q0 -128 -63.5 -199t-179.5 -71v-188h-80z" />
    <glyph glyph-name="omega" unicode="&#x3c9;" horiz-adv-x="736" 
d="M223 -12q-81 0 -126 62t-45 192q0 217 145 286l45 -56q-54 -27 -79 -75t-25 -128v-52q0 -85 24 -121.5t71 -36.5t71 36.5t24 121.5v132h80v-132q0 -85 24 -121.5t71 -36.5t71 36.5t24 121.5v52q0 152 -104 203l45 56q145 -67 145 -286q0 -130 -45 -192t-126 -62
q-116 0 -143 127h-4q-27 -127 -143 -127z" />
    <glyph glyph-name="iotadieresis" unicode="&#x3ca;" horiz-adv-x="295" 
d="M39 618q-49 0 -49 46v11q0 46 49 46t49 -46v-11q0 -46 -49 -46zM225 618q-49 0 -49 46v11q0 46 49 46t49 -46v-11q0 -46 -49 -46zM170 0q-40 0 -62.5 23.5t-22.5 61.5v431h80v-446h105v-70h-100z" />
    <glyph glyph-name="upsilondieresis" unicode="&#x3cb;" horiz-adv-x="568" 
d="M191 618q-49 0 -49 46v11q0 46 49 46t49 -46v-11q0 -46 -49 -46zM377 618q-49 0 -49 46v11q0 46 49 46t49 -46v-11q0 -46 -49 -46zM284 -12q-102 0 -153 63t-51 195v270h80v-282q0 -91 29.5 -133t94.5 -42t94.5 42t29.5 133v282h80v-270q0 -132 -51 -195t-153 -63z" />
    <glyph glyph-name="omicrontonos" unicode="&#x3cc;" horiz-adv-x="560" 
d="M304 585l-57 7l29 188l80 -11zM280 -12q-104 0 -168.5 74t-64.5 196t64.5 196t168.5 74t168.5 -74t64.5 -196t-64.5 -196t-168.5 -74zM280 59q67 0 107 41.5t40 120.5v74q0 79 -40 120.5t-107 41.5t-107 -41.5t-40 -120.5v-74q0 -79 40 -120.5t107 -41.5z" />
    <glyph glyph-name="upsilontonos" unicode="&#x3cd;" horiz-adv-x="568" 
d="M308 585l-57 7l29 188l80 -11zM284 -12q-102 0 -153 63t-51 195v270h80v-282q0 -91 29.5 -133t94.5 -42t94.5 42t29.5 133v282h80v-270q0 -132 -51 -195t-153 -63z" />
    <glyph glyph-name="omegatonos" unicode="&#x3ce;" horiz-adv-x="736" 
d="M392 585l-57 7l29 188l80 -11zM223 -12q-81 0 -126 62t-45 192q0 217 145 286l45 -56q-54 -27 -79 -75t-25 -128v-52q0 -85 24 -121.5t71 -36.5t71 36.5t24 121.5v132h80v-132q0 -85 24 -121.5t71 -36.5t71 36.5t24 121.5v52q0 152 -104 203l45 56q145 -67 145 -286
q0 -130 -45 -192t-126 -62q-116 0 -143 127h-4q-27 -127 -143 -127z" />
    <glyph glyph-name="uni0400" unicode="&#x400;" horiz-adv-x="583" 
d="M297 755l-106 159l73 35l85 -170zM93 0v698h426v-74h-342v-234h322v-74h-322v-242h342v-74h-426z" />
    <glyph glyph-name="uni0401" unicode="&#x401;" horiz-adv-x="583" 
d="M211 788q-50 0 -50 47v12q0 47 50 47t50 -47v-12q0 -47 -50 -47zM397 788q-50 0 -50 47v12q0 47 50 47t50 -47v-12q0 -47 -50 -47zM93 0v698h426v-74h-342v-234h322v-74h-322v-242h342v-74h-426z" />
    <glyph glyph-name="uni0402" unicode="&#x402;" horiz-adv-x="786" 
d="M509 -164v74h84q51 41 51 154v126q0 90 -41.5 132t-123.5 42q-95 0 -151 -23v-341h-84v624h-222v74h528v-74h-222v-209h5q59 23 149 23q125 0 185.5 -61t60.5 -187v-126q0 -228 -173 -228h-46z" />
    <glyph glyph-name="uni0403" unicode="&#x403;" horiz-adv-x="499" 
d="M287 755l-52 24l85 170l73 -35zM93 0v698h380v-74h-296v-624h-84z" />
    <glyph glyph-name="uni0404" unicode="&#x404;" horiz-adv-x="631" 
d="M344 -12q-138 0 -212 91.5t-74 265.5q0 175 74.5 270t211.5 95q176 0 245 -153l-68 -41q-46 119 -177 119q-94 0 -145 -64.5t-51 -173.5v-7h294v-74h-294v-23q0 -108 51 -169t145 -61q137 0 183 126l67 -42q-71 -159 -250 -159z" />
    <glyph glyph-name="uni0405" unicode="&#x405;" horiz-adv-x="581" 
d="M289 -12q-157 0 -247 122l62 52q75 -100 188 -100q74 0 114 35.5t40 96.5q0 49 -30 76.5t-99 43.5l-57 13q-98 22 -147.5 68t-49.5 124q0 91 63 141t168 50q151 0 231 -114l-63 -46q-62 86 -172 86q-68 0 -106 -29.5t-38 -84.5q0 -48 31.5 -74t99.5 -42l57 -13
q102 -23 148.5 -70t46.5 -125q0 -97 -64 -153.5t-176 -56.5z" />
    <glyph glyph-name="uni0406" unicode="&#x406;" horiz-adv-x="400" 
d="M60 0v70h98v558h-98v70h280v-70h-98v-558h98v-70h-280z" />
    <glyph glyph-name="uni0407" unicode="&#x407;" horiz-adv-x="400" 
d="M107 788q-50 0 -50 47v12q0 47 50 47t50 -47v-12q0 -47 -50 -47zM293 788q-50 0 -50 47v12q0 47 50 47t50 -47v-12q0 -47 -50 -47zM60 0v70h98v558h-98v70h280v-70h-98v-558h98v-70h-280z" />
    <glyph glyph-name="uni0408" unicode="&#x408;" horiz-adv-x="510" 
d="M222 -12q-79 0 -129 43t-65 116l76 18q22 -102 120 -102q55 0 84.5 33.5t29.5 99.5v428h-240v74h324v-517q0 -88 -55.5 -140.5t-144.5 -52.5z" />
    <glyph glyph-name="uni0409" unicode="&#x409;" horiz-adv-x="1014" 
d="M10 0v74h72q48 47 68.5 138.5t20.5 292.5v193h400v-280h208q93 0 144 -55t51 -154t-51 -154t-144 -55h-292v624h-236v-125q0 -206 -23.5 -307.5t-72.5 -150.5q-41 -41 -109 -41h-36zM571 74h208q50 0 77.5 27.5t27.5 81.5v52q0 54 -27.5 81.5t-77.5 27.5h-208v-270z" />
    <glyph glyph-name="uni040A" unicode="&#x40a;" horiz-adv-x="1037" 
d="M93 0v698h84v-308h333v308h84v-280h208q93 0 144 -55t51 -154t-51 -154t-144 -55h-292v316h-333v-316h-84zM594 74h208q50 0 77.5 27.5t27.5 81.5v52q0 54 -27.5 81.5t-77.5 27.5h-208v-270z" />
    <glyph glyph-name="uni040B" unicode="&#x40b;" horiz-adv-x="796" 
d="M244 0v624h-222v74h528v-74h-222v-209h5q59 23 154 23q129 0 190 -61t61 -187v-190h-84v190q0 90 -42 132t-128 42q-100 0 -156 -23v-341h-84z" />
    <glyph glyph-name="uni040C" unicode="&#x40c;" horiz-adv-x="662" 
d="M328 755l-52 24l85 170l73 -35zM93 0v698h84v-309h136l140 239q22 38 44.5 54t54.5 16h46v-74h-63l-124 -212q-18 -29 -29 -39.5t-30 -16.5v-5q24 -5 41.5 -18t35.5 -46l130 -213h61v-74h-62q-51 0 -91 65l-154 252h-136v-317h-84z" />
    <glyph glyph-name="uni040D" unicode="&#x40d;" horiz-adv-x="707" 
d="M345 755l-106 159l73 35l85 -170zM93 0v698h82v-438l-8 -143h3l70 126l298 455h76v-698h-82v438l8 143h-3l-70 -126l-298 -455h-76z" />
    <glyph glyph-name="uni040E" unicode="&#x40e;" horiz-adv-x="595" 
d="M306 766q-96 0 -137 78l-20 38l70 31l35 -82q24 -6 52 -6t52 6l35 82l70 -31l-20 -38q-41 -78 -137 -78zM144 0v74h101l33 83l-258 541h91l151 -318l52 -121h5l44 123l126 316h86l-244 -609q-22 -54 -48.5 -71.5t-83.5 -17.5h-55z" />
    <glyph glyph-name="uni040F" unicode="&#x40f;" horiz-adv-x="693" 
d="M308 -150v150h-215v698h84v-624h339v624h84v-698h-215v-150h-77z" />
    <glyph glyph-name="uni0410" unicode="&#x410;" horiz-adv-x="641" 
d="M23 0l244 698h107l244 -698h-88l-70 206h-282l-70 -206h-85zM198 280h241l-118 340h-5z" />
    <glyph glyph-name="uni0411" unicode="&#x411;" horiz-adv-x="636" 
d="M93 0v698h427v-74h-343v-206h208q93 0 144 -55t51 -154t-51 -154t-144 -55h-292zM177 74h208q50 0 77.5 27.5t27.5 81.5v52q0 54 -27.5 81.5t-77.5 27.5h-208v-270z" />
    <glyph glyph-name="uni0412" unicode="&#x412;" horiz-adv-x="653" 
d="M93 0v698h287q86 0 136 -49t50 -131q0 -70 -34.5 -105.5t-78.5 -42.5v-6q48 -3 92.5 -43.5t44.5 -118.5q0 -86 -51.5 -144t-128.5 -58h-317zM177 396h193q50 0 78 25.5t28 71.5v34q0 46 -28 71.5t-78 25.5h-193v-228zM177 74h207q55 0 85.5 28t30.5 80v34q0 52 -30.5 80
t-85.5 28h-207v-250z" />
    <glyph glyph-name="uni0413" unicode="&#x413;" horiz-adv-x="499" 
d="M93 0v698h380v-74h-296v-624h-84z" />
    <glyph glyph-name="uni0414" unicode="&#x414;" horiz-adv-x="726" 
d="M10 -150v224h73q93 133 93 419v205h420v-624h98v-224h-77v150h-530v-150h-77zM181 74h331v550h-256v-137q0 -291 -75 -408v-5z" />
    <glyph glyph-name="uni0415" unicode="&#x415;" horiz-adv-x="583" 
d="M93 0v698h426v-74h-342v-234h322v-74h-322v-242h342v-74h-426z" />
    <glyph glyph-name="uni0416" unicode="&#x416;" horiz-adv-x="978" 
d="M42 0v74h63l108 209q17 32 33 47t40 21v5q-42 13 -67 65l-94 203h-63v74h52q66 0 100 -72l110 -237h123v309h84v-309h123l112 237q34 72 98 72h52v-74h-63l-96 -203q-25 -53 -65 -65v-5q47 -12 75 -68l106 -209h63v-74h-64q-57 0 -94 73l-124 244h-123v-317h-84v317h-123
l-126 -244q-21 -40 -42 -56.5t-50 -16.5h-64z" />
    <glyph glyph-name="uni0417" unicode="&#x417;" horiz-adv-x="593" 
d="M281 -12q-159 0 -244 124l61 49q66 -98 183 -98q159 0 159 125v13q0 56 -37 87.5t-113 31.5h-105v74h99q73 0 106.5 29.5t33.5 90.5v14q0 107 -136 107q-112 0 -165 -80l-65 42q39 57 93.5 85t136.5 28q111 0 168.5 -49t57.5 -134q0 -137 -133 -165v-5q66 -8 107.5 -49
t41.5 -115q0 -93 -66.5 -149t-182.5 -56z" />
    <glyph glyph-name="uni0418" unicode="&#x418;" horiz-adv-x="707" 
d="M93 0v698h82v-438l-8 -143h3l70 126l298 455h76v-698h-82v438l8 143h-3l-70 -126l-298 -455h-76z" />
    <glyph glyph-name="uni0419" unicode="&#x419;" horiz-adv-x="707" 
d="M351 766q-96 0 -137 78l-20 38l70 31l35 -82q24 -6 52 -6t52 6l35 82l70 -31l-20 -38q-41 -78 -137 -78zM93 0v698h82v-438l-8 -143h3l70 126l298 455h76v-698h-82v438l8 143h-3l-70 -126l-298 -455h-76z" />
    <glyph glyph-name="uni041A" unicode="&#x41a;" horiz-adv-x="662" 
d="M93 0v698h84v-309h136l140 239q22 38 44.5 54t54.5 16h46v-74h-63l-124 -212q-18 -29 -29 -39.5t-30 -16.5v-5q24 -5 41.5 -18t35.5 -46l130 -213h61v-74h-62q-51 0 -91 65l-154 252h-136v-317h-84z" />
    <glyph glyph-name="uni041B" unicode="&#x41b;" horiz-adv-x="684" 
d="M10 0v74h72q48 47 68.5 138.5t20.5 292.5v193h420v-698h-84v624h-256v-125q0 -206 -23.5 -307.5t-72.5 -150.5q-41 -41 -109 -41h-36z" />
    <glyph glyph-name="uni041C" unicode="&#x41c;" horiz-adv-x="812" 
d="M93 0v698h112l200 -376h5l201 376h108v-698h-82v588h-5l-59 -117l-167 -304l-167 304l-59 117h-5v-588h-82z" />
    <glyph glyph-name="uni041D" unicode="&#x41d;" horiz-adv-x="707" 
d="M93 0v698h84v-308h353v308h84v-698h-84v316h-353v-316h-84z" />
    <glyph glyph-name="uni041E" unicode="&#x41e;" horiz-adv-x="708" 
d="M354 -12q-137 0 -216.5 94t-79.5 267t79.5 267t216.5 94t216.5 -94t79.5 -267t-79.5 -267t-216.5 -94zM354 63q91 0 148.5 62.5t57.5 165.5v116q0 103 -57.5 165.5t-148.5 62.5t-148.5 -62.5t-57.5 -165.5v-116q0 -103 57.5 -165.5t148.5 -62.5z" />
    <glyph glyph-name="uni041F" unicode="&#x41f;" horiz-adv-x="693" 
d="M93 0v698h507v-698h-84v624h-339v-624h-84z" />
    <glyph glyph-name="uni0420" unicode="&#x420;" horiz-adv-x="606" 
d="M93 0v698h278q93 0 144 -53.5t51 -146.5t-51 -146.5t-144 -53.5h-194v-298h-84zM177 372h194q50 0 77.5 26t27.5 74v52q0 48 -27.5 74t-77.5 26h-194v-252z" />
    <glyph glyph-name="uni0421" unicode="&#x421;" horiz-adv-x="621" 
d="M339 -12q-133 0 -207 92t-74 265q0 174 74 269.5t207 95.5q171 0 240 -153l-68 -41q-22 56 -65.5 87.5t-106.5 31.5q-89 0 -140 -65t-51 -173v-104q0 -108 50.5 -169t140.5 -61q65 0 110.5 33.5t67.5 92.5l67 -42q-34 -75 -97 -117t-148 -42z" />
    <glyph glyph-name="uni0422" unicode="&#x422;" horiz-adv-x="572" 
d="M244 0v624h-222v74h528v-74h-222v-624h-84z" />
    <glyph glyph-name="uni0423" unicode="&#x423;" horiz-adv-x="595" 
d="M144 0v74h101l33 83l-258 541h91l151 -318l52 -121h5l44 123l126 316h86l-244 -609q-22 -54 -48.5 -71.5t-83.5 -17.5h-55z" />
    <glyph glyph-name="uni0424" unicode="&#x424;" horiz-adv-x="844" 
d="M380 -29v90h-31q-139 0 -219 80.5t-80 206.5t80.5 206.5t219.5 80.5h30v90h84v-90h30q139 0 219.5 -80.5t80.5 -206.5t-80.5 -206.5t-219.5 -80.5h-30v-90h-84zM349 131h33v434h-32q-93 0 -151.5 -53t-58.5 -133v-62q0 -80 58 -133t151 -53zM462 131h32q93 0 151.5 53
t58.5 133v62q0 80 -58.5 133t-151.5 53h-32v-434z" />
    <glyph glyph-name="uni0425" unicode="&#x425;" horiz-adv-x="613" 
d="M24 0l228 355l-222 343h101l175 -278h2l179 278h96l-224 -340l230 -358h-101l-183 293h-2l-183 -293h-96z" />
    <glyph glyph-name="uni0426" unicode="&#x426;" horiz-adv-x="730" 
d="M621 -150v150h-528v698h84v-624h339v624h84v-624h98v-224h-77z" />
    <glyph glyph-name="uni0427" unicode="&#x427;" horiz-adv-x="645" 
d="M468 0v275h-5q-59 -23 -154 -23q-129 0 -190 61t-61 187v198h84v-198q0 -90 42 -132t128 -42q100 0 156 23v349h84v-698h-84z" />
    <glyph glyph-name="uni0428" unicode="&#x428;" horiz-adv-x="956" 
d="M93 0v698h84v-624h259v624h84v-624h259v624h84v-698h-770z" />
    <glyph glyph-name="uni0429" unicode="&#x429;" horiz-adv-x="993" 
d="M884 -150v150h-791v698h84v-624h259v624h84v-624h259v624h84v-624h98v-224h-77z" />
    <glyph glyph-name="uni042A" unicode="&#x42a;" horiz-adv-x="741" 
d="M204 0v624h-182v74h266v-280h218q93 0 144 -55t51 -154t-51 -154t-144 -55h-302zM288 74h218q50 0 77.5 27.5t27.5 81.5v52q0 54 -27.5 81.5t-77.5 27.5h-218v-270z" />
    <glyph glyph-name="uni042B" unicode="&#x42b;" horiz-adv-x="875" 
d="M93 0v698h84v-280h208q93 0 144 -55t51 -154t-51 -154t-144 -55h-292zM698 0v698h84v-698h-84zM177 74h208q50 0 77.5 27.5t27.5 81.5v52q0 54 -27.5 81.5t-77.5 27.5h-208v-270z" />
    <glyph glyph-name="uni042C" unicode="&#x42c;" horiz-adv-x="630" 
d="M93 0v698h84v-280h218q93 0 144 -55t51 -154t-51 -154t-144 -55h-302zM177 74h218q50 0 77.5 27.5t27.5 81.5v52q0 54 -27.5 81.5t-77.5 27.5h-218v-270z" />
    <glyph glyph-name="uni042D" unicode="&#x42d;" horiz-adv-x="631" 
d="M287 -12q-179 0 -250 159l67 42q46 -126 183 -126q94 0 145 64.5t51 174.5v14h-294v74h294v15q0 108 -51 169t-145 61q-131 0 -177 -119l-68 41q69 153 245 153q138 0 212 -91.5t74 -265.5q0 -175 -74.5 -270t-211.5 -95z" />
    <glyph glyph-name="uni042E" unicode="&#x42e;" horiz-adv-x="960" 
d="M616 -12q-132 0 -205.5 84t-80.5 244h-153v-316h-84v698h84v-308h155q6 155 80.5 237.5t203.5 82.5q137 0 211.5 -91.5t74.5 -269.5t-74.5 -269.5t-211.5 -91.5zM616 63q91 0 143.5 60.5t52.5 167.5v116q0 107 -52.5 167.5t-143.5 60.5t-143.5 -60.5t-52.5 -167.5v-116
q0 -107 52.5 -167.5t143.5 -60.5z" />
    <glyph glyph-name="uni042F" unicode="&#x42f;" horiz-adv-x="640" 
d="M41 0v74h60l86 167q16 32 30 46t38 21v5q-91 3 -136 52.5t-45 134.5q0 95 51.5 146.5t143.5 51.5h278v-698h-84v300h-153l-118 -230q-21 -40 -40.5 -55t-48.5 -15h-62zM269 372h194v252h-194q-50 0 -77.5 -26t-27.5 -74v-52q0 -48 27.5 -74t77.5 -26z" />
    <glyph glyph-name="uni0430" unicode="&#x430;" horiz-adv-x="534" 
d="M217 -12q-81 0 -127 42t-46 114q0 151 220 151h102v51q0 113 -122 113q-85 0 -131 -77l-48 45q23 44 70 72.5t113 28.5q93 0 145.5 -46t52.5 -128v-284h59v-70h-45q-76 0 -88 78l-1 6h-5q-34 -96 -149 -96zM230 56q59 0 97.5 27t38.5 67v85h-106q-132 0 -132 -78v-21
q0 -38 27.5 -59t74.5 -21z" />
    <glyph glyph-name="uni0431" unicode="&#x431;" horiz-adv-x="564" 
d="M284 -12q-233 0 -233 319q0 222 60.5 319.5t202.5 108.5l162 13v-81l-172 -14q-89 -8 -124 -57.5t-45 -184.5h4q23 54 60 79.5t96 25.5q100 0 161 -70.5t61 -194.5q0 -117 -64.5 -190t-168.5 -73zM288 59q64 0 103.5 41t39.5 116v63q0 81 -40 123.5t-111 42.5
q-70 0 -106.5 -34.5t-36.5 -93.5v-92q0 -81 40 -123.5t111 -42.5z" />
    <glyph glyph-name="uni0432" unicode="&#x432;" horiz-adv-x="558" 
d="M85 0v516h260q63 0 99 -35.5t36 -95.5q0 -97 -101 -109v-4q58 -4 88.5 -36t30.5 -82q0 -65 -38.5 -109.5t-101.5 -44.5h-273zM165 300h159q33 0 51.5 16.5t18.5 47.5v22q0 31 -18.5 47.5t-51.5 16.5h-159v-150zM165 66h169q36 0 57 19t21 54v23q0 35 -21 54t-57 19h-169
v-169z" />
    <glyph glyph-name="uni0433" unicode="&#x433;" horiz-adv-x="435" 
d="M85 0v516h326v-70h-246v-446h-80z" />
    <glyph glyph-name="uni0434" unicode="&#x434;" horiz-adv-x="597" 
d="M8 -140v210h59q69 111 69 297v149h349v-446h86v-210h-73v140h-417v-140h-73zM153 70h252v376h-193v-83q0 -182 -59 -293z" />
    <glyph glyph-name="uni0435" unicode="&#x435;" horiz-adv-x="549" 
d="M279 -12q-105 0 -168.5 73.5t-63.5 196.5t63.5 196.5t168.5 73.5q102 0 162.5 -70.5t60.5 -181.5v-38h-371v-24q0 -68 41.5 -112t111.5 -44q100 0 142 89l57 -41q-25 -54 -79 -86t-125 -32zM131 298h285v11q0 68 -37.5 110t-99.5 42q-65 0 -106.5 -44t-41.5 -112v-7z" />
    <glyph glyph-name="uni0436" unicode="&#x436;" horiz-adv-x="770" 
d="M40 0v70h60l58 139q20 48 63 55v4q-40 12 -61 59l-53 119h-60v70h47q61 0 90 -63l69 -153h92v216h80v-216h92l69 153q29 63 90 63h47v-70h-60l-53 -119q-21 -47 -61 -59v-4q43 -7 63 -55l58 -139h60v-70h-57q-58 0 -88 70l-68 162h-92v-232h-80v232h-92l-68 -162
q-30 -70 -88 -70h-57z" />
    <glyph glyph-name="uni0437" unicode="&#x437;" horiz-adv-x="501" 
d="M231 -12q-140 0 -203 104l60 48q42 -81 143 -81q60 0 92 22.5t32 59.5v12q0 39 -26.5 59.5t-74.5 20.5h-110v67h100q48 0 74 19t26 54v12q0 72 -115 72q-94 0 -137 -76l-53 45q54 102 194 102q98 0 147.5 -36.5t49.5 -102.5q0 -92 -99 -115v-4q54 -7 82 -38.5t28 -81.5
q0 -74 -57 -118t-153 -44z" />
    <glyph glyph-name="uni0438" unicode="&#x438;" horiz-adv-x="588" 
d="M85 0v516h78v-286l-8 -124h4l64 110l206 300h74v-516h-78v286l8 124h-4l-64 -110l-206 -300h-74z" />
    <glyph glyph-name="uni0439" unicode="&#x439;" horiz-adv-x="588" 
d="M295 596q-96 0 -137 78l-20 38l70 31l35 -82q24 -6 52 -6t52 6l35 82l70 -31l-20 -38q-41 -78 -137 -78zM85 0v516h78v-286l-8 -124h4l64 110l206 300h74v-516h-78v286l8 124h-4l-64 -110l-206 -300h-74z" />
    <glyph glyph-name="uni043A" unicode="&#x43a;" horiz-adv-x="550" 
d="M85 0v516h80v-216h103l100 158q22 35 40.5 46.5t46.5 11.5h47v-70h-62l-81 -128q-16 -25 -26 -34.5t-30 -15.5v-4q43 -6 69 -54l79 -140h59v-70h-58q-54 0 -89 63l-95 169h-103v-232h-80z" />
    <glyph glyph-name="uni043B" unicode="&#x43b;" horiz-adv-x="565" 
d="M8 0v70h68q55 78 55 299v147h349v-516h-80v446h-193v-79q0 -262 -71 -333q-34 -34 -97 -34h-31z" />
    <glyph glyph-name="uni043C" unicode="&#x43c;" horiz-adv-x="696" 
d="M85 0v516h105l157 -268h4l156 268h104v-516h-78v420h-5l-29 -56l-151 -256l-151 256l-29 56h-5v-420h-78z" />
    <glyph glyph-name="uni043D" unicode="&#x43d;" horiz-adv-x="588" 
d="M85 0v516h80v-215h258v215h80v-516h-80v231h-258v-231h-80z" />
    <glyph glyph-name="uni043E" unicode="&#x43e;" horiz-adv-x="560" 
d="M280 -12q-104 0 -168.5 74t-64.5 196t64.5 196t168.5 74t168.5 -74t64.5 -196t-64.5 -196t-168.5 -74zM280 59q67 0 107 41.5t40 120.5v74q0 79 -40 120.5t-107 41.5t-107 -41.5t-40 -120.5v-74q0 -79 40 -120.5t107 -41.5z" />
    <glyph glyph-name="uni043F" unicode="&#x43f;" horiz-adv-x="573" 
d="M85 0v516h403v-516h-80v446h-243v-446h-80z" />
    <glyph glyph-name="uni0440" unicode="&#x440;" horiz-adv-x="580" 
d="M85 -200v716h80v-84h4q40 96 151 96q97 0 153.5 -73t56.5 -197t-56.5 -197t-153.5 -73q-104 0 -151 96h-4v-284h-80zM298 60q67 0 106.5 42t39.5 112v88q0 70 -39.5 112t-106.5 42q-55 0 -94 -28.5t-39 -70.5v-192q0 -49 38 -77t95 -28z" />
    <glyph glyph-name="uni0441" unicode="&#x441;" horiz-adv-x="503" 
d="M277 -12q-108 0 -169 72.5t-61 197.5t61 197.5t169 72.5q142 0 193 -121l-67 -34q-30 84 -126 84q-69 0 -106.5 -42.5t-37.5 -112.5v-88q0 -70 37.5 -112.5t106.5 -42.5q97 0 140 90l58 -39q-26 -57 -76 -89.5t-122 -32.5z" />
    <glyph glyph-name="uni0442" unicode="&#x442;" horiz-adv-x="472" 
d="M196 0v446h-176v70h432v-70h-176v-446h-80z" />
    <glyph glyph-name="uni0443" unicode="&#x443;" horiz-adv-x="499" 
d="M90 -200v70h81l39 110l-193 536h80l124 -351l24 -84h5l28 84l125 351h79l-231 -636q-18 -48 -41 -64t-79 -16h-41z" />
    <glyph glyph-name="uni0444" unicode="&#x444;" horiz-adv-x="750" 
d="M335 -200v254h-3q-43 -66 -110 -66q-171 0 -171 270t171 270q67 0 110 -66h3v248h80v-248h3q43 66 110 66q171 0 171 -270t-171 -270q-67 0 -110 66h-3v-254h-80zM243 59q93 0 93 70v258q0 70 -93 70q-56 0 -81 -36t-25 -119v-88q0 -83 25 -119t81 -36zM507 59
q56 0 81 36t25 119v88q0 83 -25 119t-81 36q-93 0 -93 -70v-258q0 -70 93 -70z" />
    <glyph glyph-name="uni0445" unicode="&#x445;" horiz-adv-x="507" 
d="M21 0l191 260l-183 256h94l131 -192h3l136 192h89l-182 -250l186 -266h-94l-134 202h-3l-145 -202h-89z" />
    <glyph glyph-name="uni0446" unicode="&#x446;" horiz-adv-x="600" 
d="M501 -140v140h-416v516h80v-446h243v446h80v-446h86v-210h-73z" />
    <glyph glyph-name="uni0447" unicode="&#x447;" horiz-adv-x="538" 
d="M373 0v237h-5q-55 -62 -151 -62q-80 0 -123.5 40.5t-43.5 118.5v182h80v-175q0 -94 111 -94q59 0 95.5 16.5t36.5 46.5v206h80v-516h-80z" />
    <glyph glyph-name="uni0448" unicode="&#x448;" horiz-adv-x="798" 
d="M85 0v516h80v-446h194v446h80v-446h194v446h80v-516h-628z" />
    <glyph glyph-name="uni0449" unicode="&#x449;" horiz-adv-x="825" 
d="M726 -140v140h-641v516h80v-446h194v446h80v-446h194v446h80v-446h86v-210h-73z" />
    <glyph glyph-name="uni044A" unicode="&#x44a;" horiz-adv-x="590" 
d="M155 0v446h-135v70h215v-187h147q78 0 124 -44t46 -120q0 -78 -45 -121.5t-124 -43.5h-228zM235 70h136q95 0 95 74v42q0 73 -95 73h-136v-189z" />
    <glyph glyph-name="uni044B" unicode="&#x44b;" horiz-adv-x="724" 
d="M85 0v516h80v-187h137q78 0 124 -44.5t46 -120.5q0 -77 -45 -120.5t-124 -43.5h-218zM559 0v516h80v-516h-80zM165 70h126q95 0 95 74v42q0 73 -95 73h-126v-189z" />
    <glyph glyph-name="uni044C" unicode="&#x44c;" horiz-adv-x="520" 
d="M85 0v516h80v-187h147q78 0 124 -44.5t46 -120.5q0 -77 -45 -120.5t-124 -43.5h-228zM165 70h136q95 0 95 74v42q0 73 -95 73h-136v-189z" />
    <glyph glyph-name="uni044D" unicode="&#x44d;" horiz-adv-x="511" 
d="M230 -12q-146 0 -197 121l67 34q30 -84 130 -84q72 0 110 42t38 113v13h-224v67h224v8q0 71 -38 113t-110 42q-101 0 -144 -90l-58 39q54 122 202 122q111 0 172.5 -72.5t61.5 -197.5t-61.5 -197.5t-172.5 -72.5z" />
    <glyph glyph-name="uni044E" unicode="&#x44e;" horiz-adv-x="781" 
d="M508 -12q-98 0 -158.5 64.5t-67.5 179.5h-117v-232h-80v516h80v-216h119q10 107 69.5 167.5t154.5 60.5q104 0 165 -72t61 -198t-61 -198t-165 -72zM508 59q140 0 140 162v74q0 162 -140 162t-140 -162v-74q0 -162 140 -162z" />
    <glyph glyph-name="uni044F" unicode="&#x44f;" horiz-adv-x="535" 
d="M39 0v70h57l33 76q21 50 63 56v4q-67 6 -103 45t-36 105q0 74 45.5 117t123.5 43h228v-516h-80v198h-134l-54 -127q-30 -71 -88 -71h-55zM234 266h136v180h-136q-95 0 -95 -74v-33q0 -73 95 -73z" />
    <glyph glyph-name="uni0450" unicode="&#x450;" horiz-adv-x="549" 
d="M272 585l-106 159l73 35l85 -170zM279 -12q-105 0 -168.5 73.5t-63.5 196.5t63.5 196.5t168.5 73.5q102 0 162.5 -70.5t60.5 -181.5v-38h-371v-24q0 -68 41.5 -112t111.5 -44q100 0 142 89l57 -41q-25 -54 -79 -86t-125 -32zM131 298h285v11q0 68 -37.5 110t-99.5 42
q-65 0 -106.5 -44t-41.5 -112v-7z" />
    <glyph glyph-name="uni0451" unicode="&#x451;" horiz-adv-x="549" 
d="M186 618q-49 0 -49 46v11q0 46 49 46t49 -46v-11q0 -46 -49 -46zM372 618q-49 0 -49 46v11q0 46 49 46t49 -46v-11q0 -46 -49 -46zM279 -12q-105 0 -168.5 73.5t-63.5 196.5t63.5 196.5t168.5 73.5q102 0 162.5 -70.5t60.5 -181.5v-38h-371v-24q0 -68 41.5 -112
t111.5 -44q100 0 142 89l57 -41q-25 -54 -79 -86t-125 -32zM131 298h285v11q0 68 -37.5 110t-99.5 42q-65 0 -106.5 -44t-41.5 -112v-7z" />
    <glyph glyph-name="uni0452" unicode="&#x452;" horiz-adv-x="568" 
d="M324 -200v70h84v447q0 139 -117 139q-52 0 -89 -25.5t-37 -72.5v-358h-80v608h-64v62h64v70h80v-70h150v-62h-150v-176h4q41 96 146 96q80 0 126.5 -52t46.5 -145v-413q0 -55 -28 -86.5t-83 -31.5h-53z" />
    <glyph glyph-name="uni0453" unicode="&#x453;" horiz-adv-x="435" 
d="M256 585l-52 24l85 170l73 -35zM85 0v516h326v-70h-246v-446h-80z" />
    <glyph glyph-name="uni0454" unicode="&#x454;" horiz-adv-x="511" 
d="M281 -12q-112 0 -173 72.5t-61 197.5t61 197.5t173 72.5q146 0 197 -121l-67 -34q-30 84 -130 84q-73 0 -110.5 -42.5t-37.5 -112.5v-8h224v-67h-224v-13q0 -70 37.5 -112.5t110.5 -42.5q101 0 144 90l58 -39q-54 -122 -202 -122z" />
    <glyph glyph-name="uni0455" unicode="&#x455;" horiz-adv-x="487" 
d="M240 -12q-128 0 -204 101l57 46q63 -79 153 -79q51 0 79.5 22t28.5 62q0 68 -90 81l-41 6q-166 24 -166 149q0 74 51 113t133 39q113 0 180 -83l-53 -48q-45 63 -133 63q-49 0 -75 -21.5t-26 -58.5q0 -36 24 -54t75 -26l40 -6q83 -12 120.5 -48.5t37.5 -96.5
q0 -75 -51 -118t-140 -43z" />
    <glyph glyph-name="uni0456" unicode="&#x456;" horiz-adv-x="250" 
d="M125 637q-49 0 -49 45v13q0 45 49 45t49 -45v-13q0 -45 -49 -45zM85 0v516h80v-516h-80z" />
    <glyph glyph-name="uni0457" unicode="&#x457;" horiz-adv-x="250" 
d="M32 618q-49 0 -49 46v11q0 46 49 46t49 -46v-11q0 -46 -49 -46zM218 618q-49 0 -49 46v11q0 46 49 46t49 -46v-11q0 -46 -49 -46zM85 0v516h80v-516h-80z" />
    <glyph glyph-name="uni0458" unicode="&#x458;" horiz-adv-x="250" 
d="M125 637q-49 0 -49 45v13q0 45 49 45t49 -45v-13q0 -45 -49 -45zM1 -200v70h84v646h80v-596q0 -55 -28 -87.5t-84 -32.5h-52z" />
    <glyph glyph-name="uni0459" unicode="&#x459;" horiz-adv-x="805" 
d="M8 0v70h68q55 78 55 299v147h329v-187h137q78 0 124 -44.5t46 -120.5q0 -77 -45 -120.5t-124 -43.5h-218v446h-173v-79q0 -262 -71 -333q-34 -34 -97 -34h-31zM460 70h126q95 0 95 74v42q0 73 -95 73h-126v-189z" />
    <glyph glyph-name="uni045A" unicode="&#x45a;" horiz-adv-x="832" 
d="M85 0v516h80v-215h242v215h80v-187h137q78 0 124 -44.5t46 -120.5q0 -77 -45 -120.5t-124 -43.5h-218v231h-242v-231h-80zM487 70h126q95 0 95 74v42q0 73 -95 73h-126v-189z" />
    <glyph glyph-name="uni045B" unicode="&#x45b;" horiz-adv-x="568" 
d="M85 0v608h-64v62h64v70h80v-70h150v-62h-150v-176h4q41 96 146 96q80 0 126.5 -52t46.5 -145v-331h-80v317q0 139 -117 139q-52 0 -89 -25.5t-37 -72.5v-358h-80z" />
    <glyph glyph-name="uni045C" unicode="&#x45c;" horiz-adv-x="550" 
d="M286 585l-52 24l85 170l73 -35zM85 0v516h80v-216h103l100 158q22 35 40.5 46.5t46.5 11.5h47v-70h-62l-81 -128q-16 -25 -26 -34.5t-30 -15.5v-4q43 -6 69 -54l79 -140h59v-70h-58q-54 0 -89 63l-95 169h-103v-232h-80z" />
    <glyph glyph-name="uni045D" unicode="&#x45d;" horiz-adv-x="588" 
d="M288 585l-106 159l73 35l85 -170zM85 0v516h78v-286l-8 -124h4l64 110l206 300h74v-516h-78v286l8 124h-4l-64 -110l-206 -300h-74z" />
    <glyph glyph-name="uni045E" unicode="&#x45e;" horiz-adv-x="499" 
d="M250 596q-96 0 -137 78l-20 38l70 31l35 -82q24 -6 52 -6t52 6l35 82l70 -31l-20 -38q-41 -78 -137 -78zM90 -200v70h81l39 110l-193 536h80l124 -351l24 -84h5l28 84l125 351h79l-231 -636q-18 -48 -41 -64t-79 -16h-41z" />
    <glyph glyph-name="uni045F" unicode="&#x45f;" horiz-adv-x="573" 
d="M250 -140v140h-165v516h80v-446h243v446h80v-516h-165v-140h-73z" />
    <glyph glyph-name="uni0472" unicode="&#x472;" horiz-adv-x="708" 
d="M354 -12q-137 0 -216.5 94t-79.5 267t79.5 267t216.5 94t216.5 -94t79.5 -267t-79.5 -267t-216.5 -94zM148 390h412v17q0 103 -57.5 165.5t-148.5 62.5t-148.5 -62.5t-57.5 -165.5v-17zM354 63q91 0 148.5 62.5t57.5 165.5v25h-412v-25q0 -103 57.5 -165.5t148.5 -62.5z
" />
    <glyph glyph-name="uni0473" unicode="&#x473;" horiz-adv-x="560" 
d="M280 -12q-104 0 -168.5 74t-64.5 196t64.5 196t168.5 74t168.5 -74t64.5 -196t-64.5 -196t-168.5 -74zM133 293h294v2q0 79 -40 120.5t-107 41.5t-107 -41.5t-40 -120.5v-2zM280 59q67 0 107 41.5t40 120.5v10h-294v-10q0 -79 40 -120.5t107 -41.5z" />
    <glyph glyph-name="uni0490" unicode="&#x490;" horiz-adv-x="499" 
d="M93 0v698h303v150h77v-224h-296v-624h-84z" />
    <glyph glyph-name="uni0491" unicode="&#x491;" horiz-adv-x="435" 
d="M85 0v516h253v140h73v-210h-246v-446h-80z" />
    <glyph glyph-name="uni0492" unicode="&#x492;" horiz-adv-x="519" 
d="M113 0v338h-99v64h99v296h380v-74h-296v-222h198v-64h-198v-338h-84z" />
    <glyph glyph-name="uni0493" unicode="&#x493;" horiz-adv-x="453" 
d="M103 0v230h-74v62h74v224h326v-70h-246v-154h164v-62h-164v-230h-80z" />
    <glyph glyph-name="uni0494" unicode="&#x494;" horiz-adv-x="635" 
d="M340 -164v74h84q69 46 69 174v70q0 90 -41.5 132t-123.5 42q-95 0 -151 -23v-305h-84v698h380v-74h-296v-245h5q59 23 149 23q125 0 185.5 -61t60.5 -187v-70q0 -117 -52.5 -182.5t-138.5 -65.5h-46z" />
    <glyph glyph-name="uni0495" unicode="&#x495;" horiz-adv-x="538" 
d="M291 -200v70h86q31 38 31 141v95q0 67 -25.5 94t-85.5 27q-59 0 -95.5 -16.5t-36.5 -46.5v-164h-80v516h326v-70h-246v-209h5q55 62 151 62q84 0 125.5 -44t41.5 -142v-114q0 -100 -38 -149.5t-107 -49.5h-52z" />
    <glyph glyph-name="uni0496" unicode="&#x496;" horiz-adv-x="986" 
d="M894 -150v150h-22q-57 0 -94 73l-124 244h-123v-317h-84v317h-123l-126 -244q-21 -40 -42 -56.5t-50 -16.5h-64v74h63l108 209q17 32 33 47t40 21v5q-42 13 -67 65l-94 203h-63v74h52q66 0 100 -72l110 -237h123v309h84v-309h123l112 237q34 72 98 72h52v-74h-63
l-96 -203q-25 -53 -65 -65v-5q47 -12 75 -68l106 -209h98v-224h-77z" />
    <glyph glyph-name="uni0497" unicode="&#x497;" horiz-adv-x="775" 
d="M683 -140v140h-10q-58 0 -88 70l-68 162h-92v-232h-80v232h-92l-68 -162q-30 -70 -88 -70h-57v70h60l58 139q20 48 63 55v4q-40 12 -61 59l-53 119h-60v70h47q61 0 90 -63l69 -153h92v216h80v-216h92l69 153q29 63 90 63h47v-70h-60l-53 -119q-21 -47 -61 -59v-4
q43 -7 63 -55l58 -139h86v-210h-73z" />
    <glyph glyph-name="uni0498" unicode="&#x498;" horiz-adv-x="593" 
d="M246 -150v140q-134 12 -209 122l61 49q66 -98 183 -98q159 0 159 125v13q0 56 -37 87.5t-113 31.5h-105v74h99q73 0 106.5 29.5t33.5 90.5v14q0 107 -136 107q-112 0 -165 -80l-65 42q39 57 93.5 85t136.5 28q111 0 168.5 -49t57.5 -134q0 -137 -133 -165v-5
q66 -8 107.5 -49t41.5 -115q0 -84 -55 -138.5t-152 -64.5v-140h-77z" />
    <glyph glyph-name="uni0499" unicode="&#x499;" horiz-adv-x="501" 
d="M195 -140v130q-112 11 -167 102l60 48q42 -81 143 -81q60 0 92 22.5t32 59.5v12q0 39 -26.5 59.5t-74.5 20.5h-110v67h100q48 0 74 19t26 54v12q0 72 -115 72q-94 0 -137 -76l-53 45q54 102 194 102q98 0 147.5 -36.5t49.5 -102.5q0 -92 -99 -115v-4q54 -7 82 -38.5
t28 -81.5q0 -66 -46.5 -109t-126.5 -51v-130h-73z" />
    <glyph glyph-name="uni049A" unicode="&#x49a;" horiz-adv-x="670" 
d="M580 -150v150h-22q-51 0 -91 65l-154 252h-136v-317h-84v698h84v-309h136l140 239q22 38 44.5 54t54.5 16h46v-74h-63l-124 -212q-18 -29 -29 -39.5t-30 -16.5v-5q24 -5 41.5 -18t35.5 -46l130 -213h98v-224h-77z" />
    <glyph glyph-name="uni049B" unicode="&#x49b;" horiz-adv-x="556" 
d="M464 -140v140h-12q-54 0 -89 63l-95 169h-103v-232h-80v516h80v-216h103l100 158q22 35 40.5 46.5t46.5 11.5h47v-70h-62l-81 -128q-16 -25 -26 -34.5t-30 -15.5v-4q43 -6 69 -54l79 -140h86v-210h-73z" />
    <glyph glyph-name="uni049C" unicode="&#x49c;" horiz-adv-x="692" 
d="M93 0v698h84v-309h57v154h64v-154h55l130 238q21 39 44 55t55 16h46v-74h-63l-117 -214q-14 -27 -25.5 -37.5t-30.5 -16.5v-5q24 -5 40 -18t34 -45l123 -214h61v-74h-62q-53 0 -92 68l-143 249h-55v-154h-64v154h-57v-317h-84z" />
    <glyph glyph-name="uni049D" unicode="&#x49d;" horiz-adv-x="580" 
d="M85 0v516h80v-216h44v118h60v-118h39l90 158q20 35 39 46.5t48 11.5h47v-70h-62l-74 -128q-14 -25 -25 -34.5t-28 -15.5v-4q24 -3 38 -14t29 -40l71 -140h59v-70h-58q-56 0 -88 63l-86 169h-39v-117h-60v117h-44v-232h-80z" />
    <glyph glyph-name="uni04A0" unicode="&#x4a0;" horiz-adv-x="773" 
d="M204 0v624h-182v74h266v-309h136l140 239q22 38 44.5 54t54.5 16h46v-74h-63l-124 -212q-18 -29 -29 -39.5t-30 -16.5v-5q24 -5 41.5 -18t35.5 -46l130 -213h61v-74h-62q-51 0 -91 65l-154 252h-136v-317h-84z" />
    <glyph glyph-name="uni04A1" unicode="&#x4a1;" horiz-adv-x="620" 
d="M155 0v446h-135v70h215v-216h103l100 158q22 35 40.5 46.5t46.5 11.5h47v-70h-62l-81 -128q-16 -25 -26 -34.5t-30 -15.5v-4q43 -6 69 -54l79 -140h59v-70h-58q-54 0 -89 63l-95 169h-103v-232h-80z" />
    <glyph glyph-name="uni04A2" unicode="&#x4a2;" horiz-adv-x="744" 
d="M635 -150v150h-105v316h-353v-316h-84v698h84v-308h353v308h84v-624h98v-224h-77z" />
    <glyph glyph-name="uni04A3" unicode="&#x4a3;" horiz-adv-x="615" 
d="M516 -140v140h-93v231h-258v-231h-80v516h80v-215h258v215h80v-446h86v-210h-73z" />
    <glyph glyph-name="uni04A4" unicode="&#x4a4;" horiz-adv-x="916" 
d="M93 0v698h84v-308h333v308h380v-74h-296v-624h-84v316h-333v-316h-84z" />
    <glyph glyph-name="uni04A5" unicode="&#x4a5;" horiz-adv-x="757" 
d="M85 0v516h80v-215h242v215h326v-70h-246v-446h-80v231h-242v-231h-80z" />
    <glyph glyph-name="uni04AA" unicode="&#x4aa;" horiz-adv-x="621" 
d="M302 -150v140q-117 12 -180.5 103t-63.5 252q0 174 74 269.5t207 95.5q171 0 240 -153l-68 -41q-22 56 -65.5 87.5t-106.5 31.5q-89 0 -140 -65t-51 -173v-104q0 -108 50.5 -169t140.5 -61q65 0 110.5 33.5t67.5 92.5l67 -42q-62 -138 -205 -156v-141h-77z" />
    <glyph glyph-name="uni04AB" unicode="&#x4ab;" horiz-adv-x="503" 
d="M242 -140v131q-92 11 -143.5 82t-51.5 185q0 125 61 197.5t169 72.5q142 0 193 -121l-67 -34q-30 84 -126 84q-69 0 -106.5 -42.5t-37.5 -112.5v-88q0 -70 37.5 -112.5t106.5 -42.5q97 0 140 90l58 -39q-47 -104 -160 -119v-131h-73z" />
    <glyph glyph-name="uni04AE" unicode="&#x4ae;" horiz-adv-x="593" 
d="M253 0v276l-240 422h96l186 -336h3l186 336h96l-243 -419v-279h-84z" />
    <glyph glyph-name="uni04AF" unicode="&#x4af;" horiz-adv-x="492" 
d="M206 -200v200l-188 516h80l93 -257l53 -165h5l54 165l94 257h77l-188 -516v-200h-80z" />
    <glyph glyph-name="uni04B0" unicode="&#x4b0;" horiz-adv-x="593" 
d="M253 0v212h-165v64h165l-240 422h96l187 -337h3l185 337h96l-243 -422h164v-64h-164v-212h-84z" />
    <glyph glyph-name="uni04B1" unicode="&#x4b1;" horiz-adv-x="492" 
d="M206 -200v138h-124v62h124l-188 516h80l93 -257l53 -165h5l54 165l94 257h77l-188 -516h124v-62h-124v-138h-80z" />
    <glyph glyph-name="uni04B2" unicode="&#x4b2;" horiz-adv-x="644" 
d="M562 -150v150h-74l-183 293h-2l-183 -293h-96l228 355l-222 343h101l175 -278h2l179 278h96l-224 -340l182 -284h98v-224h-77z" />
    <glyph glyph-name="uni04B3" unicode="&#x4b3;" horiz-adv-x="531" 
d="M450 -140v140h-58l-134 202h-3l-145 -202h-89l191 260l-183 256h94l131 -192h3l136 192h89l-182 -250l137 -196h86v-210h-73z" />
    <glyph glyph-name="uni04B6" unicode="&#x4b6;" horiz-adv-x="682" 
d="M573 -150v150h-105v275h-5q-59 -23 -154 -23q-129 0 -190 61t-61 187v198h84v-198q0 -90 42 -132t128 -42q100 0 156 23v349h84v-624h98v-224h-77z" />
    <glyph glyph-name="uni04B7" unicode="&#x4b7;" horiz-adv-x="565" 
d="M466 -140v140h-93v237h-5q-55 -62 -151 -62q-80 0 -123.5 40.5t-43.5 118.5v182h80v-175q0 -94 111 -94q59 0 95.5 16.5t36.5 46.5v206h80v-446h86v-210h-73z" />
    <glyph glyph-name="uni04B8" unicode="&#x4b8;" horiz-adv-x="645" 
d="M468 0v275h-5q-47 -18 -125 -23v-140h-64v141q-111 8 -163.5 69t-52.5 178v198h84v-198q0 -156 132 -172v165h64v-167q80 3 130 23v349h84v-698h-84z" />
    <glyph glyph-name="uni04B9" unicode="&#x4b9;" horiz-adv-x="538" 
d="M373 0v235h-5q-35 -42 -86 -54v-92h-60v86q-172 0 -172 159v182h80v-175q0 -86 92 -93v144h60v-144q41 3 66 20t25 42v206h80v-516h-80z" />
    <glyph glyph-name="uni04BA" unicode="&#x4ba;" horiz-adv-x="645" 
d="M93 0v698h84v-275h5q59 23 154 23q129 0 190 -61t61 -187v-198h-84v198q0 90 -42 132t-128 42q-100 0 -156 -23v-349h-84z" />
    <glyph glyph-name="uni04BB" unicode="&#x4bb;" horiz-adv-x="568" 
d="M85 0v740h80v-308h4q41 96 146 96q80 0 126.5 -52t46.5 -145v-331h-80v317q0 139 -117 139q-52 0 -89 -25.5t-37 -72.5v-358h-80z" />
    <glyph glyph-name="uni04C0" unicode="&#x4c0;" horiz-adv-x="400" 
d="M60 0v70h98v558h-98v70h280v-70h-98v-558h98v-70h-280z" />
    <glyph glyph-name="uni04C1" unicode="&#x4c1;" horiz-adv-x="978" 
d="M488 766q-96 0 -137 78l-20 38l70 31l35 -82q24 -6 52 -6t52 6l35 82l70 -31l-20 -38q-41 -78 -137 -78zM42 0v74h63l108 209q17 32 33 47t40 21v5q-42 13 -67 65l-94 203h-63v74h52q66 0 100 -72l110 -237h123v309h84v-309h123l112 237q34 72 98 72h52v-74h-63l-96 -203
q-25 -53 -65 -65v-5q47 -12 75 -68l106 -209h63v-74h-64q-57 0 -94 73l-124 244h-123v-317h-84v317h-123l-126 -244q-21 -40 -42 -56.5t-50 -16.5h-64z" />
    <glyph glyph-name="uni04C2" unicode="&#x4c2;" horiz-adv-x="770" 
d="M385 596q-96 0 -137 78l-20 38l70 31l35 -82q24 -6 52 -6t52 6l35 82l70 -31l-20 -38q-41 -78 -137 -78zM40 0v70h60l58 139q20 48 63 55v4q-40 12 -61 59l-53 119h-60v70h47q61 0 90 -63l69 -153h92v216h80v-216h92l69 153q29 63 90 63h47v-70h-60l-53 -119
q-21 -47 -61 -59v-4q43 -7 63 -55l58 -139h60v-70h-57q-58 0 -88 70l-68 162h-92v-232h-80v232h-92l-68 -162q-30 -70 -88 -70h-57z" />
    <glyph glyph-name="uni04CF" unicode="&#x4cf;" horiz-adv-x="250" 
d="M85 0v740h80v-740h-80z" />
    <glyph glyph-name="uni04D0" unicode="&#x4d0;" horiz-adv-x="641" 
d="M320 766q-96 0 -137 78l-20 38l70 31l35 -82q24 -6 52 -6t52 6l35 82l70 -31l-20 -38q-41 -78 -137 -78zM23 0l244 698h107l244 -698h-88l-70 206h-282l-70 -206h-85zM198 280h241l-118 340h-5z" />
    <glyph glyph-name="uni04D1" unicode="&#x4d1;" horiz-adv-x="534" 
d="M252 596q-96 0 -137 78l-20 38l70 31l35 -82q24 -6 52 -6t52 6l35 82l70 -31l-20 -38q-41 -78 -137 -78zM217 -12q-81 0 -127 42t-46 114q0 151 220 151h102v51q0 113 -122 113q-85 0 -131 -77l-48 45q23 44 70 72.5t113 28.5q93 0 145.5 -46t52.5 -128v-284h59v-70h-45
q-76 0 -88 78l-1 6h-5q-34 -96 -149 -96zM230 56q59 0 97.5 27t38.5 67v85h-106q-132 0 -132 -78v-21q0 -38 27.5 -59t74.5 -21z" />
    <glyph glyph-name="uni04D2" unicode="&#x4d2;" horiz-adv-x="641" 
d="M228 788q-50 0 -50 47v12q0 47 50 47t50 -47v-12q0 -47 -50 -47zM414 788q-50 0 -50 47v12q0 47 50 47t50 -47v-12q0 -47 -50 -47zM23 0l244 698h107l244 -698h-88l-70 206h-282l-70 -206h-85zM198 280h241l-118 340h-5z" />
    <glyph glyph-name="uni04D3" unicode="&#x4d3;" horiz-adv-x="534" 
d="M159 618q-49 0 -49 46v11q0 46 49 46t49 -46v-11q0 -46 -49 -46zM345 618q-49 0 -49 46v11q0 46 49 46t49 -46v-11q0 -46 -49 -46zM217 -12q-81 0 -127 42t-46 114q0 151 220 151h102v51q0 113 -122 113q-85 0 -131 -77l-48 45q23 44 70 72.5t113 28.5q93 0 145.5 -46
t52.5 -128v-284h59v-70h-45q-76 0 -88 78l-1 6h-5q-34 -96 -149 -96zM230 56q59 0 97.5 27t38.5 67v85h-106q-132 0 -132 -78v-21q0 -38 27.5 -59t74.5 -21z" />
    <glyph glyph-name="uni04D4" unicode="&#x4d4;" horiz-adv-x="907" 
d="M4 0l357 698h482v-74h-343v-234h323v-74h-323v-242h343v-74h-426v205h-225l-102 -205h-86zM227 279h190v345h-13z" />
    <glyph glyph-name="uni04D5" unicode="&#x4d5;" horiz-adv-x="864" 
d="M215 -12q-78 0 -124.5 42t-46.5 112q0 75 56 115.5t164 40.5h102v48q0 55 -30.5 84t-88.5 29q-88 0 -134 -76l-48 44q22 44 69.5 72.5t114.5 28.5q42 0 73.5 -12t49 -31.5t26 -36t13.5 -35.5h6q11 40 62.5 77.5t123.5 37.5q97 0 155.5 -70.5t58.5 -181.5v-38h-371v-24
q0 -68 41.5 -112t111.5 -44q99 0 142 88l57 -40q-25 -54 -77 -86t-118 -32q-75 0 -128 38t-63 78h-6q-8 -40 -60.5 -78t-130.5 -38zM446 298h285v11q0 68 -37.5 110t-99.5 42q-65 0 -106.5 -44t-41.5 -112v-7zM231 56q58 0 96.5 27t38.5 67v88h-106q-132 -4 -132 -81v-21
q0 -38 27.5 -59t75.5 -21z" />
    <glyph glyph-name="uni04D6" unicode="&#x4d6;" horiz-adv-x="583" 
d="M303 766q-96 0 -137 78l-20 38l70 31l35 -82q24 -6 52 -6t52 6l35 82l70 -31l-20 -38q-41 -78 -137 -78zM93 0v698h426v-74h-342v-234h322v-74h-322v-242h342v-74h-426z" />
    <glyph glyph-name="uni04D7" unicode="&#x4d7;" horiz-adv-x="549" 
d="M279 596q-96 0 -137 78l-20 38l70 31l35 -82q24 -6 52 -6t52 6l35 82l70 -31l-20 -38q-41 -78 -137 -78zM279 -12q-105 0 -168.5 73.5t-63.5 196.5t63.5 196.5t168.5 73.5q102 0 162.5 -70.5t60.5 -181.5v-38h-371v-24q0 -68 41.5 -112t111.5 -44q100 0 142 89l57 -41
q-25 -54 -79 -86t-125 -32zM131 298h285v11q0 68 -37.5 110t-99.5 42q-65 0 -106.5 -44t-41.5 -112v-7z" />
    <glyph glyph-name="uni04D8" unicode="&#x4d8;" horiz-adv-x="708" 
d="M353 -12q-140 0 -217.5 92t-77.5 269v22h503v30q0 109 -55 171.5t-147 62.5q-67 0 -120.5 -37t-79.5 -100l-70 34q31 78 103.5 128t167.5 50q139 0 214.5 -95.5t75.5 -265.5q0 -169 -79.5 -265t-217.5 -96zM353 63q89 0 148.5 65t59.5 169v5h-416v-5q0 -104 59.5 -169
t148.5 -65z" />
    <glyph glyph-name="uni04D9" unicode="&#x4d9;" horiz-adv-x="549" 
d="M270 -12q-102 0 -162.5 70.5t-60.5 181.5v38h371v24q0 68 -41.5 112t-111.5 44q-100 0 -142 -89l-57 41q25 54 79 86t125 32q105 0 168.5 -73.5t63.5 -196.5t-63.5 -196.5t-168.5 -73.5zM270 55q65 0 106.5 44t41.5 112v7h-285v-11q0 -68 37.5 -110t99.5 -42z" />
    <glyph glyph-name="uni04DC" unicode="&#x4dc;" horiz-adv-x="978" 
d="M396 788q-50 0 -50 47v12q0 47 50 47t50 -47v-12q0 -47 -50 -47zM582 788q-50 0 -50 47v12q0 47 50 47t50 -47v-12q0 -47 -50 -47zM42 0v74h63l108 209q17 32 33 47t40 21v5q-42 13 -67 65l-94 203h-63v74h52q66 0 100 -72l110 -237h123v309h84v-309h123l112 237
q34 72 98 72h52v-74h-63l-96 -203q-25 -53 -65 -65v-5q47 -12 75 -68l106 -209h63v-74h-64q-57 0 -94 73l-124 244h-123v-317h-84v317h-123l-126 -244q-21 -40 -42 -56.5t-50 -16.5h-64z" />
    <glyph glyph-name="uni04DD" unicode="&#x4dd;" horiz-adv-x="770" 
d="M292 618q-49 0 -49 46v11q0 46 49 46t49 -46v-11q0 -46 -49 -46zM478 618q-49 0 -49 46v11q0 46 49 46t49 -46v-11q0 -46 -49 -46zM40 0v70h60l58 139q20 48 63 55v4q-40 12 -61 59l-53 119h-60v70h47q61 0 90 -63l69 -153h92v216h80v-216h92l69 153q29 63 90 63h47v-70
h-60l-53 -119q-21 -47 -61 -59v-4q43 -7 63 -55l58 -139h60v-70h-57q-58 0 -88 70l-68 162h-92v-232h-80v232h-92l-68 -162q-30 -70 -88 -70h-57z" />
    <glyph glyph-name="uni04DE" unicode="&#x4de;" horiz-adv-x="593" 
d="M195 788q-50 0 -50 47v12q0 47 50 47t50 -47v-12q0 -47 -50 -47zM381 788q-50 0 -50 47v12q0 47 50 47t50 -47v-12q0 -47 -50 -47zM281 -12q-159 0 -244 124l61 49q66 -98 183 -98q159 0 159 125v13q0 56 -37 87.5t-113 31.5h-105v74h99q73 0 106.5 29.5t33.5 90.5v14
q0 107 -136 107q-112 0 -165 -80l-65 42q39 57 93.5 85t136.5 28q111 0 168.5 -49t57.5 -134q0 -137 -133 -165v-5q66 -8 107.5 -49t41.5 -115q0 -93 -66.5 -149t-182.5 -56z" />
    <glyph glyph-name="uni04DF" unicode="&#x4df;" horiz-adv-x="501" 
d="M137 618q-49 0 -49 46v11q0 46 49 46t49 -46v-11q0 -46 -49 -46zM323 618q-49 0 -49 46v11q0 46 49 46t49 -46v-11q0 -46 -49 -46zM231 -12q-140 0 -203 104l60 48q42 -81 143 -81q60 0 92 22.5t32 59.5v12q0 39 -26.5 59.5t-74.5 20.5h-110v67h100q48 0 74 19t26 54v12
q0 72 -115 72q-94 0 -137 -76l-53 45q54 102 194 102q98 0 147.5 -36.5t49.5 -102.5q0 -92 -99 -115v-4q54 -7 82 -38.5t28 -81.5q0 -74 -57 -118t-153 -44z" />
    <glyph glyph-name="uni04E2" unicode="&#x4e2;" horiz-adv-x="707" 
d="M212 807v68h280v-68h-280zM93 0v698h82v-438l-8 -143h3l70 126l298 455h76v-698h-82v438l8 143h-3l-70 -126l-298 -455h-76z" />
    <glyph glyph-name="uni04E3" unicode="&#x4e3;" horiz-adv-x="588" 
d="M155 637v68h280v-68h-280zM85 0v516h78v-286l-8 -124h4l64 110l206 300h74v-516h-78v286l8 124h-4l-64 -110l-206 -300h-74z" />
    <glyph glyph-name="uni04E4" unicode="&#x4e4;" horiz-adv-x="707" 
d="M259 788q-50 0 -50 47v12q0 47 50 47t50 -47v-12q0 -47 -50 -47zM445 788q-50 0 -50 47v12q0 47 50 47t50 -47v-12q0 -47 -50 -47zM93 0v698h82v-438l-8 -143h3l70 126l298 455h76v-698h-82v438l8 143h-3l-70 -126l-298 -455h-76z" />
    <glyph glyph-name="uni04E5" unicode="&#x4e5;" horiz-adv-x="588" 
d="M202 618q-49 0 -49 46v11q0 46 49 46t49 -46v-11q0 -46 -49 -46zM388 618q-49 0 -49 46v11q0 46 49 46t49 -46v-11q0 -46 -49 -46zM85 0v516h78v-286l-8 -124h4l64 110l206 300h74v-516h-78v286l8 124h-4l-64 -110l-206 -300h-74z" />
    <glyph glyph-name="uni04E6" unicode="&#x4e6;" horiz-adv-x="708" 
d="M261 788q-50 0 -50 47v12q0 47 50 47t50 -47v-12q0 -47 -50 -47zM447 788q-50 0 -50 47v12q0 47 50 47t50 -47v-12q0 -47 -50 -47zM354 -12q-137 0 -216.5 94t-79.5 267t79.5 267t216.5 94t216.5 -94t79.5 -267t-79.5 -267t-216.5 -94zM354 63q91 0 148.5 62.5
t57.5 165.5v116q0 103 -57.5 165.5t-148.5 62.5t-148.5 -62.5t-57.5 -165.5v-116q0 -103 57.5 -165.5t148.5 -62.5z" />
    <glyph glyph-name="uni04E7" unicode="&#x4e7;" horiz-adv-x="560" 
d="M187 616q-49 0 -49 46v11q0 46 49 46t49 -46v-11q0 -46 -49 -46zM373 616q-49 0 -49 46v11q0 46 49 46t49 -46v-11q0 -46 -49 -46zM280 -12q-104 0 -168.5 74t-64.5 196t64.5 196t168.5 74t168.5 -74t64.5 -196t-64.5 -196t-168.5 -74zM280 59q67 0 107 41.5t40 120.5v74
q0 79 -40 120.5t-107 41.5t-107 -41.5t-40 -120.5v-74q0 -79 40 -120.5t107 -41.5z" />
    <glyph glyph-name="uni04E8" unicode="&#x4e8;" horiz-adv-x="708" 
d="M354 -12q-137 0 -216.5 94t-79.5 267t79.5 267t216.5 94t216.5 -94t79.5 -267t-79.5 -267t-216.5 -94zM148 390h412v17q0 103 -57.5 165.5t-148.5 62.5t-148.5 -62.5t-57.5 -165.5v-17zM354 63q91 0 148.5 62.5t57.5 165.5v25h-412v-25q0 -103 57.5 -165.5t148.5 -62.5z
" />
    <glyph glyph-name="uni04E9" unicode="&#x4e9;" horiz-adv-x="560" 
d="M280 -12q-104 0 -168.5 74t-64.5 196t64.5 196t168.5 74t168.5 -74t64.5 -196t-64.5 -196t-168.5 -74zM133 293h294v2q0 79 -40 120.5t-107 41.5t-107 -41.5t-40 -120.5v-2zM280 59q67 0 107 41.5t40 120.5v10h-294v-10q0 -79 40 -120.5t107 -41.5z" />
    <glyph glyph-name="uni04EE" unicode="&#x4ee;" horiz-adv-x="595" 
d="M167 807v68h280v-68h-280zM144 0v74h101l33 83l-258 541h91l151 -318l52 -121h5l44 123l126 316h86l-244 -609q-22 -54 -48.5 -71.5t-83.5 -17.5h-55z" />
    <glyph glyph-name="uni04EF" unicode="&#x4ef;" horiz-adv-x="499" 
d="M110 637v68h280v-68h-280zM90 -200v70h81l39 110l-193 536h80l124 -351l24 -84h5l28 84l125 351h79l-231 -636q-18 -48 -41 -64t-79 -16h-41z" />
    <glyph glyph-name="uni04F0" unicode="&#x4f0;" horiz-adv-x="595" 
d="M214 788q-50 0 -50 47v12q0 47 50 47t50 -47v-12q0 -47 -50 -47zM400 788q-50 0 -50 47v12q0 47 50 47t50 -47v-12q0 -47 -50 -47zM144 0v74h101l33 83l-258 541h91l151 -318l52 -121h5l44 123l126 316h86l-244 -609q-22 -54 -48.5 -71.5t-83.5 -17.5h-55z" />
    <glyph glyph-name="uni04F1" unicode="&#x4f1;" horiz-adv-x="499" 
d="M157 618q-49 0 -49 46v11q0 46 49 46t49 -46v-11q0 -46 -49 -46zM343 618q-49 0 -49 46v11q0 46 49 46t49 -46v-11q0 -46 -49 -46zM90 -200v70h81l39 110l-193 536h80l124 -351l24 -84h5l28 84l125 351h79l-231 -636q-18 -48 -41 -64t-79 -16h-41z" />
    <glyph glyph-name="uni04F2" unicode="&#x4f2;" horiz-adv-x="595" 
d="M234 756l-48 22l85 170l69 -33zM394 756l-48 22l85 170l69 -33zM144 0v74h101l33 83l-258 541h91l151 -318l52 -121h5l44 123l126 316h86l-244 -609q-22 -54 -48.5 -71.5t-83.5 -17.5h-55z" />
    <glyph glyph-name="uni04F3" unicode="&#x4f3;" horiz-adv-x="499" 
d="M177 586l-48 22l85 170l69 -33zM337 586l-48 22l85 170l69 -33zM90 -200v70h81l39 110l-193 536h80l124 -351l24 -84h5l28 84l125 351h79l-231 -636q-18 -48 -41 -64t-79 -16h-41z" />
    <glyph glyph-name="uni04F4" unicode="&#x4f4;" horiz-adv-x="645" 
d="M212 788q-50 0 -50 47v12q0 47 50 47t50 -47v-12q0 -47 -50 -47zM398 788q-50 0 -50 47v12q0 47 50 47t50 -47v-12q0 -47 -50 -47zM468 0v275h-5q-59 -23 -154 -23q-129 0 -190 61t-61 187v198h84v-198q0 -90 42 -132t128 -42q100 0 156 23v349h84v-698h-84z" />
    <glyph glyph-name="uni04F5" unicode="&#x4f5;" horiz-adv-x="538" 
d="M158 618q-49 0 -49 46v11q0 46 49 46t49 -46v-11q0 -46 -49 -46zM344 618q-49 0 -49 46v11q0 46 49 46t49 -46v-11q0 -46 -49 -46zM373 0v237h-5q-55 -62 -151 -62q-80 0 -123.5 40.5t-43.5 118.5v182h80v-175q0 -94 111 -94q59 0 95.5 16.5t36.5 46.5v206h80v-516h-80z
" />
    <glyph glyph-name="uni04F8" unicode="&#x4f8;" horiz-adv-x="875" 
d="M344 788q-50 0 -50 47v12q0 47 50 47t50 -47v-12q0 -47 -50 -47zM530 788q-50 0 -50 47v12q0 47 50 47t50 -47v-12q0 -47 -50 -47zM93 0v698h84v-280h208q93 0 144 -55t51 -154t-51 -154t-144 -55h-292zM698 0v698h84v-698h-84zM177 74h208q50 0 77.5 27.5t27.5 81.5v52
q0 54 -27.5 81.5t-77.5 27.5h-208v-270z" />
    <glyph glyph-name="uni04F9" unicode="&#x4f9;" horiz-adv-x="724" 
d="M269 618q-49 0 -49 46v11q0 46 49 46t49 -46v-11q0 -46 -49 -46zM455 618q-49 0 -49 46v11q0 46 49 46t49 -46v-11q0 -46 -49 -46zM85 0v516h80v-187h137q78 0 124 -44.5t46 -120.5q0 -77 -45 -120.5t-124 -43.5h-218zM559 0v516h80v-516h-80zM165 70h126q95 0 95 74v42
q0 73 -95 73h-126v-189z" />
    <glyph glyph-name="uni0E01" unicode="&#xe01;" horiz-adv-x="609" 
d="M296 582q113 0 172 -57.5t59 -158.5v-366h-82v361q0 71 -39 110t-110 39q-134 0 -147 -122h131v-60q-56 -2 -82.5 -33t-26.5 -96v-199h-82v177q0 65 30 102t74 47v4h-125v49q0 95 63 149t165 54z" />
    <glyph glyph-name="uni0E02" unicode="&#xe02;" horiz-adv-x="561" 
d="M276 -12q-96 0 -150 53t-54 146q0 49 9.5 84t23.5 54.5t28 36t23.5 38.5t9.5 51v49h-100v70h63q64 0 90.5 -25t26.5 -73v-12q0 -42 -14 -75t-31 -52.5t-31 -56.5t-14 -86q0 -130 120 -130q56 0 87.5 35t31.5 101v374h82v-386q0 -93 -53 -144.5t-148 -51.5z" />
    <glyph glyph-name="uni0E03" unicode="&#xe03;" horiz-adv-x="568" 
d="M283 -12q-95 0 -148.5 53t-53.5 146q0 49 12 84t29 54.5t34 36t29 38.5t12 51v64h-4q-20 -83 -83 -83q-67 0 -67 76v62h70v-78q31 0 57.5 20.5t26.5 43.5v14h77v-113q0 -40 -11.5 -70t-28 -48.5t-32.5 -37t-27.5 -46.5t-11.5 -65q0 -130 120 -130q56 0 87.5 35t31.5 101
v374h82v-386q0 -93 -53 -144.5t-148 -51.5z" />
    <glyph glyph-name="uni0E04" unicode="&#xe04;" horiz-adv-x="618" 
d="M82 0v366q0 101 58.5 158.5t168.5 57.5t168.5 -57.5t58.5 -158.5v-366h-82v361q0 71 -38.5 110t-106.5 39t-106.5 -39t-38.5 -110v-133h4q35 98 133 98h47v-82h-73q-47 0 -79 -24t-32 -81v-139h-82z" />
    <glyph glyph-name="uni0E05" unicode="&#xe05;" horiz-adv-x="632" 
d="M86 0v421q0 77 40.5 119t114.5 42l74 -76h3l74 76q73 0 113.5 -42t40.5 -119v-421h-82v372q0 75 -12 103.5t-48 35.5l-87 -86h-2l-87 86q-36 -7 -48 -35.5t-12 -103.5v-144h4q35 98 133 98h47v-82h-73q-47 0 -79 -24t-32 -81v-139h-82z" />
    <glyph glyph-name="uni0E06" unicode="&#xe06;" horiz-adv-x="615" 
d="M350 -12q-65 0 -107.5 30t-61.5 76h-4v-94h-80v187q0 49 10.5 84t25.5 54.5t29.5 36t25 38.5t10.5 51v64h-4q-20 -83 -83 -83q-67 0 -67 76v62h70v-78q31 0 57.5 20.5t26.5 43.5v14h77v-113q0 -40 -10 -70t-24 -48.5l-28 -37t-24 -46.5t-10 -65v-19q0 -52 45.5 -81
t103.5 -29q121 0 121 155v354h82v-366q0 -103 -47 -159.5t-134 -56.5z" />
    <glyph glyph-name="uni0E07" unicode="&#xe07;" horiz-adv-x="537" 
d="M210 0l-185 570h83l161 -498h9q57 0 82 32t25 111v285h-106v70h74q114 0 114 -140v-180q0 -139 -46.5 -194.5t-147.5 -55.5h-63z" />
    <glyph glyph-name="uni0E08" unicode="&#xe08;" horiz-adv-x="547" 
d="M246 582q127 0 187 -73t60 -216q0 -146 -54 -219.5t-155 -73.5h-72l-71 262h-68v70h64q38 0 56.5 -18.5t32.5 -69.5l45 -172h13q56 0 89.5 43.5t33.5 127.5v96q0 82 -42 126.5t-120 44.5q-105 0 -154 -80l-53 51q66 101 208 101z" />
    <glyph glyph-name="uni0E09" unicode="&#xe09;" horiz-adv-x="591" 
d="M255 -12q-144 0 -144 166v96h-59v70h74q36 0 49 -17.5t13 -58.5v-89q0 -94 86 -94q60 0 106.5 36t46.5 107v162q0 144 -155 144q-111 0 -161 -80l-53 51q63 101 223 101q107 0 167.5 -53.5t60.5 -150.5v-308h59v-70h-49q-82 0 -89 98h-5q-51 -110 -170 -110z" />
    <glyph glyph-name="uni0E0A" unicode="&#xe0a;" horiz-adv-x="549" 
d="M276 -12q-95 0 -149.5 53.5t-54.5 145.5q0 49 9.5 84t23.5 54.5t28 36t23.5 38.5t9.5 51v49h-100v70h63q64 0 90.5 -25t26.5 -73v-12q0 -42 -14 -75t-31 -52.5t-31 -56.5t-14 -86q0 -130 120 -130q56 0 87.5 35t31.5 101v58q0 57 -22.5 83t-71.5 26h-17v63h8
q50 0 77.5 26.5t27.5 74.5v43h84v-17q0 -90 -104 -132v-4q49 -15 75.5 -56t26.5 -103v-74q0 -93 -54 -144.5t-149 -51.5z" />
    <glyph glyph-name="uni0E0B" unicode="&#xe0b;" horiz-adv-x="556" 
d="M283 -12q-95 0 -148.5 53t-53.5 146q0 49 11 84t26.5 54.5t31 36t26.5 38.5t11 51v64h-4q-20 -83 -83 -83q-67 0 -67 76v62h70v-78q31 0 57.5 20.5t26.5 43.5v14h76v-113q0 -40 -10.5 -70t-25 -48.5l-29 -37t-25 -46.5t-10.5 -65q0 -130 120 -130q56 0 87.5 35t31.5 101
v58q0 109 -84 109h-12v63h1q42 0 67.5 27t25.5 74v43h88v-17q0 -90 -104 -132v-4q100 -31 100 -159v-74q0 -93 -53 -144.5t-148 -51.5z" />
    <glyph glyph-name="uni0E0C" unicode="&#xe0c;" horiz-adv-x="932" 
d="M766 570h82v-367q0 -110 -48 -162.5t-129 -52.5q-110 0 -153 106h-4v-94h-80v361q0 71 -38.5 110t-106.5 39q-134 0 -147 -122h133v-60q-61 -2 -89 -33t-28 -96v-129h100v-70h-63q-117 0 -117 135v36q0 69 29.5 107t74.5 48v4h-118v49q0 97 59.5 150t165.5 53
q109 0 168 -58t59 -158v-195q0 -53 40 -81.5t93 -28.5q57 0 87 34.5t30 119.5v355z" />
    <glyph glyph-name="uni0E0D" unicode="&#xe0d;" horiz-adv-x="930" 
d="M764 570h82v-554q0 -97 -56 -150.5t-154 -53.5q-142 0 -205 101l53 51q49 -79 145 -79q137 0 137 143v76h-4q-43 -106 -153 -106q-81 0 -129 52.5t-48 162.5v148q0 71 -38 110t-105 39q-134 0 -147 -122h133v-60q-61 -2 -89 -33t-28 -96v-129h100v-70h-63
q-117 0 -117 135v36q0 69 29.5 107t74.5 48v4h-118v49q0 97 59.5 150t165.5 53q107 0 166 -58t59 -158v-141q0 -85 30 -119.5t87 -34.5q53 0 93 28.5t40 81.5v389z" />
    <glyph glyph-name="uni0E0E" unicode="&#xe0e;" horiz-adv-x="622" 
d="M302 582q119 0 178.5 -57t59.5 -159v-566h-85q-60 75 -149 75t-138 -84l-55 49q26 47 75.5 76.5t103.5 29.5q105 0 161 -86h5v501q0 71 -41 110t-115 39t-110 -29t-41 -93h141v-60q-100 -4 -100 -129v-76q0 -73 -22 -98t-85 -25h-43v70h70v107q0 65 30 102t74 47v4h-145
v49q0 97 61 150t170 53z" />
    <glyph glyph-name="uni0E0F" unicode="&#xe0f;" horiz-adv-x="622" 
d="M302 582q119 0 178.5 -57t59.5 -159v-404q0 -84 -43.5 -123t-116.5 -39l-80 63h-2q-27 -68 -103 -68q-82 0 -120 83l58 46q33 -57 82 -57q52 0 88 71h2l93 -68q32 6 46 26t14 64v401q0 71 -41 110t-115 39t-110 -29t-41 -93h141v-60q-100 -4 -100 -129v-76q0 -73 -22 -98
t-85 -25h-43v70h70v107q0 65 30 102t74 47v4h-145v49q0 97 61 150t170 53z" />
    <glyph glyph-name="uni0E10" unicode="&#xe10;" horiz-adv-x="563" 
d="M527 535h-103v-22q69 -66 69 -220q0 -146 -54 -219.5t-155 -73.5h-72l-71 262h-68v70h64q38 0 56.5 -18.5t32.5 -69.5l45 -172h13q56 0 89.5 43.5t33.5 127.5v96q0 82 -42 126.5t-120 44.5q-105 0 -154 -80l-53 51q66 101 205 101q85 0 134 -32v7q0 22 16 35t42 13h92
v-70zM409 -79v29h76v-43q0 -52 -28 -78.5t-73 -26.5q-48 0 -78.5 30t-35.5 83h-2l-3 -17q-16 -86 -118 -86h-73v68h112l22 70h80q7 -85 71 -85q50 0 50 56z" />
    <glyph glyph-name="uni0E11" unicode="&#xe11;" horiz-adv-x="625" 
d="M101 0v207q0 46 8 73.5t35 70.5q30 46 40 70.5t10 54.5v39h-4q-20 -83 -83 -83q-67 0 -67 76v62h70v-78q31 0 57.5 20.5t26.5 43.5v14h77v-105h4q50 117 143 117q55 0 87.5 -39t32.5 -119v-424h-82v438q0 71 -61 71q-33 0 -63 -25.5t-73 -89.5q-47 -71 -61.5 -105.5
t-14.5 -75.5v-213h-82z" />
    <glyph glyph-name="uni0E12" unicode="&#xe12;" horiz-adv-x="917" 
d="M656 -12q-110 0 -153 106h-4v-94h-80v374q0 74 -10.5 99.5t-39.5 29.5l-76 -80h-2l-76 80q-37 0 -57 -40t-20 -113v-115q0 -85 28.5 -124t98.5 -39h36v-72h-41q-111 0 -157.5 71t-46.5 229q0 140 44 211t127 71l64 -74h3l63 74q62 0 103 -36t41 -115v-260q0 -53 40 -81.5
t93 -28.5q57 0 87 34.5t30 119.5v355h82v-367q0 -110 -48 -162.5t-129 -52.5z" />
    <glyph glyph-name="uni0E13" unicode="&#xe13;" horiz-adv-x="935" 
d="M764 570h82v-570h-80v94h-4q-43 -106 -153 -106q-81 0 -129 52.5t-48 162.5v158q0 71 -38.5 110t-105.5 39q-133 0 -146 -122h133v-60q-61 -2 -89 -33t-28 -96v-129h100v-70h-63q-117 0 -117 135v36q0 69 29.5 107t74.5 48v4h-118v49q0 97 59.5 150t164.5 53
q108 0 167 -58t59 -158v-151q0 -85 30 -119.5t87 -34.5q53 0 93 28.5t40 81.5v399z" />
    <glyph glyph-name="uni0E14" unicode="&#xe14;" horiz-adv-x="594" 
d="M270 0q-112 0 -163 64.5t-51 217.5q0 300 236 300q106 0 162 -56.5t56 -159.5v-366h-82v355q0 75 -35.5 115t-102.5 40q-70 0 -109 -46.5t-39 -131.5v-107q0 -152 133 -152h45v-73h-50z" />
    <glyph glyph-name="uni0E15" unicode="&#xe15;" horiz-adv-x="607" 
d="M270 0q-113 0 -163.5 69.5t-50.5 224.5q0 142 46.5 215t134.5 73l64 -74h3l63 74q69 0 111.5 -35.5t42.5 -115.5v-431h-82v374q0 75 -12 100t-48 29l-76 -80h-2l-76 80q-39 0 -61 -44.5t-22 -118.5v-115q0 -81 31.5 -116.5t101.5 -35.5h56v-73h-61z" />
    <glyph glyph-name="uni0E16" unicode="&#xe16;" horiz-adv-x="607" 
d="M293 582q113 0 172.5 -57.5t59.5 -158.5v-366h-82v361q0 72 -39 110.5t-111 38.5q-136 0 -149 -122h133v-60q-61 -2 -89 -33t-28 -96v-129h100v-70h-63q-117 0 -117 135v36q0 69 29.5 107t74.5 48v4h-118v49q0 97 60 150t167 53z" />
    <glyph glyph-name="uni0E17" unicode="&#xe17;" horiz-adv-x="610" 
d="M89 0v570h80v-94h4q45 106 163 106q87 0 138.5 -57t51.5 -159v-366h-82v353q0 76 -33.5 115.5t-96.5 39.5q-59 0 -101 -28.5t-42 -81.5v-398h-82z" />
    <glyph glyph-name="uni0E18" unicode="&#xe18;" horiz-adv-x="545" 
d="M281 -12q-108 0 -193 65v201h80v-162q58 -32 118 -32q61 0 93.5 28.5t32.5 95.5q0 54 -24.5 75.5t-82.5 29.5l-121 16q-118 17 -118 101v9q0 77 56 122t154 45q75 0 124.5 -23t86.5 -69l-60 -52q-49 72 -154 72q-126 0 -126 -98v-28l149 -19q107 -15 151 -52.5t44 -122.5
q0 -103 -55 -152.5t-155 -49.5z" />
    <glyph glyph-name="uni0E19" unicode="&#xe19;" horiz-adv-x="607" 
d="M275 -12q-88 0 -139.5 57t-51.5 159v366h82v-354q0 -76 33.5 -115.5t97.5 -39.5q57 0 98 28.5t41 81.5v399h82v-570h-80v94h-4q-43 -106 -159 -106z" />
    <glyph glyph-name="uni0E1A" unicode="&#xe1a;" horiz-adv-x="601" 
d="M301 -12q-106 0 -161.5 56t-55.5 160v366h82v-354q0 -156 135 -156q134 0 134 156v354h82v-366q0 -103 -55.5 -159.5t-160.5 -56.5z" />
    <glyph glyph-name="uni0E1B" unicode="&#xe1b;" horiz-adv-x="601" 
d="M301 -12q-106 0 -161.5 56t-55.5 160v366h82v-354q0 -156 135 -156q134 0 134 156v564h82v-576q0 -103 -55.5 -159.5t-160.5 -56.5z" />
    <glyph glyph-name="uni0E1C" unicode="&#xe1c;" horiz-adv-x="621" 
d="M84 0v425q0 75 25.5 110t87.5 35h64v-70h-97v-398l143 210h2l143 -210v468h80v-570h-84l-139 201h-2l-139 -201h-84z" />
    <glyph glyph-name="uni0E1D" unicode="&#xe1d;" horiz-adv-x="621" 
d="M84 0v425q0 75 25.5 110t87.5 35h64v-70h-95v-395l141 202h2l141 -202v675h82v-780h-87l-136 199h-2l-136 -199h-87z" />
    <glyph glyph-name="uni0E1E" unicode="&#xe1e;" horiz-adv-x="718" 
d="M137 0l-77 570h82l55 -486h2l120 486h80l120 -486h2l55 486h82l-77 -570h-110l-111 459h-2l-111 -459h-110z" />
    <glyph glyph-name="uni0E1F" unicode="&#xe1f;" horiz-adv-x="680" 
d="M130 0l-80 570h82l58 -486h2l113 486h80l111 -486h2l72 696h82l-94 -780h-110l-102 459h-2l-104 -459h-110z" />
    <glyph glyph-name="uni0E20" unicode="&#xe20;" horiz-adv-x="622" 
d="M302 582q119 0 178.5 -57t59.5 -159v-366h-82v361q0 71 -41 110t-115 39t-110 -29t-41 -93h141v-60q-100 -4 -100 -129v-76q0 -73 -22 -98t-85 -25h-43v70h70v107q0 65 30 102t74 47v4h-145v49q0 97 61 150t170 53z" />
    <glyph glyph-name="uni0E21" unicode="&#xe21;" horiz-adv-x="607" 
d="M332 -12q-116 0 -159 106h-4v-94h-80v570h82v-399q0 -53 41 -81.5t98 -28.5q64 0 97.5 39.5t33.5 115.5v354h82v-366q0 -102 -51.5 -159t-139.5 -57z" />
    <glyph glyph-name="uni0E22" unicode="&#xe22;" horiz-adv-x="586" 
d="M286 -12q-105 0 -160.5 53t-55.5 148v32q0 63 26.5 97.5t75.5 34.5h9v3q-44 10 -74 38.5t-30 74.5v5q0 96 107 96h91v-70h-118v-20q0 -127 105 -127h26v-72h-136v-91q0 -62 34.5 -96t99.5 -34q134 0 134 156v354h82v-366q0 -103 -55.5 -159.5t-160.5 -56.5z" />
    <glyph glyph-name="uni0E23" unicode="&#xe23;" horiz-adv-x="506" 
d="M259 -12q-132 0 -217 112l59 50q67 -90 163 -90q51 0 82 25.5t31 69.5q0 36 -22.5 62.5t-71.5 33.5l-44 6q-173 25 -173 158q0 80 54.5 123.5t137.5 43.5q118 0 193 -92l-60 -52q-20 30 -56.5 51t-82.5 21q-50 0 -78.5 -24.5t-28.5 -66.5q0 -77 105 -92l44 -6
q162 -23 162 -156q0 -83 -53.5 -130t-143.5 -47z" />
    <glyph glyph-name="uni0E24" unicode="&#xe24;" horiz-adv-x="607" 
d="M293 582q113 0 172.5 -57.5t59.5 -158.5v-566h-82v561q0 72 -39 110.5t-111 38.5q-136 0 -149 -122h133v-60q-61 -2 -89 -33t-28 -96v-129h100v-70h-63q-117 0 -117 135v36q0 69 29.5 107t74.5 48v4h-118v49q0 97 60 150t167 53z" />
    <glyph glyph-name="uni0E25" unicode="&#xe25;" horiz-adv-x="572" 
d="M272 582q106 0 162 -53t56 -151v-378h-82v263h-139q-135 0 -135 -80v-26q0 -84 112 -84h49v-73h-59q-88 0 -138 42t-50 123q0 171 238 171h122v30q0 75 -34.5 109.5t-107.5 34.5q-99 0 -154 -90l-53 51q69 111 213 111z" />
    <glyph glyph-name="uni0E26" unicode="&#xe26;" horiz-adv-x="622" 
d="M302 582q119 0 178.5 -57t59.5 -159v-566h-82v561q0 71 -41 110t-115 39t-110 -29t-41 -93h141v-60q-100 -4 -100 -129v-76q0 -73 -22 -98t-85 -25h-43v70h70v107q0 65 30 102t74 47v4h-145v49q0 97 61 150t170 53z" />
    <glyph glyph-name="uni0E27" unicode="&#xe27;" horiz-adv-x="513" 
d="M237 -12q-146 0 -201 121l72 34q34 -83 129 -83q63 0 101.5 45.5t38.5 125.5v108q0 80 -38.5 125.5t-101.5 45.5q-95 0 -129 -83l-72 34q55 121 201 121q226 0 226 -297t-226 -297z" />
    <glyph glyph-name="uni0E28" unicode="&#xe28;" horiz-adv-x="629" 
d="M589 535h-103v-31q50 -48 50 -138v-366h-82v361q0 71 -38.5 110t-106.5 39t-106.5 -39t-38.5 -110v-133h4q35 98 133 98h47v-82h-73q-47 0 -79 -24t-32 -81v-139h-82v366q0 101 58.5 158.5t167.5 57.5q78 0 131 -38v13q0 22 16 35t42 13h92v-70z" />
    <glyph glyph-name="uni0E29" unicode="&#xe29;" horiz-adv-x="621" 
d="M599 356v-72h-71v-80q0 -100 -58 -158t-164 -58t-164 58t-58 158v366h82v-361q0 -71 37.5 -110t102.5 -39t102.5 39t37.5 110v75h-140v73h140v213h82v-214h71z" />
    <glyph glyph-name="uni0E2A" unicode="&#xe2a;" horiz-adv-x="596" 
d="M556 535h-103v-23q47 -50 47 -137v-375h-82v263h-139q-135 0 -135 -80v-26q0 -84 112 -84h49v-73h-59q-88 0 -138 42t-50 123q0 171 238 171h122v30q0 75 -34.5 109.5t-107.5 34.5q-99 0 -154 -90l-53 51q69 111 209 111q80 0 128 -32v7q0 22 16 35t42 13h92v-70z" />
    <glyph glyph-name="uni0E2B" unicode="&#xe2b;" horiz-adv-x="594" 
d="M89 0v570h82v-193h152q57 0 81 30.5t24 70.5v92h82v-66q0 -91 -104 -130v-4q108 -30 108 -161v-209h-84v195q0 57 -22.5 83t-71.5 26h-165v-304h-82z" />
    <glyph glyph-name="uni0E2C" unicode="&#xe2c;" horiz-adv-x="693" 
d="M137 0l-77 570h82l55 -486h2l120 416h80l120 -416h2l46 403q9 83 -62 83h-77v64h65q53 0 83.5 31t47.5 115h81q-16 -84 -43 -115.5t-76 -37.5v-4q69 -31 54 -149l-59 -474h-110l-111 394h-2l-111 -394h-110z" />
    <glyph glyph-name="uni0E2D" unicode="&#xe2d;" horiz-adv-x="566" 
d="M278 -12q-109 0 -168.5 61t-59.5 171v8q0 101 104 101h80v-70h-104v-30q0 -90 35 -129.5t113 -39.5q152 0 152 169v110q0 82 -41 126.5t-116 44.5q-101 0 -154 -78l-55 49q69 101 211 101q241 0 241 -297q0 -151 -58 -224t-180 -73z" />
    <glyph glyph-name="uni0E2E" unicode="&#xe2e;" horiz-adv-x="569" 
d="M533 535h-88v-24q69 -63 69 -226q0 -151 -58 -224t-180 -73q-107 0 -167.5 59t-60.5 165v8q0 57 25.5 83t78.5 26h80v-70h-104v-30q0 -90 35 -129.5t113 -39.5q152 0 152 169v110q0 82 -41 126.5t-116 44.5q-101 0 -154 -78l-55 49q69 101 210 101q79 0 126 -33v8
q0 22 16 35t42 13h77v-70z" />
    <glyph glyph-name="uni0E2F" unicode="&#xe2f;" horiz-adv-x="541" 
d="M370 0v342h-4q-9 -45 -54.5 -87.5t-113.5 -42.5q-75 0 -120.5 48t-45.5 125q0 83 52.5 134t137.5 51h61v-72h-56q-51 0 -81 -29t-30 -80q0 -47 29.5 -75.5t81.5 -28.5q58 0 100.5 41.5t42.5 106.5v137h82v-570h-82z" />
    <glyph glyph-name="uni0E30" unicode="&#xe30;" horiz-adv-x="355" 
d="M143 349q-38 0 -61.5 22.5t-23.5 62.5v80l78 1v-92l183 1v-74zM143 59q-38 0 -61.5 22.5t-23.5 62.5v80l78 1v-92l183 1v-74z" />
    <glyph glyph-name="uni0E31" unicode="&#xe31;" 
d="M-176 650q-60 0 -86.5 24t-26.5 77v29h76v-64h237v-66h-200z" />
    <glyph glyph-name="uni0E32" unicode="&#xe32;" horiz-adv-x="469" 
d="M303 0v399q0 58 -25.5 84.5t-78.5 26.5q-79 0 -132 -79l-55 50q26 48 75.5 74.5t113.5 26.5q88 0 136 -45.5t48 -128.5v-408h-82z" />
    <glyph glyph-name="uni0E33" unicode="&#xe33;" horiz-adv-x="469" 
d="M-130 657q-51 0 -76.5 23.5t-25.5 63.5v26q0 40 25.5 63.5t76.5 23.5t76.5 -23.5t25.5 -63.5v-26q0 -40 -25.5 -63.5t-76.5 -23.5zM-130 715q38 0 38 42t-38 42t-38 -42t38 -42zM303 0v399q0 57 -25.5 83.5t-78.5 26.5q-79 0 -132 -78l-55 50q26 48 75.5 74.5t113.5 26.5
q88 0 136 -45.5t48 -128.5v-408h-82z" />
    <glyph glyph-name="uni0E34" unicode="&#xe34;" 
d="M-481 650v66h397v-66h-397z" />
    <glyph glyph-name="uni0E35" unicode="&#xe35;" 
d="M-476 650v66h321v85h76v-70q0 -81 -83 -81h-314z" />
    <glyph glyph-name="uni0E36" unicode="&#xe36;" 
d="M-154 807q81 0 81 -72v-14q0 -71 -81 -71h-326v66h246v5v14q0 72 80 72zM-154 695q30 0 30 33t-30 33q-29 0 -29 -33t29 -33z" />
    <glyph glyph-name="uni0E37" unicode="&#xe37;" 
d="M-152 801h68v-70q0 -81 -83 -81h-314v66h219v85h68v-85h42v85z" />
    <glyph glyph-name="uni0E38" unicode="&#xe38;" 
d="M-152 -267l-1 134h-55v60h49q36 0 55.5 -19.5t19.5 -56.5v-118h-68z" />
    <glyph glyph-name="uni0E39" unicode="&#xe39;" 
d="M-228 -267q-32 0 -49 17.5t-17 48.5v68h-46v60h39q36 0 55.5 -19.5t19.5 -56.5v-59h74v135h68v-128q0 -31 -17 -48.5t-49 -17.5h-78z" />
    <glyph glyph-name="uni0E3A" unicode="&#xe3a;" 
d="M-124 -212q-30 0 -45.5 15.5t-15.5 42.5v13q0 27 15.5 42.5t45.5 15.5t45.5 -15.5t15.5 -42.5v-13q0 -27 -15.5 -42.5t-45.5 -15.5z" />
    <glyph glyph-name="uni0E3F" unicode="&#xe3f;" horiz-adv-x="644" 
d="M285 -82v103h-192v656h192v103h62v-103h24q85 0 135 -46t50 -123q0 -63 -32.5 -97t-84.5 -43v-6q142 -24 142 -151q0 -81 -52 -135.5t-129 -54.5h-53v-103h-62zM176 393h110v210h-110v-210zM346 393h27q96 0 96 90v30q0 90 -96 90h-27v-210zM176 95h110v229h-110v-229z
M346 95h31q55 0 86 24.5t31 72.5v35q0 48 -31 72.5t-86 24.5h-31v-229z" />
    <glyph glyph-name="uni0E40" unicode="&#xe40;" horiz-adv-x="294" 
d="M179 0q-40 0 -62.5 23.5t-22.5 61.5v485h82v-500h103v-70h-100z" />
    <glyph glyph-name="uni0E41" unicode="&#xe41;" horiz-adv-x="549" 
d="M169 0q-40 0 -62.5 23.5t-22.5 61.5v485h82v-500h103v-70h-100zM434 0q-40 0 -62.5 23.5t-22.5 61.5v485h82v-500h103v-70h-100z" />
    <glyph glyph-name="uni0E42" unicode="&#xe42;" horiz-adv-x="313" 
d="M197 0q-40 0 -62.5 23.5t-22.5 61.5v510q0 108 -37.5 172.5t-99.5 66.5v70h364v-68h-279v-4q72 -28 103 -101t31 -199v-462h103v-70h-100z" />
    <glyph glyph-name="uni0E43" unicode="&#xe43;" horiz-adv-x="328" 
d="M205 0q-40 0 -62.5 23.5t-22.5 61.5v572q58 2 90.5 29t32.5 73v11q0 38 -21 59.5t-59 21.5q-74 0 -102 -92l-67 42q19 58 63.5 89.5t108.5 31.5q73 0 117 -41.5t44 -110.5q0 -67 -37.5 -106.5t-89.5 -50.5v-543h105v-70h-100z" />
    <glyph glyph-name="uni0E44" unicode="&#xe44;" horiz-adv-x="314" 
d="M200 0q-40 0 -62.5 23.5t-22.5 61.5v474q0 119 35.5 181.5t120.5 91.5v4h-236v68h319v-70q-73 -2 -115 -72.5t-42 -179.5v-512h103v-70h-100z" />
    <glyph glyph-name="uni0E45" unicode="&#xe45;" horiz-adv-x="469" 
d="M303 -200v599q0 57 -25.5 83.5t-78.5 26.5q-79 0 -132 -78l-55 50q26 48 75.5 74.5t113.5 26.5q88 0 136 -45.5t48 -128.5v-608h-82z" />
    <glyph glyph-name="uni0E46" unicode="&#xe46;" horiz-adv-x="580" 
d="M398 -158v549q0 64 -11 86t-43 26l-72 -80h-2l-72 80q-28 0 -45 -22t-17 -62v-53q0 -48 22 -70.5t78 -22.5h36v-73h-41q-96 0 -137.5 50t-41.5 143v4q0 87 42.5 136t115.5 49l60 -76h3l59 76q64 0 106 -36t42 -115v-589h-82z" />
    <glyph glyph-name="uni0E47" unicode="&#xe47;" 
d="M-343 797q-48 0 -48 -52q0 -49 43 -52l16 52h57q0 -21 8.5 -35.5t24.5 -14.5q29 0 29 33v23h66v-33q0 -36 -20 -54.5t-52 -18.5q-60 0 -68 79h-1l-3 -20q-8 -59 -71 -59q-44 0 -70.5 28.5t-26.5 75.5t30 75.5t80 28.5h221v-56h-215z" />
    <glyph glyph-name="uni0E48" unicode="&#xe48;" 
d="M-163 650v166h78v-166h-78z" />
    <glyph glyph-name="uni0E49" unicode="&#xe49;" 
d="M-275 650v85h-70v66h59q42 0 59.5 -17t17.5 -59v-9h167v-66h-233z" />
    <glyph glyph-name="uni0E4A" unicode="&#xe4a;" 
d="M-119 711h67v-61h-132v93q0 30 -19 35l-46 -29l-50 29q-23 -5 -23 -35q0 -17 12 -26.5t32 -9.5h36v-57h-49q-48 0 -74.5 24.5t-26.5 66.5q0 41 26 68.5t62 30.5l52 -32h1l53 32q79 -10 79 -87v-42z" />
    <glyph glyph-name="uni0E4B" unicode="&#xe4b;" 
d="M-24 772v-61h-69v-61h-68v61h-69v61h69v61h68v-61h69z" />
    <glyph glyph-name="uni0E4C" unicode="&#xe4c;" 
d="M-278 650v30q0 53 26.5 77t86.5 24h95v-66h-132v-65h-76z" />
    <glyph glyph-name="uni0E4D" unicode="&#xe4d;" 
d="M-130 647q-51 0 -76.5 23.5t-25.5 63.5v26q0 40 25.5 63.5t76.5 23.5t76.5 -23.5t25.5 -63.5v-26q0 -40 -25.5 -63.5t-76.5 -23.5zM-130 705q38 0 38 42t-38 42t-38 -42t38 -42z" />
    <glyph glyph-name="uni0E4E" unicode="&#xe4e;" 
d="M-150 840h51v-66h-67v-74h-78v-50h-77v27q0 81 77 81h14v2q0 80 80 80z" />
    <glyph glyph-name="uni0E4F" unicode="&#xe4f;" horiz-adv-x="586" 
d="M293 20q-103 0 -168 70.5t-65 179.5t65 179.5t168 70.5t168 -70.5t65 -179.5t-65 -179.5t-168 -70.5zM293 84q70 0 112.5 39t42.5 108v78q0 69 -42.5 108t-112.5 39t-112.5 -39t-42.5 -108v-78q0 -69 42.5 -108t112.5 -39zM293 150q-44 0 -71.5 25.5t-27.5 69.5v50
q0 44 27.5 69.5t71.5 25.5t71.5 -25.5t27.5 -69.5v-50q0 -44 -27.5 -69.5t-71.5 -25.5z" />
    <glyph glyph-name="uni0E50" unicode="&#xe50;" horiz-adv-x="560" 
d="M280 -12q-104 0 -168.5 74t-64.5 196t64.5 196t168.5 74t168.5 -74t64.5 -196t-64.5 -196t-168.5 -74zM280 59q67 0 107 41.5t40 120.5v74q0 79 -40 120.5t-107 41.5t-107 -41.5t-40 -120.5v-74q0 -79 40 -120.5t107 -41.5z" />
    <glyph glyph-name="uni0E51" unicode="&#xe51;" horiz-adv-x="536" 
d="M191 -34q118 83 167.5 162t49.5 172q0 157 -145 157q-66 0 -102.5 -34t-36.5 -94v-20q0 -110 102 -110h38v-71h-38q-89 0 -136.5 49.5t-47.5 141.5q0 95 62 152t162 57q104 0 164.5 -63t60.5 -176q0 -90 -52.5 -177.5t-140.5 -145.5h-107z" />
    <glyph glyph-name="uni0E52" unicode="&#xe52;" horiz-adv-x="706" 
d="M274 0q-194 0 -194 215v435h80v-445q0 -70 27 -102t86 -32h164q59 0 86 32t27 102v183q0 64 -44 64l-66 -70h-3l-67 70q-21 0 -30 -15t-9 -49v-138h95v-70h-80q-95 0 -95 95v102q0 151 134 151l52 -65h3l52 65q138 0 138 -151v-162q0 -215 -195 -215h-161z" />
    <glyph glyph-name="uni0E53" unicode="&#xe53;" horiz-adv-x="696" 
d="M161 0q-40 0 -62.5 23.5t-22.5 61.5v286q0 75 41 116t115 41q114 0 145 -88h4q22 88 115 88q120 0 120 -147v-381h-80v367q0 89 -75 89q-34 0 -54.5 -19.5t-20.5 -59.5v-247h-80v237q0 89 -75 89t-75 -89v-297h85v-70h-80z" />
    <glyph glyph-name="uni0E54" unicode="&#xe54;" horiz-adv-x="554" 
d="M275 0q-107 0 -167.5 68.5t-60.5 189.5q0 122 60.5 191t167.5 69h166v132h74v-118q0 -40 -23.5 -62.5t-61.5 -22.5h-155q-67 0 -104.5 -38.5t-37.5 -115.5v-70q0 -76 37.5 -114t104.5 -38h100v3q-44 10 -74 40t-30 81v2q0 99 107 99h83v-70h-110v-20q0 -135 105 -135h55
v-71h-236z" />
    <glyph glyph-name="uni0E55" unicode="&#xe55;" horiz-adv-x="554" 
d="M275 447q-67 0 -104.5 -38.5t-37.5 -115.5v-70q0 -76 37.5 -114t104.5 -38h100v3q-44 10 -74 40t-30 81v2q0 99 107 99h83v-70h-110v-20q0 -135 105 -135h55v-71h-236q-107 0 -167.5 68.5t-60.5 189.5q0 100 42.5 166t115.5 86q-3 14 -3 28v18q0 89 100 89t100 -89v-18
q0 -8 -2 -20h46v132h69v-118q0 -40 -23.5 -62.5t-61.5 -22.5h-155zM302 589q-38 0 -38 -42t38 -42t38 42t-38 42z" />
    <glyph glyph-name="uni0E56" unicode="&#xe56;" horiz-adv-x="559" 
d="M279 -12q-89 0 -147 46.5t-59 121.5q-1 43 21 64t67 21h83v-68h-100v-12q0 -48 37 -75t97 -27q148 0 148 162v74q0 78 -36 120t-103 42q-82 0 -124 -64h-72l-49 257h75l39 -216h3q19 43 57 68.5t90 25.5q98 0 152 -72.5t54 -197.5q0 -124 -62.5 -197t-170.5 -73z" />
    <glyph glyph-name="uni0E57" unicode="&#xe57;" horiz-adv-x="830" 
d="M670 650h80v-455q0 -106 -46.5 -150.5t-138.5 -44.5h-78v367q0 89 -62 89q-26 0 -44.5 -18t-18.5 -45v-223h-80v195q0 91 -63 91t-63 -89v-297h85v-70h-80q-40 0 -62.5 23.5t-22.5 61.5v283q0 76 37 118t103 42q103 0 131 -95h4q25 95 106 95q53 0 81.5 -39t28.5 -110
v-309q58 0 80.5 25.5t22.5 88.5v466z" />
    <glyph glyph-name="uni0E58" unicode="&#xe58;" horiz-adv-x="606" 
d="M213 -8q-77 0 -121.5 71t-44.5 189q0 123 62.5 194.5t170.5 71.5h185v132h74v-118q0 -40 -23.5 -62.5t-61.5 -22.5h-174q-71 0 -109 -38.5t-38 -115.5v-82q0 -75 28.5 -115.5t65.5 -40.5h3l50 164h71q0 -161 85 -161q63 0 63 86v67h-73v70h50q50 0 75.5 -30t25.5 -102v-4
q0 -72 -32.5 -112.5t-90.5 -40.5t-92.5 37t-36.5 102h-4l-13 -51q-12 -49 -32 -68.5t-63 -19.5z" />
    <glyph glyph-name="uni0E59" unicode="&#xe59;" horiz-adv-x="651" 
d="M569 650h78v-195q0 -75 -35.5 -110t-92.5 -35h-40l-33 79q-15 36 -28.5 51.5t-34.5 15.5q-29 0 -44 -31l160 -425h-76l-145 382q-15 39 -29.5 56.5t-38.5 17.5q-54 0 -54 -89v-297h85v-70h-80q-40 0 -62.5 23.5t-22.5 61.5v283q0 160 131 160q86 0 123 -82h5q17 82 77 82
q29 0 48.5 -19t40.5 -69l25 -60q19 -1 31 19.5t12 54.5v196z" />
    <glyph glyph-name="uni0E5A" unicode="&#xe5a;" horiz-adv-x="756" 
d="M585 570h82v-570h-82v352h-4q-8 -37 -42 -75.5t-87 -50.5v-226h-82v342h-4q-9 -45 -54.5 -87.5t-113.5 -42.5q-75 0 -120.5 48.5t-45.5 127.5q0 83 52 132.5t138 49.5h61v-73h-56q-51 0 -81 -29t-30 -79q0 -47 29.5 -75.5t81.5 -28.5q58 0 100.5 41.5t42.5 106.5v137h82
v-275q55 4 94 45t39 103v127z" />
    <glyph glyph-name="uni0E5B" unicode="&#xe5b;" horiz-adv-x="925" 
d="M288 104q-77 0 -123 45t-46 120q0 78 47 124.5t123 46.5h55v-63h-42q-52 0 -80.5 -27.5t-28.5 -76.5q0 -47 27.5 -75t70.5 -28q55 0 90.5 50.5t66.5 179.5h82l57 -182h2l53 182h70l69 -165h81v-60h-55q-39 0 -59.5 14t-34.5 48l-33 80h-2l-48 -177h-86l-50 177h-2
q-29 -116 -79 -164.5t-125 -48.5z" />
    <glyph glyph-name="Wgrave" unicode="&#x1e80;" horiz-adv-x="891" 
d="M439 755l-106 159l73 35l85 -170zM190 0l-170 698h89l75 -336l58 -261h2l65 261l88 336h96l85 -336l65 -260h3l60 260l79 336h86l-179 -698h-93l-91 348l-64 256h-2l-66 -256l-93 -348h-93z" />
    <glyph glyph-name="wgrave" unicode="&#x1e81;" horiz-adv-x="768" 
d="M377 585l-106 159l73 35l85 -170zM169 0l-138 516h78l55 -223l55 -226h2l63 226l65 223h71l67 -223l64 -226h2l53 226l56 223h75l-137 -516h-99l-72 248l-45 157h-2l-44 -157l-72 -248h-97z" />
    <glyph glyph-name="Wacute" unicode="&#x1e82;" horiz-adv-x="891" 
d="M453 755l-52 24l85 170l73 -35zM190 0l-170 698h89l75 -336l58 -261h2l65 261l88 336h96l85 -336l65 -260h3l60 260l79 336h86l-179 -698h-93l-91 348l-64 256h-2l-66 -256l-93 -348h-93z" />
    <glyph glyph-name="wacute" unicode="&#x1e83;" horiz-adv-x="768" 
d="M391 585l-52 24l85 170l73 -35zM169 0l-138 516h78l55 -223l55 -226h2l63 226l65 223h71l67 -223l64 -226h2l53 226l56 223h75l-137 -516h-99l-72 248l-45 157h-2l-44 -157l-72 -248h-97z" />
    <glyph glyph-name="Wdieresis" unicode="&#x1e84;" horiz-adv-x="891" 
d="M353 788q-50 0 -50 47v12q0 47 50 47t50 -47v-12q0 -47 -50 -47zM539 788q-50 0 -50 47v12q0 47 50 47t50 -47v-12q0 -47 -50 -47zM190 0l-170 698h89l75 -336l58 -261h2l65 261l88 336h96l85 -336l65 -260h3l60 260l79 336h86l-179 -698h-93l-91 348l-64 256h-2
l-66 -256l-93 -348h-93z" />
    <glyph glyph-name="wdieresis" unicode="&#x1e85;" horiz-adv-x="768" 
d="M291 618q-49 0 -49 46v11q0 46 49 46t49 -46v-11q0 -46 -49 -46zM477 618q-49 0 -49 46v11q0 46 49 46t49 -46v-11q0 -46 -49 -46zM169 0l-138 516h78l55 -223l55 -226h2l63 226l65 223h71l67 -223l64 -226h2l53 226l56 223h75l-137 -516h-99l-72 248l-45 157h-2
l-44 -157l-72 -248h-97z" />
    <glyph glyph-name="uni1E9E" unicode="&#x1e9e;" horiz-adv-x="700" 
d="M428 -12q-132 0 -199 93l58 49q54 -71 141 -71q62 0 96 33t34 89v30q0 56 -34 88.5t-96 32.5h-94v77l185 215h-342v-624h-84v698h511v-82l-181 -211v-4q105 -2 165 -55.5t60 -149.5q0 -97 -59.5 -152.5t-160.5 -55.5z" />
    <glyph glyph-name="uni1EA0" unicode="&#x1ea0;" horiz-adv-x="641" 
d="M23 0l244 698h107l244 -698h-88l-70 206h-282l-70 -206h-85zM198 280h241l-118 340h-5zM321 -169q-51 0 -51 46v11q0 46 51 46t51 -46v-11q0 -46 -51 -46z" />
    <glyph glyph-name="uni1EA1" unicode="&#x1ea1;" horiz-adv-x="534" 
d="M217 -12q-81 0 -127 42t-46 114q0 151 220 151h102v51q0 113 -122 113q-85 0 -131 -77l-48 45q23 44 70 72.5t113 28.5q93 0 145.5 -46t52.5 -128v-284h59v-70h-45q-76 0 -88 78l-1 6h-5q-34 -96 -149 -96zM230 56q59 0 97.5 27t38.5 67v85h-106q-132 0 -132 -78v-21
q0 -38 27.5 -59t74.5 -21zM245 -169q-51 0 -51 46v11q0 46 51 46t51 -46v-11q0 -46 -51 -46z" />
    <glyph glyph-name="uni1EA2" unicode="&#x1ea2;" horiz-adv-x="641" 
d="M343 747l-46 23l58 104h-118v61h109q70 0 70 -55q0 -41 -49 -103zM23 0l244 698h107l244 -698h-88l-70 206h-282l-70 -206h-85zM198 280h241l-118 340h-5z" />
    <glyph glyph-name="uni1EA3" unicode="&#x1ea3;" horiz-adv-x="534" 
d="M274 589l-46 23l58 104h-118v61h109q70 0 70 -55q0 -41 -49 -103zM217 -12q-81 0 -127 42t-46 114q0 151 220 151h102v51q0 113 -122 113q-85 0 -131 -77l-48 45q23 44 70 72.5t113 28.5q93 0 145.5 -46t52.5 -128v-284h59v-70h-45q-76 0 -88 78l-1 6h-5
q-34 -96 -149 -96zM230 56q59 0 97.5 27t38.5 67v85h-106q-132 0 -132 -78v-21q0 -38 27.5 -59t74.5 -21z" />
    <glyph glyph-name="uni1EA4" unicode="&#x1ea4;" horiz-adv-x="641" 
d="M475 868l-49 23l85 170l70 -34zM202 751l-41 30l110 134h100l110 -134l-41 -30l-119 112zM23 0l244 698h107l244 -698h-88l-70 206h-282l-70 -206h-85zM198 280h241l-118 340h-5z" />
    <glyph glyph-name="uni1EA5" unicode="&#x1ea5;" horiz-adv-x="534" 
d="M406 698l-49 23l85 170l70 -34zM133 581l-41 30l110 134h100l110 -134l-41 -30l-119 112zM217 -12q-81 0 -127 42t-46 114q0 151 220 151h102v51q0 113 -122 113q-85 0 -131 -77l-48 45q23 44 70 72.5t113 28.5q93 0 145.5 -46t52.5 -128v-284h59v-70h-45q-76 0 -88 78
l-1 6h-5q-34 -96 -149 -96zM230 56q59 0 97.5 27t38.5 67v85h-106q-132 0 -132 -78v-21q0 -38 27.5 -59t74.5 -21z" />
    <glyph glyph-name="uni1EA6" unicode="&#x1ea6;" horiz-adv-x="641" 
d="M167 868l-106 159l70 34l85 -170zM202 751l-41 30l110 134h100l110 -134l-41 -30l-119 112zM23 0l244 698h107l244 -698h-88l-70 206h-282l-70 -206h-85zM198 280h241l-118 340h-5z" />
    <glyph glyph-name="uni1EA7" unicode="&#x1ea7;" horiz-adv-x="534" 
d="M98 698l-106 159l70 34l85 -170zM133 581l-41 30l110 134h100l110 -134l-41 -30l-119 112zM217 -12q-81 0 -127 42t-46 114q0 151 220 151h102v51q0 113 -122 113q-85 0 -131 -77l-48 45q23 44 70 72.5t113 28.5q93 0 145.5 -46t52.5 -128v-284h59v-70h-45q-76 0 -88 78
l-1 6h-5q-34 -96 -149 -96zM230 56q59 0 97.5 27t38.5 67v85h-106q-132 0 -132 -78v-21q0 -38 27.5 -59t74.5 -21z" />
    <glyph glyph-name="uni1EA8" unicode="&#x1ea8;" horiz-adv-x="641" 
d="M477 862l-44 23l60 107h-122v58h109q70 0 70 -55q0 -41 -49 -103zM202 751l-41 30l110 134h100l110 -134l-41 -30l-119 112zM23 0l244 698h107l244 -698h-88l-70 206h-282l-70 -206h-85zM198 280h241l-118 340h-5z" />
    <glyph glyph-name="uni1EA9" unicode="&#x1ea9;" horiz-adv-x="534" 
d="M408 693l-44 23l60 107h-122v58h109q70 0 70 -55q0 -41 -49 -103zM133 582l-41 30l110 134h100l110 -134l-41 -30l-119 112zM217 -12q-81 0 -127 42t-46 114q0 151 220 151h102v51q0 113 -122 113q-85 0 -131 -77l-48 45q23 44 70 72.5t113 28.5q93 0 145.5 -46
t52.5 -128v-284h59v-70h-45q-76 0 -88 78l-1 6h-5q-34 -96 -149 -96zM230 56q59 0 97.5 27t38.5 67v85h-106q-132 0 -132 -78v-21q0 -38 27.5 -59t74.5 -21z" />
    <glyph glyph-name="uni1EAA" unicode="&#x1eaa;" horiz-adv-x="641" 
d="M393 942q-30 0 -80 26q-45 24 -70 24q-26 0 -58 -27l-31 36q35 53 95 53q30 0 80 -26q45 -24 70 -24q26 0 58 27l31 -36q-35 -53 -95 -53zM202 751l-41 30l110 134h100l110 -134l-41 -30l-119 112zM23 0l244 698h107l244 -698h-88l-70 206h-282l-70 -206h-85zM198 280
h241l-118 340h-5z" />
    <glyph glyph-name="uni1EAB" unicode="&#x1eab;" horiz-adv-x="534" 
d="M324 773q-30 0 -80 26q-45 24 -70 24q-26 0 -58 -27l-31 36q35 53 95 53q30 0 80 -26q45 -24 70 -24q26 0 58 27l31 -36q-35 -53 -95 -53zM133 582l-41 30l110 134h100l110 -134l-41 -30l-119 112zM217 -12q-81 0 -127 42t-46 114q0 151 220 151h102v51q0 113 -122 113
q-85 0 -131 -77l-48 45q23 44 70 72.5t113 28.5q93 0 145.5 -46t52.5 -128v-284h59v-70h-45q-76 0 -88 78l-1 6h-5q-34 -96 -149 -96zM230 56q59 0 97.5 27t38.5 67v85h-106q-132 0 -132 -78v-21q0 -38 27.5 -59t74.5 -21z" />
    <glyph glyph-name="uni1EAC" unicode="&#x1eac;" horiz-adv-x="641" 
d="M204 761l-44 31l111 143h100l111 -143l-44 -31l-117 117zM23 0l244 698h107l244 -698h-88l-70 206h-282l-70 -206h-85zM198 280h241l-118 340h-5zM321 -169q-51 0 -51 46v11q0 46 51 46t51 -46v-11q0 -46 -51 -46z" />
    <glyph glyph-name="uni1EAD" unicode="&#x1ead;" horiz-adv-x="534" 
d="M135 591l-44 31l111 143h100l111 -143l-44 -31l-117 117zM217 -12q-81 0 -127 42t-46 114q0 151 220 151h102v51q0 113 -122 113q-85 0 -131 -77l-48 45q23 44 70 72.5t113 28.5q93 0 145.5 -46t52.5 -128v-284h59v-70h-45q-76 0 -88 78l-1 6h-5q-34 -96 -149 -96z
M230 56q59 0 97.5 27t38.5 67v85h-106q-132 0 -132 -78v-21q0 -38 27.5 -59t74.5 -21zM245 -169q-51 0 -51 46v11q0 46 51 46t51 -46v-11q0 -46 -51 -46z" />
    <glyph glyph-name="uni1EAE" unicode="&#x1eae;" horiz-adv-x="641" 
d="M325 868l-49 23l85 170l70 -34zM321 756q-38 0 -65.5 11t-44.5 32t-25 38t-17 44l45 22l21 -38q14 -25 32.5 -38t53.5 -13t53.5 13t32.5 38l21 38l45 -22q-9 -27 -17 -44t-25 -38t-44.5 -32t-65.5 -11zM23 0l244 698h107l244 -698h-88l-70 206h-282l-70 -206h-85z
M198 280h241l-118 340h-5z" />
    <glyph glyph-name="uni1EAF" unicode="&#x1eaf;" horiz-adv-x="534" 
d="M256 698l-49 23l85 170l70 -34zM252 586q-38 0 -65.5 11t-44.5 32t-25 38t-17 44l45 22l21 -38q14 -25 32.5 -38t53.5 -13t53.5 13t32.5 38l21 38l45 -22q-9 -27 -17 -44t-25 -38t-44.5 -32t-65.5 -11zM217 -12q-81 0 -127 42t-46 114q0 151 220 151h102v51
q0 113 -122 113q-85 0 -131 -77l-48 45q23 44 70 72.5t113 28.5q93 0 145.5 -46t52.5 -128v-284h59v-70h-45q-76 0 -88 78l-1 6h-5q-34 -96 -149 -96zM230 56q59 0 97.5 27t38.5 67v85h-106q-132 0 -132 -78v-21q0 -38 27.5 -59t74.5 -21z" />
    <glyph glyph-name="uni1EB0" unicode="&#x1eb0;" horiz-adv-x="641" 
d="M317 868l-106 159l70 34l85 -170zM321 756q-38 0 -65.5 11t-44.5 32t-25 38t-17 44l45 22l21 -38q14 -25 32.5 -38t53.5 -13t53.5 13t32.5 38l21 38l45 -22q-9 -27 -17 -44t-25 -38t-44.5 -32t-65.5 -11zM23 0l244 698h107l244 -698h-88l-70 206h-282l-70 -206h-85z
M198 280h241l-118 340h-5z" />
    <glyph glyph-name="uni1EB1" unicode="&#x1eb1;" horiz-adv-x="534" 
d="M248 698l-106 159l70 34l85 -170zM252 586q-38 0 -65.5 11t-44.5 32t-25 38t-17 44l45 22l21 -38q14 -25 32.5 -38t53.5 -13t53.5 13t32.5 38l21 38l45 -22q-9 -27 -17 -44t-25 -38t-44.5 -32t-65.5 -11zM217 -12q-81 0 -127 42t-46 114q0 151 220 151h102v51
q0 113 -122 113q-85 0 -131 -77l-48 45q23 44 70 72.5t113 28.5q93 0 145.5 -46t52.5 -128v-284h59v-70h-45q-76 0 -88 78l-1 6h-5q-34 -96 -149 -96zM230 56q59 0 97.5 27t38.5 67v85h-106q-132 0 -132 -78v-21q0 -38 27.5 -59t74.5 -21z" />
    <glyph glyph-name="uni1EB2" unicode="&#x1eb2;" horiz-adv-x="641" 
d="M323 862l-44 23l60 107h-107v58h94q70 0 70 -55q0 -41 -49 -103zM321 756q-38 0 -65.5 11t-44.5 32t-25 38t-17 44l45 22l21 -38q14 -25 32.5 -38t53.5 -13t53.5 13t32.5 38l21 38l45 -22q-9 -27 -17 -44t-25 -38t-44.5 -32t-65.5 -11zM23 0l244 698h107l244 -698h-88
l-70 206h-282l-70 -206h-85zM198 280h241l-118 340h-5z" />
    <glyph glyph-name="uni1EB3" unicode="&#x1eb3;" horiz-adv-x="534" 
d="M254 691l-44 23l60 107h-107v58h94q70 0 70 -55q0 -41 -49 -103zM252 585q-38 0 -65.5 11t-44.5 32t-25 38t-17 44l45 22l21 -38q14 -25 32.5 -38t53.5 -13t53.5 13t32.5 38l21 38l45 -22q-9 -27 -17 -44t-25 -38t-44.5 -32t-65.5 -11zM217 -12q-81 0 -127 42t-46 114
q0 151 220 151h102v51q0 113 -122 113q-85 0 -131 -77l-48 45q23 44 70 72.5t113 28.5q93 0 145.5 -46t52.5 -128v-284h59v-70h-45q-76 0 -88 78l-1 6h-5q-34 -96 -149 -96zM230 56q59 0 97.5 27t38.5 67v85h-106q-132 0 -132 -78v-21q0 -38 27.5 -59t74.5 -21z" />
    <glyph glyph-name="uni1EB4" unicode="&#x1eb4;" horiz-adv-x="641" 
d="M393 942q-30 0 -80 26q-45 24 -70 24q-26 0 -58 -27l-31 36q35 53 95 53q30 0 80 -26q45 -24 70 -24q26 0 58 27l31 -36q-35 -53 -95 -53zM321 756q-38 0 -65.5 11t-44.5 32t-25 38t-17 44l45 22l21 -38q14 -25 32.5 -38t53.5 -13t53.5 13t32.5 38l21 38l45 -22
q-9 -27 -17 -44t-25 -38t-44.5 -32t-65.5 -11zM23 0l244 698h107l244 -698h-88l-70 206h-282l-70 -206h-85zM198 280h241l-118 340h-5z" />
    <glyph glyph-name="uni1EB5" unicode="&#x1eb5;" horiz-adv-x="534" 
d="M324 771q-30 0 -80 26q-45 24 -70 24q-26 0 -58 -27l-31 36q35 53 95 53q30 0 80 -26q45 -24 70 -24q26 0 58 27l31 -36q-35 -53 -95 -53zM252 585q-38 0 -65.5 11t-44.5 32t-25 38t-17 44l45 22l21 -38q14 -25 32.5 -38t53.5 -13t53.5 13t32.5 38l21 38l45 -22
q-9 -27 -17 -44t-25 -38t-44.5 -32t-65.5 -11zM217 -12q-81 0 -127 42t-46 114q0 151 220 151h102v51q0 113 -122 113q-85 0 -131 -77l-48 45q23 44 70 72.5t113 28.5q93 0 145.5 -46t52.5 -128v-284h59v-70h-45q-76 0 -88 78l-1 6h-5q-34 -96 -149 -96zM230 56
q59 0 97.5 27t38.5 67v85h-106q-132 0 -132 -78v-21q0 -38 27.5 -59t74.5 -21z" />
    <glyph glyph-name="uni1EB6" unicode="&#x1eb6;" horiz-adv-x="641" 
d="M321 766q-38 0 -65.5 11t-44.5 32t-25 38t-17 44l45 22l21 -33q16 -26 33.5 -38.5t52.5 -12.5t52.5 12.5t33.5 38.5l21 33l45 -22q-9 -27 -17 -44t-25 -38t-44.5 -32t-65.5 -11zM23 0l244 698h107l244 -698h-88l-70 206h-282l-70 -206h-85zM198 280h241l-118 340h-5z
M321 -169q-51 0 -51 46v11q0 46 51 46t51 -46v-11q0 -46 -51 -46z" />
    <glyph glyph-name="uni1EB7" unicode="&#x1eb7;" horiz-adv-x="534" 
d="M252 596q-38 0 -65.5 11t-44.5 32t-25 38t-17 44l45 22l21 -33q16 -26 33.5 -38.5t52.5 -12.5t52.5 12.5t33.5 38.5l21 33l45 -22q-9 -27 -17 -44t-25 -38t-44.5 -32t-65.5 -11zM217 -12q-81 0 -127 42t-46 114q0 151 220 151h102v51q0 113 -122 113q-85 0 -131 -77
l-48 45q23 44 70 72.5t113 28.5q93 0 145.5 -46t52.5 -128v-284h59v-70h-45q-76 0 -88 78l-1 6h-5q-34 -96 -149 -96zM230 56q59 0 97.5 27t38.5 67v85h-106q-132 0 -132 -78v-21q0 -38 27.5 -59t74.5 -21zM245 -169q-51 0 -51 46v11q0 46 51 46t51 -46v-11q0 -46 -51 -46z
" />
    <glyph glyph-name="uni1EB8" unicode="&#x1eb8;" horiz-adv-x="583" 
d="M93 0v698h426v-74h-342v-234h322v-74h-322v-242h342v-74h-426zM304 -169q-51 0 -51 46v11q0 46 51 46t51 -46v-11q0 -46 -51 -46z" />
    <glyph glyph-name="uni1EB9" unicode="&#x1eb9;" horiz-adv-x="549" 
d="M279 -12q-105 0 -168.5 73.5t-63.5 196.5t63.5 196.5t168.5 73.5q102 0 162.5 -70.5t60.5 -181.5v-38h-371v-24q0 -68 41.5 -112t111.5 -44q100 0 142 89l57 -41q-25 -54 -79 -86t-125 -32zM131 298h285v11q0 68 -37.5 110t-99.5 42q-65 0 -106.5 -44t-41.5 -112v-7z
M283 -169q-51 0 -51 46v11q0 46 51 46t51 -46v-11q0 -46 -51 -46z" />
    <glyph glyph-name="uni1EBA" unicode="&#x1eba;" horiz-adv-x="583" 
d="M326 747l-46 23l58 104h-118v61h109q70 0 70 -55q0 -41 -49 -103zM93 0v698h426v-74h-342v-234h322v-74h-322v-242h342v-74h-426z" />
    <glyph glyph-name="uni1EBB" unicode="&#x1ebb;" horiz-adv-x="549" 
d="M301 589l-46 23l58 104h-118v61h109q70 0 70 -55q0 -41 -49 -103zM279 -12q-105 0 -168.5 73.5t-63.5 196.5t63.5 196.5t168.5 73.5q102 0 162.5 -70.5t60.5 -181.5v-38h-371v-24q0 -68 41.5 -112t111.5 -44q100 0 142 89l57 -41q-25 -54 -79 -86t-125 -32zM131 298h285
v11q0 68 -37.5 110t-99.5 42q-65 0 -106.5 -44t-41.5 -112v-7z" />
    <glyph glyph-name="uni1EBC" unicode="&#x1ebc;" horiz-adv-x="583" 
d="M377 782q-30 0 -80 26q-45 24 -70 24q-26 0 -58 -27l-33 40q35 53 95 53q30 0 80 -26q45 -24 70 -24q26 0 58 27l33 -40q-35 -53 -95 -53zM93 0v698h426v-74h-342v-234h322v-74h-322v-242h342v-74h-426z" />
    <glyph glyph-name="uni1EBD" unicode="&#x1ebd;" horiz-adv-x="549" 
d="M352 612q-30 0 -80 26q-45 24 -70 24q-26 0 -58 -27l-33 40q35 53 95 53q30 0 80 -26q45 -24 70 -24q26 0 58 27l33 -40q-35 -53 -95 -53zM279 -12q-105 0 -168.5 73.5t-63.5 196.5t63.5 196.5t168.5 73.5q102 0 162.5 -70.5t60.5 -181.5v-38h-371v-24q0 -68 41.5 -112
t111.5 -44q100 0 142 89l57 -41q-25 -54 -79 -86t-125 -32zM131 298h285v11q0 68 -37.5 110t-99.5 42q-65 0 -106.5 -44t-41.5 -112v-7z" />
    <glyph glyph-name="uni1EBE" unicode="&#x1ebe;" horiz-adv-x="583" 
d="M458 868l-49 23l85 170l70 -34zM185 751l-41 30l110 134h100l110 -134l-41 -30l-119 112zM93 0v698h426v-74h-342v-234h322v-74h-322v-242h342v-74h-426z" />
    <glyph glyph-name="uni1EBF" unicode="&#x1ebf;" horiz-adv-x="549" 
d="M433 699l-49 23l85 170l70 -34zM160 582l-41 30l110 134h100l110 -134l-41 -30l-119 112zM279 -12q-105 0 -168.5 73.5t-63.5 196.5t63.5 196.5t168.5 73.5q102 0 162.5 -70.5t60.5 -181.5v-38h-371v-24q0 -68 41.5 -112t111.5 -44q100 0 142 89l57 -41q-25 -54 -79 -86
t-125 -32zM131 298h285v11q0 68 -37.5 110t-99.5 42q-65 0 -106.5 -44t-41.5 -112v-7z" />
    <glyph glyph-name="uni1EC0" unicode="&#x1ec0;" horiz-adv-x="583" 
d="M150 868l-106 159l70 34l85 -170zM185 751l-41 30l110 134h100l110 -134l-41 -30l-119 112zM93 0v698h426v-74h-342v-234h322v-74h-322v-242h342v-74h-426z" />
    <glyph glyph-name="uni1EC1" unicode="&#x1ec1;" horiz-adv-x="549" 
d="M125 698l-106 159l70 34l85 -170zM160 581l-41 30l110 134h100l110 -134l-41 -30l-119 112zM279 -12q-105 0 -168.5 73.5t-63.5 196.5t63.5 196.5t168.5 73.5q102 0 162.5 -70.5t60.5 -181.5v-38h-371v-24q0 -68 41.5 -112t111.5 -44q100 0 142 89l57 -41
q-25 -54 -79 -86t-125 -32zM131 298h285v11q0 68 -37.5 110t-99.5 42q-65 0 -106.5 -44t-41.5 -112v-7z" />
    <glyph glyph-name="uni1EC2" unicode="&#x1ec2;" horiz-adv-x="583" 
d="M460 862l-44 23l60 107h-122v58h109q70 0 70 -55q0 -41 -49 -103zM185 751l-41 30l110 134h100l110 -134l-41 -30l-119 112zM93 0v698h426v-74h-342v-234h322v-74h-322v-242h342v-74h-426z" />
    <glyph glyph-name="uni1EC3" unicode="&#x1ec3;" horiz-adv-x="549" 
d="M435 692l-44 23l60 107h-122v58h109q70 0 70 -55q0 -41 -49 -103zM160 581l-41 30l110 134h100l110 -134l-41 -30l-119 112zM279 -12q-105 0 -168.5 73.5t-63.5 196.5t63.5 196.5t168.5 73.5q102 0 162.5 -70.5t60.5 -181.5v-38h-371v-24q0 -68 41.5 -112t111.5 -44
q100 0 142 89l57 -41q-25 -54 -79 -86t-125 -32zM131 298h285v11q0 68 -37.5 110t-99.5 42q-65 0 -106.5 -44t-41.5 -112v-7z" />
    <glyph glyph-name="uni1EC4" unicode="&#x1ec4;" horiz-adv-x="583" 
d="M376 942q-30 0 -80 26q-45 24 -70 24q-26 0 -58 -27l-31 36q35 53 95 53q30 0 80 -26q45 -24 70 -24q26 0 58 27l31 -36q-35 -53 -95 -53zM185 751l-41 30l110 134h100l110 -134l-41 -30l-119 112zM93 0v698h426v-74h-342v-234h322v-74h-322v-242h342v-74h-426z" />
    <glyph glyph-name="uni1EC5" unicode="&#x1ec5;" horiz-adv-x="549" 
d="M351 772q-30 0 -80 26q-45 24 -70 24q-26 0 -58 -27l-31 36q35 53 95 53q30 0 80 -26q45 -24 70 -24q26 0 58 27l31 -36q-35 -53 -95 -53zM160 581l-41 30l110 134h100l110 -134l-41 -30l-119 112zM279 -12q-105 0 -168.5 73.5t-63.5 196.5t63.5 196.5t168.5 73.5
q102 0 162.5 -70.5t60.5 -181.5v-38h-371v-24q0 -68 41.5 -112t111.5 -44q100 0 142 89l57 -41q-25 -54 -79 -86t-125 -32zM131 298h285v11q0 68 -37.5 110t-99.5 42q-65 0 -106.5 -44t-41.5 -112v-7z" />
    <glyph glyph-name="uni1EC6" unicode="&#x1ec6;" horiz-adv-x="583" 
d="M187 761l-44 31l111 143h100l111 -143l-44 -31l-117 117zM93 0v698h426v-74h-342v-234h322v-74h-322v-242h342v-74h-426zM304 -169q-51 0 -51 46v11q0 46 51 46t51 -46v-11q0 -46 -51 -46z" />
    <glyph glyph-name="uni1EC7" unicode="&#x1ec7;" horiz-adv-x="549" 
d="M162 591l-44 31l111 143h100l111 -143l-44 -31l-117 117zM279 -12q-105 0 -168.5 73.5t-63.5 196.5t63.5 196.5t168.5 73.5q102 0 162.5 -70.5t60.5 -181.5v-38h-371v-24q0 -68 41.5 -112t111.5 -44q100 0 142 89l57 -41q-25 -54 -79 -86t-125 -32zM131 298h285v11
q0 68 -37.5 110t-99.5 42q-65 0 -106.5 -44t-41.5 -112v-7zM283 -169q-51 0 -51 46v11q0 46 51 46t51 -46v-11q0 -46 -51 -46z" />
    </font>
</defs>
</svg>
